<svg xmlns="http://www.w3.org/2000/svg" fill-rule="evenodd" viewBox="0 0 100 100">
    <path d="M69.438 45.978a28.255 28.255 0 0 0-4.698-3.783l8.67-34.722a1.501 1.501 0 0 0-1.455-1.864H27.277a1.5 1.5 0 0 0-1.455 1.864l8.673 34.745c-7.758 4.991-12.911 13.692-12.911 23.58 0 15.459 12.578 28.035 28.037 28.035 15.453 0 28.024-12.576 28.024-28.035 0-7.488-2.916-14.527-8.207-19.82zM29.197 8.61h40.837l-8.003 32.05a27.898 27.898 0 0 0-12.409-2.889h-.002a27.87 27.87 0 0 0-12.418 2.908L29.197 8.61zM49.62 90.833c-13.806 0-25.037-11.23-25.037-25.035 0-13.8 11.231-25.027 25.037-25.027h.002c4.454 0 8.728 1.162 12.483 3.331.097.074.206.133.321.182a25.15 25.15 0 0 1 4.888 3.815c4.727 4.726 7.329 11.012 7.329 17.699.002 13.805-11.224 25.035-25.023 25.035z"/>
    <path d="m63.956 59.135-8.376-1.216-3.744-7.591a2.465 2.465 0 0 0-2.221-1.38h-.008a2.459 2.459 0 0 0-2.213 1.388l-3.743 7.583-8.37 1.215a2.458 2.458 0 0 0-2.005 1.685 2.455 2.455 0 0 0 .627 2.536l6.06 5.912-1.436 8.375a2.463 2.463 0 0 0 .968 2.41 2.469 2.469 0 0 0 2.592.219l7.704-3.903 7.308 3.843c.84.446 1.841.377 2.612-.181s1.151-1.487.991-2.427l-1.432-8.338 6.06-5.912c.681-.663.92-1.637.625-2.54a2.459 2.459 0 0 0-1.999-1.678zM56.61 67.67a1.502 1.502 0 0 0-.431 1.327l1.386 8.071-7.064-3.715a1.496 1.496 0 0 0-1.376-.011l-7.466 3.783 1.394-8.128a1.501 1.501 0 0 0-.431-1.327l-5.862-5.719 8.103-1.177a1.502 1.502 0 0 0 1.13-.82l3.625-7.344 3.622 7.343c.219.442.642.749 1.13.82l8.104 1.177-5.864 5.72z"/>
</svg>
