<svg xmlns="http://www.w3.org/2000/svg" fill-rule="evenodd" viewBox="0 0 100 100">
    <path d="m65.503 73.896-2-.003H63.5a1.5 1.5 0 0 0-.003 3l2 .003h.003a1.5 1.5 0 0 0 .003-3zm7 0-2-.003H70.5a1.5 1.5 0 0 0-.003 3l2 .003h.003a1.5 1.5 0 0 0 .003-3zm7 0-2-.003H77.5a1.5 1.5 0 0 0-.003 3l2 .003h.003a1.5 1.5 0 0 0 .003-3zm-14 7-2-.003H63.5a1.5 1.5 0 0 0-.003 3l2 .003h.003a1.5 1.5 0 0 0 .003-3zm7 0-2-.003H70.5a1.5 1.5 0 0 0-.003 3l2 .003h.003a1.5 1.5 0 0 0 .003-3zm7 0-2-.003H77.5a1.5 1.5 0 0 0-.003 3l2 .003h.003a1.5 1.5 0 0 0 .003-3z"/>
    <path d="M88.563 56.382a1.501 1.501 0 0 0-1.061-.441l-31.941-.048h-.002a1.5 1.5 0 0 0-1.5 1.498L54 94.343a1.5 1.5 0 0 0 1.499 1.503l31.94.048h.002a1.5 1.5 0 0 0 1.5-1.498l.06-36.952c0-.398-.158-.78-.438-1.062zm-2.565 2.557-.011 6.954H57.046l.011-6.998 28.941.044zM57.002 92.848l.039-23.955h28.941l-.039 23.998-28.941-.043zm-1.724-46.554a1.5 1.5 0 0 0-.697-2.003 29.475 29.475 0 0 0-12.938-2.956c-16.48 0-29.889 13.484-29.889 30.058a1.5 1.5 0 0 0 1.5 1.5h31.245a1.5 1.5 0 1 0 0-3H14.795c.776-14.224 12.521-25.558 26.848-25.558 4.074 0 7.987.894 11.631 2.656a1.5 1.5 0 0 0 2.004-.697zm-13.037-8.382c9.657 0 17.514-7.855 17.514-17.51 0-9.654-7.856-17.509-17.514-17.509-9.652 0-17.506 7.854-17.506 17.509 0 9.655 7.854 17.51 17.506 17.51zm0-32.019c8.003 0 14.514 6.509 14.514 14.509 0 8.001-6.511 14.51-14.514 14.51-7.999 0-14.506-6.509-14.506-14.51 0-8 6.507-14.509 14.506-14.509z"/>
</svg>
