<svg xmlns="http://www.w3.org/2000/svg" fill-rule="evenodd" viewBox="0 0 100 100">
    <path d="M55.693 49.974a1.501 1.501 0 0 0-2.019.652L43.625 70.267a1.5 1.5 0 0 0 2.67 1.368l10.048-19.641a1.498 1.498 0 0 0-.65-2.02zm10.515-.75a1.5 1.5 0 1 0-2.121 2.121l9.583 9.58-9.583 9.58a1.5 1.5 0 1 0 2.122 2.121l10.645-10.641a1.5 1.5 0 0 0 0-2.122L66.208 49.224zm-30.297.001a1.5 1.5 0 0 0-2.121 0l-10.643 10.64a1.5 1.5 0 0 0 0 2.122l10.643 10.64c.293.293.677.439 1.061.439s.768-.146 1.061-.439a1.5 1.5 0 0 0 0-2.121l-9.581-9.58 9.581-9.58a1.5 1.5 0 0 0-.001-2.121z"/>
    <path d="M95.874 8.414H4.126a1.5 1.5 0 0 0-1.5 1.5v80.173a1.5 1.5 0 0 0 1.5 1.5h91.748a1.5 1.5 0 0 0 1.5-1.5V9.914a1.5 1.5 0 0 0-1.5-1.5zm-1.5 3v18.862H5.626V11.414h88.748zM5.626 88.587V33.276h88.748v55.311H5.626z"/>
    <path d="M13.562 21.851h6.89a1.5 1.5 0 1 0 0-3h-6.89a1.5 1.5 0 1 0 0 3zm14.764 0h6.89a1.5 1.5 0 1 0 0-3h-6.89a1.5 1.5 0 1 0 0 3z"/>
</svg>
