<?xml version="1.0" encoding="UTF-8"?> <svg xmlns="http://www.w3.org/2000/svg" id="Capa_1" data-name="Capa 1" viewBox="0 0 43.26 28.9"> <defs> <style>.cls-1{fill:#053857;}</style> </defs> <title>111</title> <path class="cls-1" d="M20.8,4.69c.8,0,1.59,0,2.39,0A3.76,3.76,0,0,1,27.1,8.25a.58.58,0,0,0,.43.58A3.85,3.85,0,0,1,29.9,13.9a11.16,11.16,0,0,1-1.49,3.39A5.59,5.59,0,0,1,24,19.48c-1.47,0-1.27-.2-1.59,1.29-.11.52-.22,1-.35,1.55a2.3,2.3,0,0,1-2.12,1.87,8,8,0,0,1-2-.05,2.34,2.34,0,0,1-1.81-2.82c.15-.93.15-.93-.77-1a2.42,2.42,0,0,1-2.22-3.12q1.08-5,2.12-9.93a3,3,0,0,1,3.11-2.56Zm0,2.11V6.73c-.72,0-1.45,0-2.18,0-.93,0-1.15.18-1.35,1.08-.34,1.5-.65,3-1,4.52-.36,1.66-.74,3.32-1.07,5-.06.25,0,.74.08.77a3.09,3.09,0,0,0,1.28.14c.14,0,.31-.35.35-.57.48-2.13.95-4.26,1.39-6.39a3,3,0,0,1,3.2-2.64h3c.5,0,.62-.17.46-.63a1.53,1.53,0,0,0-1.3-1.18C22.74,6.75,21.78,6.8,20.82,6.8Z"></path> <path class="cls-1" d="M37.92,28.9H5.33A5.34,5.34,0,0,1,0,23.56V5.33A5.33,5.33,0,0,1,5.33,0H37.92a5.34,5.34,0,0,1,5.34,5.33V23.56A5.35,5.35,0,0,1,37.92,28.9ZM5.33,1.71A3.63,3.63,0,0,0,1.71,5.33V23.56a3.63,3.63,0,0,0,3.62,3.63H37.92a3.64,3.64,0,0,0,3.63-3.63V5.33a3.63,3.63,0,0,0-3.63-3.62Z"></path> </svg> 