<?xml version="1.0" encoding="UTF-8"?> <!-- Generator: Adobe Illustrator 24.0.2, SVG Export Plug-In . SVG Version: 6.00 Build 0) --> <svg xmlns="http://www.w3.org/2000/svg" xmlns:xlink="http://www.w3.org/1999/xlink" id="Capa_1" x="0px" y="0px" viewBox="0 0 180 179" style="enable-background:new 0 0 180 179;" xml:space="preserve"> <style type="text/css"> .st0{fill:#00BFBF;} .st1{fill:#25858C;stroke:#25858C;stroke-width:2;stroke-miterlimit:10;} .st2{fill:#25858C;} .st3{fill:#2E5D87;} .st4{fill:#FFFFFF;} .st5{fill:none;stroke:#2E5D87;stroke-width:4.5;stroke-miterlimit:10;} .st6{fill:#2E5D87;stroke:#2E5D87;stroke-width:0.25;stroke-miterlimit:10;} .st7{fill:none;stroke:#25858C;stroke-width:4;stroke-linecap:round;stroke-miterlimit:10;} </style> <g> <g> <path class="st0" d="M111.44,96.51c1.18,0,2.35,0,3.53,0c0.98,0,1.97,0.1,3.45,0.18c3.08,5.34,5.56,11.71,13.07,13.88 c-0.9-4.78-2.41-9.12,0.46-14.08c3.17,0,6.28,0.08,9.39-0.02c5.15-0.16,7.23-2.13,7.26-7.3c0.09-14.7,0.08-29.4,0.01-44.11 c-0.03-5.61-2.11-7.54-8-7.55c-16.5-0.05-33-0.02-49.5-0.02c-5.78,0-11.55-0.05-17.33,0.02c-5.78,0.07-7.82,2.02-7.84,7.72 c-0.03,6.87-0.05,13.74-0.05,20.61l-4.5-0.18c0-7.32,0.02-14.64,0.07-21.96c0.04-6.58,3.95-10.64,10.41-10.66 c23.6-0.09,47.2-0.09,70.81,0c6.48,0.02,10.39,4.06,10.43,10.64c0.09,15.53,0.09,31.06,0,46.59c-0.04,6.8-3.99,10.56-10.89,10.71 c-2.24,0.05-4.48,0.01-6.64,0.01c-0.51,6.2-0.18,7.22,3.58,10.84c1.22,1.17,2.65,2.14,1.44,4.1c-8.54,2.77-17.56-2.46-25.16-14.94 c-1.35,0-2.67,0-4,0L111.44,96.51z"></path> <path class="st0" d="M127.13,62.86c-2.22-0.02-4.08,1.77-4.16,3.99c-0.08,2.2,1.68,4.14,3.88,4.29c2.4,0.16,4.47-1.83,4.4-4.24 C131.19,64.7,129.33,62.88,127.13,62.86z"></path> </g> <g> <path class="st0" d="M60.13,130.13c-7.6,12.48-16.63,17.7-25.16,14.94c-1.2-1.96,0.23-2.92,1.44-4.1 c3.76-3.62,4.09-4.64,3.58-10.84c-2.16,0-4.4,0.04-6.64-0.01c-6.9-0.15-10.85-3.91-10.89-10.71c-0.09-15.53-0.09-31.06,0-46.59 c0.04-6.58,3.95-10.62,10.43-10.64c23.6-0.08,47.2-0.08,70.81,0c6.46,0.02,10.37,4.08,10.41,10.66c0.09,15.53,0.09,31.06,0,46.59 c-0.04,6.79-4,10.63-10.91,10.67c-12.54,0.08-25.09,0.03-37.63,0.03C63.76,130.13,61.96,130.13,60.13,130.13z M43.61,125.62 c2.87,4.96,1.36,9.31,0.46,14.08c7.51-2.18,9.99-8.54,13.07-13.88c1.48-0.08,2.47-0.18,3.45-0.18c13.7-0.01,27.39,0.03,41.09-0.03 c5.83-0.03,7.9-1.98,7.93-7.63c0.08-14.54,0.07-29.07,0-43.61c-0.03-5.7-2.06-7.65-7.84-7.72c-5.77-0.07-11.55-0.02-17.33-0.02 c-16.5,0-33-0.03-49.5,0.02c-5.89,0.02-7.97,1.94-8,7.55c-0.08,14.7-0.08,29.4,0.01,44.11c0.03,5.17,2.11,7.13,7.26,7.3 C37.33,125.7,40.44,125.62,43.61,125.62z"></path> <path class="st0" d="M48.44,91.98c2.22-0.02,4.08,1.77,4.16,3.99c0.08,2.2-1.68,4.14-3.88,4.29c-2.4,0.16-4.47-1.83-4.4-4.24 C44.38,93.83,46.24,92,48.44,91.98z"></path> <path class="st0" d="M72.42,95.9c0.12,2.18-1.61,4.18-3.79,4.37c-2.17,0.19-4.23-1.5-4.48-3.67c-0.27-2.37,1.63-4.55,4.03-4.62 C70.4,91.92,72.3,93.67,72.42,95.9z"></path> <path class="st0" d="M92.25,96.21c-0.05,2.19-1.92,4.04-4.11,4.06c-2.22,0.02-4.09-1.78-4.17-3.98c-0.08-2.41,1.95-4.42,4.35-4.3 C90.52,92.09,92.3,94,92.25,96.21z"></path> </g> </g> </svg> 