<?xml version="1.0" encoding="UTF-8"?> <svg xmlns="http://www.w3.org/2000/svg" id="Capa_1" data-name="Capa 1" viewBox="0 0 184.12 184.12"> <defs> <style>.cls-1,.cls-3,.cls-4{fill:#fff;stroke-miterlimit:10;}.cls-1{stroke:#00bfbf;stroke-width:3px;}.cls-2{fill:#00bfbf;}.cls-3,.cls-4{stroke:#fff;}.cls-3{stroke-width:0.25px;}.cls-4{stroke-linecap:round;stroke-width:2.5px;}</style> </defs> <title>Grupo_6</title> <circle class="cls-1" cx="92.06" cy="92.06" r="90.56"></circle> <circle class="cls-2" cx="92.06" cy="92.06" r="82.64"></circle> <g id="JYb9CM.tif"> <path class="cls-3" d="M83.74,78.65a1.36,1.36,0,0,1,.41,0c3.21,1,5.46-.59,7.52-2.73a86.17,86.17,0,0,1,16-13,31.51,31.51,0,0,1,9.34-4.26c1.84-.45,3.66-1,5.51-1.44,1.56-.37,2.32.31,2,1.85A47.43,47.43,0,0,1,123,63.87c-.52,1.44-1.15,2.83-1.73,4.25a67.92,67.92,0,0,1-12.7,20.53,36.77,36.77,0,0,0-2.89,3.58c-1.19,1.66-1.14,3.64-1,5.54a7.11,7.11,0,0,1-2.62,6.39c-3.55,3.24-6.88,6.71-10.33,10.06a3.36,3.36,0,0,1-1.24.85,1.42,1.42,0,0,1-2.08-1.44,47.07,47.07,0,0,1,0-5,4.7,4.7,0,0,0-1.6-3.85l-7.14-7.1a9.33,9.33,0,0,0-6-2.72c-2.17-.2-4.33-.55-6.49-.9-.4-.07-1-.4-1-.69a1.71,1.71,0,0,1,.5-1.31q3.84-3.57,7.76-7c1.85-1.64,3.69-3.29,5.65-4.79A10.91,10.91,0,0,1,83.74,78.65Zm38.47-18.08c-.19-1-.74-1.36-1.49-1.16a25.25,25.25,0,0,0-3.79,1.29,64.2,64.2,0,0,0-8.62,4.2,124.17,124.17,0,0,0-10,7.59C91.39,78,86.05,85,81,92.2,79.76,94,79.92,95,81.5,96.65s3.43,3.42,5.24,5a2.17,2.17,0,0,0,1.83.51,64,64,0,0,0,7.69-4.51,53.77,53.77,0,0,0,10.47-9.63,109.28,109.28,0,0,0,6.69-8.93,81.56,81.56,0,0,0,5.27-9.51C120.07,66.7,121.05,63.59,122.21,60.57Zm-32.15,45.9c.1,1,.13,2,.33,3,.12.58.44,1.46.83,1.56a2.23,2.23,0,0,0,1.67-.72q4-3.87,7.93-7.88a18.77,18.77,0,0,0,2.41-3.06,2,2,0,0,0-.38-2.69c-.75-.69-1.54-.37-2.29.14-2.84,1.94-5.66,3.94-8.57,5.76A3.58,3.58,0,0,0,90.06,106.47Zm-5-25.41a3.28,3.28,0,0,0-2.23,0,4,4,0,0,0-1.21.57c-2.9,2.26-5.73,4.61-8.58,6.94a22.44,22.44,0,0,0-2.19,2c-1,1.11-.64,2.23.9,2.45,1.33.19,2.7.19,4,.41a2.65,2.65,0,0,0,2.79-1.15c2.22-3.05,4.43-6.1,6.59-9.18.3-.43.58-1.22.39-1.58A.94.94,0,0,0,85.09,81.06Z"></path> <line class="cls-4" x1="55.07" y1="107.8" x2="73.8" y2="98.29"></line> <line class="cls-4" x1="62.72" y1="112.88" x2="74.45" y2="104.71"></line> <line class="cls-4" x1="65.67" y1="125.01" x2="74.94" y2="111.83"></line> <line class="cls-4" x1="72.91" y1="127.15" x2="84.21" y2="107.7"></line> <line class="cls-4" x1="91.69" y1="89.21" x2="105.58" y2="74.25"></line> </g> </svg> 