<?xml version="1.0" encoding="UTF-8"?> <svg xmlns="http://www.w3.org/2000/svg" viewBox="1950 2450 100 100" width="100" height="100"><path fill="#00bfbf" stroke="none" fill-opacity="1" stroke-width="1" stroke-opacity="1" color="rgb(51, 51, 51)" fill-rule="evenodd" id="tSvgd9a5ddcbcd" title="Path 1" d="M 1994.823 2521.74 C 1984.9213333333332 2521.74 1975.0196666666666 2521.74 1965.118 2521.74 C 1965.894 2507.515 1977.639 2496.182 1991.966 2496.182 C 1996.04 2496.182 1999.953 2497.076 2003.598 2498.838 C 2004.630972178519 2499.3540443893107 2005.8352142276399 2498.558346947264 2005.765635689004 2497.4057446046086 C 2005.732488541631 2496.8566459821996 2005.4014365633102 2496.3697423959356 2004.903 2496.137 C 2000.8710149386009 2494.1813572875226 1996.4462180621833 2493.170746850515 1991.965 2493.182 C 1975.485 2493.182 1962.076 2506.665 1962.076 2523.24 C 1962.076 2524.068427124746 1962.7475728752538 2524.74 1963.576 2524.74 C 1973.9913333333334 2524.74 1984.4066666666668 2524.74 1994.822 2524.74 C 1995.976700537866 2524.7403864367293 1996.698804673412 2523.490627959562 1996.1217890685034 2522.4904347416423C 1995.8539951943055 2522.0262434537553 1995.3588983846241 2521.7401793459103 1994.823 2521.74Z M 1992.565 2489.759 C 2002.222 2489.759 2010.078 2481.904 2010.078 2472.248 C 2010.078 2462.594 2002.222 2454.739 1992.565 2454.739 C 1982.912 2454.739 1975.059 2462.593 1975.059 2472.248C 1975.059 2481.904 1982.912 2489.759 1992.565 2489.759Z M 1992.565 2457.74 C 2000.567 2457.74 2007.078 2464.249 2007.078 2472.249 C 2007.078 2480.25 2000.567 2486.76 1992.565 2486.76 C 1984.566 2486.76 1978.059 2480.25 1978.059 2472.249C 1978.059 2464.248 1984.566 2457.74 1992.565 2457.74Z"></path><path fill="#00bfbf" stroke="none" fill-opacity="1" stroke-width="1" stroke-opacity="1" color="rgb(51, 51, 51)" fill-rule="evenodd" id="tSvgf7a81dbf5f" title="Path 2" d="M 2035.823 2503.74 C 2024.4896666666666 2503.74 2013.1563333333334 2503.74 2001.823 2503.74 C 2000.9945728752539 2503.74 2000.323 2504.411572875254 2000.323 2505.24 C 2000.323 2515.9066666666668 2000.323 2526.5733333333333 2000.323 2537.24 C 2000.323 2538.068427124746 2000.9945728752539 2538.74 2001.823 2538.74 C 2005.323 2538.74 2008.823 2538.74 2012.323 2538.74 C 2012.323 2541.109 2012.323 2543.478 2012.323 2545.847 C 2012.3224470093105 2546.675656364531 2012.9943436357448 2547.34755340359 2013.823 2547.347 C 2014.239 2547.347 2014.645 2547.174 2014.935 2546.855 C 2018.1103333333333 2544.163666666667 2021.2856666666667 2541.472333333333 2024.461 2538.781 C 2024.811 2538.781 2035.824 2538.74 2035.824 2538.74 C 2036.6524271247463 2538.74 2037.324 2538.068427124746 2037.324 2537.24 C 2037.324 2526.5733333333333 2037.324 2515.9066666666668 2037.324 2505.24C 2037.3240001839977 2504.411181511012 2036.6518183041617 2503.7394464882614 2035.823 2503.74Z M 2034.323 2535.74 C 2030.9113333333332 2535.74 2027.4996666666666 2535.74 2024.088 2535.74 C 2023.825 2535.74 2023.364 2535.75 2022.75 2536.243 C 2020.2743333333333 2538.149 2017.7986666666666 2540.055 2015.323 2541.9610000000002 C 2015.323 2540.387333333333 2015.323 2538.8136666666664 2015.323 2537.24 C 2015.323 2536.411572875254 2014.651427124746 2535.74 2013.823 2535.74 C 2010.3226666666667 2535.74 2006.8223333333333 2535.74 2003.3220000000001 2535.74 C 2003.3220000000001 2526.0733333333333 2003.3220000000001 2516.4066666666668 2003.3220000000001 2506.74 C 2013.6553333333334 2506.74 2023.9886666666666 2506.74 2034.3220000000001 2506.74C 2034.3223333333333 2516.4066666666668 2034.3226666666667 2526.0733333333333 2034.323 2535.74Z"></path><path fill="#00bfbf" stroke="none" fill-opacity="1" stroke-width="1" stroke-opacity="1" color="rgb(51, 51, 51)" fill-rule="evenodd" id="tSvg161891183bb" title="Path 3" d="M 2015.323 2517.211 C 2016.151427124746 2517.211 2016.823 2516.539427124746 2016.823 2515.711 C 2016.823 2514.407 2017.884 2513.347 2019.187 2513.347 C 2020.49 2513.347 2021.552 2514.408 2021.552 2515.711 C 2021.5496541673895 2516.974504389685 2020.5561189490388 2518.0138003026927 2019.294 2518.073 C 2019.258 2518.075 2018.818 2518.075 2018.782 2518.075 C 2018.081 2518.075 2017.419 2518.444 2017.3319999999999 2519.208 C 2017.3286666666668 2520.5516666666667 2017.3253333333332 2521.8953333333334 2017.322 2523.239 C 2017.322 2524.393700538379 2018.572 2525.115388374866 2019.572 2524.5380381056766 C 2020.0361016151378 2524.2700889132457 2020.322 2523.7748983848624 2020.322 2523.239 C 2020.322 2522.4753333333333 2020.322 2521.7116666666666 2020.322 2520.948 C 2022.735 2520.425 2024.551 2518.278 2024.551 2515.71 C 2024.551 2512.752 2022.144 2510.346 2019.186 2510.346 C 2016.228 2510.346 2013.822 2512.752 2013.822 2515.71C 2013.8225515807353 2516.5387503748466 2014.494249625582 2517.2104477759776 2015.323 2517.211Z M 2018.823 2526.74 C 2016.8984991027012 2526.74 2015.6956860418895 2528.8233333333333 2016.657936490539 2530.49 C 2017.104518477924 2531.263502691896 2017.9298360252296 2531.74 2018.823 2531.74 C 2020.7475008972988 2531.74 2021.9503139581104 2529.6566666666668 2020.988063509461 2527.99C 2020.5414815220759 2527.216497308104 2019.7161639747703 2526.74 2018.823 2526.74Z"></path><defs> </defs></svg> 