<?xml version="1.0" encoding="UTF-8"?> <!-- Generator: Adobe Illustrator 24.0.2, SVG Export Plug-In . SVG Version: 6.00 Build 0) --> <svg xmlns="http://www.w3.org/2000/svg" xmlns:xlink="http://www.w3.org/1999/xlink" id="Capa_1" x="0px" y="0px" viewBox="0 0 122 128" style="enable-background:new 0 0 122 128;" xml:space="preserve"> <style type="text/css"> .st0{fill:#00BFBF;} .st1{fill:#25858C;stroke:#25858C;stroke-width:2;stroke-miterlimit:10;} .st2{fill:#25858C;} .st3{fill:#2E5D87;} .st4{fill:#FFFFFF;} .st5{fill:none;stroke:#2E5D87;stroke-width:4.5;stroke-miterlimit:10;} .st6{fill:#2E5D87;stroke:#2E5D87;stroke-width:0.25;stroke-miterlimit:10;} .st7{fill:none;stroke:#25858C;stroke-width:4;stroke-linecap:round;stroke-miterlimit:10;} </style> <g> <path class="st3" d="M43.79,79.99v-0.95c0-1.18,0.96-2.14,2.14-2.14h41.49c1.18,0,2.14-0.96,2.14-2.14V43.11 c0-1.18-0.96-2.14-2.14-2.14H56.16c-1.14,0-2.08-0.89-2.14-2.03l-0.04-0.8c-0.06-1.22,0.91-2.25,2.14-2.25h36.59 c1.18,0,2.14,0.96,2.14,2.14v41.78c0,1.18-0.96,2.14-2.14,2.14H69.19c-1.18,0-2.14,0.96-2.14,2.14v0.77c0,1.18,0.96,2.14,2.14,2.14 h8.16c1.18,0,2.14,0.96,2.14,2.14v0.68c0,1.18-0.96,2.14-2.14,2.14H50.99c-1.14,0-2.08-0.9-2.14-2.04l-0.02-0.5 c-0.06-1.22,0.92-2.24,2.14-2.24h8.26c1.18,0,2.14-0.96,2.14-2.14v-0.76c0-1.18-0.96-2.14-2.14-2.14H45.93 C44.75,82.13,43.79,81.17,43.79,79.99z"></path> <path class="st3" d="M46.44,66.53h-5.51c-1.18,0-2.14,0.96-2.14,2.14v21.19c0,1.18-0.96,2.14-2.14,2.14h-1.11 c-1.18,0-2.14-0.96-2.14-2.14V68.82c0-1.18-0.96-2.14-2.14-2.14H25.5c-1.18,0-2.14-0.96-2.14-2.14V38.02 c0-1.18,0.96-2.14,2.14-2.14h20.94c1.18,0,2.14,0.96,2.14,2.14v26.37C48.58,65.57,47.62,66.53,46.44,66.53z M30.63,61.05h10.51 c1.18,0,2.14-0.96,2.14-2.14v-5.56c0-1.23-1.04-2.21-2.27-2.14l-0.4,0.02c-1.03,0.06-1.87,0.85-2,1.87l-0.12,0.99 c-0.14,1.07-1.05,1.87-2.12,1.87h-0.9c-1.13,0-2.06-0.88-2.14-2l-0.04-0.56c-0.07-1.13-1.01-2-2.14-2h-0.53 c-1.18,0-2.14,0.96-2.14,2.14v5.36C28.49,60.09,29.45,61.05,30.63,61.05z M41.25,41.11H30.64c-1.18,0-2.14,0.96-2.14,2.14v0.2 c0,1.18,0.96,2.14,2.14,2.14h10.61c1.18,0,2.14-0.96,2.14-2.14v-0.2C43.39,42.07,42.43,41.11,41.25,41.11z"></path> </g> </svg> 