<?xml version="1.0" encoding="UTF-8"?> <svg xmlns="http://www.w3.org/2000/svg" viewBox="1950 2450 100 100" width="100" height="100"><path fill="#00bfbf" stroke="none" fill-opacity="1" stroke-width="1" stroke-opacity="1" color="rgb(51, 51, 51)" fill-rule="evenodd" id="tSvg29520a2e06" title="Path 14" d="M 2047.945 2500.813 C 2047.583098233511 2500.0681427537784 2046.686045976326 2499.7574869310843 2045.941 2500.119 C 2042.404 2501.8373333333334 2038.867 2503.5556666666666 2035.33 2505.274 C 2032.9196666666667 2506.318 2030.5093333333334 2507.362 2028.099 2508.406 C 2025.9134285432197 2507.843390307976 2023.737141477136 2507.245311423617 2021.571 2506.612 C 2021.1523333333334 2506.456 2020.7336666666667 2506.3 2020.315 2506.144 C 2020.1365184988083 2506.078308984732 2019.9471047272796 2506.0474189229885 2019.757 2506.053 C 2018.869 2505.766 2018.097 2505.494 2017.577 2505.265 C 2015.083 2504.167 2010.627 2501.586 2008.831 2500.028 C 2006.802 2498.274 2001.516 2491.764 2001.463 2491.698 C 2001.0140961619004 2491.1441378051877 2000.2373660797016 2490.9827719210857 1999.605 2491.312 C 1998.151 2492.069 1993.435 2494.066 1990.9379999999999 2493.34 C 1989.62 2492.948 1987.181 2491.61 1986.491 2490.777 C 1986.031 2490.223 1985.639 2488.226 1985.846 2487.588 C 1986.385 2487.315 1988.429 2487.661 1989.43 2487.83 C 1991.143 2488.12 1992.763 2488.394 1994.014 2487.989 C 1996.45 2487.2019999999998 2001.362 2483.005 2002.546 2481.973 C 2003.721 2481.544 2009.518 2479.59 2013.561 2481.198 C 2015.488992250233 2481.9604348532384 2017.5447425320226 2482.3480308073854 2019.618 2482.34 C 2023.619 2482.34 2026.57 2480.965 2026.789 2480.86 C 2031.701 2478.235 2036.613 2475.61 2041.525 2472.985 C 2042.5241686493068 2472.404677922231 2042.520431978331 2470.960344832208 2041.5182739919526 2470.3852004381283 C 2041.0859527992916 2470.1370887493717 2040.5586636361468 2470.119777983329 2040.1109999999999 2470.339 C 2035.221 2472.9526666666666 2030.331 2475.566333333333 2025.441 2478.18 C 2025.3899999999999 2478.204 2020.172 2480.598 2014.67 2478.41 C 2009.878 2476.502 2003.661 2478.399 2001.776 2479.061 C 1999.685 2478.268 1993.807 2476.165 1991.195 2476.561 C 1988.757 2476.935 1981.657 2477.27 1978.781 2476.739 C 1977.567 2476.396 1968.345 2471.406 1960.286 2466.886 C 1959.2787162303655 2466.3209665365325 1958.0374972076818 2467.058237288534 1958.0518057591476 2468.213087353591 C 1958.0584463809932 2468.749055134026 1958.3505179756105 2469.240767056998 1958.818 2469.503 C 1964.089 2472.46 1976.529 2479.369 1978.185 2479.678 C 1981.703 2480.33 1989.263 2479.892 1991.646 2479.527 C 1992.824 2479.348 1996.024 2480.229 1998.825 2481.187 C 1996.731 2482.9 1994.231 2484.765 1993.091 2485.133 C 1992.537 2485.312 1991.092 2485.067 1989.93 2484.87 C 1987.5529999999999 2484.468 1985.096 2484.052 1983.656 2485.513 C 1982.049 2487.16 1983.012 2491.284 1984.18 2492.69 C 1985.385 2494.145 1988.43 2495.724 1990.091 2496.217 C 1993.323 2497.156 1997.792 2495.448 1999.883 2494.503 C 2001.465 2496.422 2005.113 2500.778 2006.865 2502.293 C 2009.051 2504.19 2013.952 2506.945 2016.366 2508.008 C 2017.306 2508.422 2018.895 2508.94 2020.593 2509.447 C 2022.938 2510.3206666666665 2025.283 2511.1943333333334 2027.628 2512.068 C 2027.996 2512.258 2028.275 2512.612 2028.458 2513.122 C 2028.776 2514.009 2028.712 2515.193 2028.301 2516.065 C 2027.8149379088843 2517.0844492997744 2026.7247324802292 2517.671825285112 2025.606 2517.517 C 2025.394642099988 2517.395109181184 2025.1568029463017 2517.3264687371775 2024.913 2517.317 C 2021.7336666666667 2515.6676666666667 2018.5543333333333 2514.0183333333334 2015.375 2512.369 C 2014.3563255267745 2511.8252761262074 2013.1310556219096 2512.588196170133 2013.1695141711737 2513.7422560790296 C 2013.1877875864684 2514.290602711801 2013.5039803686054 2514.7852233636936 2013.994 2515.032 C 2017.196 2516.692666666667 2020.398 2518.3533333333335 2023.6 2520.014 C 2023.629 2520.028 2023.659 2520.036 2023.688 2520.05 C 2023.761 2520.43 2023.693 2520.694 2023.585 2521.042 C 2023.4943211855823 2521.3106852699475 2023.4270701752223 2521.586715534363 2023.384 2521.867 C 2022.754 2523.031 2021.328 2523.546 2020.105 2523.02 C 2017.4213333333335 2521.853666666667 2014.7376666666667 2520.6873333333333 2012.054 2519.521 C 2012.018 2519.505 2011.981 2519.499 2011.944 2519.486 C 2011.896 2519.469 2011.848 2519.451 2011.8 2519.44 C 2011.751 2519.428 2011.701 2519.422 2011.652 2519.416 C 2011.604 2519.41 2011.557 2519.402 2011.51 2519.4 C 2011.459 2519.398 2011.409 2519.402 2011.359 2519.406 C 2011.313 2519.409 2011.267 2519.41 2011.222 2519.418 C 2011.172 2519.426 2011.124 2519.439 2011.076 2519.452 C 2011.032 2519.464 2010.987 2519.474 2010.944 2519.49 C 2010.898 2519.507 2010.855 2519.529 2010.811 2519.55 C 2010.768 2519.571 2010.725 2519.59 2010.684 2519.615 C 2010.643 2519.639 2010.606 2519.669 2010.568 2519.697 C 2010.527815220103 2519.7253466390407 2010.4890985176494 2519.755719224475 2010.452 2519.788 C 2010.417 2519.82 2010.386 2519.8559999999998 2010.354 2519.891 C 2010.32 2519.929 2010.285 2519.965 2010.255 2520.006 C 2010.226 2520.045 2010.203 2520.088 2010.177 2520.13 C 2010.156 2520.165 2010.132 2520.195 2010.114 2520.232 C 2010.108 2520.244 2010.106 2520.257 2010.1 2520.269 C 2010.095 2520.28 2010.087 2520.2889999999998 2010.083 2520.3 C 2010.068 2520.334 2010.062 2520.368 2010.05 2520.403 C 2010.032 2520.454 2010.013 2520.505 2010.001 2520.556 C 2009.99 2520.602 2009.985 2520.649 2009.979 2520.696 C 2009.972 2520.746 2009.964 2520.796 2009.963 2520.846 C 2009.961 2520.8940000000002 2009.965 2520.942 2009.968 2520.99 C 2009.971 2521.038 2009.973 2521.0860000000002 2009.98 2521.134 C 2009.988 2521.182 2010.001 2521.229 2010.013 2521.276 C 2010.025 2521.322 2010.036 2521.367 2010.052 2521.412 C 2010.069 2521.457 2010.09 2521.501 2010.111 2521.544 C 2010.131 2521.587 2010.151 2521.63 2010.175 2521.67 C 2010.2 2521.712 2010.23 2521.751 2010.259 2521.79 C 2010.287 2521.829 2010.315 2521.867 2010.347 2521.9030000000002 C 2010.38 2521.94 2010.4180000000001 2521.972 2010.456 2522.006 C 2010.492 2522.038 2010.526 2522.071 2010.565 2522.1 C 2010.606 2522.13 2010.651 2522.156 2010.696 2522.182 C 2010.728 2522.202 2010.757 2522.225 2010.791 2522.242 C 2011.5063333333333 2522.5963333333334 2012.2216666666666 2522.9506666666666 2012.937 2523.305 C 2014.2115074059009 2523.912450515026 2014.755106832394 2525.4359594296634 2014.153 2526.713 C 2013.861581056152 2527.334929607131 2013.3332605759558 2527.81427149965 2012.686 2528.044 C 2012.0510443156343 2528.2731254173973 2011.3506940475072 2528.237819695249 2010.742 2527.946 C 2008.7303333333334 2526.9956666666667 2006.7186666666666 2526.0453333333335 2004.707 2525.095 C 2005.2803333333334 2524.1223333333332 2005.8536666666666 2523.1496666666667 2006.427 2522.177 C 2008.083 2519.378 2007.151 2515.748 2004.351 2514.0860000000002 C 2004.3503333333333 2514.085666666667 2004.3496666666667 2514.0853333333334 2004.349 2514.085 C 2003.1471348145278 2513.374561482839 2001.7328541696825 2513.1117525002423 2000.356 2513.343 C 2000.629 2510.67 1999.41 2507.972 1996.997 2506.537 C 1996.9943333333333 2506.5353333333333 1996.9916666666666 2506.5336666666667 1996.989 2506.532 C 1994.592 2505.124 1991.686 2505.324 1989.487 2506.788 C 1989.038130772607 2505.440687351772 1988.1190538496764 2504.300094787987 1986.898 2503.575 C 1984.077 2501.919 1980.437 2502.852 1978.784 2505.653 C 1977.4433333333334 2507.922 1976.1026666666667 2510.191 1974.762 2512.46 C 1971.4806666666666 2510.112666666667 1968.1993333333332 2507.7653333333333 1964.918 2505.418 C 1964.883 2505.393 1964.844 2505.376 1964.807 2505.355 C 1964.771 2505.334 1964.739 2505.308 1964.701 2505.29 C 1961.154 2503.5673333333334 1957.607 2501.844666666667 1954.06 2500.122 C 1953.021154423369 2499.61778074898 1951.826042589132 2500.4272270428983 1951.908798696987 2501.5790033283797 C 1951.9472059413606 2502.1135445774394 1952.267870070326 2502.586991038037 1952.75 2502.821 C 1956.259 2504.5256666666664 1959.768 2506.2303333333334 1963.277 2507.935 C 1966.6423333333332 2510.3426666666664 1970.0076666666666 2512.7503333333334 1973.373 2515.158 C 1972.5847027329992 2517.7725399142078 1973.6831740614994 2520.58745009049 1976.034 2521.977 C 1976.9427285457473 2522.5134630538178 1977.9787369564378 2522.7962947189376 1979.034 2522.796 C 1979.363 2522.796 1979.689 2522.759 1980.012 2522.705 C 1979.728 2525.401 1980.958 2528.123 1983.395 2529.565 C 1984.4554682100272 2530.1922342444996 1985.6649222375015 2530.5230954363337 1986.897 2530.523 C 1987.5298695902943 2530.522306725787 1988.159803042833 2530.4368811258373 1988.77 2530.2690000000002 C 1989.5245012463276 2530.0608669484977 1990.2399261095456 2529.730852743354 1990.888 2529.292 C 1991.3435918616842 2530.6314145540214 1992.263347779352 2531.7636401166724 1993.481 2532.484 C 1996.2936512631625 2534.1378604783295 1999.9140191369365 2533.2083005278328 2001.582 2530.404 C 2002.1143333333334 2529.5003333333334 2002.6466666666668 2528.596666666667 2003.179 2527.693 C 2005.272 2528.682 2007.365 2529.671 2009.458 2530.66 C 2010.7856110853152 2531.2938154820695 2012.311529125962 2531.3705074452732 2013.696 2530.873 C 2015.0954772420678 2530.3781828631977 2016.2378457141344 2529.3424498631466 2016.867 2527.998 C 2017.2920829064387 2527.0968996422425 2017.465870259361 2526.0977087402393 2017.3700000000001 2525.106 C 2017.8853333333334 2525.33 2018.4006666666667 2525.554 2018.916 2525.778 C 2019.6058820983724 2526.0760020316784 2020.3495066342082 2526.2294916398814 2021.101 2526.229 C 2023.3271100070306 2526.2284547166246 2025.341681805988 2524.909881844068 2026.233 2522.87 C 2026.316 2522.681 2026.358 2522.484 2026.358 2522.278 C 2026.362 2522.223 2026.414 2522.059 2026.451 2521.939 C 2026.5610000000001 2521.584 2026.709 2521.109 2026.728 2520.494 C 2028.5944228122676 2520.236222719029 2030.20555275107 2519.0558802209425 2031.0140000000001 2517.354 C 2031.768 2515.758 2031.871 2513.75 2031.284 2512.113 C 2031.0930241494439 2511.5852814337927 2030.8185283444498 2511.091661673418 2030.471 2510.651 C 2032.498 2509.773 2034.525 2508.895 2036.5520000000001 2508.017 C 2036.563 2508.012 2036.5720000000001 2508.005 2036.583 2507.999 C 2036.592 2507.995 2036.602 2507.994 2036.611 2507.989 C 2040.1580000000001 2506.266 2043.7050000000002 2504.543 2047.252 2502.82C 2047.9964165766428 2502.4561148178013 2048.3062939948722 2501.558677621143 2047.945 2500.813Z M 1977.557 2519.389 C 1976.1681360218295 2518.572607686797 1975.7012890954084 2516.786605176149 1976.513 2515.395 C 1978.131 2512.656 1979.749 2509.917 1981.367 2507.178 C 1981.8947832195124 2506.2905039531825 1982.8524354043384 2505.7481638949703 1983.885 2505.752 C 1984.392 2505.752 1984.906 2505.883 1985.373 2506.157 C 1986.7540523583166 2506.978342695114 1987.213581062989 2508.760188687158 1986.402 2510.147 C 1984.7846666666667 2512.8863333333334 1983.1673333333333 2515.625666666667 1981.55 2518.365C 1980.728290187227 2519.7479477813076 1978.9428387754463 2520.2058246266497 1977.557 2519.389Z M 1987.978 2527.372 C 1986.9468842691808 2527.662564159558 1985.8418794989939 2527.5202857664567 1984.918 2526.978 C 1982.995 2525.84 1982.385 2523.288 1983.556 2521.291 C 1985.6506666666667 2517.749 1987.7453333333333 2514.207 1989.84 2510.665 C 1990.5893972913318 2509.3759682825794 1991.9649805909087 2508.57975825265 1993.456 2508.572 C 1994.144 2508.572 1994.836 2508.747 1995.466 2509.116 C 1997.377 2510.255 1997.9759999999999 2512.798 1996.801 2514.785 C 1994.7076666666667 2518.326666666667 1992.6143333333334 2521.8683333333333 1990.521 2525.41C 1989.963346071184 2526.3721087850454 1989.050113005092 2527.076695203395 1987.978 2527.372Z M 1998.999 2528.874 C 1998.1748261997643 2530.2537447513914 1996.3920750352409 2530.7104826541904 1995.006 2529.897 C 1993.614 2529.073 1993.146 2527.28 1993.964 2525.899 C 1995.5806666666667 2523.16 1997.1973333333333 2520.421 1998.814 2517.682 C 1999.341919106233 2516.79588791958 2000.2985541097642 2516.2544535499073 2001.33 2516.258 C 2003.5747371327827 2516.2562098305057 2004.9796338140268 2518.68509020338 2003.8588155798948 2520.629984669935 C 2003.8545757943077 2520.6373417375453 2003.8503038935555 2520.6446802509668 2003.846 2520.652 C 2003.1676666666667 2521.8033333333333 2002.4893333333334 2522.9546666666665 2001.811 2524.1059999999998 C 2001.373503655834 2524.210554248381 2001.0069125522073 2524.5076511483785 2000.814 2524.9139999999998 C 2000.663498116921 2525.23579156197 2000.6333406405522 2525.6008744190867 2000.729 2525.943C 2000.1523333333332 2526.92 1999.5756666666666 2527.897 1998.999 2528.874Z"></path><defs> </defs></svg> 