<?xml version="1.0" encoding="UTF-8"?> <svg xmlns="http://www.w3.org/2000/svg" id="Capa_1" data-name="Capa 1" viewBox="0 0 56.84 56.84"> <defs> <style>.cls-1{fill:#00bfbf;}.cls-2,.cls-3{fill:#fff;}.cls-3{stroke:#fff;stroke-miterlimit:10;stroke-width:0.5px;}</style> </defs> <title>free t</title> <circle class="cls-1" cx="28.42" cy="28.23" r="28.42"></circle> <path class="cls-2" d="M24.49,30.29h2.45c.08.25.13.5.23.73a1.66,1.66,0,0,0,2.12.7,1.21,1.21,0,0,0,.11-1.86,3.78,3.78,0,0,0-1-.56c-.63-.31-1.28-.61-1.93-.9a3,3,0,0,1-.05-5.19c.52-.28,1.09-.47,1.71-.73l.11-1.43h1l.09,1.49a3.33,3.33,0,0,1,3,3.34H30c-.05-.16-.12-.36-.19-.56a1.2,1.2,0,0,0-1.25-.76.86.86,0,0,0-.93.65c-.14.52-.21,1.08.3,1.44a11.27,11.27,0,0,0,1.35.78c.5.25,1.05.42,1.52.71a3.18,3.18,0,0,1,1.47,3.59,2.64,2.64,0,0,1-1.92,2c-.35.11-.71.19-1.09.29l-.11,1.32-1.06,0-.12-1.47C26,33.52,24.44,32.73,24.49,30.29Z"></path> <path class="cls-2" d="M28.44,38.94A10.75,10.75,0,1,1,39.18,28.19,10.76,10.76,0,0,1,28.44,38.94Zm0-19.9a9.16,9.16,0,1,0,9.15,9.15A9.16,9.16,0,0,0,28.44,19Z"></path> <path class="cls-3" d="M20.75,44.78H13a1.14,1.14,0,0,1-1.14-1.13V35.93a1.14,1.14,0,0,1,1.92-.82l1.89,1.78,1.59-1.56a4,4,0,0,1,.39-.36l1.8-1.79.8.79-1.57,1.56a3.13,3.13,0,0,1-.39.36l-1.8,1.79a1.14,1.14,0,0,1-1.59,0L13,35.92h0v7.72h7.74l.42-.41-.41.39-1.87-2a1.13,1.13,0,0,1,0-1.59,16.36,16.36,0,0,1,2.27-2.14A.3.3,0,0,0,21,38c.14-.12,1.48-1.47,1.92-1.91l.8.79A17.19,17.19,0,0,1,21.53,39a.74.74,0,0,0,.15-.08c-.14.12-1.52,1.5-2,2l1.88,2a1.16,1.16,0,0,1,.22,1.23A1.14,1.14,0,0,1,20.75,44.78Z"></path> <path class="cls-3" d="M37.12,23.52l-.8-.79a14.48,14.48,0,0,1,2.27-2.13.42.42,0,0,0-.21.11l1.95-1.94a1.14,1.14,0,0,1,1.58,0l1.89,1.78h0V12.81l-7.74,0-.42.41.41-.38,1.87,2a1.12,1.12,0,0,1,0,1.58L36.32,18a2.86,2.86,0,0,1-.43.38c-.2.18-.8.78-1.78,1.76l-.79-.79,1.57-1.56a2.86,2.86,0,0,1,.43-.38l1.82-1.81-1.87-2a1.12,1.12,0,0,1-.22-1.23,1.11,1.11,0,0,1,1-.69h7.72A1.14,1.14,0,0,1,45,12.81v7.71a1.11,1.11,0,0,1-.69,1A1.14,1.14,0,0,1,43,21.35l-1.89-1.79a14.46,14.46,0,0,1-2.29,2.13.51.51,0,0,0,.21-.1C38.93,21.7,37.57,23.07,37.12,23.52Zm-1.15-6,.1.7A.56.56,0,0,0,36,17.49Z"></path> <path class="cls-3" d="M43.84,44.75H36.13a1.13,1.13,0,0,1-.83-1.91L37.09,41,35.5,39.33a3,3,0,0,1-.35-.38c-.22-.24-1.42-1.43-1.83-1.84l.79-.79,1.59,1.59a2.83,2.83,0,0,1,.34.38l1.84,1.84a1.13,1.13,0,0,1,0,1.59l-1.78,1.89v0h7.71l0-7.73h0l-2,1.87a1.14,1.14,0,0,1-1.59,0l-1.58-1.59a3.47,3.47,0,0,1-.38-.44L36.57,34l.79-.79,1.54,1.54a3.47,3.47,0,0,1,.38.44c.21.22.81.82,1.78,1.78l2-1.87a1.12,1.12,0,0,1,1.23-.22,1.14,1.14,0,0,1,.69,1v7.72A1.13,1.13,0,0,1,43.84,44.75ZM36,39l-.72.09A.57.57,0,0,0,36,39Z"></path> <path class="cls-3" d="M19.76,23.55a15.72,15.72,0,0,1-2.1-2.22.43.43,0,0,0,.08.15c-.12-.14-1.5-1.52-1.95-2l-2,1.87a1.14,1.14,0,0,1-1.23.22,1.11,1.11,0,0,1-.68-1V12.83A1.14,1.14,0,0,1,13,11.7h7.72a1.14,1.14,0,0,1,.82,1.92L19.75,15.5l1.74,1.77a1.62,1.62,0,0,1,.39.52.53.53,0,0,0-.11-.21c.11.13,1.48,1.49,1.93,1.93l-.79.8c-1-1-1.49-1.49-1.74-1.74a1.37,1.37,0,0,1-.38-.52.46.46,0,0,0,.1.21c-.11-.13-1.48-1.49-1.92-1.94a1.13,1.13,0,0,1,0-1.58l1.79-1.89v0H13v7.74h0l2-1.88a1.14,1.14,0,0,1,1.59,0A15.69,15.69,0,0,1,18.72,21a.53.53,0,0,0-.08-.16c.12.14,1.46,1.49,1.91,1.93Z"></path> </svg> 