<?xml version="1.0" encoding="UTF-8"?> <svg xmlns="http://www.w3.org/2000/svg" id="Layer_1" data-name="Layer 1" viewBox="0 0 95.83 95.83"> <defs> <style>.cls-1{fill:#25858c;stroke:#fff;stroke-miterlimit:10;stroke-width:4px;}.cls-2{fill:#fff;}</style> </defs> <title>DIAG COLOR</title> <circle class="cls-1" cx="47.92" cy="47.92" r="45.92"></circle> <path class="cls-2" d="M57.22,60.33c-3.71-2.18-6-.71-8.32,1.48-.44.42-2.34.06-2.9-.54-1.83-2-3.79-2.77-6.34-1.75-1.89.76-3,0-3.3-1.84A5,5,0,0,0,31.82,53c-2.15-.36-2.58-1.68-1.86-3.58a4.65,4.65,0,0,0-1.5-5.79c-1.77-1.42-1.73-2.91,0-4.26a4.5,4.5,0,0,0,1.57-5.73c-.88-2.26.12-3.35,2.19-3.67a4.59,4.59,0,0,0,4.19-4.19c.4-2.18,1.63-2.92,3.76-2.07a4.4,4.4,0,0,0,5.53-1.36c1.67-2.1,3.29-1.75,4.74.15a4.15,4.15,0,0,0,5.19,1.35c2.29-.84,3.58-.13,3.95,2.21a4.33,4.33,0,0,0,3.93,4.05c2.25.36,3.25,1.59,2.28,3.91s-.18,4.21,1.65,5.75c1.61,1.37,1.6,2.76,0,4a4.82,4.82,0,0,0-1.65,6c.68,1.85.14,3.07-1.75,3.36-2.86.44-4.27,2.06-4.92,4.78C58.92,58.82,57.9,59.51,57.22,60.33Zm5.06-18.56A14.37,14.37,0,1,0,47.86,56,14.43,14.43,0,0,0,62.28,41.77Z"></path> <path class="cls-2" d="M36.15,62.67c3.66-.73,7-1.39,9.89,1.87.56.63,3.1.53,3.8-.17a6.85,6.85,0,0,1,7.62-1.85,7.36,7.36,0,0,0,2.22-.11c0,5.44,0,10.86,0,16.28,0,2-1.06,2.78-2.66,1.57-6-4.55-11.91-4.56-18-.08-1.64,1.21-2.89.7-2.89-1.6Z"></path> <path class="cls-2" d="M47.92,29.88A11.76,11.76,0,1,1,36.16,41.7,11.78,11.78,0,0,1,47.92,29.88Z"></path> </svg> 