<?xml version="1.0" encoding="UTF-8"?> <svg xmlns="http://www.w3.org/2000/svg" id="Capa_1" data-name="Capa 1" viewBox="0 0 56.84 56.84"> <defs> <style>.cls-1{fill:#00bfbf;}.cls-2{fill:#fff;}</style> </defs> <title>free t</title> <circle class="cls-1" cx="28.42" cy="28.42" r="28.42"></circle> <path class="cls-2" d="M31.35,26.29a3.06,3.06,0,0,1-.28-1.44h2a5.44,5.44,0,0,0,.19.61,1.37,1.37,0,0,0,1.76.58,1,1,0,0,0,.1-1.54,3.18,3.18,0,0,0-.8-.47c-.53-.26-1.07-.51-1.6-.75a2.51,2.51,0,0,1,0-4.32c.43-.23.91-.39,1.42-.6l.1-1.19h.85l.07,1.24a2.76,2.76,0,0,1,2.49,2.78h-2a3.74,3.74,0,0,0-.16-.47,1,1,0,0,0-1-.63.71.71,0,0,0-.77.54,1,1,0,0,0,.25,1.2,8.9,8.9,0,0,0,1.13.64c.41.21.86.35,1.26.6a2.64,2.64,0,0,1,1.22,3,2.22,2.22,0,0,1-1.59,1.67l-.47.13"></path> <path class="cls-2" d="M35.9,31.23l.52-.79a7.62,7.62,0,1,0-9.68-7.33,7.73,7.73,0,0,0,.34,2.26l-1.48-.46a8.94,8.94,0,1,1,11.81,6.6Z"></path> <path class="cls-2" d="M11.84,35.71a.64.64,0,0,1-.64-.65v-5.5a.64.64,0,0,1,.64-.65.65.65,0,0,1,.65.65v5.5A.65.65,0,0,1,11.84,35.71Z"></path> <path class="cls-2" d="M34.2,32.66a2.85,2.85,0,0,1-.91-.15l-1.78-.62a.65.65,0,0,1-.39-.83.64.64,0,0,1,.82-.39l1.76.62a1.65,1.65,0,0,0,1-3.13l-9-3.13a1.63,1.63,0,0,0-1.21,0l-7.24,3.18a.65.65,0,0,1-.52-1.19l7.24-3.17a3,3,0,0,1,2.15-.09l9,3.13a2.95,2.95,0,0,1,1.6,4.21A3,3,0,0,1,34.2,32.66Z"></path> <path class="cls-2" d="M33.79,39.89a2.92,2.92,0,0,1-.93-.15L24.6,37.42a22.18,22.18,0,0,0-6-1.12l-1.59-.07a.65.65,0,0,1,.06-1.29l1.6.07A23.54,23.54,0,0,1,25,36.18l8.26,2.33a1.63,1.63,0,0,0,1.21,0l13.38-6.3A2,2,0,0,0,49,30.9a2,2,0,0,0-.22-1.66,1.66,1.66,0,0,0-2-.66l-10.46,4.2a2.85,2.85,0,0,1-2,.07L32,32.07a.65.65,0,0,1-.42-.81.65.65,0,0,1,.82-.42l2.37.78a1.57,1.57,0,0,0,1.07,0l10.46-4.2a2.94,2.94,0,0,1,3.58,1.16,3.3,3.3,0,0,1-1.47,4.78L35,39.64A3,3,0,0,1,33.79,39.89Z"></path> <path class="cls-2" d="M29.2,31.1a.69.69,0,0,1-.24-.05l-2.53-1a.65.65,0,1,1,.48-1.2l2.53,1a.65.65,0,0,1,.36.84A.63.63,0,0,1,29.2,31.1Z"></path> <path class="cls-2" d="M13.75,37.67H8.19a.65.65,0,1,1,0-1.29h5.56a.4.4,0,0,0,.1-.29V28.15a.36.36,0,0,0-.11-.29H8.19a.65.65,0,1,1,0-1.29h5.56a1.49,1.49,0,0,1,1.39,1.58v7.94A1.49,1.49,0,0,1,13.75,37.67Z"></path> <circle class="cls-2" cx="9.2" cy="30.07" r="0.95"></circle> </svg> 