<?xml version="1.0" encoding="UTF-8"?> <svg xmlns="http://www.w3.org/2000/svg" id="Capa_1" data-name="Capa 1" viewBox="0 0 56.84 56.84"> <defs> <style>.cls-1{fill:#00bfbf;}.cls-2{fill:none;stroke:#fff;stroke-width:2px;}.cls-2,.cls-4{stroke-miterlimit:10;}.cls-3,.cls-4{fill:#fff;}.cls-4{stroke:#00bfbf;stroke-linecap:round;}</style> </defs> <title>free t</title> <circle class="cls-1" cx="28.42" cy="28.42" r="28.42"></circle> <path class="cls-2" d="M41.15,35.77C39.12,34,36,29.94,36,22s-7.58-7.72-7.58-7.72S20.84,14,20.84,22s-3.11,12-5.15,13.81S43.18,37.53,41.15,35.77Z"></path> <path class="cls-3" d="M32.45,37a4.11,4.11,0,0,1,.13,1.06,4.16,4.16,0,1,1-8.32,0,3.86,3.86,0,0,1,.09-.84"></path> <path class="cls-3" d="M26.61,14.24a2.48,2.48,0,0,1-.06-.54,2,2,0,0,1,1.87-2.14A2,2,0,0,1,30.3,13.7a3.13,3.13,0,0,1,0,.43"></path> <path class="cls-4" d="M26.24,37.64a2.8,2.8,0,0,0,1.57,2.77"></path> </svg> 