<?xml version="1.0" encoding="UTF-8"?> <svg xmlns="http://www.w3.org/2000/svg" xmlns:xlink="http://www.w3.org/1999/xlink" viewBox="0 0 147.24 147.24"> <defs> <style>.cls-1,.cls-6{fill:none;}.cls-2{isolation:isolate;}.cls-3{clip-path:url(#clip-path);}.cls-4{opacity:0.42;mix-blend-mode:multiply;}.cls-5{fill:#2fb5b8;}.cls-6{stroke:#fff;stroke-linecap:round;stroke-linejoin:round;stroke-width:5.2px;}</style> <clipPath id="clip-path"> <rect class="cls-1" x="-1647.52" y="187.05" width="1680" height="900"></rect> </clipPath> </defs> <title>grafica help center</title> <g class="cls-2"> <g id="Capa_1" data-name="Capa 1"> <circle class="cls-5" cx="73.62" cy="73.62" r="73.62"></circle> <path class="cls-6" d="M75.67,56.16c-11.83-1.36-22.14,10.45-19.05,22C59.47,88.8,72.49,94.34,82.15,89A17.88,17.88,0,0,0,91,71.31"></path> <path class="cls-6" d="M89.84,33A43.77,43.77,0,0,0,30.72,82.4a43.78,43.78,0,0,0,72.05,23.88,44.27,44.27,0,0,0,11.6-48.63"></path> <path class="cls-6" d="M85.09,44.85A31,31,0,1,0,63,102.73a31,31,0,0,0,39.51-40.41"></path> <line class="cls-6" x1="72.37" y1="74.9" x2="97.42" y2="49.88"></line> <polyline class="cls-6" points="97.42 49.88 104.12 49.88 113.84 40.16 107.3 40.16"></polyline> <polyline class="cls-6" points="97.45 49.88 97.45 43.24 107.17 33.67 107.3 40.16"></polyline> <polyline class="cls-6" points="73.4 65.3 72.37 74.9 81.66 73.96"></polyline> </g> </g> </svg> 