<?xml version="1.0" encoding="UTF-8"?> <svg xmlns="http://www.w3.org/2000/svg" id="Layer_1" data-name="Layer 1" viewBox="0 0 95.83 95.83"> <defs> <style>.cls-1{fill:#1f5875;stroke:#fff;stroke-miterlimit:10;stroke-width:4px;}.cls-2{fill:#fff;}</style> </defs> <title>DIAG COLOR</title> <circle class="cls-1" cx="47.92" cy="47.92" r="45.92"></circle> <path class="cls-2" d="M51.61,70.55a2,2,0,0,1-3.1,0,99.74,99.74,0,0,1-6-8.42c-1.61-2.65-3.46-3.89-6.53-3.44-1.18.17-2.41,0-3.61,0-1.79.09-2.47-.71-2.45-2.49s.75-2.33,2.37-2.28,2.93,0,4.42,0c-.28-3.66-.66-4.09-3.91-4.15-1.65,0-2.95-.16-2.88-2.34.05-1.56.46-2.5,2.21-2.44a12.71,12.71,0,0,0,2.05-.29V41.23a8.54,8.54,0,0,0-1.85-.37c-1.82.07-2.41-.79-2.41-2.53,0-2,1.09-2.43,2.67-2.23,3,.38,4.36-1.26,5.44-4.19-2.07,0-3.88-.06-5.69,0s-2.44-.76-2.42-2.51.81-2.26,2.4-2.25c6.49,0,13-.17,19.48.08C61.34,27.61,68,37.75,65.3,47.4c-2,7.19-6.17,13.23-10.56,19.13C53.78,67.82,52.78,69.07,51.61,70.55ZM50,38.78A4.37,4.37,0,0,0,46,43a4.36,4.36,0,0,0,4.18,4A4.14,4.14,0,0,0,50,38.78Z"></path> <circle class="cls-1" cx="142.64" cy="-46.76" r="45.92"></circle> </svg> 