<?xml version="1.0" encoding="UTF-8"?> <svg xmlns="http://www.w3.org/2000/svg" id="Capa_1" data-name="Capa 1" viewBox="0 0 56.84 56.84"> <defs> <style>.cls-1{fill:#00bfbf;}.cls-2{fill:none;stroke:#fff;stroke-linecap:round;stroke-miterlimit:10;stroke-width:2px;}.cls-3{fill:#fff;}</style> </defs> <title>free t</title> <circle class="cls-1" cx="28.42" cy="28.42" r="28.42"></circle> <path class="cls-2" d="M14.31,15v22.8a.74.74,0,0,0,.74.74H45.7"></path> <path class="cls-3" d="M18.76,24.23l4.34-5.49a1.19,1.19,0,0,1,1.75-.12l7.67,7.32a1.18,1.18,0,0,0,1.57,0l3.06-2.58a1.18,1.18,0,0,1,1.9.61l2.22,8.64a1.19,1.19,0,0,1-1.15,1.48H19.69A1.18,1.18,0,0,1,18.51,33V25A1.22,1.22,0,0,1,18.76,24.23Z"></path> </svg> 