<?xml version="1.0" encoding="UTF-8"?> <svg xmlns="http://www.w3.org/2000/svg" id="Capa_1" data-name="Capa 1" viewBox="0 0 39.41 39.96"> <defs> <style>.cls-1,.cls-2,.cls-3{fill:#174669;}.cls-1,.cls-3{stroke:#174669;stroke-miterlimit:10;}.cls-1{stroke-width:0.5px;}.cls-3{stroke-width:0.6px;}</style> </defs> <title>emojis</title> <g id="mlK1rq.tif"> <path class="cls-1" d="M35.31,27.53a5.7,5.7,0,0,0-1.9.72c-1.35.73-2.64,1.51-4,2.29,0,0-1.78,1.09-2.31-.73a3.13,3.13,0,0,0-2.25-2.42c-2.41-.89-4.78-1.89-7.19-2.77a6.07,6.07,0,0,0-2.31-.39c-.77,0-2.46,1.05-4.16,1.27a10.44,10.44,0,0,1-1.37,0H2.49c-1.17,0-1.17,0-1.17,1.15v9.86c0,1.17,0,1.17,1.15,1.17h8.24c.64,0,1.17,0,1.09-.9s.45-1.17,1.26-1.17a10.09,10.09,0,0,1,4.35.7c1.8.7,3.61,1.41,5.39,2.15a3.82,3.82,0,0,0,3.73-.28c3.21-1.87,6.33-3.67,9.46-5.53a7.39,7.39,0,0,0,1.37-1,2.36,2.36,0,0,0,.47-2.81A2.21,2.21,0,0,0,35.31,27.53Zm-25,8.89-6.75.06c-.64,0-.91-.34-.91-.95V27.72c0-.77.44-.94,1.11-.94H9.22c.84,0,1.08.37,1.08,1.14ZM26.41,32h0a2.84,2.84,0,0,1-3.94.81,15.73,15.73,0,0,1-2.3-1.29,3.08,3.08,0,0,1,.77-.19,8.94,8.94,0,0,1,1.42.52A4,4,0,0,0,26.41,32Zm10-1a6,6,0,0,1-.86.55c-3.12,1.81-6.25,3.59-9.37,5.44a2.88,2.88,0,0,1-2.89.23c-1.44-.67-3-1.17-4.44-1.8a13.81,13.81,0,0,0-5.67-1.06c-1.27,0-1.27,0-1.27-1.23V30.56s.05-1.61,0-2.58.41-1.41,1.23-1.75a5.68,5.68,0,0,1,5-.06C20,27.09,22,27.73,24,28.5a8.62,8.62,0,0,1,.95.39.59.59,0,0,1,.14.06,1.11,1.11,0,0,1,.47,1.5l0,.06a1.16,1.16,0,0,1-1.53.61c-1-.34-1.91-.75-2.9-1.05L21,30a1.83,1.83,0,0,0-2.19,1.31,1.58,1.58,0,0,0,1.17,1.88c1.16.5,2.36.89,3.48,1.4a2.14,2.14,0,0,0,2.24-.22q4-2.34,8-4.68a10,10,0,0,1,1.56-.8A1.19,1.19,0,0,1,36.36,31Z"></path> <circle class="cls-2" cx="7.85" cy="29.38" r="1.17"></circle> </g> <path class="cls-3" d="M15.68,16.06,15,14.32,13.26,14c-.66-.13-.78-.26-.79-.89,0-.83,0-1.67,0-2.5,0-.6.11-.72.72-.86.29-.07.58-.1.87-.16L15,9.42l.73-1.72-1-1.36c-.44-.64-.43-.78.09-1.31s1.13-1.15,1.7-1.71c.42-.41.65-.43,1.14-.1s1,.67,1.48,1L20,3.88c.27-.12.54-.22.86-.34.1-.57.2-1.15.32-1.73s.27-.78.9-.79c.83,0,1.66,0,2.49,0,.58,0,.73.17.85.76s.22,1.15.33,1.75l1.75.72,1.36-1c.6-.4.8-.39,1.32.13s1.11,1.1,1.65,1.66.46.67.11,1.19-.68,1-1,1.43l.74,1.74c.58.1,1.16.19,1.74.31s.71.25.72.86c0,.83,0,1.66,0,2.5,0,.65-.14.79-.77.91l-1.72.31-.72,1.73c.32.44.66.92,1,1.4s.37.78-.11,1.26-1.09,1.11-1.65,1.65-.67.51-1.25.12-.92-.65-1.41-1l-.87.36-.87.35c-.09.55-.18,1.13-.3,1.7s-.28.8-1,.81-1.56,0-2.34,0-.84-.11-1-.79-.2-1.11-.3-1.68l-1.75-.74-1.4,1c-.56.38-.72.37-1.19-.07s-1.19-1.17-1.76-1.77-.46-.62-.08-1.18S15.33,16.55,15.68,16.06Zm1.52,3.19c.44-.31.84-.58,1.21-.88a1,1,0,0,1,1.32-.1,5.49,5.49,0,0,0,1.54.65A1.06,1.06,0,0,1,22.16,20c0,.47.16.93.24,1.38h1.79c.08-.5.17-1,.24-1.44a1,1,0,0,1,.86-1,5.72,5.72,0,0,0,1.55-.65,1,1,0,0,1,1.31.08c.39.31.82.58,1.15.82l1.31-1.3c-.3-.42-.6-.87-.92-1.29a.86.86,0,0,1-.06-1,9.65,9.65,0,0,0,.72-1.69,1,1,0,0,1,1-.85,13.2,13.2,0,0,0,1.4-.24V11c-.58-.1-1.1-.21-1.63-.29a.85.85,0,0,1-.74-.64,16.36,16.36,0,0,0-.76-1.85.89.89,0,0,1,.06-1c.33-.45.64-.91.93-1.32l-1.3-1.29c-.39.27-.81.56-1.22.87a1,1,0,0,1-1.18.08,7.67,7.67,0,0,0-1.63-.67,1.05,1.05,0,0,1-.86-1c-.06-.47-.15-.94-.23-1.41H22.38c-.08.49-.18.94-.23,1.39a1,1,0,0,1-.84,1,7.9,7.9,0,0,0-1.62.67,1,1,0,0,1-1.18-.06c-.42-.32-.86-.61-1.32-.94L15.92,5.8c.33.45.59.85.89,1.22a1,1,0,0,1,.1,1.24,8.69,8.69,0,0,0-.7,1.7.93.93,0,0,1-.83.74L13.81,11v1.82c.55.09,1,.18,1.55.24a.93.93,0,0,1,.84.73A11.06,11.06,0,0,0,17,15.53a.93.93,0,0,1-.08,1.11c-.32.42-.62.87-.91,1.28Z"></path> <path class="cls-3" d="M23.3,6.88a4.94,4.94,0,0,1,5,5,5,5,0,1,1-5-5Zm0,1.29a3.69,3.69,0,0,0-3.73,3.7,3.71,3.71,0,0,0,7.42,0A3.67,3.67,0,0,0,23.31,8.17Z"></path> </svg> 