<?xml version="1.0" encoding="UTF-8"?> <!-- Generator: Adobe Illustrator 24.0.2, SVG Export Plug-In . SVG Version: 6.00 Build 0) --> <svg xmlns="http://www.w3.org/2000/svg" xmlns:xlink="http://www.w3.org/1999/xlink" id="Capa_1" x="0px" y="0px" viewBox="0 0 140 136" style="enable-background:new 0 0 140 136;" xml:space="preserve"> <style type="text/css"> .st0{fill:#00BFBF;} .st1{fill:#25858C;stroke:#25858C;stroke-width:2;stroke-miterlimit:10;} .st2{fill:#25858C;} .st3{fill:#2E5D87;} .st4{fill:#FFFFFF;} .st5{fill:none;stroke:#2E5D87;stroke-width:4.5;stroke-miterlimit:10;} .st6{fill:#2E5D87;stroke:#2E5D87;stroke-width:0.25;stroke-miterlimit:10;} .st7{fill:none;stroke:#25858C;stroke-width:4;stroke-linecap:round;stroke-miterlimit:10;} </style> <path class="st2" d="M77.89,86.31c0.02-0.01,0.04-0.02,0.06-0.02c1.85-0.81,2.31-3.21,0.92-4.67c-1.76-1.84-3.81-3.47-6.17-4.88 c-2.87-1.71-3.93-2.54-0.84-5.26c4.18-3.67,5.82-8.77,6.03-13.22c0.1-10.31-6.05-18.57-14.97-21.22C54,34.39,44.41,37.95,39.4,45.78 c-5.14,8.03-4.46,18.51,2.36,25.27c3.09,3.06,2.44,3.93-0.82,5.91c-7.84,4.77-12.2,12.08-13.54,21.09c-0.17,1.18,0.68,3.42,1.5,3.65 c1.96,0.55,3.77,0.64,4.34-2.75c2.19-12.96,11.76-21.07,23.95-21c6.93,0.04,13.01,2.82,17.32,7.61 C75.37,86.51,76.72,86.83,77.89,86.31z M57.05,72.03c-8.33,0.03-15.17-6.88-15.07-15.21c0.1-8.13,6.82-14.78,14.96-14.81 c8.14-0.03,14.92,6.58,15.07,14.71C72.17,65.05,65.39,72,57.05,72.03z"></path> <g> <path class="st2" d="M88.97,74.27c8.52,0.04,15.4,7.06,15.33,15.62c-0.07,8.51-7.12,15.39-15.67,15.29 c-8.4-0.1-15.23-7.06-15.2-15.5C73.44,81.13,80.42,74.22,88.97,74.27z M83.73,93.29c-0.37,3.24,0.44,4.44,4.17,6.27 c0.06,0.64,0.14,1.34,0.22,2.13c0.62,0,1.13,0,1.67,0c0.11-0.83,0.19-1.52,0.28-2.2c0.37-0.18,0.65-0.34,0.95-0.45 c2.38-0.86,3.27-2.64,3.24-5.07c-0.03-2.02-0.83-3.56-2.53-4.64c-1.02-0.65-2.06-1.25-3.04-1.95c-0.86-0.62-1.1-1.56-0.97-2.58 c0.1-0.84,0.37-1.58,1.38-1.68c1.55,0.35,1.27,1.89,1.9,2.93c0.98,0,2,0,3.09,0c0.44-3.17-1.26-4.88-3.73-6.03 c-0.07-0.89-0.14-1.67-0.21-2.54c-0.63,0-1.14,0-1.69,0c-0.09,0.92-0.17,1.71-0.24,2.46c-0.29,0.15-0.49,0.29-0.72,0.37 c-2.22,0.78-3.37,2.33-3.48,4.69c-0.11,2.4,0.79,4.21,2.97,5.34c0.78,0.4,1.58,0.82,2.29,1.33c1.21,0.86,1.64,2.14,1.25,3.36 c-0.24,0.76-0.72,1.39-1.51,1.29c-0.55-0.07-1.18-0.51-1.51-0.97c-0.39-0.56-0.5-1.33-0.75-2.06 C85.73,93.29,84.72,93.29,83.73,93.29z"></path> <path class="st2" d="M108.13,87.77c5.23,4.62,5.13,14.24-0.09,20.02c-6.27,6.95-16.27,6.2-21.26,1.28 c6.15,0.2,11.43-1.42,15.65-5.64C106.69,99.16,108.45,93.91,108.13,87.77z"></path> </g> </svg> 