<?xml version="1.0" encoding="UTF-8"?> <svg xmlns="http://www.w3.org/2000/svg" id="Layer_1" data-name="Layer 1" viewBox="0 0 95.83 95.83"> <defs> <style>.cls-1{fill:#1f5875;stroke:#fff;stroke-miterlimit:10;stroke-width:4px;}.cls-2{fill:#fff;}</style> </defs> <title>DIAG COLOR</title> <circle class="cls-1" cx="-46.81" cy="142.59" r="45.92"></circle> <circle class="cls-1" cx="47.92" cy="47.92" r="45.92"></circle> <path class="cls-2" d="M72.72,27.92V64.18a2.55,2.55,0,0,1-4,2.09l-9.45-6.7a2.23,2.23,0,0,0-1.24-.4c-3.69,0-7.37,0-11.06,0-.8,0-.8,0-.81.84,0,2.73,0,5.47-.07,8.2a6.6,6.6,0,0,1-6.42,6.16A6.72,6.72,0,0,1,32.91,69a8.78,8.78,0,0,1-.14-1.44c0-2.57,0-5.13,0-7.7v-.67c-.9-.16-1.73-.26-2.54-.44A13.09,13.09,0,0,1,31.81,33a11.31,11.31,0,0,1,1.3-.06Q45.55,33,58,33a2.48,2.48,0,0,0,1.21-.39c2.47-1.74,6.49-4.6,9.51-6.74A2.55,2.55,0,0,1,72.72,27.92ZM44.56,46c0-2.85,0-5.71,0-8.57,0-.56-.14-.76-.74-.75-3.57,0-7.14,0-10.71,0a9.32,9.32,0,0,0-.38,18.63c3.7,0,7.39,0,11.09,0,.6,0,.75-.2.74-.76C44.55,51.74,44.56,48.88,44.56,46ZM69,31.11a.43.43,0,0,0-.67-.35c-1.45,1-4.9,3.44-6.77,4.8a1,1,0,0,0-.32.74c0,6.49,0,13,0,19.49a1.07,1.07,0,0,0,.46.88l6.66,4.7A.43.43,0,0,0,69,61ZM48.37,36.75c0,.2,0,.33,0,.45q0,8.79,0,17.58c0,.56.26.61.69.61,2.52,0,5,0,7.56,0,.64,0,.81-.18.81-.82,0-5.71,0-11.42,0-17.14,0-.22,0-.44,0-.69Zm-6,22.47H36.49v.61c0,2.69-.05,5.38,0,8.06a2.82,2.82,0,0,0,2.74,2.71,2.75,2.75,0,0,0,3-2.43C42.42,65.2,42.33,62.22,42.33,59.22Z"></path> </svg> 