<?xml version="1.0" encoding="UTF-8"?> <svg xmlns="http://www.w3.org/2000/svg" xmlns:xlink="http://www.w3.org/1999/xlink" width="228px" height="228px" style="shape-rendering:geometricPrecision; text-rendering:geometricPrecision; image-rendering:optimizeQuality; fill-rule:evenodd; clip-rule:evenodd"> <g> <path style="opacity:1" fill="#fefefe" d="M -0.5,-0.5 C 75.5,-0.5 151.5,-0.5 227.5,-0.5C 227.5,75.5 227.5,151.5 227.5,227.5C 151.5,227.5 75.5,227.5 -0.5,227.5C -0.5,151.5 -0.5,75.5 -0.5,-0.5 Z"></path> </g> <g> <path style="opacity:1" fill="#16ccc7" d="M 179.5,45.5 C 178.957,45.56 178.624,45.8933 178.5,46.5C 180.076,48.9793 181.076,51.646 181.5,54.5C 180.178,54.33 179.011,54.6634 178,55.5C 176.748,53.9991 175.748,52.3325 175,50.5C 174.601,50.7284 174.435,51.0618 174.5,51.5C 151.381,16.6244 119.714,5.45774 79.5,18C 44.5979,34.9645 29.4312,62.7978 34,101.5C 35.0415,106.673 36.5415,111.673 38.5,116.5C 36.747,119.816 34.5803,120.149 32,117.5C 31.6012,117.728 31.4346,118.062 31.5,118.5C 18.5896,82.6385 25.9229,51.4719 53.5,25C 89.2167,-1.93501 125.217,-2.26834 161.5,24C 168.841,30.1627 174.841,37.3294 179.5,45.5 Z"></path> </g> <g> <path style="opacity:1" fill="#fdfefe" d="M 174.5,51.5 C 178.532,60.2613 181.532,69.2613 183.5,78.5C 183.809,87.2585 183.142,95.9252 181.5,104.5C 180.036,109.558 178.37,114.558 176.5,119.5C 170.045,132.094 161.045,142.427 149.5,150.5C 152.049,135.362 148.882,121.362 140,108.5C 136.59,104.584 132.757,101.251 128.5,98.5C 124.9,96.0805 121.4,93.4138 118,90.5C 115.212,86.5711 112.712,82.5711 110.5,78.5C 105.684,79.1608 101.351,78.1608 97.5,75.5C 93.3467,72.5365 90.68,68.5365 89.5,63.5C 89.5,62.1667 89.5,60.8333 89.5,59.5C 89.5,58.8333 89.5,58.1667 89.5,57.5C 90.8094,53.8962 92.3094,50.5628 94,47.5C 90.4987,49.4884 87.332,51.8217 84.5,54.5C 75.8279,60.1334 70.3279,68.1334 68,78.5C 66.1428,90.3798 68.3095,101.38 74.5,111.5C 77.188,116.188 80.8547,119.855 85.5,122.5C 90.0694,126.481 95.4028,129.148 101.5,130.5C 107.916,140.165 110.583,150.832 109.5,162.5C 106.5,162.5 103.5,162.5 100.5,162.5C 93.6439,162.062 86.9772,160.729 80.5,158.5C 74.3989,155.279 68.3989,151.779 62.5,148C 56.9703,143.636 51.9703,138.802 47.5,133.5C 44.258,128.019 41.258,122.352 38.5,116.5C 36.5415,111.673 35.0415,106.673 34,101.5C 29.4312,62.7978 44.5979,34.9645 79.5,18C 119.714,5.45774 151.381,16.6244 174.5,51.5 Z"></path> </g> <g> <path style="opacity:1" fill="#08cfc7" d="M 123.5,50.5 C 125.543,51.5794 126.876,53.246 127.5,55.5C 125.736,57.2869 123.236,58.9536 120,60.5C 119.062,62.4885 118.228,64.4885 117.5,66.5C 116.522,66.189 115.855,65.5223 115.5,64.5C 117.671,59.4849 120.337,54.8182 123.5,50.5 Z"></path> </g> <g> <path style="opacity:1" fill="#0ebcbc" d="M 179.5,45.5 C 185.985,56.6224 189.652,68.6224 190.5,81.5C 189.835,83.6979 189.168,86.0312 188.5,88.5C 187.833,88.8333 187.167,89.1667 186.5,89.5C 185.082,85.3072 184.082,81.6406 183.5,78.5C 181.532,69.2613 178.532,60.2613 174.5,51.5C 174.435,51.0618 174.601,50.7284 175,50.5C 175.748,52.3325 176.748,53.9991 178,55.5C 179.011,54.6634 180.178,54.33 181.5,54.5C 181.076,51.646 180.076,48.9793 178.5,46.5C 178.624,45.8933 178.957,45.56 179.5,45.5 Z"></path> </g> <g> <path style="opacity:1" fill="#21bebe" d="M 123.5,50.5 C 120.337,54.8182 117.671,59.4849 115.5,64.5C 115.855,65.5223 116.522,66.189 117.5,66.5C 119.5,67.8333 121.167,69.5 122.5,71.5C 120.038,74.2939 117.038,76.2939 113.5,77.5C 111.077,76.3184 110.077,74.3184 110.5,71.5C 111.429,62.6413 115.263,55.3079 122,49.5C 122.383,50.056 122.883,50.3893 123.5,50.5 Z"></path> </g> <g> <path style="opacity:1" fill="#13ebdf" d="M 127.5,55.5 C 132.967,63.4277 132.467,71.0943 126,78.5C 125.102,75.9309 123.935,73.5976 122.5,71.5C 121.167,69.5 119.5,67.8333 117.5,66.5C 118.228,64.4885 119.062,62.4885 120,60.5C 123.236,58.9536 125.736,57.2869 127.5,55.5 Z"></path> </g> <g> <path style="opacity:1" fill="#24e2e7" d="M 89.5,63.5 C 90.68,68.5365 93.3467,72.5365 97.5,75.5C 95.8686,77.2283 94.202,79.0616 92.5,81C 92.7591,82.2613 93.4258,83.2613 94.5,84C 96.926,83.9521 99.2593,84.1188 101.5,84.5C 102.981,83.5197 104.315,82.353 105.5,81C 106.437,80.3083 107.103,80.475 107.5,81.5C 104.45,83.5491 102.117,86.2157 100.5,89.5C 100.167,89.5 99.8333,89.5 99.5,89.5C 95.1829,89.0834 91.1829,89.7501 87.5,91.5C 85.5,91.8333 83.5,92.1667 81.5,92.5C 79.4313,81.3082 82.0979,71.6415 89.5,63.5 Z"></path> </g> <g> <path style="opacity:1" fill="#00b2c2" d="M 89.5,57.5 C 89.5,58.1667 89.5,58.8333 89.5,59.5C 80.2908,69.1258 76.9574,80.4591 79.5,93.5C 79.5,93.8333 79.5,94.1667 79.5,94.5C 78.1667,94.8333 76.8333,95.1667 75.5,95.5C 72.5674,80.5222 76.234,67.3555 86.5,56C 87.788,55.7613 88.788,56.2613 89.5,57.5 Z"></path> </g> <g> <path style="opacity:1" fill="#029cb0" d="M 89.5,57.5 C 88.788,56.2613 87.788,55.7613 86.5,56C 76.234,67.3555 72.5674,80.5222 75.5,95.5C 74.7387,96.3909 73.7387,97.0576 72.5,97.5C 69.8048,81.2788 73.8048,66.9455 84.5,54.5C 87.332,51.8217 90.4987,49.4884 94,47.5C 92.3094,50.5628 90.8094,53.8962 89.5,57.5 Z"></path> </g> <g> <path style="opacity:1" fill="#10869f" d="M 84.5,54.5 C 73.8048,66.9455 69.8048,81.2788 72.5,97.5C 73.7387,97.0576 74.7387,96.3909 75.5,95.5C 76.8333,95.1667 78.1667,94.8333 79.5,94.5C 79.9382,94.4346 80.2716,94.6012 80.5,95C 77.2147,96.8013 75.3814,99.6346 75,103.5C 74.8144,106.399 74.6478,109.066 74.5,111.5C 68.3095,101.38 66.1428,90.3798 68,78.5C 70.3279,68.1334 75.8279,60.1334 84.5,54.5 Z"></path> </g> <g> <path style="opacity:1" fill="#00c7d2" d="M 89.5,59.5 C 89.5,60.8333 89.5,62.1667 89.5,63.5C 82.0979,71.6415 79.4313,81.3082 81.5,92.5C 81.1583,93.3382 80.4916,93.6716 79.5,93.5C 76.9574,80.4591 80.2908,69.1258 89.5,59.5 Z"></path> </g> <g> <path style="opacity:1" fill="#66ecef" d="M 97.5,75.5 C 101.351,78.1608 105.684,79.1608 110.5,78.5C 109.833,79.8333 108.833,80.8333 107.5,81.5C 107.103,80.475 106.437,80.3083 105.5,81C 104.315,82.353 102.981,83.5197 101.5,84.5C 99.2593,84.1188 96.926,83.9521 94.5,84C 93.4258,83.2613 92.7591,82.2613 92.5,81C 94.202,79.0616 95.8686,77.2283 97.5,75.5 Z"></path> </g> <g> <path style="opacity:1" fill="#0098a6" d="M 99.5,89.5 C 99.8333,89.5 100.167,89.5 100.5,89.5C 104.908,89.925 109.242,90.5916 113.5,91.5C 106.586,91.039 101.086,93.7057 97,99.5C 96.3826,96.9649 96.8826,94.6316 98.5,92.5C 96.2338,91.6858 93.9005,91.1858 91.5,91C 94.3647,90.8171 97.0314,90.3171 99.5,89.5 Z"></path> </g> <g> <path style="opacity:1" fill="#12adb2" d="M 190.5,81.5 C 190.898,90.0681 190.231,98.4014 188.5,106.5C 188.649,105.448 188.483,104.448 188,103.5C 185.959,104.423 183.792,104.756 181.5,104.5C 183.142,95.9252 183.809,87.2585 183.5,78.5C 184.082,81.6406 185.082,85.3072 186.5,89.5C 187.167,89.1667 187.833,88.8333 188.5,88.5C 189.168,86.0312 189.835,83.6979 190.5,81.5 Z"></path> </g> <g> <path style="opacity:1" fill="#029ead" d="M 87.5,91.5 C 88.675,91.281 89.675,91.6143 90.5,92.5C 84.3659,95.3573 80.6992,100.024 79.5,106.5C 80.2914,112.367 82.2914,117.7 85.5,122.5C 80.8547,119.855 77.188,116.188 74.5,111.5C 74.6478,109.066 74.8144,106.399 75,103.5C 75.3814,99.6346 77.2147,96.8013 80.5,95C 80.2716,94.6012 79.9382,94.4346 79.5,94.5C 79.5,94.1667 79.5,93.8333 79.5,93.5C 80.4916,93.6716 81.1583,93.3382 81.5,92.5C 83.5,92.1667 85.5,91.8333 87.5,91.5 Z"></path> </g> <g> <path style="opacity:1" fill="#08babd" d="M 110.5,78.5 C 112.712,82.5711 115.212,86.5711 118,90.5C 121.4,93.4138 124.9,96.0805 128.5,98.5C 125.968,100.13 123.302,101.464 120.5,102.5C 114.484,101.25 108.817,101.75 103.5,104C 101.042,105.787 99.3758,108.121 98.5,111C 99.2358,115.261 100.236,119.428 101.5,123.5C 99.1556,122.653 97.6556,120.986 97,118.5C 96.3333,114.833 96.3333,111.167 97,107.5C 101.334,101.5 107.167,97.9996 114.5,97C 112.5,96.6667 110.5,96.3333 108.5,96C 112.211,95.8253 115.878,95.3253 119.5,94.5C 117.936,92.7489 115.936,91.7489 113.5,91.5C 109.242,90.5916 104.908,89.925 100.5,89.5C 102.117,86.2157 104.45,83.5491 107.5,81.5C 108.833,80.8333 109.833,79.8333 110.5,78.5 Z"></path> </g> <g> <path style="opacity:1" fill="#02d4d3" d="M 120.5,102.5 C 120.918,103.222 121.584,103.722 122.5,104C 121.5,104.333 120.5,104.667 119.5,105C 129.976,108.629 134.976,115.462 134.5,125.5C 133.167,126.5 131.833,127.5 130.5,128.5C 125.626,130.124 120.626,131.124 115.5,131.5C 109.979,130.404 105.313,127.738 101.5,123.5C 100.236,119.428 99.2358,115.261 98.5,111C 99.3758,108.121 101.042,105.787 103.5,104C 108.817,101.75 114.484,101.25 120.5,102.5 Z"></path> </g> <g> <path style="opacity:1" fill="#02e3e1" d="M 116.5,106.5 C 121.622,107.644 126.122,109.978 130,113.5C 132.101,117.665 131.601,121.498 128.5,125C 120.854,127.595 113.687,126.762 107,122.5C 105.963,119.595 104.796,116.761 103.5,114C 104.833,112 106.167,110 107.5,108C 110.695,107.819 113.695,107.319 116.5,106.5 Z"></path> </g> <g> <path style="opacity:1" fill="#0fa1aa" d="M 188.5,106.5 C 187.602,111.534 185.935,116.201 183.5,120.5C 182.685,121.429 181.852,122.429 181,123.5C 179.887,122.289 178.72,122.289 177.5,123.5C 177.24,122.095 176.907,120.762 176.5,119.5C 178.37,114.558 180.036,109.558 181.5,104.5C 183.792,104.756 185.959,104.423 188,103.5C 188.483,104.448 188.649,105.448 188.5,106.5 Z"></path> </g> <g> <path style="opacity:1" fill="#01b4bc" d="M 99.5,89.5 C 97.0314,90.3171 94.3647,90.8171 91.5,91C 93.9005,91.1858 96.2338,91.6858 98.5,92.5C 96.8826,94.6316 96.3826,96.9649 97,99.5C 101.086,93.7057 106.586,91.039 113.5,91.5C 115.936,91.7489 117.936,92.7489 119.5,94.5C 115.878,95.3253 112.211,95.8253 108.5,96C 110.5,96.3333 112.5,96.6667 114.5,97C 107.167,97.9996 101.334,101.5 97,107.5C 96.3333,111.167 96.3333,114.833 97,118.5C 97.6556,120.986 99.1556,122.653 101.5,123.5C 101.84,126.675 103.507,128.841 106.5,130C 104.866,130.494 103.199,130.66 101.5,130.5C 95.4028,129.148 90.0694,126.481 85.5,122.5C 82.2914,117.7 80.2914,112.367 79.5,106.5C 80.6992,100.024 84.3659,95.3573 90.5,92.5C 89.675,91.6143 88.675,91.281 87.5,91.5C 91.1829,89.7501 95.1829,89.0834 99.5,89.5 Z"></path> </g> <g> <path style="opacity:1" fill="#00cacf" d="M 94.5,97.5 C 93.963,105.398 94.6297,113.398 96.5,121.5C 90.7461,118.837 87.0794,114.004 85.5,107C 85.6667,106.167 85.8333,105.333 86,104.5C 88.7085,101.768 91.5419,99.4346 94.5,97.5 Z"></path> </g> <g> <path style="opacity:1" fill="#0cc5bc" d="M 128.5,98.5 C 132.757,101.251 136.59,104.584 140,108.5C 148.882,121.362 152.049,135.362 149.5,150.5C 147.599,153.295 145.933,156.295 144.5,159.5C 143.778,159.082 143.278,158.416 143,157.5C 137.832,160.864 133.998,159.697 131.5,154C 130.069,153.535 128.903,152.701 128,151.5C 127.601,151.728 127.435,152.062 127.5,152.5C 124.302,148.645 120.969,144.812 117.5,141C 120.945,142.407 123.945,144.741 126.5,148C 129.285,148.559 131.618,149.892 133.5,152C 135.824,153.374 138.157,153.707 140.5,153C 139.241,153.923 137.908,154.757 136.5,155.5C 141.067,155.306 144.067,152.639 145.5,147.5C 145.33,140.138 145.164,132.472 145,124.5C 144.667,122.5 144.333,120.5 144,118.5C 142.955,119.373 142.122,120.373 141.5,121.5C 139.167,122.833 136.833,124.167 134.5,125.5C 134.976,115.462 129.976,108.629 119.5,105C 120.5,104.667 121.5,104.333 122.5,104C 121.584,103.722 120.918,103.222 120.5,102.5C 123.302,101.464 125.968,100.13 128.5,98.5 Z"></path> </g> <g> <path style="opacity:1" fill="#0fb3b6" d="M 38.5,116.5 C 41.258,122.352 44.258,128.019 47.5,133.5C 47.4142,134.496 47.7476,135.329 48.5,136C 45.9306,137.426 43.7639,137.259 42,135.5C 41.6012,135.728 41.4346,136.062 41.5,136.5C 37.1416,131.121 33.8083,125.121 31.5,118.5C 31.4346,118.062 31.6012,117.728 32,117.5C 34.5803,120.149 36.747,119.816 38.5,116.5 Z"></path> </g> <g> <path style="opacity:1" fill="#80f1f0" d="M 130.5,128.5 C 130.182,131.625 129.182,134.458 127.5,137C 123.181,136.612 119.181,135.112 115.5,132.5C 115.5,132.167 115.5,131.833 115.5,131.5C 120.626,131.124 125.626,130.124 130.5,128.5 Z"></path> </g> <g> <path style="opacity:1" fill="#11cad0" d="M 101.5,123.5 C 105.313,127.738 109.979,130.404 115.5,131.5C 111.818,131.335 108.152,131.501 104.5,132C 106.874,134.039 108.874,136.372 110.5,139C 110.043,139.414 109.709,139.914 109.5,140.5C 111.557,144.263 113.057,148.263 114,152.5C 116.106,154.377 117.439,156.71 118,159.5C 118.25,156.047 117.917,152.714 117,149.5C 118.563,155.893 122.396,160.227 128.5,162.5C 129.663,161.944 130.663,161.611 131.5,161.5C 136.932,172.736 134.265,175.402 123.5,169.5C 122.192,173.315 122.192,176.981 123.5,180.5C 123.5,181.167 123.167,181.5 122.5,181.5C 119.386,186.362 116.219,191.362 113,196.5C 110.63,199.039 108.13,201.372 105.5,203.5C 104.588,202.262 104.421,200.928 105,199.5C 106.712,195.907 108.546,192.407 110.5,189C 110.472,187.93 110.139,187.097 109.5,186.5C 109.5,186.167 109.5,185.833 109.5,185.5C 112.454,184.572 115.454,183.739 118.5,183C 119.022,182.439 119.355,181.772 119.5,181C 116.557,177.007 114.89,172.507 114.5,167.5C 112.739,171.937 111.572,176.603 111,181.5C 108.571,184.143 106.738,183.643 105.5,180C 107.046,178.527 108.046,176.694 108.5,174.5C 108.48,173.274 108.147,172.274 107.5,171.5C 107.5,171.167 107.5,170.833 107.5,170.5C 108.103,168.321 108.77,166.154 109.5,164C 106.305,163.819 103.305,163.319 100.5,162.5C 103.5,162.5 106.5,162.5 109.5,162.5C 110.583,150.832 107.916,140.165 101.5,130.5C 103.199,130.66 104.866,130.494 106.5,130C 103.507,128.841 101.84,126.675 101.5,123.5 Z"></path> </g> <g> <path style="opacity:1" fill="#0ad9d8" d="M 127.5,152.5 C 129.105,155.378 130.439,158.378 131.5,161.5C 130.663,161.611 129.663,161.944 128.5,162.5C 122.396,160.227 118.563,155.893 117,149.5C 117.917,152.714 118.25,156.047 118,159.5C 117.439,156.71 116.106,154.377 114,152.5C 113.057,148.263 111.557,144.263 109.5,140.5C 109.709,139.914 110.043,139.414 110.5,139C 108.874,136.372 106.874,134.039 104.5,132C 108.152,131.501 111.818,131.335 115.5,131.5C 115.5,131.833 115.5,132.167 115.5,132.5C 113.801,132.34 112.134,132.506 110.5,133C 113.48,134.634 116.48,136.3 119.5,138C 123.695,141.697 128.028,145.197 132.5,148.5C 134.527,147.307 136.027,145.64 137,143.5C 138.938,135.996 140.438,128.663 141.5,121.5C 142.122,120.373 142.955,119.373 144,118.5C 144.333,120.5 144.667,122.5 145,124.5C 145.164,132.472 145.33,140.138 145.5,147.5C 144.067,152.639 141.067,155.306 136.5,155.5C 137.908,154.757 139.241,153.923 140.5,153C 138.157,153.707 135.824,153.374 133.5,152C 131.618,149.892 129.285,148.559 126.5,148C 123.945,144.741 120.945,142.407 117.5,141C 120.969,144.812 124.302,148.645 127.5,152.5 Z"></path> </g> <g> <path style="opacity:1" fill="#21e8e6" d="M 141.5,121.5 C 140.438,128.663 138.938,135.996 137,143.5C 136.027,145.64 134.527,147.307 132.5,148.5C 128.028,145.197 123.695,141.697 119.5,138C 116.48,136.3 113.48,134.634 110.5,133C 112.134,132.506 113.801,132.34 115.5,132.5C 119.181,135.112 123.181,136.612 127.5,137C 129.182,134.458 130.182,131.625 130.5,128.5C 131.833,127.5 133.167,126.5 134.5,125.5C 136.833,124.167 139.167,122.833 141.5,121.5 Z"></path> </g> <g> <path style="opacity:1" fill="#0b8b9c" d="M 176.5,119.5 C 176.907,120.762 177.24,122.095 177.5,123.5C 178.72,122.289 179.887,122.289 181,123.5C 181.852,122.429 182.685,121.429 183.5,120.5C 181.059,127.379 177.559,133.712 173,139.5C 165.008,149.674 155.175,157.34 143.5,162.5C 143.557,161.391 143.89,160.391 144.5,159.5C 145.933,156.295 147.599,153.295 149.5,150.5C 161.045,142.427 170.045,132.094 176.5,119.5 Z"></path> </g> <g> <path style="opacity:1" fill="#0c9ea8" d="M 47.5,133.5 C 51.9703,138.802 56.9703,143.636 62.5,148C 68.3989,151.779 74.3989,155.279 80.5,158.5C 80.6107,159.117 80.944,159.617 81.5,160C 79.5405,160.931 77.5405,161.764 75.5,162.5C 73.5,161.5 71.5,160.5 69.5,159.5C 68.8933,159.624 68.56,159.957 68.5,160.5C 57.6391,154.642 48.6391,146.642 41.5,136.5C 41.4346,136.062 41.6012,135.728 42,135.5C 43.7639,137.259 45.9306,137.426 48.5,136C 47.7476,135.329 47.4142,134.496 47.5,133.5 Z"></path> </g> <g> <path style="opacity:1" fill="#0bb3b6" d="M 144.5,159.5 C 143.89,160.391 143.557,161.391 143.5,162.5C 140.878,166.457 137.878,170.124 134.5,173.5C 131.101,176.228 127.434,178.561 123.5,180.5C 122.192,176.981 122.192,173.315 123.5,169.5C 134.265,175.402 136.932,172.736 131.5,161.5C 130.439,158.378 129.105,155.378 127.5,152.5C 127.435,152.062 127.601,151.728 128,151.5C 128.903,152.701 130.069,153.535 131.5,154C 133.998,159.697 137.832,160.864 143,157.5C 143.278,158.416 143.778,159.082 144.5,159.5 Z"></path> </g> <g> <path style="opacity:1" fill="#118d9e" d="M 80.5,158.5 C 86.9772,160.729 93.6439,162.062 100.5,162.5C 103.305,163.319 106.305,163.819 109.5,164C 108.77,166.154 108.103,168.321 107.5,170.5C 93.5567,170.764 80.5567,167.431 68.5,160.5C 68.56,159.957 68.8933,159.624 69.5,159.5C 71.5,160.5 73.5,161.5 75.5,162.5C 77.5405,161.764 79.5405,160.931 81.5,160C 80.944,159.617 80.6107,159.117 80.5,158.5 Z"></path> </g> <g> <path style="opacity:1" fill="#20e1e0" d="M 134.5,173.5 C 134.847,186.795 130.847,198.462 122.5,208.5C 123.409,199.893 123.409,191.226 122.5,182.5C 122.5,182.167 122.5,181.833 122.5,181.5C 123.167,181.5 123.5,181.167 123.5,180.5C 127.434,178.561 131.101,176.228 134.5,173.5 Z"></path> </g> <g> <path style="opacity:1" fill="#0cafbf" d="M 109.5,185.5 C 108.833,185.833 108.167,186.167 107.5,186.5C 104.941,186.802 102.607,186.468 100.5,185.5C 103.361,181.112 105.694,176.446 107.5,171.5C 108.147,172.274 108.48,173.274 108.5,174.5C 108.046,176.694 107.046,178.527 105.5,180C 106.738,183.643 108.571,184.143 111,181.5C 111.572,176.603 112.739,171.937 114.5,167.5C 114.89,172.507 116.557,177.007 119.5,181C 119.355,181.772 119.022,182.439 118.5,183C 115.454,183.739 112.454,184.572 109.5,185.5 Z"></path> </g> <g> <path style="opacity:1" fill="#2ed8de" d="M 100.5,185.5 C 102.607,186.468 104.941,186.802 107.5,186.5C 102.303,192.098 95.9693,195.598 88.5,197C 93.0285,193.636 97.0285,189.803 100.5,185.5 Z"></path> </g> <g> <path style="opacity:1" fill="#1fb2c1" d="M 109.5,186.5 C 110.139,187.097 110.472,187.93 110.5,189C 108.546,192.407 106.712,195.907 105,199.5C 104.421,200.928 104.588,202.262 105.5,203.5C 102.414,206.223 99.0804,208.723 95.5,211C 94.8333,211.667 94.1667,211.667 93.5,211C 100.722,204.052 106.056,195.886 109.5,186.5 Z"></path> </g> <g> <path style="opacity:1" fill="#15c0c2" d="M 122.5,182.5 C 123.409,191.226 123.409,199.893 122.5,208.5C 118.741,215.111 113.407,219.611 106.5,222C 115.642,210.413 120.976,197.247 122.5,182.5 Z"></path> </g> </svg> 