<?xml version="1.0" encoding="UTF-8"?> <svg xmlns="http://www.w3.org/2000/svg" id="Capa_1" data-name="Capa 1" viewBox="0 0 45.05 45.05"> <defs> <style>.cls-1{fill:#13456a;}.cls-2{fill:#fff;stroke:#13456a;stroke-miterlimit:10;stroke-width:0.25px;}</style> </defs> <title>Sin tiÌtulo-3</title> <circle class="cls-1" cx="22.52" cy="22.52" r="22.52"></circle> <path class="cls-2" d="M19.57,30.11h-.51c-1.91,0-3.82,0-5.73,0a1.76,1.76,0,0,1-1.86-1.86c0-.74,0-1.48,0-2.22a.75.75,0,0,1,.84-.85h17a.72.72,0,1,1,0,1.42h-16c-.31,0-.41.1-.4.4s0,.79,0,1.18.07.5.49.5H31.5c.63,0,.65,0,.65-.64V14.71c0-.66,0-.7-.68-.7H13.76c-.86,0-.86,0-.86.88V22.3a.78.78,0,0,1-.58.84.69.69,0,0,1-.77-.4.88.88,0,0,1-.08-.39V14.47a1.77,1.77,0,0,1,1.87-1.89H31.66a1.79,1.79,0,0,1,1.92,1.91V28.23a1.76,1.76,0,0,1-1.9,1.88H25.5c.07.18.1.3.16.42l.87,1.93c.29.67,0,1.15-.75,1.15H22.72a1.1,1.1,0,0,1-.57-.15.62.62,0,0,1-.28-.73.72.72,0,0,1,.7-.54h1.78l.43,0a2.26,2.26,0,0,0-.07-.28c-.23-.52-.46-1-.71-1.53a.49.49,0,0,0-.35-.23c-.75,0-1.5,0-2.26,0-.2,0-.28.1-.36.27-.41.92-.82,1.85-1.26,2.76a.68.68,0,0,1-1.25.1,1,1,0,0,1,0-.72c.23-.61.52-1.2.79-1.79Z"></path> <path class="cls-2" d="M25,17.75a2.58,2.58,0,0,1-2.2,3.17,2.47,2.47,0,0,1-2.15-.83A2.78,2.78,0,0,1,20,17.83c-.18.07-.3.1-.42.16a7.59,7.59,0,0,0-2.32,1.86c-.33.4-.65.5-1,.31a.67.67,0,0,1-.22-1,8.45,8.45,0,0,1,3.79-2.75,7.69,7.69,0,0,1,7.81,1.47,11.52,11.52,0,0,1,1.2,1.22.65.65,0,0,1,0,1c-.3.27-.66.22-1-.11-.57-.53-1.14-1.07-1.74-1.56A7.84,7.84,0,0,0,25,17.75Zm-2.48,1.78a1.1,1.1,0,0,0,1.15-1.14,1.11,1.11,0,0,0-1.13-1.09,1.15,1.15,0,0,0-1.14,1.13A1.11,1.11,0,0,0,22.51,19.53Z"></path> <path class="cls-2" d="M22.5,23.25a8,8,0,0,1-3.37-.82.65.65,0,0,1-.42-.73.66.66,0,0,1,.57-.58.77.77,0,0,1,.45.08,6.39,6.39,0,0,0,5.5,0,.78.78,0,0,1,.88,0,.69.69,0,0,1-.2,1.17,7.16,7.16,0,0,1-2.44.72C23.15,23.2,22.83,23.22,22.5,23.25Z"></path> </svg> 