<?xml version="1.0" encoding="UTF-8"?> <!-- Generator: Adobe Illustrator 24.0.2, SVG Export Plug-In . SVG Version: 6.00 Build 0) --> <svg xmlns="http://www.w3.org/2000/svg" xmlns:xlink="http://www.w3.org/1999/xlink" id="Capa_1" x="0px" y="0px" viewBox="0 0 660.2 344.5" style="enable-background:new 0 0 660.2 344.5;" xml:space="preserve"> <style type="text/css"> .st0{fill:#68C6ED;} .st1{fill:#FF9E28;} .st2{fill:#E54548;} .st3{fill:#034D81;} .st4{fill:#A5B1B7;} .st5{fill:#F8BE49;} .st6{fill:#FFFFFF;} .st7{font-family:'MyriadPro-Bold';} .st8{font-size:61.84px;} </style> <title>captarra logo</title> <polygon class="st0" points="124.1,169.4 164.1,47.6 45,94.6 101.6,114.2 "></polygon> <polygon class="st1" points="124.1,169.4 124.1,63.4 45,94.6 101.6,114.2 "></polygon> <polygon class="st2" points="101.6,114.2 93.6,94.6 45,94.6 "></polygon> <polygon class="st3" points="124.1,94.6 93.6,94.6 124.1,169.4 "></polygon> <path class="st3" d="M305.2,170.2c0-0.4,0-0.9,0-1.3V92.6c0.7-0.1,1.3-0.3,2-0.3c2.6-0.3,5.2-0.2,7.8,0.5c0.7,0.2,1.3,0.4,1.9,0.8 c1.3,0.6,2.3,1.7,2.8,3c0.1,0.3,0.2,0.6,0.4,1c0.3-0.3,0.5-0.5,0.8-0.8c2.3-2.3,5.2-4,8.4-5c4.8-1.3,9.9-1,14.6,0.8 c3.7,1.5,6.8,4.2,8.8,7.8c1.8,3.1,2.9,6.4,3.4,9.9c0.9,5.9,0.8,11.9-0.2,17.8c-0.6,3.6-1.8,7-3.7,10.1c-2.7,4.9-7.5,8.3-13,9.3 c-3.4,0.8-6.9,0.7-10.3-0.2c-1.4-0.4-2.9-1-4.2-1.6c-1.2-0.5-2.3-1.3-3.2-2.3c-0.2-0.2-0.4-0.4-0.7-0.7c0,0.6,0,0.9,0,1.3 c0,8.3,0,16.6,0,24.9c0,0.4,0,0.9,0,1.3L305.2,170.2z M320.6,120c0,3.9,0,7.8,0,11.7c-0.1,0.5,0.2,1,0.5,1.3c2.5,2.1,5.7,3.2,9,3 c3.3-0.1,6.3-2,7.8-5c0.9-1.6,1.5-3.2,1.8-5c0.8-4.1,1-8.4,0.4-12.6c-0.3-2.1-0.9-4.1-1.9-6c-1.3-2.3-3.4-3.9-6-4.5 c-2.1-0.4-4.2-0.5-6.3-0.1c-3.2,0.4-5.6,3.3-5.3,6.5C320.8,112.9,320.6,116.4,320.6,120z"></path> <path class="st3" d="M604.1,146.3c-1.5,0.4-2.9,0.9-4.4,1.1c-2,0.4-4.1,0.4-6.2-0.1c-2.7-0.4-4.8-2.4-5.5-5c0-0.2-0.1-0.3-0.2-0.5 c0-0.1-0.1-0.1-0.1-0.2l-0.4,0.3c-3.4,3.1-7.7,5.1-12.3,5.6c-3.4,0.5-6.9,0.2-10.3-0.7c-6.1-1.7-10.5-7.2-10.8-13.6 c-0.2-2-0.1-4.1,0.3-6.1c0.6-2.9,2.1-5.6,4.3-7.6c2.6-2.4,5.7-4.1,9-5.2c2.5-0.8,5-1.3,7.6-1.6c3.6-0.5,7.2-0.8,10.9-0.8 c0.2,0,0.3,0,0.5,0c0.1-0.1,0.1-0.1,0.1-0.2c0.2-1.7,0.1-3.4-0.3-5c-0.5-2-1.9-3.5-3.8-4.2c-2.3-0.8-4.8-1-7.3-0.8 c-3.2,0.2-6.4,1-9.2,2.5c-1.5,0.8-3,1.5-4.6,2.3l-0.8,0.4c-0.2-0.2-0.3-0.4-0.5-0.6c-1.3-1.8-2.3-3.8-2.9-6c-0.4-1.2,0-2.6,0.9-3.4 c0.8-0.8,1.8-1.4,2.8-2c2.1-1.2,4.5-2.1,6.8-2.7c5-1.2,10.2-1.7,15.4-1.2c2.3,0.1,4.6,0.5,6.8,1.2c5.5,1.5,9.7,6,10.7,11.6 c0.5,2.4,0.8,4.8,0.8,7.2c0,7.3,0,14.5,0,21.8c-0.1,3.2,0.3,6.4,1.1,9.5c0.4,1.1,0.8,2.1,1.2,3.1c0,0.1,0.2,0.2,0.3,0.3L604.1,146.3 z M587.1,120c-0.5,0-0.8-0.1-1.1,0c-3.1,0.1-6.1,0.4-9.1,1c-1.8,0.4-3.5,1.1-5,2.2c-1.9,1.3-3.2,3.3-3.4,5.6 c-0.1,1.1-0.1,2.1,0.2,3.2c0.7,3.1,2.4,5,5.5,5.5c3,0.5,6.1,0,8.9-1.3c1.1-0.6,2.2-1.3,3-2.2c0.8-0.8,1.2-1.9,1.2-3 c0-3.3,0-6.6,0-9.8L587.1,120z"></path> <path class="st3" d="M231,89.3c-1.1-1-2-1.8-2.9-2.6c-3.8-3.2-8.6-5-13.5-5.2c-2.7-0.2-5.4,0.2-8,1c-3.7,1.3-6.9,3.8-9,7.1 c-1.8,2.9-3.1,6.1-3.7,9.4c-0.9,4.5-1.1,9.1-0.7,13.7c0.2,3.6,1,7.1,2.3,10.4c1.6,4,4.4,7.3,8,9.5c2.3,1.3,4.8,2.2,7.5,2.4 c4.2,0.6,8.6-0.1,12.4-1.9c2.2-1.1,4.2-2.4,6-4.1l1.2-1c0.5,0.6,1,1.2,1.5,1.8c1.2,1.4,2.2,3,3,4.7c1.2,2.1,0.8,4.6-0.8,6.3 c-1.3,1.4-2.8,2.5-4.5,3.4c-2.8,1.5-5.9,2.5-9,3c-6.6,1.3-13.5,1-20-0.8c-10.2-2.9-17-9.6-20.7-19.5c-1.2-3.5-2-7.1-2.4-10.7 c-0.4-3.8-0.6-7.6-0.3-11.4c0.2-6.7,2-13.3,5.1-19.3c4.3-8.3,12.3-14.1,21.5-15.8c4.9-1,10-1.1,14.9-0.3c3.4,0.5,6.7,1.5,9.8,3 c1.8,0.9,3.4,2,4.9,3.2c1.2,1,2.1,2.3,2.5,3.8c0.3,1.3,0.1,2.6-0.5,3.8c-0.5,1-1.1,1.9-1.9,2.8C232.9,87.3,231.9,88.3,231,89.3z"></path> <path class="st3" d="M294.2,146.3c-1.1,0.3-2.2,0.7-3.3,0.9c-2.3,0.5-4.7,0.6-7,0.2c-2.8-0.4-5-2.4-5.6-5.1c0-0.2-0.1-0.3-0.2-0.6 c-0.2,0.1-0.4,0.2-0.5,0.4c-3.4,3.1-7.7,5.1-12.3,5.5c-3.3,0.4-6.7,0.2-9.9-0.6c-6.1-1.6-10.5-6.8-11-13.1c-0.3-2.6-0.2-5.2,0.5-7.8 c0.7-2.5,2.1-4.7,4.1-6.5c2.7-2.5,6-4.4,9.6-5.4c2.3-0.7,4.7-1.2,7.1-1.4c3.6-0.5,7.2-0.8,10.8-0.8c0.2,0,0.5,0,0.7-0.1 c0.1-2.3,0.2-4.6-1-6.7c-0.8-1.4-2.1-2.4-3.7-2.8c-2.2-0.6-4.5-0.8-6.9-0.7c-3.3,0.2-6.5,1.1-9.4,2.6l-5.2,2.6 c-0.1-0.1-0.2-0.3-0.3-0.5c-1.3-1.8-2.3-3.8-2.9-6c-0.4-1.2-0.1-2.6,0.9-3.4c0.8-0.8,1.8-1.5,2.7-2.1c2.7-1.4,5.5-2.4,8.5-3 c5.1-1.1,10.3-1.3,15.4-0.7c2,0.2,3.9,0.6,5.8,1.3c5.1,1.6,8.9,5.8,9.9,11c0.6,2.5,0.9,5,0.9,7.6c0,7.7,0,15.4,0,23.1 c-0.1,3.1,0.4,6.1,1.3,9.1C293.3,144.3,293.7,145.2,294.2,146.3z M277.2,119.9c-0.8,0-1.5-0.1-2.1,0c-2.3,0.2-4.6,0.5-6.9,0.8 c-2.5,0.3-4.8,1.3-6.7,2.8c-1.5,1.2-2.6,2.9-2.9,4.8c-0.2,1.4-0.1,2.9,0.2,4.2c0.6,2.6,2.7,4.5,5.3,4.8c3.6,0.6,7.2-0.1,10.3-2.2 c0.7-0.5,1.4-1.1,1.9-1.8c0.6-0.6,0.9-1.5,0.8-2.3c0-3.4,0-6.8,0-10.2L277.2,119.9z"></path> <path class="st3" d="M456.6,122.1h-20.1c-2.2,0-4.5,0-6.7,0s-4.4-0.1-6.6,0.1c0,1.3,0.2,2.6,0.6,3.9c0.5,1.9,1.3,3.8,2.4,5.5 c1.5,2.3,3.8,4,6.4,4.6c5.2,1.5,10.8,0.7,15.3-2.2c1-0.7,2-1.4,2.9-2.2c0.4-0.3,0.8-0.7,1.1-1c0.1,0,0.1,0,0.1,0.1 c1.7,2.1,3.1,4.4,4,7c0.6,1.7,0.2,3.6-1.1,4.8c-1,1-2.2,1.9-3.5,2.6c-2.9,1.5-6.1,2.4-9.4,2.8c-3.1,0.4-6.2,0.5-9.3,0.2 c-3.9-0.3-7.8-1.3-11.4-2.9c-3.4-1.7-6.4-4.3-8.5-7.5c-2.5-3.7-4.1-7.9-4.6-12.3c-0.4-3.2-0.5-6.4-0.3-9.6c0.2-4.6,1.5-9.1,3.9-13.1 c2.9-4.8,7.4-8.4,12.7-10.1c5.2-1.8,10.8-2,16.2-0.8c8.2,1.9,13.2,7.1,15.4,15.2c0.8,3.5,1.1,7.1,0.9,10.7c0,1.2-0.1,2.4-0.2,3.6 C456.7,121.6,456.7,121.8,456.6,122.1z M443.1,113.6c0-0.4,0-0.7,0-1c0-0.5-0.1-1-0.1-1.5c-0.2-2-0.8-4-1.7-5.8 c-0.9-1.7-2.4-2.9-4.2-3.4c-1.4-0.4-2.9-0.6-4.4-0.5c-3.6,0.1-6.8,2.1-8.3,5.4c-1,2-1.5,4.3-1.4,6.5c0,0.1,0.1,0.3,0.1,0.4 L443.1,113.6z"></path> <path class="st3" d="M367.4,75.7c3.1-0.6,6.2-0.6,9.3,0c3.3,0.7,5.7,3.5,5.9,6.8c0.1,1.2,0.1,2.4,0.1,3.5c0,1.8,0,3.5,0,5.3v1.1 h15.7c0.3,3.8,0.3,7.6,0.1,11.4h-15.7c0,0.4-0.1,0.7-0.1,1v23.4c0,1.3,0.2,2.7,0.6,3.9c0.6,2.2,2.6,3.7,4.8,3.9c1.5,0.2,3,0,4.5-0.6 c1.7-0.6,3.4-1.6,4.8-2.8l0.6-0.5c0.2,0.2,0.3,0.4,0.5,0.6c0.7,1.1,1.4,2.3,2,3.4c0.4,0.8,0.7,1.7,0.9,2.6c0.3,1.3,0,2.7-0.9,3.6 c-1.2,1.4-2.7,2.5-4.3,3.2c-2.4,1.1-4.9,1.8-7.5,2.1c-3.2,0.4-6.4,0.3-9.5-0.4c-5.9-1.4-9.5-5.2-11-11c-0.6-2.5-0.8-5-0.7-7.6 c0-17.4,0-34.8,0-52.2L367.4,75.7z"></path> <path class="st3" d="M528.5,147.9h-15.2c-0.2-0.7-0.3-53.9-0.1-55.3c0.6-0.1,1.2-0.2,1.8-0.3c2.3-0.3,4.6-0.2,6.8,0.3 c0.8,0.2,1.7,0.5,2.5,0.9c1.6,0.7,2.8,2,3.3,3.7c0.1,0.2,0.2,0.4,0.3,0.6c0.3-0.3,0.5-0.6,0.7-0.8c2.3-3.1,5.7-5.1,9.5-5.7 c2.5-0.5,5-0.3,7.4,0.6c0.7,0.3,1.4,0.7,2,1.1c1,0.7,1.5,1.9,1.5,3.1c0,1.5-0.2,3-0.7,4.4c-0.7,2.3-1.6,4.4-2.8,6.5 c-0.1,0.2-0.2,0.3-0.3,0.5c-0.7-0.5-1.3-0.9-2-1.4c-2.7-1.8-5.9-2.3-9-1.5c-1.5,0.4-2.9,1.2-4,2.4c-1.2,1.2-1.8,2.9-1.8,4.6 c0,7,0,14,0,21L528.5,147.9L528.5,147.9z"></path> <path class="st3" d="M469.3,92.6c0.6-0.1,1.2-0.2,1.9-0.3c2.8-0.4,5.6-0.1,8.3,0.7c2.1,0.7,3.7,2.3,4.3,4.3c0.1,0.1,0.1,0.3,0.2,0.4 c0.3-0.3,0.5-0.7,0.8-1c2.3-3,5.7-5,9.4-5.6c2.2-0.4,4.5-0.3,6.7,0.4c0.2,0.1,0.4,0.1,0.6,0.2c2.8,1,4,2.9,3.5,5.9 c-0.2,1.3-0.5,2.6-1,3.8c-0.7,1.8-1.5,3.5-2.3,5.3c-0.1,0.3-0.3,0.5-0.4,0.7l-1.1-0.8c-1.9-1.5-4.2-2.3-6.5-2.4 c-2.4-0.2-4.9,0.5-6.8,2.1c-1.5,1.3-2.4,3.1-2.3,5.1c0,11.7,0,23.4,0,35.2v1.1c-0.7,0.2-13.9,0.3-15.2,0.1 C469.1,147.2,469.1,93.7,469.3,92.6z"></path> <path class="st4" d="M213.9,276.1l-17.4,10.3c-1.5,0.9-3.4,0.4-4.3-1.1c-0.4-0.7-0.5-1.5-0.4-2.3l4.4-19.7c0.2-1.1-0.1-2.3-1-3 l-15-13.3c-1.3-1.1-1.4-3.1-0.3-4.4c0.5-0.6,1.3-1,2.1-1l20.1-1.9c1.1-0.1,2.1-0.8,2.6-1.9l8-18.5c0.7-1.6,2.5-2.3,4.1-1.6 c0.7,0.3,1.3,0.9,1.6,1.6l8,18.5c0.5,1.1,1.4,1.8,2.6,1.9l20.1,1.9c1.7,0.2,3,1.7,2.8,3.4c-0.1,0.8-0.4,1.5-1,2.1l-15.1,13.3 c-0.9,0.7-1.2,1.9-1,3L239,283c0.4,1.7-0.7,3.4-2.4,3.7c-0.8,0.2-1.6,0-2.3-0.4L217,276.1C216,275.5,214.8,275.5,213.9,276.1z"></path> <path class="st4" d="M303.6,276.1l-17.4,10.3c-1.5,0.9-3.4,0.4-4.3-1.1c-0.4-0.7-0.5-1.5-0.4-2.3l4.4-19.7c0.2-1.1-0.1-2.3-1-3 l-15-13.3c-1.3-1.1-1.4-3.1-0.3-4.4c0.5-0.6,1.3-1,2.1-1l20.1-1.9c1.1-0.1,2.1-0.8,2.6-1.9l8-18.5c0.7-1.6,2.5-2.3,4.1-1.6 c0.7,0.3,1.3,0.9,1.6,1.6l8,18.5c0.5,1.1,1.4,1.8,2.6,1.9l20.1,1.9c1.7,0.2,3,1.7,2.8,3.4c-0.1,0.8-0.4,1.5-1,2.1l-15.1,13.3 c-0.9,0.7-1.2,1.9-1,3l4.4,19.7c0.4,1.7-0.7,3.4-2.4,3.7c-0.8,0.2-1.6,0-2.3-0.4l-17.3-10.3C305.8,275.5,304.6,275.5,303.6,276.1z"></path> <path class="st4" d="M393.3,276.1L376,286.4c-1.5,0.9-3.4,0.4-4.3-1.1c-0.4-0.7-0.5-1.5-0.4-2.3l4.4-19.7c0.2-1.1-0.1-2.3-1-3 L359.6,247c-1.3-1.1-1.4-3.1-0.3-4.4c0.5-0.6,1.3-1,2.1-1l20.1-1.9c1.1-0.1,2.1-0.8,2.6-1.9l8-18.5c0.7-1.6,2.5-2.3,4.1-1.6 c0.7,0.3,1.3,0.9,1.6,1.6l8,18.5c0.5,1.1,1.4,1.8,2.6,1.9l20.1,1.9c1.7,0.2,3,1.7,2.8,3.4c-0.1,0.8-0.4,1.5-1,2.1l-15.1,13.3 c-0.9,0.7-1.2,1.9-1,3l4.4,19.7c0.4,1.7-0.7,3.4-2.4,3.7c-0.8,0.2-1.6,0-2.3-0.4l-17.3-10.3C395.5,275.5,394.3,275.5,393.3,276.1z"></path> <path class="st4" d="M483.1,276.1l-17.4,10.3c-1.5,0.9-3.4,0.4-4.3-1.1c-0.4-0.7-0.5-1.5-0.4-2.3l4.4-19.7c0.2-1.1-0.1-2.3-1-3 l-15-13.3c-1.3-1.1-1.4-3.1-0.3-4.4c0.5-0.6,1.3-1,2.1-1l20.1-1.9c1.1-0.1,2.1-0.8,2.6-1.9l8-18.5c0.7-1.6,2.5-2.3,4.1-1.6 c0.7,0.3,1.3,0.9,1.6,1.6l8,18.5c0.5,1.1,1.4,1.8,2.6,1.9l20.1,1.9c1.7,0.2,3,1.7,2.8,3.4c-0.1,0.8-0.4,1.5-1,2.1l-15.2,13.3 c-0.9,0.7-1.2,1.9-1,3l4.5,19.7c0.4,1.7-0.7,3.4-2.4,3.7c-0.8,0.2-1.6,0-2.3-0.4l-17.4-10.3C485.3,275.5,484.1,275.5,483.1,276.1z"></path> <path class="st4" d="M572.8,276.1l-17.3,10.3c-1.5,0.9-3.4,0.4-4.3-1.1c-0.4-0.7-0.5-1.5-0.4-2.3l4.4-19.7c0.2-1.1-0.1-2.3-1-3 L539.1,247c-1.3-1.1-1.4-3.1-0.3-4.4c0.5-0.6,1.3-1,2.1-1l20.1-1.9c1.1-0.1,2.1-0.8,2.6-1.9l8-18.5c0.7-1.6,2.5-2.3,4.1-1.6 c0.7,0.3,1.3,0.9,1.6,1.6l8,18.5c0.5,1.1,1.4,1.8,2.6,1.9l20.1,1.9c1.7,0.2,3,1.7,2.8,3.4c-0.1,0.8-0.4,1.5-1,2.1l-15.2,13.3 c-0.9,0.7-1.2,1.9-1,3L598,283c0.4,1.7-0.7,3.4-2.4,3.7c-0.8,0.2-1.6,0-2.3-0.4L576,276.1C575,275.5,573.8,275.5,572.8,276.1z"></path> <path class="st5" d="M213.9,272.9l-17.4,10.3c-1.5,0.9-3.4,0.4-4.3-1.1c-0.4-0.7-0.5-1.5-0.4-2.3l4.4-19.7c0.2-1.1-0.1-2.3-1-3 l-15.1-13.3c-1.3-1.1-1.4-3.1-0.3-4.4c0.5-0.6,1.3-1,2-1l20.1-1.9c1.1-0.1,2.1-0.8,2.6-1.9l8-18.5c0.7-1.6,2.5-2.3,4.1-1.6 c0.7,0.3,1.3,0.9,1.6,1.6l8,18.5c0.5,1,1.4,1.8,2.6,1.9l20.1,1.9c1.7,0.2,3,1.7,2.8,3.4c-0.1,0.8-0.4,1.5-1,2l-15.1,13.3 c-0.9,0.7-1.2,1.9-1,3l4.4,19.7c0.4,1.7-0.7,3.4-2.4,3.7c-0.8,0.2-1.6,0-2.3-0.4L217,272.9C216,272.3,214.8,272.3,213.9,272.9z"></path> <path class="st5" d="M303.6,272.9l-17.4,10.3c-1.5,0.9-3.4,0.4-4.3-1.1c-0.4-0.7-0.5-1.5-0.4-2.3l4.4-19.7c0.2-1.1-0.1-2.3-1-3 l-15.1-13.3c-1.3-1.1-1.4-3.1-0.3-4.4c0.5-0.6,1.3-1,2-1l20.1-1.9c1.1-0.1,2.1-0.8,2.6-1.9l8-18.5c0.7-1.6,2.5-2.3,4.1-1.6 c0.7,0.3,1.3,0.9,1.6,1.6l8,18.5c0.5,1,1.4,1.8,2.6,1.9l20.1,1.9c1.7,0.2,3,1.7,2.8,3.4c-0.1,0.8-0.4,1.5-1,2l-15.1,13.3 c-0.9,0.7-1.2,1.9-1,3l4.4,19.7c0.4,1.7-0.7,3.4-2.4,3.7c-0.8,0.2-1.6,0-2.3-0.4l-17.3-10.3C305.8,272.3,304.6,272.3,303.6,272.9z"></path> <path class="st5" d="M393.3,272.9L376,283.2c-1.5,0.9-3.4,0.4-4.3-1.1c-0.4-0.7-0.5-1.5-0.4-2.3l4.4-19.7c0.2-1.1-0.1-2.3-1-3 l-15.1-13.3c-1.3-1.1-1.4-3.1-0.3-4.4c0.5-0.6,1.3-1,2-1l20.1-1.9c1.1-0.1,2.1-0.8,2.6-1.9l8-18.5c0.7-1.6,2.5-2.3,4.1-1.6 c0.7,0.3,1.3,0.9,1.6,1.6l8,18.5c0.5,1,1.4,1.8,2.6,1.9l20.1,1.9c1.7,0.2,3,1.7,2.8,3.4c-0.1,0.8-0.4,1.5-1,2l-15.1,13.3 c-0.9,0.7-1.2,1.9-1,3l4.4,19.7c0.4,1.7-0.7,3.4-2.4,3.7c-0.8,0.2-1.6,0-2.3-0.4l-17.3-10.3C395.6,272.3,394.3,272.3,393.3,272.9z"></path> <path class="st5" d="M483.1,272.9l-17.4,10.3c-1.5,0.9-3.4,0.4-4.3-1.1c-0.4-0.7-0.5-1.5-0.4-2.3l4.4-19.7c0.2-1.1-0.1-2.3-1-3 l-15.1-13.3c-1.3-1.1-1.4-3.1-0.3-4.4c0.5-0.6,1.3-1,2-1l20.1-1.9c1.1-0.1,2.1-0.8,2.6-1.9l8-18.5c0.7-1.6,2.5-2.3,4.1-1.6 c0.7,0.3,1.3,0.9,1.6,1.6l8,18.5c0.5,1,1.4,1.8,2.6,1.9l20.1,1.9c1.7,0.2,3,1.7,2.8,3.4c-0.1,0.8-0.4,1.5-1,2l-15.2,13.3 c-0.9,0.7-1.2,1.9-1,3l4.4,19.7c0.4,1.7-0.7,3.4-2.4,3.7c-0.8,0.2-1.6,0-2.3-0.4L486,272.8C485.3,272.3,484.1,272.3,483.1,272.9z"></path> <path class="st5" d="M572.8,272.9l-17.3,10.3c-1.5,0.9-3.4,0.4-4.3-1.1c-0.4-0.7-0.5-1.5-0.4-2.3l4.4-19.7c0.2-1.1-0.1-2.3-1-3 L539,243.8c-1.3-1.1-1.4-3.1-0.3-4.4c0.5-0.6,1.3-1,2-1l20.1-1.9c1.1-0.1,2.1-0.8,2.6-1.9l8-18.5c0.7-1.6,2.5-2.3,4.1-1.6 c0.7,0.3,1.3,0.9,1.6,1.6l8,18.5c0.5,1,1.4,1.8,2.6,1.9l20.1,1.9c1.7,0.2,3,1.7,2.8,3.4c-0.1,0.8-0.4,1.5-1,2l-15.2,13.3 c-0.9,0.7-1.2,1.9-1,3l4.4,19.7c0.4,1.7-0.7,3.4-2.4,3.7c-0.8,0.2-1.6,0-2.3-0.4L576,272.9C575,272.3,573.8,272.3,572.8,272.9z"></path> <path class="st6" d="M574.4,272.4c0.6,0,1.1,0.1,1.6,0.4l17.3,10.3c1.5,0.9,3.4,0.4,4.3-1.1c0.4-0.7,0.5-1.5,0.4-2.3l-4.4-19.7 c-0.2-1.1,0.1-2.3,1-3l15.2-13.3c1.3-1.1,1.4-3.1,0.3-4.4c-0.5-0.6-1.3-1-2-1l-20.1-1.9c-1.1-0.1-2.1-0.8-2.6-1.9l-8-18.5 c-0.5-1.2-1.6-1.9-2.9-1.9L574.4,272.4L574.4,272.4z"></path> <text transform="matrix(1 0 0 1 61.79 276.42)" class="st3 st7 st8">4.5</text> </svg> 