<?xml version="1.0" encoding="UTF-8"?> <svg xmlns="http://www.w3.org/2000/svg" id="Capa_1" data-name="Capa 1" viewBox="0 0 189.63 189.63"> <defs> <style>.cls-1{fill:#fff;}.cls-2,.cls-3{fill:#ffe8ba;}.cls-3{stroke:#d39330;stroke-linecap:round;stroke-linejoin:round;stroke-width:7px;}</style> </defs> <title>emojis</title> <circle class="cls-1" cx="94.81" cy="94.81" r="94.81"></circle> <circle class="cls-2" cx="94.81" cy="94.6" r="78.69"></circle> <path class="cls-3" d="M58.42,83.6H71.17c7.07,0,17.33-4.45,17.33-17.24V52.17A3.65,3.65,0,0,1,89,50.44c1.51-2.87,5-2.85,7.86-1.29,7.81,4.29,9,18.46,8,28.14h14.3c6.56,0-2,54-2,54H96a30.1,30.1,0,0,1-15.29-4.17h0a30.13,30.13,0,0,0-15.29-4.17h-7a3,3,0,0,1-3-3V86.56A3,3,0,0,1,58.42,83.6Z"></path> <rect class="cls-3" x="100.86" y="118.59" width="27.4" height="13.66" rx="6.83"></rect> <rect class="cls-3" x="100.86" y="104.59" width="31.13" height="13.66" rx="6.83"></rect> <rect class="cls-3" x="100.86" y="90.59" width="33.31" height="13.66" rx="6.83"></rect> <rect class="cls-3" x="100.86" y="76.59" width="31.13" height="13.66" rx="6.83"></rect> </svg> 