<?xml version="1.0" encoding="UTF-8"?> <svg xmlns="http://www.w3.org/2000/svg" id="Capa_1" data-name="Capa 1" viewBox="0 0 56.68 48.91"> <defs> <style>.cls-1{fill:#053857;}</style> </defs> <title>111</title> <path class="cls-1" d="M26.38,15.67H3.58c-1.21,0-1.53-.32-1.52-1.53,0-1.81-.07-3.62.1-5.41A6.37,6.37,0,0,1,8.42,3.12c3.06,0,6.12,0,9.18,0H44a6.53,6.53,0,0,1,6.77,6.77v4.28c0,1.16-.35,1.51-1.5,1.51Zm0-2.17H47.88c.71,0,.72,0,.71-.74,0-1,0-2,0-3a4.41,4.41,0,0,0-4.38-4.51H8.66A4.34,4.34,0,0,0,4.23,9.72c0,1.06,0,2.13,0,3.2,0,.45.11.59.57.59,1.5,0,3,0,4.49,0Z"></path> <path class="cls-1" d="M4.23,22.77V26c0,1.43,0,2.86,0,4.28A4.37,4.37,0,0,0,8.87,34.9H32.3c.74,0,.74,0,.74.71,0,1.48,0,1.48-1.47,1.48H8.81a6.58,6.58,0,0,1-6.75-6.75V22.19c0-1.26.33-1.6,1.58-1.6H32.48c.42,0,.61.11.57.55a5.07,5.07,0,0,0,0,1c.06.52-.16.63-.64.62H4.23Z"></path> <path class="cls-1" d="M44.52,33.52a6.5,6.5,0,0,1-5.79-4.19,6.7,6.7,0,0,1,1.84-7.41,6,6,0,0,1,8.74.87A6.61,6.61,0,0,1,46.76,33,12.82,12.82,0,0,1,44.52,33.52ZM40.47,26.9a4,4,0,0,0,4,4.18,4.15,4.15,0,1,0-4-4.18Z"></path> <path class="cls-1" d="M34.45,42.17c0-.66,0-1.31,0-2a2.7,2.7,0,0,1,1.28-2.49,15.92,15.92,0,0,1,4.94-2.26,27.21,27.21,0,0,1,3.2-.8,6.79,6.79,0,0,1,3.51.33,21.66,21.66,0,0,1,5.78,2.66,3,3,0,0,1,1.47,2.82c-.08,1.35,0,2.71,0,4.07,0,.77-.42,1.25-1.06,1.26s-1.11-.47-1.11-1.26c0-1.4,0-2.79,0-4.18a.9.9,0,0,0-.5-.93c-1.37-.67-2.73-1.35-4.13-2a13.92,13.92,0,0,0-2.11-.65,6.9,6.9,0,0,0-3.54.44,18.89,18.89,0,0,0-4.88,2.06,1.27,1.27,0,0,0-.68,1.25c0,1.24,0,2.48,0,3.72a4.17,4.17,0,0,1,0,.61,1.06,1.06,0,0,1-2.11-.09c0-.88,0-1.76,0-2.63Z"></path> <path class="cls-1" d="M18.75,27.17c3.39,0,6.78,0,10.16,0a1.79,1.79,0,0,1,1,.34.82.82,0,0,1,.22,1.08,2.62,2.62,0,0,1-.82.68,1.07,1.07,0,0,1-.51,0H8.67c-.53,0-1,0-1.32-.6a1.06,1.06,0,0,1,1-1.55c.91,0,1.82,0,2.73,0Z"></path> </svg> 