<?xml version="1.0" encoding="UTF-8"?> <svg xmlns="http://www.w3.org/2000/svg" viewBox="0 0 100 100" fill-rule="evenodd"> <g fill="#20537a"> <path d="M87.666 11.582H26.572c-3.648 0-6.571 2.565-6.655 5.878v12.814a1.5 1.5 0 1 0 3 0V17.498c.041-1.608 1.681-2.916 3.655-2.916h61.094c2.018 0 3.659 1.335 3.659 2.977v48.946c0 1.643-1.642 2.979-3.659 2.979H26.572c-2.015 0-3.655-1.336-3.655-2.979v-7.007a1.5 1.5 0 1 0-3 0v7.007c0 3.297 2.985 5.979 6.655 5.979H55.39v12.935H36.349a1.5 1.5 0 1 0 0 3h40.914a1.5 1.5 0 0 0 0-3H58.39V72.483h29.276c3.672 0 6.659-2.682 6.659-5.979V17.559c0-3.296-2.987-5.977-6.659-5.977z"></path> <path d="M47.129 36.057H79.28a1.5 1.5 0 1 0 0-3H47.129a1.5 1.5 0 1 0 0 3zm0 9.499H79.28a1.5 1.5 0 1 0 0-3H47.129a1.5 1.5 0 1 0 0 3zm0 10.024H79.28a1.5 1.5 0 0 0 0-3H47.129a1.5 1.5 0 1 0 0 3zm-26.018-6.855c.387 0 .771-.149 1.061-.439l21.672-21.673a1.5 1.5 0 1 0-2.121-2.121L20.948 45.268 8.045 36.082a1.5 1.5 0 1 0-1.739 2.444l13.937 9.921c.261.187.566.278.868.278z"></path> </g> </svg> 