<?xml version="1.0" encoding="UTF-8"?> <svg xmlns="http://www.w3.org/2000/svg" id="Capa_1" data-name="Capa 1" viewBox="0 0 37.1 41.15"> <defs> <style>.cls-1{fill:#053857;stroke:#053857;stroke-miterlimit:10;stroke-width:0.25px;}</style> </defs> <title>111</title> <path class="cls-1" d="M27.52,19.25v17a3.84,3.84,0,0,1,0,.59.59.59,0,0,1-.62.57H10.53c-.14,0-.31,0-.41,0A1.64,1.64,0,0,1,9.63,37a1.21,1.21,0,0,1,0-.54V19.31l-.11,0a1.79,1.79,0,0,0-.23.25l-.71,1.15c-.35.55-.63.62-1.2.31L4.53,19.44c-.73-.4-1.46-.79-2.18-1.2-.55-.32-.63-.56-.39-1.15A43.66,43.66,0,0,1,6.35,8.82,5.52,5.52,0,0,1,10,6.27a7.76,7.76,0,0,0,1.72-.44,8.35,8.35,0,0,0,1.92-1.11,4.7,4.7,0,0,1,3.05-1c1.47,0,2.95,0,4.43.08a3.54,3.54,0,0,1,2.2.86,6.92,6.92,0,0,0,3.53,1.6,5.75,5.75,0,0,1,4.08,2.85,48.37,48.37,0,0,1,3.55,6.47c.24.56.49,1.11.71,1.67a.66.66,0,0,1-.35,1l-5,2.76c-.63.34-.9.26-1.28-.35l-.87-1.37ZM16.23,11.14a1.54,1.54,0,0,0-.26.16c-.52.42-.79.39-1.17-.15-.09-.13-.17-.27-.25-.4-.67-1.14-1.34-2.28-2-3.43a.47.47,0,0,0-.62-.26c-.33.09-.67.18-1,.25a5,5,0,0,0-3.4,2,43.68,43.68,0,0,0-4.13,7.64c-.12.29,0,.43.22.57l3.59,2c.48.26.49.25.78-.23.55-.9,1.11-1.8,1.67-2.69.15-.25.36-.46.69-.35a.64.64,0,0,1,.47.71c0,.17,0,.34,0,.51v18c0,.78,0,.78.8.78H25.45c.82,0,.82,0,.82-.8V17.33a1.64,1.64,0,0,1,.05-.63c.09-.19.27-.44.45-.48s.43.13.61.25a1.14,1.14,0,0,1,.27.37c.5.83,1,1.66,1.51,2.5.17.29.34.39.67.2,1.17-.67,2.35-1.33,3.54-2a.53.53,0,0,0,.28-.81,43.35,43.35,0,0,0-4.19-7.61A3.68,3.68,0,0,0,27.27,7.6c-.67-.15-1.34-.33-2-.51a.61.61,0,0,0-.8.33c-.61,1.09-1.25,2.17-1.89,3.25-.31.54-.54,1.19-1.44.78,0,.53,0,1,0,1.42,0,.66,0,1.32,0,2s-.21.65-.74.65H17.12c-.66,0-.84-.18-.84-.83,0-1,0-2,0-3C16.28,11.51,16.25,11.35,16.23,11.14Zm1.25.75h0c0,.63,0,1.27,0,1.9,0,.39.15.52.53.51s1,0,1.47,0c.33,0,.45-.14.45-.46,0-1.14,0-2.28,0-3.42a1,1,0,0,0-.21-.57,13.88,13.88,0,0,0-1-1c-.08-.08-.31-.14-.36-.09-.39.35-.85.67-.84,1.29S17.48,11.27,17.48,11.89Zm4.05-2a2.26,2.26,0,0,0,.28-.35c.41-.7.83-1.41,1.22-2.12.7-1.25.79-.85-.39-1.74a.46.46,0,0,0-.64,0c-.77.6-1.53,1.19-2.31,1.77-.24.18-.26.33-.05.54l1.65,1.69C21.35,9.77,21.42,9.81,21.53,9.9ZM17.4,7.74a3.39,3.39,0,0,0-.31-.34c-.47-.4-.94-.8-1.43-1.18-1.09-.86-.66-.88-1.87,0,0,0-.06,0-.06,0s-.16.35-.1.45c.55,1,1.14,2,1.72,3q.18.31.42,0c.48-.54,1-1.07,1.43-1.61A2.41,2.41,0,0,0,17.4,7.74ZM16.3,5l-.05.12c.62.52,1.25,1,1.86,1.55a.42.42,0,0,0,.62,0L20.5,5.29A2.34,2.34,0,0,0,20.79,5,18.75,18.75,0,0,0,16.3,5Z"></path> <path class="cls-1" d="M18.67,11.33a.63.63,0,0,1-.6-.63.66.66,0,0,1,.6-.6.7.7,0,0,1,.63.62A.63.63,0,0,1,18.67,11.33Z"></path> <path class="cls-1" d="M18.67,13.47a.58.58,0,0,1-.6-.56.62.62,0,0,1,1.23,0A.58.58,0,0,1,18.67,13.47Z"></path> </svg> 