<?xml version="1.0" encoding="UTF-8"?> <svg xmlns="http://www.w3.org/2000/svg" viewBox="1950 2450 100 100" width="100" height="100"><path fill="#00bfbf" stroke="none" fill-opacity="1" stroke-width="1" stroke-opacity="1" color="rgb(51, 51, 51)" fill-rule="evenodd" id="tSvgf4b440b24c" title="Path 6" d="M 2029.78 2468 C 2010.2633333333333 2468 1990.7466666666667 2468 1971.23 2468 C 1965.0324090983859 2468.0110101165583 1960.0110081783303 2473.032409094943 1960 2479.23 C 1960 2490.4133333333334 1960 2501.596666666667 1960 2512.78 C 1960.0055134341414 2518.9743453726014 1965.025654632869 2523.9944804229985 1971.22 2524 C 1973.1466666666668 2524 1975.0733333333333 2524 1977 2524 C 1977 2529.693333333333 1977 2535.3866666666668 1977 2541.08 C 1976.999860017963 2542.2347005298943 1978.2497725200049 2542.9565398975114 1979.2498425036752 2542.379310860564 C 1979.3470695113654 2542.323192535916 1979.4376894466207 2542.2563369516556 1979.52 2542.18 C 1986.0333333333333 2536.12 1992.5466666666666 2530.06 1999.06 2524 C 2009.2966666666666 2524 2019.5333333333333 2524 2029.77 2524 C 2035.9675909016141 2523.9889898834417 2040.9889918216697 2518.967590905057 2041 2512.77 C 2041 2501.5866666666666 2041 2490.403333333333 2041 2479.22C 2040.9944865658586 2473.025654627398 2035.974345367131 2468.0055195770015 2029.78 2468Z M 2038 2512.77 C 2037.9944899694194 2517.3130179080817 2034.3130179058562 2520.9944881347305 2029.77 2521 C 2019.3366666666666 2521 2008.9033333333334 2521 1998.47 2521 C 1998.0986421685836 2521.0049387444446 1997.7423203191534 2521.1474674794663 1997.47 2521.4 C 1991.6466666666668 2526.8133333333335 1985.8233333333333 2532.2266666666665 1980 2537.64 C 1980 2532.5933333333332 1980 2527.5466666666666 1980 2522.5 C 1980 2521.671572875254 1979.3284271247462 2521 1978.5 2521 C 1976.0733333333333 2521 1973.6466666666668 2521 1971.22 2521 C 1966.6825054982205 2520.9944873612835 1963.0055100152272 2517.317494504966 1963 2512.78 C 1963 2501.596666666667 1963 2490.4133333333334 1963 2479.23 C 1963.0055100305806 2474.6869820919183 1966.6869820941438 2471.0055118652695 1971.23 2471 C 1990.7466666666667 2471 2010.2633333333333 2471 2029.78 2471 C 2034.3174945017795 2471.0055126387165 2037.9944899847728 2474.682505495034 2038 2479.22C 2038 2490.403333333333 2038 2501.5866666666666 2038 2512.77Z"></path><path fill="#00bfbf" stroke="none" fill-opacity="1" stroke-width="1" stroke-opacity="1" color="rgb(51, 51, 51)" fill-rule="evenodd" id="tSvg346c3f2bd9" title="Path 7" d="M 1980.16 2498.84 C 1976.61122034893 2498.8401587062485 1974.3931987061003 2502.681924565089 1976.1677259752785 2505.7551785422247 C 1977.9422532444564 2508.8284325193604 1982.3782278082942 2508.82823413655 1984.1524801901862 2505.7548214531653 C 1984.5570259042145 2505.0540553495416 1984.77 2504.2591541056727 1984.77 2503.45C 1984.7644999811746 2500.9062494014597 1982.7037505972157 2498.8455006313707 1980.16 2498.84Z M 1980.16 2505.07 C 1978.920621423379 2505.0699445733057 1978.1460288689616 2503.7282432649863 1978.7657661581973 2502.6549376460734 C 1979.385503447433 2501.5816320271606 1980.9347266682094 2501.5817013105284 1981.5543679555947 2502.6550623561357 C 1981.6939567333059 2502.8968621836316 1981.7682658436224 2503.1708062032535 1981.77 2503.45C 1981.77 2504.339150329067 1981.0491503281776 2505.059960235989 1980.16 2505.07Z M 1993.31 2498.84 C 1989.7612203489298 2498.8398412937513 1987.5432674279218 2502.6814087697812 1989.3175198098138 2505.7548214531653 C 1991.0917721917058 2508.82823413655 1995.5277467555436 2508.8284325193604 1997.3022740247216 2505.7551785422247 C 1997.7069523339062 2505.054327535445 1997.92 2504.259293931541 1997.92 2503.45C 1997.9144999811747 2500.9062494014597 1995.8537505972156 2498.8455006313707 1993.31 2498.84Z M 1993.31 2505.07 C 1992.070621423379 2505.0699445733057 1991.2960288689615 2503.7282432649863 1991.9157661581974 2502.6549376460734 C 1992.535503447433 2501.5816320271606 1994.0847266682092 2501.5817013105284 1994.7043679555945 2502.6550623561357 C 1994.843956733306 2502.8968621836316 1994.9182658436223 2503.1708062032535 1994.92 2503.45C 1994.92 2504.339150329067 1994.1991503281777 2505.059960235989 1993.31 2505.07Z M 2007.42 2498.94 C 2003.9504484268286 2498.1943131232606 2000.9747489795288 2501.4841585798854 2002.0637409875897 2504.8617218203617 C 2003.1527329956505 2508.239285060838 2007.4896724621146 2509.171393656762 2009.8702320272253 2506.539517293025 C 2011.271387064136 2504.9904416565137 2011.4559347623658 2502.6928613695163 2010.32 2500.94C 2009.655416395616 2499.916488562784 2008.6128723896973 2499.197492701307 2007.42 2498.94Z M 2008.02 2503.79 C 2007.7530419294058 2505.000286184257 2006.2760199086683 2505.4677244601185 2005.3613603625495 2504.63138889711 C 2004.4467008164306 2503.7950533341013 2004.7803984046736 2502.28219560378 2005.9620160213867 2501.9082449825314 C 2006.229942902928 2501.8234532340125 2006.5153974939485 2501.810267947135 2006.79 2501.87C 2007.6525244766922 2502.0686024034767 2008.1929913477818 2502.926202727927 2008.02 2503.79Z M 2023.09 2479.8 C 2018.4179100779616 2478.778374449801 2013.9981546693953 2482.3375174230127 2014 2487.12 C 2014 2488.2747005383794 2015.25 2488.9963883748665 2016.25 2488.4190381056765 C 2016.7141016151377 2488.1510889132455 2017 2487.655898384862 2017 2487.12 C 2017.0000343629026 2483.6712943922116 2020.733389172865 2481.5158905906383 2023.7200386579318 2483.240273153679 C 2026.706688142999 2484.96465571672 2026.7066451893706 2489.275537726455 2023.719961341401 2490.9998607712023 C 2023.0447972411253 2491.389657976515 2022.2796000964645 2491.59651960305 2021.5 2491.6 C 2020.6715728752538 2491.6 2020 2492.2715728752537 2020 2493.1 C 2020 2495.233333333333 2020 2497.366666666667 2020 2499.5 C 2020 2500.654700538379 2021.25 2501.376388374866 2022.25 2500.7990381056766 C 2022.7141016151377 2500.5310889132456 2023 2500.0358983848623 2023 2499.5 C 2023 2497.8333333333335 2023 2496.1666666666665 2023 2494.5 C 2028.6461783614805 2493.331593557851 2030.9102027786842 2486.489172158746 2027.0752439370979 2482.18364148448C 2026.0257909764136 2481.005414520366 2024.6310559497645 2480.1886987678604 2023.09 2479.8Z M 2021.5 2504 C 2020.6715728752538 2504 2020 2504.671572875254 2020 2505.5 C 2020 2506.1666666666665 2020 2506.8333333333335 2020 2507.5 C 2020 2508.654700538379 2021.25 2509.376388374866 2022.25 2508.7990381056766 C 2022.7141016151377 2508.5310889132456 2023 2508.0358983848623 2023 2507.5 C 2023 2506.8333333333335 2023 2506.1666666666665 2023 2505.5C 2023 2504.671572875254 2022.3284271247462 2504 2021.5 2504Z"></path><defs> </defs></svg> 