<?xml version="1.0" encoding="UTF-8"?> <svg xmlns="http://www.w3.org/2000/svg" id="Capa_1" data-name="Capa 1" viewBox="0 0 42.87 28.62"> <defs> <style>.cls-1{fill:#053857;}</style> </defs> <title>111</title> <path class="cls-1" d="M28.85,7.31a4.07,4.07,0,0,0,.92.12c1.3,0,2.61,0,3.91,0h0c1.3,0,2.6,0,3.91,0a4.32,4.32,0,0,0,.87-.11.67.67,0,0,0,.56-.7.69.69,0,0,0-.53-.77,3.56,3.56,0,0,0-.79-.1c-1,0-2,.08-2.93.07-1.73,0-3.46-.05-5.19-.07a2.37,2.37,0,0,0-.75.09.72.72,0,0,0-.54.77A.67.67,0,0,0,28.85,7.31Z"></path> <path class="cls-1" d="M29.33,4.68h.13c2.87,0,5.74,0,8.6,0,.63,0,1-.31,1-.84s-.31-.76-1-.76c-1.47,0-2.93,0-4.39,0h0c-1.44,0-2.87,0-4.3,0-.73,0-1.08.24-1.08.75S28.65,4.64,29.33,4.68Z"></path> <path class="cls-1" d="M29.26,10.09c1.47,0,2.93,0,4.4,0h4.57c.37,0,.7-.13.73-.5a1.32,1.32,0,0,0-.24-.87A1,1,0,0,0,38,8.5H29.46a2.15,2.15,0,0,0-.61.09.7.7,0,0,0-.36,1.19A1.26,1.26,0,0,0,29.26,10.09Z"></path> <path class="cls-1" d="M33.47,19.7a.84.84,0,0,0-.9.92.9.9,0,0,0,.92,1,.93.93,0,0,0,.9-.95A.84.84,0,0,0,33.47,19.7Z"></path> <path class="cls-1" d="M28.65,19.71a.94.94,0,0,0-1,.9,1,1,0,0,0,.94,1,.93.93,0,0,0,.92-.93A.91.91,0,0,0,28.65,19.71Z"></path> <path class="cls-1" d="M35.93,19.7a.93.93,0,0,0-.94.92.94.94,0,0,0,.83,1,1,1,0,0,0,1-1A.83.83,0,0,0,35.93,19.7Z"></path> <path class="cls-1" d="M38.38,19.7a.93.93,0,0,0-1,.88.94.94,0,0,0,.86,1,1,1,0,0,0,1-.9A.94.94,0,0,0,38.38,19.7Z"></path> <path class="cls-1" d="M31.06,19.7a.94.94,0,0,0-.95.92.86.86,0,0,0,.93.9.83.83,0,0,0,.93-.88A.92.92,0,0,0,31.06,19.7Z"></path> <path class="cls-1" d="M38.2.39h-32A5.79,5.79,0,0,0,.37,6.18V24a3.84,3.84,0,0,0,3.84,3.84h34A3.84,3.84,0,0,0,42,24V4.23A3.84,3.84,0,0,0,38.2.39ZM1.6,15.82c2.39,0,4.78,0,7.17,0a5.62,5.62,0,0,1,1.56.52l-.05.22c-.16,0-.32,0-.48,0H1.6Zm8.15-2.11a.84.84,0,0,1,.06-1.24.85.85,0,0,1,1.19-.2,6.7,6.7,0,0,1,2.69,3.25s0,.06,0,.16A6.23,6.23,0,0,1,9.75,13.71Zm5.9-6.31v5.49A1.23,1.23,0,0,1,15,14.1,8,8,0,0,1,14.82,13c0-3.43,0-7.66,0-11.09V1.62h.84Zm-.84,19.21V19c0-.35,0-.81.44-.8s.4.48.4.83v7.63Zm1.81-11a6.24,6.24,0,0,1,.67-1.22,17.55,17.55,0,0,1,2-2,.94.94,0,0,1,1.44.22c.32.4.26.84-.21,1.31a7.71,7.71,0,0,1-3.74,1.81Zm5.16.23c5.9,0,12.75,0,18.65,0h.73v.81c-.32,0-1.2,0-1.3,0H20.72c-.22,0-.44,0-.66-.06A2.42,2.42,0,0,1,21.78,15.81ZM41.43,3.88v9.89c-1.38,0-4,.06-5.25.07H23.45c-.7,0-.7,0-.71-.72a2.87,2.87,0,0,0-4.31-2.46l-.84.47a7.24,7.24,0,0,1-.08-.79c0-2.45,0-6.21,0-8.72H40.18C40.53,1.62,41.43,3.53,41.43,3.88ZM4.63,1.62h8.25c0,2.73,0,6.16,0,8.85,0,.21,0,.42,0,.73l-.64-.4a2.87,2.87,0,0,0-4.54,2.47c0,.39-.17.5-.53.5H1.6V4.65A3,3,0,0,1,4.63,1.62ZM1.6,26v-7.6c3.51,0,7,0,10.53,0,.57,0,.62.12.34.64-.48.91-1,1.81-1.44,2.72a3.85,3.85,0,0,0-.31.86.79.79,0,0,0,.47,1,.87.87,0,0,0,1.08-.35,9.26,9.26,0,0,0,.57-.9,6.8,6.8,0,0,1,.11.72c0,1.19,0,3.25,0,4.44H2.23C1.88,27.49,1.6,26.33,1.6,26Zm38.58,1.51H17.6c0-1.37,0-3.61,0-5a5,5,0,0,1,.07-.6c.4.56.69,1,1.05,1.43a.79.79,0,0,0,1.06.22.88.88,0,0,0,.41-1.1c-.13-.42-.91-1.51-1.56-2.72-.17-.31-.63-.93-.8-1.31.36,0,.63-.05.89-.05h22.7v7.35C41.43,26.07,40.53,27.49,40.18,27.49Z"></path> <path class="cls-1" d="M37.73,28.62H5.14A5.14,5.14,0,0,1,0,23.48V5.14A5.14,5.14,0,0,1,5.14,0H37.73a5.14,5.14,0,0,1,5.14,5.14V23.48A5.14,5.14,0,0,1,37.73,28.62ZM5.14,1.65A3.49,3.49,0,0,0,1.65,5.14V23.48A3.49,3.49,0,0,0,5.14,27H37.73a3.49,3.49,0,0,0,3.49-3.49V5.14a3.49,3.49,0,0,0-3.49-3.49Z"></path> </svg> 