<?xml version="1.0" encoding="UTF-8"?> <svg xmlns="http://www.w3.org/2000/svg" id="Capa_1" data-name="Capa 1" viewBox="0 0 56.84 56.84"> <defs> <style>.cls-1,.cls-3{fill:#00bfbf;}.cls-2{fill:#fff;}.cls-3{stroke:#fff;stroke-width:0.5px;}.cls-3,.cls-4{stroke-miterlimit:10;}.cls-4{fill:none;stroke:#00bfbf;stroke-linecap:round;stroke-width:2px;}</style> </defs> <title>free t</title> <circle class="cls-1" cx="28.42" cy="28.42" r="28.42"></circle> <path class="cls-2" d="M45.31,27.3a16.87,16.87,0,0,1-2.18,9.51.85.85,0,0,1-.72.41c-12,0-19.75-.07-28-.08a.83.83,0,0,1-.72-.41A16.93,16.93,0,1,1,45.31,27.3Z"></path> <circle class="cls-1" cx="28.25" cy="31.7" r="3.52"></circle> <circle class="cls-3" cx="16.95" cy="28.6" r="2.2"></circle> <circle class="cls-3" cx="39.97" cy="28.6" r="2.2"></circle> <circle class="cls-3" cx="36.57" cy="20.46" r="2.2"></circle> <circle class="cls-3" cx="20.28" cy="20.46" r="2.2"></circle> <circle class="cls-3" cx="28.42" cy="16.63" r="2.2"></circle> <line class="cls-4" x1="31.4" y1="20.46" x2="28.25" y2="31.7"></line> </svg> 