<?xml version="1.0" encoding="UTF-8"?> <svg xmlns="http://www.w3.org/2000/svg" id="Capa_1" data-name="Capa 1" viewBox="0 0 45.05 45.05"> <defs> <style>.cls-1{fill:#13456a;}.cls-2{fill:#fff;}.cls-3,.cls-4{fill:none;stroke:#fff;}.cls-3{stroke-miterlimit:10;}.cls-4{stroke-linecap:round;stroke-linejoin:round;}</style> </defs> <title>Sin tiÌtulo-3</title> <circle class="cls-1" cx="22.52" cy="22.52" r="22.52"></circle> <path class="cls-2" d="M27.38,35.09H25.87V35l-1.23,0c-1.29,0-2.64.05-4,0-2.24-.17-3.39-1.19-3.51-3.14,0,0,0-.34,0-.38l1,.22c.06,1.5.81,2.17,2.59,2.3,1.28.1,2.6.07,3.87,0l1.75,0h.5v.06H29.4c3,0,4.35-.3,5-1.06s.63-2.2,0-5.08a6.15,6.15,0,0,0-.82-1.84,2.21,2.21,0,0,0-3.31-.89,7.17,7.17,0,0,1-7.71,0A2.58,2.58,0,0,0,20.49,25a2.37,2.37,0,0,0-1.35,1.46s-.32.73-.47,1.13a1.5,1.5,0,0,1-.69-1l.24-.55a3.29,3.29,0,0,1,1.92-2,3.53,3.53,0,0,1,2.92.34,6.16,6.16,0,0,0,6.72,0,3.18,3.18,0,0,1,4.67,1.23,7,7,0,0,1,.95,2.16c.57,2.76.73,4.71-.25,5.91s-2.92,1.43-5.75,1.43Z"></path> <path class="cls-3" d="M26.55,23.47a4.57,4.57,0,0,1-4.79-4.57,4.51,4.51,0,0,1,4.65-4.69A4.33,4.33,0,0,1,31,18.66,4.42,4.42,0,0,1,26.55,23.47Z"></path> <path class="cls-3" d="M16.11,16.63a3.3,3.3,0,0,1-3.46-3.3A3.25,3.25,0,0,1,16,10a3.12,3.12,0,0,1,3.34,3.21A3.2,3.2,0,0,1,16.11,16.63Z"></path> <path class="cls-2" d="M19.89,17.27a2.72,2.72,0,0,0-1.52.42,4.36,4.36,0,0,1-4.72,0,2.63,2.63,0,0,0-2.21-.26A2.56,2.56,0,0,0,10,19a12.26,12.26,0,0,0-.76,3.65c-.11,1.87,1,2.83,2.87,3,0-.25-.09-.48-.14-1-1.36-.1-1.81-.61-1.73-1.93a11.26,11.26,0,0,1,.69-3.35,1.57,1.57,0,0,1,.89-1,1.69,1.69,0,0,1,1.39.19,5.35,5.35,0,0,0,5.7,0,1.83,1.83,0,0,1,1-.28h.46l.15-1Z"></path> <path class="cls-4" d="M16.63,23.16l-2.08-2.35-2.3,2.35H13.4c0,2.51.16,7.36,8.36,7.36-7.25-1.2-6.34-7.36-6.34-7.36Z"></path> </svg> 