<?xml version="1.0" encoding="UTF-8"?> <svg xmlns="http://www.w3.org/2000/svg" id="Capa_1" data-name="Capa 1" viewBox="0 0 598.21 462"> <defs> <style>.cls-1{fill:#0b9090;}.cls-2{fill:#6c6c6c;}.cls-3{fill:#6a6a6a;}.cls-4{fill:#707171;}.cls-5{fill:#474848;}.cls-6{fill:#028c8c;}.cls-7{fill:#038c8c;}.cls-8{fill:#078e8e;}.cls-9{fill:#068e8e;}.cls-10{fill:#0a8f8f;}.cls-11{fill:#696969;}.cls-12{fill:#a3f8f6;}.cls-13{fill:#a5f8f6;}.cls-14{fill:#a4f8f6;}.cls-15{fill:#018b8b;}.cls-16{fill:#a3f7f5;}.cls-17{fill:#a2f5f3;}.cls-18{fill:#a2f6f4;}.cls-19{fill:#028a8a;}.cls-20{fill:#9ef4f2;}.cls-21{fill:#169898;}</style> </defs> <title>1-1</title> <path class="cls-1" d="M598.21,411.15H590.8V435H585c-.13-2.57,0-5.17-.06-7.77s0-5.27,0-7.91v-8.2h-7.76v-5.55l21-.19Z"></path> <path class="cls-2" d="M528.64,462a11.88,11.88,0,0,1-.3-1.85q0-7.9,0-15.82a10.78,10.78,0,0,1,.21-1.45h12v2.67h-9.36v5.28h8.62c.07,1,.12,1.64.19,2.62h-8.79V459H541c-.15,1.23-.27,2.13-.38,3Z"></path> <path class="cls-2" d="M78.58,462a13.2,13.2,0,0,1-.3-1.85c0-5.35,0-10.7,0-16a6.63,6.63,0,0,1,.22-1.21H90.58v2.63H81.11v5.33h8.65l.17,2.67H81.1V459H91l-.38,3Z"></path> <path class="cls-3" d="M347.27,462c-.6-.33-1.19-.67-1.8-1a6.36,6.36,0,0,1-3.34-3.42l2.31-1a6,6,0,0,0,5.67,2.55,5.52,5.52,0,0,0,2-.59c1.82-1,1.86-2.91,0-3.92a23.6,23.6,0,0,0-3.35-1.27,29.19,29.19,0,0,1-3.78-1.45,4.62,4.62,0,0,1-1.07-7.48c2.49-2.68,10.15-2.6,11.53,2.39l-2.07.93a4.81,4.81,0,0,0-4.94-2.42,5.19,5.19,0,0,0-2,.73,1.88,1.88,0,0,0,.05,3.45,16.8,16.8,0,0,0,2.88,1.15c1.27.47,2.59.82,3.82,1.37a4.6,4.6,0,0,1,3.1,4.42,5.19,5.19,0,0,1-2.9,4.63c-.6.35-1.24.62-1.87.92Z"></path> <path class="cls-3" d="M325.68,462a31.74,31.74,0,0,1-3.5-1.88,14.34,14.34,0,0,1-2.11-2.3l2.26-1.26c.52.48.94.92,1.42,1.3a6,6,0,0,0,6.1.9,2.32,2.32,0,0,0,1.7-2.1,2.08,2.08,0,0,0-1.54-2.17c-1.25-.5-2.56-.88-3.83-1.34a20.45,20.45,0,0,1-3.1-1.24,4.75,4.75,0,0,1-.62-7.86c2.54-2.16,9.64-2.18,11.21,2.77-.3.14-.62.32-.95.46s-.74.25-1.19.4a5,5,0,0,0-5.6-2.23c-1.47.36-2.37,1.25-2.37,2.34,0,1.25.91,1.79,1.91,2.18.82.32,1.66.56,2.49.85a35.45,35.45,0,0,1,3.37,1.2c1.75.81,3,2,3.07,4.17a5.1,5.1,0,0,1-2.83,4.88c-.53.3-1.05.62-1.57.93Z"></path> <path class="cls-3" d="M395.26,462a28.85,28.85,0,0,1-3.3-1.76,19.14,19.14,0,0,1-2.37-2.39l2.33-1.27c.59.52,1.08,1,1.64,1.44a5.67,5.67,0,0,0,6.1.58,3.4,3.4,0,0,0,1.43-2c.28-.95-.45-1.67-1.3-2-1.1-.47-2.24-.82-3.36-1.24a27.36,27.36,0,0,1-3.78-1.46,4.7,4.7,0,0,1-.75-7.68c2.86-2.51,9.87-2.2,11.37,2.65l-1.57.66c-1.63-.87-2.78-1.81-4.07-2.08a5.6,5.6,0,0,0-3.4.63,1.92,1.92,0,0,0,0,3.47,16.1,16.1,0,0,0,2.65,1.06c1.49.56,3,1,4.47,1.68a4.23,4.23,0,0,1,2.63,4.18,5,5,0,0,1-2.63,4.52c-.59.35-1.19.69-1.79,1Z"></path> <path class="cls-2" d="M182.22,462a15,15,0,0,1-.3-2.09c0-5.2,0-10.39,0-15.59,0-.39.06-.78.11-1.42a35.35,35.35,0,0,1,8.79.15c2.91.58,4.55,3.14,4.38,6.28a5.61,5.61,0,0,1-5,5.52c-1.73.22-3.49.21-5.54.33,0,1.49.06,2.9,0,4.32a18.06,18.06,0,0,1-.48,2.5Zm2.53-9.67c1.72,0,3.17.1,4.59,0a3.2,3.2,0,0,0,3-3.12c.12-1.76-.7-3.19-2.25-3.48a12.12,12.12,0,0,0-5.39.07Z"></path> <path class="cls-4" d="M431.24,462a14.71,14.71,0,0,1-.45-2.51c-.05-3.75,0-7.49,0-11.24v-2.59H425.4c0-1-.08-1.84-.12-2.77H438.8c.05.78.1,1.53.17,2.54h-5.3c-.07.92-.17,1.6-.18,2.29,0,3.82,0,7.65,0,11.48a26.63,26.63,0,0,1-.31,2.8Z"></path> <path class="cls-4" d="M378.46,462V442.92l2.57-.14a15.63,15.63,0,0,1,.2,1.8c0,5,0,10.07,0,15.11a14.21,14.21,0,0,1-.36,2.31Z"></path> <path class="cls-4" d="M440.36,0l1,2.4-.72,0L439.88,0Z"></path> <path class="cls-5" d="M440.6,2.43l.72,0a42,42,0,0,1,6.19,20.85,102,102,0,0,1-1.14,17.89c-.43,3.32-.82,6.65-1.47,9.93-2,10-7.21,18.31-14.08,25.67A133.64,133.64,0,0,1,416,90c-2.37,1.89-4.76,3.76-7.14,5.63l-4.12,3.68-5.33,4.34a26.72,26.72,0,0,0-5.64,6.52c2.5.41,4.66.56,6.44-1.2s3.43-3.51,5.14-5.26l2.05-2.32,3.72-3.48c2.12-1.93,4.3-3.8,6.35-5.81a27.41,27.41,0,0,1,9.09-5.66c2.19-.92,3.47-.36,3.76,2a43.6,43.6,0,0,1,.31,9.06,42.87,42.87,0,0,1-4.15,15.63c-1.25,1.12-2.48,2.25-3.74,3.35-3.13,2.72-6.32,5.38-9.4,8.16-2.6,2.35-2.8,3.85-1.22,7,.18.36.4.7.57,1.06,2,4.16,4.09,8.3,6,12.49,1.14,2.44,2.09,5,3.13,7.46.33.7,1,1.42.93,2.1-.17,2.66.84,5,1.63,7.44q1,5.26,1.93,10.52l.42,3.1q.54,9.48,1.1,19l-.28,8.39c-.21,3.57-.57,7.14-.62,10.72s.3,7,.34,10.51a78.54,78.54,0,0,0,1.84,14.89c2.13,10.47-.31,19.74-7.49,27.71-2.77,3.08-5.61,6.1-8.34,9.21a83.87,83.87,0,0,0-16.09,28.59c-1.85,5.42-3.18,11-4.75,16.53-2.65,11.15-4.91,22.38-6.59,33.71-.64,4.33-1.15,8.67-1.71,13-.29,2.1-.57,4.19-.86,6.29-.23,1.57-.46,3.14-.71,4.88a15.09,15.09,0,0,0,1.71.24c13,.37,26.05.59,39.07,1.13q23.6,1,47.16,2.42a163.52,163.52,0,0,1,23.55,2.74c1.29.27,2.7.42,3.69,1.61-.61,1.32-1.92,1.41-3,1.62-3.13.6-6.28,1.17-9.45,1.52-14.54,1.61-29.14,2.44-43.76,3-14,.54-27.95,1.12-41.93,1.48q-26.48.68-53,1c-15.67.23-31.34.4-47,.41q-36.69,0-73.39-.28c-16.94-.15-33.88-.52-50.82-.94-14.22-.36-28.44-.78-42.65-1.43q-19.87-.92-39.72-2.4c-5.88-.44-11.72-1.44-17.57-2.28a23.06,23.06,0,0,1-3.76-1.23c.88-1.64,2.24-1.78,3.38-2a82.6,82.6,0,0,1,9.22-1.46q17.32-1.41,34.66-2.55c6.61-.45,13.24-.7,20.07-1,.29-.62.67-1.31,1-2q9-22.31,18.06-44.62c.93-2.29,1.89-4.58,2.8-6.88a13.91,13.91,0,0,0,.48-1.82l2.7-4.83a4.62,4.62,0,0,0,.86-.78,34.77,34.77,0,0,1,10.82-10.33A33.6,33.6,0,0,0,187,297.56c2.78-4.81,4.35-10.08,5.79-15.39,4.48-16.54,5.71-33.42,5.11-50.48a51.92,51.92,0,0,1,2-13.34,38,38,0,0,1,8-13.19,2.19,2.19,0,0,0,.28-.66L210,203a57.41,57.41,0,0,1,11.78-7.29c12.35-5.51,25.36-7.64,38.76-7.42,10.39.16,20.76.74,31.14,1.23,6.14.28,12.3.58,18.42,1.16a172.12,172.12,0,0,0,24.66.67c2.22-.12,4.42-.58,6.62-.89a16.85,16.85,0,0,0,2.14-.11,86.26,86.26,0,0,0,19.37-5.61c1.88-.79,3.33-1.71,3.5-3.94a5.3,5.3,0,0,1,.41-1.61,6.45,6.45,0,0,0-.78-6.08l-2.4-8.92c-1.09-.18-2.17-.44-3.26-.53-4.54-.39-9,.37-13.45,1-2.87.16-5.64-.11-7.65-2.48a10,10,0,0,0-3.22-2.37,8.42,8.42,0,0,1-4.71-6c-1.1-5.15.95-9.33,5.92-11.4,7.25-3,11.36-9.13,15.78-15.16-.6-.37-1-.63-1.41-.86a33,33,0,0,1-10.48-8.93,7.94,7.94,0,0,0-1-1l-2-3.68L335.69,106c-.14-.65-.29-1.3-.43-2-.16-1.73-.35-3.47-.48-5.21-.08-1-.63-1.32-1.55-1.44-2.28-.3-4.58-.54-6.82-1-7.2-1.59-13.84-4.26-18.81-10.05a13.71,13.71,0,0,0-1-1c-2.63-4.12-4.76-8.44-5.14-13.44,1.6,1.68,3,3.5,4.52,5.2,2.38,2.64,4.85,5.21,7.29,7.81,4.4,4.23,9.65,5.75,15.67,5.09a13.06,13.06,0,0,0-2.65-6.16c-.34-.88-.63-1.79-1-2.65-1.58-3.4-3.24-6.76-4.8-10.17-1.36-3-2.63-6-3.93-9L315,56.72a37.11,37.11,0,0,1,1.09-19.85c.21-.6.44-1.2.69-1.79a5.94,5.94,0,0,1,.6-.8c.21,2.78.35,5.28.58,7.76a67.54,67.54,0,0,0,3,15.49l1.87,5.4a12.44,12.44,0,0,0,.39,1.6,77.38,77.38,0,0,0,9.23,17.19,21.05,21.05,0,0,0,1.74,1.93,18.91,18.91,0,0,0,9.44,7,20.07,20.07,0,0,0,8.78,1.92c3.25,0,5.16-1.24,6.13-4.32A39.74,39.74,0,0,0,360.64,73l-.51-5.86c-.62-5.23-2.57-10-4.89-14.68-2.63-5.29-5.16-10.63-7.69-16-2.7-5.7-3.36-11.78-3.19-18.41a9.46,9.46,0,0,1,1,1.47c1.63,4.08,3.21,8.17,4.83,12.26a63,63,0,0,0,10.27,16.94,11.49,11.49,0,0,0,1.51,1.53,5,5,0,0,0,6.61.23,9.62,9.62,0,0,0,2.35-2.37A99.05,99.05,0,0,0,376.5,39c2.29-4.57,4.22-9.31,6.31-14,.31-.69.68-1.35,1.27-2.51A28.53,28.53,0,0,1,381.61,37a105.92,105.92,0,0,1-5.37,10.16c-3,5.18-6.11,10.32-7.94,16.08-.7,2.19-1.12,4.48-1.67,6.72q-.33,2.82-.65,5.63c-.92,3.67-.74,11.95.4,15.32.43-1.39.82-2.63,1.21-3.87a10.42,10.42,0,0,1,1.66,4.69,17.13,17.13,0,0,0,3.83,9.82,19.57,19.57,0,0,1,2,3,3,3,0,0,0,3.64,1.86,6.46,6.46,0,0,1,2.14.1,6.36,6.36,0,0,0,4.51-1.17,8.61,8.61,0,0,0,4.05-9v-.19c0-.83-.05-1.66-.08-2.48.08-1.53.56-3.08-.31-4.54l.2-.73,2.49,2.91a9.31,9.31,0,0,0,2.38,3.8l2.79-1.89a10.91,10.91,0,0,0,4.82-2.84,6.79,6.79,0,0,0,1.58-.41c2.55-1.33,5.07-2.71,7.59-4.1a6.52,6.52,0,0,0,1.35-1,1.54,1.54,0,0,0,.15-2.34,9.22,9.22,0,0,0-2.47-1.83Q394.26,73,378.62,65.47c-.6-.3-1.16-.68-1.94-1.14.95-.85,1.72-.44,2.42-.3,5.94,1.24,11.87,2.51,17.82,3.73a14.54,14.54,0,0,0,3.08.35c3,0,4.39-1.73,3.77-4.72a93.2,93.2,0,0,0-2.58-10.45c-3.37-10.23-6.92-20.41-10.4-30.6a2.66,2.66,0,0,1-.14-1.52c.38.4.78.79,1.13,1.21,7.74,9.34,12.47,20.19,15.89,31.69.87,2.91,1.67,5.83,2.48,8.75a31.47,31.47,0,0,0,5.37,10.63,11,11,0,0,0,1.12,1.24c1.84,1.72,3.59,1.79,5.58.25a4,4,0,0,0,.72-.64c4.51-5.4,8.91-10.9,11.61-17.5,3.51-8.62,3.21-17.29.19-26-2.92-8.38-7.8-15.52-13.67-22-.48-.53-.93-1.09-1.39-1.64l.64-.63A42.24,42.24,0,0,1,438.9,24.84c.65,1.24,1.26,2.51,2.11,4.21a36.19,36.19,0,0,0,1.45-13.37C442,11.25,441.23,6.85,440.6,2.43ZM283,298l0,0-3.94,4.23-9.76,10.08a16.58,16.58,0,0,0-1.64,1.35c-1.6,1.67-3.16,3.38-4.73,5.08q-3.72,4-7.43,8.09l-.93,1.22a15.07,15.07,0,0,0-1.52,1.1c-3.83,3.44-6.19,7.9-8.34,12.44-2.53,5.36-3.39,11-1.3,16.69,1.68,4.56,3.68,9,5.53,13.49l2.82,7H357.37c0-.9,0-1.77,0-2.63a172.84,172.84,0,0,0-1.85-26.5,192.07,192.07,0,0,0-11.11-43.75c-1.52-4-2-4.38-6.12-4.08a98.48,98.48,0,0,1-20.09-.41c-8.18-1.07-16.21-2.77-23.77-6.23-2-.92-4.08-1.76-5.95-2.57l-5.16,5Zm91,75.91c.08-.86.24-1.73.24-2.6,0-4.39.08-8.78,0-13.17-.14-9.76.09-19.49.76-29.22.7-10,1.28-19.92,1.91-29.88,0-.75,0-1.5,0-2.34l-10.05.7c.18,2.48.43,4.69.5,6.91.39,11.83,1.94,23.54,3.15,35.3a76.35,76.35,0,0,1-.45,18.86c-.87,6-1.56,12-2.34,18l-.12,2.41h6.26C373.88,377.12,373.92,375.5,374,373.88Zm-150.42,4.91,11.92-.28c1.35-.49.28-1.21.06-1.67-2.93-6.12-5.94-12.2-8.87-18.32-2.79-5.82-5.59-11.65-8.26-17.53-2.57-5.67-2-11,2-15.91,1.06-1.3,2.23-2.51,3.36-3.75q2.34-2.55,4.7-5.08c1.18-1.17,2.37-2.32,3.53-3.51,5.77-6,11.57-11.91,17.27-17.94a22.18,22.18,0,0,0,3.12-4.48,2.94,2.94,0,0,0-.29-3.77c-1.08-1-2.41-.74-3.58-.14a28.55,28.55,0,0,0-4.09,2.45c-4.83,3.66-9.6,7.39-14.37,11.12a23,23,0,0,0-1.89,1.81c-2.43,1.79-4.92,3.51-7.28,5.39-10.29,8.21-20.62,16.37-30.79,24.75-3.3,2.72-6.12,6-9.17,9.05l-3.54,3.79a9.48,9.48,0,0,0-.88.8,138.34,138.34,0,0,0-21.15,32.89c-.22.48-.36,1-.58,1.62Z"></path> <path class="cls-6" d="M164.13,320.58l-2.7,4.83c-3.39-5.22-7-10.29-10.12-15.68a165,165,0,0,1-19.82-56.67,167.61,167.61,0,0,1-.72-48q7.66-58.8,49.92-100.4a166.88,166.88,0,0,1,78.65-43.7,171.08,171.08,0,0,1,47.56-4.68c2.71.1,5.42.3,8.13.45.49,1.8,1,3.6,1.46,5.39-2.87-.19-5.74-.47-8.61-.58A178.87,178.87,0,0,0,269.5,64.2a159.45,159.45,0,0,0-60.67,24.37A214.6,214.6,0,0,0,188,104.68c-.06,0,0,.28.09.75l3.41-1c1.31,1.82,3,2,5,1.14a4,4,0,0,1,2.13-.07c2,.39,4.05.86,6.06,1.33a7,7,0,0,1,1.13.53l-2.39,1.43a2.44,2.44,0,0,0,1.58.29c6.12-.33,12.24-1.49,18.37-.18,1.58.33,3.1.69,4.32-1,.31-.42,1.3-.34,2-.49l0,0,.52,2.33c2.54-.59,4.81-1.57,6.31-4l-2.2-1.36,5.74-3.89.32.35c0,.88,0,1.76,0,2.63,0,.45-.08,1.09-.38,1.31-1.39,1.06-.46,1.82.08,2.7l3.25-1-1.1,2.82a1.13,1.13,0,0,0-.18.12s0,.08,0,.13l.09-.28a8,8,0,0,0,6.79-4.15l1.61-.13,0-.23-4.72-1.22.06-.33,2.23-.35-1.51-1.64c2.54-1.08,4.35-3.33,7.39-2.83-2.37,2.53-2.37,2.53-1.73,4,2-2.73,4.58-4.15,8.06-3.61l-.4,2.3a7.15,7.15,0,0,0,2-.27c3.09-1.38,5.41.93,8,1.69a9.61,9.61,0,0,1,2.95,1.94,8.3,8.3,0,0,1,1.19,1.61l-2.25,1.38,6,3.73c-1.31.83-2.4,1.45-3.4,2.19-1.59,1.15-1.64,1.18-2.8-.33s-1.55-1.69-3.64-.57c1.31,2.16,3.56,4.33.31,6.77l-3.33-2.74-.42.34,1.75,3.49c-1.42-.38-2.47-.73-3.54-.94a4.14,4.14,0,0,1-3.4-2.61c-.69-1.63-1.55-1.92-3.31-1.57a6.3,6.3,0,0,1-4.36-.31,13.26,13.26,0,0,1,5.58-1.27c.68,0,1.69-.06,2-.49,1-1.46,2.59-2.07,3.9-3.06.74-.55,1.18-1.35.55-2-1.54-1.67-2.87-3.68-5.56-4.25-.58,3-2.64,1.42-4.35,1.34-.79,1.74-3.35,2.26-2.86,4.75-1.59.56-3,1.06-4.44,1.58a2.36,2.36,0,0,1-2.48-.11,1.38,1.38,0,0,0-1.92.37l-1.8,1.88,0,0a91,91,0,0,1-9,3.75c-4.43,1.34-7.88,4.12-11.42,6.83-.39.3-.72,1.44-.55,1.58,1.1.94.66,2.22.87,3.4a21.05,21.05,0,0,1,3.17,1.06c1,.51,1.73,1.44,2.71,1.94a31.82,31.82,0,0,0,4,1.51,14.53,14.53,0,0,0,1.65.34,8,8,0,0,1-.09,1.28c-.3,1.31-.74,2.61-.94,3.94a2.16,2.16,0,0,0,1.47,2.65,2.2,2.2,0,0,0,2.58-1.28,18.6,18.6,0,0,0,1.55-4,3.08,3.08,0,0,1,2.19-2.5,26.29,26.29,0,0,0,4.63-2.45c1.34-.88,1.67-1.85,1-3.05-.92-1.6-.28-2.66.7-3.85a56.66,56.66,0,0,0,3.56-4.76,2.26,2.26,0,0,1,2.39-1.15,18.59,18.59,0,0,1,4.2.41,11.73,11.73,0,0,1,3.21,2.3,2,2,0,0,1,.55,2.36,3.15,3.15,0,0,0,.76,3.18c2.78-.05,4.35-2.73,7-3.38.14.7.23,1.24.37,1.77.46,1.68,1,3.3.22,5.1-.23.49.28,1.55.76,2.06a26.41,26.41,0,0,0,3,2.4l-1.22.72c-.85.07-1.71.15-2.08,1.23l2.06-.9c1.41.2,2.84.35,3.63,1.88-.41.73-.85,1.4-1.17,2.12a1.89,1.89,0,0,0-.19,1.29c.56,1.2-.11,1.78-1,2.34-.58.38-1.14.77-2.06,1.4,1.48.4,2.53.68,3.58,1s1.69,1.25,1.05,2.27a1.15,1.15,0,0,0,0,1.43c.63,1.22-.09,1.69-1.23,2.13-.13-.83-.24-1.49-.36-2.2-2.79-.34-5.54.15-8.41-.34L270,142l.12-.3-.08.33a3.89,3.89,0,0,0-1.14.07c-1.34.52-2.66,1.08-4,1.66a5.88,5.88,0,0,1-4.62.27,6.85,6.85,0,0,0-3.74-.31c-2.84.73-5.61,1.74-8.37,2.75a13.41,13.41,0,0,0-2.52,1.74c3.55,0,6.19-2.24,9.35-1.35a2.55,2.55,0,0,1-2.25,1.82l-.39-.12.28.24c.16,1,.36,2,.49,3s.8,1.83,1.9,1.72a8.56,8.56,0,0,0,2.87-.89,13.83,13.83,0,0,0,2.16-1.77l.85,1.79c-3.4,2-10.68,4.91-12.48,4.9l3.28-2.75a2.13,2.13,0,0,0-1.61-.18c-2.77,1-5.53,2.08-8.27,3.18a4.08,4.08,0,0,0-2.5,3c-.12.52-.22,1-.34,1.58a7.2,7.2,0,0,1-1.05.2,9.32,9.32,0,0,0-7.14,3.38c-1.28,1.43-2.53,2.89-3.69,4.41a6.46,6.46,0,0,0-1.33,2.5,6.79,6.79,0,0,1-3.23,4.27c-2.18,1.48-4.39,2.9-6.59,4.35a7.44,7.44,0,0,0-3.69,7.71,18.46,18.46,0,0,1,.09,4.07,6,6,0,0,1-2.67,5c-1.48-3.41-1.15-7.17-2.4-9.79-1.86-.46-3.13-.71-4.35-1.1-2.46-.77-4.9-1.25-7.53-.39.21,1,.37,1.8.63,3.06a19.19,19.19,0,0,0-2.67-1.23c-1.11-.33-2.39-.87-3.41-.61a52,52,0,0,0-7.19,2.62,4.26,4.26,0,0,0-2.9,3.55c-.12,3.1-1.26,5.92-2,8.83a10.22,10.22,0,0,0,.49,6.77,5.31,5.31,0,0,0,5.26,3.34c2.79-.08,4.94-1,6.09-3.74a9.6,9.6,0,0,1,1-1.64c.22-.32.48-.75.8-.83,1.75-.41,3.5-1,5.65-.62-1.37,4.2-3.6,7.89-5,12.09l7.81-.29a51.92,51.92,0,0,0-2,13.34c-1.16-.56-1.4-1.65-1.61-2.76a7.24,7.24,0,0,0-4.17-5.23,19,19,0,0,0-3.15-1.13,10,10,0,0,1-5.08-3,4.86,4.86,0,0,0-5.6-1.57,7,7,0,0,1-5.77-.79c-2-1.22-4-2.55-6-3.92-1.24-.86-2.39-1.87-3.56-2.84-.7-.58-1.41-1.42-.93-2.27,1-1.71,0-3-.52-4.5-1.16-3.42-3.85-6.07-4.46-9.87-.38-2.33-2-4.48-3.21-6.65-.53-1-1-2.16-2.56-2.48a8,8,0,0,0,0,4.74c.79,2.67,1.79,5.28,2.69,7.92a14.54,14.54,0,0,1,1.25,5.47c-.4-.32-.76-.47-.85-.71-.52-1.37-1.06-2.66-2.57-3.28a1.16,1.16,0,0,1-.43-1c.47-1.69-.65-2.68-1.52-3.81s-1.92-1.9-.78-3.39c.18-.24,0-.78,0-1.17-.3-2.22-.55-4.44-.94-6.64a4.07,4.07,0,0,0-.94-2.13c-1.39-1.39-2.95-2.61-4.39-3.87-.35.28-.53.36-.59.48a13.55,13.55,0,0,0-.5,1.34,167.63,167.63,0,0,0-6.85,39,164.62,164.62,0,0,0,18,83.76C156.28,308,160.34,314.2,164.13,320.58ZM217.5,158l2.24,1.43,3.48-3.84,1.82.8c.76-1.81.6-2.68-.61-3.27a6.24,6.24,0,0,0-1.6-.45c-2.58-.48-2.58-.47-3.15-3-.61-2.67-4.37-4.07-6.44-2.3a7.91,7.91,0,0,1-3.8,1.84,5.44,5.44,0,0,0-3.72,2.19,8.09,8.09,0,0,0,1.07.21l9.79.43c.55,0,1.23-.13,1.53.82-.68.06-1.23.08-1.78.15a8.18,8.18,0,0,0-7,6.27,2.71,2.71,0,0,0,.72,3,7,7,0,0,0,3.78-4.22,4.54,4.54,0,0,1,2.93-3.14c1.47-.68,1.48-.67,2.42,1.15Zm-15.22-39.41c-1.18-.93-2.33-.32-3.39.14-1.95.84-3.87,1.34-6.07.12.07,1.66-.68,2.08-1.92,2.16a3.73,3.73,0,0,0-3,1.54,4.84,4.84,0,0,0,1.35.26,41.34,41.34,0,0,0,5.32-1.18C197.17,120.74,199.71,119.61,202.28,118.59Zm1.09,24.77.78,0a12.34,12.34,0,0,0,1.08-6.52c-1.95,0-2.39.22-2.38,1.61A45.07,45.07,0,0,0,203.37,143.36Z"></path> <path class="cls-7" d="M426.39,172.7q-1-5.25-1.93-10.52a4.34,4.34,0,0,1,1.38.23,14.64,14.64,0,0,0,6.75,1.26,4,4,0,0,0,3.72-1.84c-1.93-3.7-6.15-4.37-9.05-6.8.41-1.71,2.09-2.84,2.05-4.86l-7.41,2.47c-1-2.49-2-5-3.13-7.46-2-4.19-4-8.33-6-12.49-.17-.36-.39-.7-.57-1.06-1.58-3.13-1.38-4.63,1.22-7,3.08-2.78,6.27-5.44,9.4-8.16,1.26-1.1,2.49-2.23,3.74-3.35a133.1,133.1,0,0,1,12.7,15.9,168.75,168.75,0,0,1,25.44,55.68,165.91,165.91,0,0,1,4.6,28.82,170.46,170.46,0,0,1-84,159.77c-.62.36-1.27.66-1.9,1,.29-2.1.57-4.19.86-6.29,2-1.24,4.14-2.4,6.13-3.72,20.74-13.74,37.12-31.65,50.36-52.57a8.24,8.24,0,0,0,.92-7.77,4.7,4.7,0,0,1,.74-5.14,6.36,6.36,0,0,0,1.23-5.65,18.58,18.58,0,0,1-.31-2.36,2.33,2.33,0,0,1,1.68-2.58c.53-.19,1.06-.36,1.59-.56a8.74,8.74,0,0,0,5.37-5.13,27.82,27.82,0,0,1,1.73-3.18c.46.95.74,1.52,1.21,2.47a164.07,164.07,0,0,0,9.25-65.7c-3-.47-3-.43-4.72,1.66a8.77,8.77,0,0,1-2.53,2.48q-4.81,2.41-9.82,4.42c-2.15.86-3,.33-3.9-1.8-.24-.59-.37-1.23-.63-1.81-1.57-3.48-3-7.07-4.81-10.4a73,73,0,0,1-4.62-9.18,14.36,14.36,0,0,0-5.18-6.74q-.56-9.48-1.1-18.95Zm32.19,28.37c2.32.05,4.14-1.5,3.72-2.93a10.27,10.27,0,0,0-1.86-4.07,81.32,81.32,0,0,0-7.05-6.44,2.05,2.05,0,0,0-1.9-.19,3.5,3.5,0,0,0-1.12,1.9c-.11.37.19.92.4,1.33,1.08,2.13,2.11,4.3,3.33,6.35a14,14,0,0,0,2.57,3.09A6.39,6.39,0,0,0,458.58,201.07Zm-11-48.14c-.78.21-1.23.35-1.68.46-2.38.54-2.59.92-1.75,3.19a17.12,17.12,0,0,0,4,6.2,4.45,4.45,0,0,1,1.31,4.36c-.08.39-.18.78-.25,1.17-.42,2.11,1.15,3,2.51,3.92a3,3,0,0,0,3.91-.2C452.91,165.71,450.27,159.41,447.55,152.93Z"></path> <path class="cls-8" d="M24.22,405.61l6,18.95.47.06c2-6.28,3.94-12.55,6-18.95H43c-3.24,9.87-6.42,19.55-9.64,29.34H27.76l-6-18.35-.47-.06c-2.27,6.06-3.9,12.35-6.12,18.46H9.62c-3.17-9.7-6.36-19.44-9.62-29.4H6.35q3,9.46,6,19l.39,0,6.1-19.12Z"></path> <path class="cls-8" d="M147.38,405.61h6.35l6,19.08.38.07c2-6.35,4.07-12.71,6.12-19.13h5.38c2,6.24,4,12.57,6.05,18.9l.48,0c2-6.32,4-12.64,6-18.91h6.35l-9.67,29.42h-5.6q-3-9.33-6-18.6l-.43-.07c-2,6.18-4,12.36-6.05,18.62H157C153.83,425.33,150.66,415.66,147.38,405.61Z"></path> <path class="cls-8" d="M203.51,405.38c4.39.15,8.56,0,12.66.48,7.36.89,12,6.31,12.2,13.7.15,4.89-1.18,9.15-5.09,12.36a13.27,13.27,0,0,1-7.69,3c-4,.24-8,.06-12.08.06Zm5.65,24.53c2.32-.19,4.4-.19,6.41-.55,4.25-.76,6.88-4,7.08-8.4.22-4.74-2-8.08-6.13-9.39-2.4-.76-4.83-.52-7.36-.37Z"></path> <path class="cls-9" d="M121.71,435.15V405.56c4.78.06,9.49-.58,14.11.52,9.1,2.18,11.41,10,10.7,16.13-.86,7.3-5.33,11.72-12.75,12.79a25,25,0,0,1-3.35.14C127.55,435.16,124.69,435.15,121.71,435.15Zm5.62-5.51a17.85,17.85,0,0,0,7.45-.52c3.9-1.21,6.13-4.45,6.13-8.74s-2.15-7.49-6.07-8.78a18,18,0,0,0-7.51-.36Z"></path> <path class="cls-8" d="M43.55,420.35c-.06-7.48,4.08-13,10.87-14.69A14.14,14.14,0,0,1,71.81,417a17.16,17.16,0,0,1-1.11,10.32,14.29,14.29,0,0,1-27.15-4.76C43.49,421.79,43.55,421.07,43.55,420.35Zm5.56,0,.14,0c0,.56,0,1.12.09,1.67a8.34,8.34,0,0,0,7.82,7.72,8,8,0,0,0,8.71-6.31,15.77,15.77,0,0,0,.12-5.69,7.79,7.79,0,0,0-7.38-6.69c-4.28-.3-7.47,1.67-8.76,5.54A28.62,28.62,0,0,0,49.11,420.33Z"></path> <path class="cls-8" d="M519.05,424.29,525.16,435h-6.38L513,425.16h-4V435h-5.61V405.51c3.29,0,6.47,0,9.64,0a22.5,22.5,0,0,1,3.57.27,8.75,8.75,0,0,1,7.63,7,9.71,9.71,0,0,1-3.77,10.6Zm-10-13.21c-.17,2.81-.06,5.54-.08,8.62a55.39,55.39,0,0,0,6.36-.34c2.33-.38,3.48-2.21,3.27-4.56a4,4,0,0,0-4-3.71C512.84,411,511.08,411.08,509,411.08Z"></path> <path class="cls-8" d="M85.35,425.11h-4V435H75.81V405.51h2.56c2.88,0,5.75-.07,8.63,0,5.29.17,9,3.16,9.72,7.86.63,4.29-.54,7.91-4.46,10.29-.26.17-.49.39-.82.66L97.52,435H91.14C89.27,431.78,87.3,428.43,85.35,425.11Zm-3.88-5.38a58.41,58.41,0,0,0,6.5-.44,4.17,4.17,0,0,0-.57-8.14c-2-.14-3.93,0-5.93,0Z"></path> <path class="cls-8" d="M450.94,419.79c1.62,1.58,3.34,3.23,5.16,5,1.75-2.53,4.25-1.33,6.93-1.57l-3.18,5.27,6.19,6.66c-2.47,0-4.42.05-6.36,0a2.6,2.6,0,0,1-1.38-.82,25.12,25.12,0,0,1-1.67-1.88c-.65.49-1.15.84-1.61,1.23a13.39,13.39,0,0,1-7.84,3.26c-8.27.56-10.74-6-8.92-11.28a13.1,13.1,0,0,1,3.44-5.12l1.91-1.82c-1.93-2.41-3-5-2.35-8a6.5,6.5,0,0,1,5.14-5.37,6.88,6.88,0,0,1,7.36,2.24,6.32,6.32,0,0,1,.82,7.39A39.71,39.71,0,0,1,450.94,419.79Zm2,9.19-6.27-6.59a7.12,7.12,0,0,0-3.61,4.27,3.77,3.77,0,0,0,3.45,5.11A7.36,7.36,0,0,0,452.93,429Zm-5-13a4.37,4.37,0,0,0,2.15-3.38c.14-1.53-.57-2.45-1.87-2.47a2.18,2.18,0,0,0-2.22,2.27A4.07,4.07,0,0,0,448,416Z"></path> <path class="cls-10" d="M231.82,405.62H251V411H237.55v6.46h12.16v5.56H237.54v6.68h13.7V435H232C231.57,433.29,231.39,410.62,231.82,405.62Z"></path> <path class="cls-8" d="M553.54,428.19l4.93-1.87c1.68,3.06,4.37,3.71,7.4,3.48a6.91,6.91,0,0,0,2.52-.69c2.1-1.07,2.2-3.33.17-4.49a30.82,30.82,0,0,0-3.77-1.5c-2.22-.88-4.49-1.66-6.63-2.7a6.76,6.76,0,0,1-3.66-4.51,7.9,7.9,0,0,1,3.75-9,12.58,12.58,0,0,1,13.21.42,6.82,6.82,0,0,1,3.17,4.64L570,413.76a6.2,6.2,0,0,0-6.68-2.67,5.22,5.22,0,0,0-1.79.62c-1.57,1-1.67,2.71-.06,3.65a32.9,32.9,0,0,0,4.6,1.95c1.78.71,3.63,1.25,5.35,2.07,3.06,1.45,4.87,3.8,4.74,7.36s-1.69,6.36-5.05,7.74a14.55,14.55,0,0,1-14.55-1.64A6.5,6.5,0,0,1,553.54,428.19Z"></path> <path class="cls-9" d="M320.42,435.05H314c-.79-2.2-1.57-4.35-2.35-6.51H301.8c-.79,2.16-1.57,4.31-2.38,6.51h-6.37l10.73-29.38h5.89C313.21,415.33,316.76,425.05,320.42,435.05ZM309.79,423c-1-2.95-1.94-5.64-3.06-8.87L303.68,423Z"></path> <path class="cls-9" d="M385.56,428.58c-.78,2.16-1.53,4.26-2.31,6.44h-6.34c3.48-9.92,7.13-19.64,10.72-29.42h5.82L404.19,435H397.8l-2.34-6.41Zm1.94-5.67h6l-2.78-8.15-.46,0C389.38,417.44,388.46,420.11,387.5,422.91Z"></path> <path class="cls-10" d="M527.92,405.63h5.61v2.46c0,4.71,0,9.43,0,14.15a16.06,16.06,0,0,0,.34,3.32,5.49,5.49,0,0,0,10.64.13,12.73,12.73,0,0,0,.37-3.08c0-4.79,0-9.59,0-14.38v-2.55h5.5a16.45,16.45,0,0,1,.19,1.78c0,5.35,0,10.71,0,16.06a16.65,16.65,0,0,1-.46,3.79c-1.26,5.23-5.52,8.3-11.2,8.19s-9.7-3.46-10.72-8.79a10.33,10.33,0,0,1-.26-1.9C527.91,418.51,527.92,412.2,527.92,405.63Z"></path> <path class="cls-8" d="M328.93,435h-5.71V405.51c1.67,0,3.24,0,4.8,0a66.67,66.67,0,0,1,7.88.21c5.52.73,8.68,4.64,8.46,10-.21,5.24-3.92,8.92-9.43,9.22-1.9.11-3.81,0-6,0Zm0-15.28a62.31,62.31,0,0,0,6.43-.44,4,4,0,0,0,3.16-4,4,4,0,0,0-3.06-4.08,28,28,0,0,0-6.53-.1Z"></path> <path class="cls-8" d="M291.88,412.23l-5.24,2.63a10.17,10.17,0,0,0-.85-1.23c-2.43-2.66-5.53-3.14-8.79-2.27s-4.86,3.15-5.62,6.26a11.64,11.64,0,0,0,.09,5.92,8.49,8.49,0,0,0,14,3.94c.46-.43.86-.92,1.38-1.48l5,2.56a13.6,13.6,0,0,1-12.31,6.9c-5.44,0-9.77-2.35-12.35-7.25a16,16,0,0,1,.1-15.84c2.6-4.73,6.81-7,12.21-7.05S288.83,407.47,291.88,412.23Z"></path> <path class="cls-10" d="M378.46,405.67V411H370.8v24H365c-.14-2.49,0-5.09-.06-7.69s0-5.28,0-7.91v-8.17h-7.8v-5.54Z"></path> <path class="cls-10" d="M478.36,405.63h21.26v5.45h-7.77V435h-5.77V411.1h-7.72Z"></path> <path class="cls-10" d="M106.21,405.62v24.09H118.1V435H100.63V405.51c1.14,0,2.16,0,3.19,0C104.52,405.52,105.22,405.57,106.21,405.62Z"></path> <path class="cls-8" d="M406.84,405.63h5.68v24h12v5.42H406.85C406.84,425.31,406.84,415.6,406.84,405.63Z"></path> <path class="cls-9" d="M322.82,62.93,321,57.53a155.38,155.38,0,0,1,28.52,6.06c3.58,1.1,7.11,2.36,10.66,3.55l.51,5.86A167.38,167.38,0,0,0,322.82,62.93Z"></path> <path class="cls-8" d="M401.66,90.31a10.8,10.8,0,0,1-4.82,2.83l-3.93-3-1.24,1.08-2.49-2.91a14.65,14.65,0,0,0-2.13-1.82c-4.75-2.71-9.52-5.41-14.35-8-2.16-1.15-4.48-2-6.72-3q.31-2.81.65-5.63A165.69,165.69,0,0,1,401.17,89.8,3.94,3.94,0,0,1,401.66,90.31Z"></path> <path class="cls-1" d="M198.67,435.08h-5.35V405.62h5.35Z"></path> <path class="cls-10" d="M353.38,435.08H348.2c-.48-1.76-.56-26.82-.09-29.45h5.27Z"></path> <path class="cls-2" d="M280.13,461.48h-2.66V442.87c2.83,0,5.55-.19,8.22.06a5.2,5.2,0,0,1,4.63,4,6.15,6.15,0,0,1-1.29,6.25,21,21,0,0,1-1.68,1.47l3.63,6.75c-2.76.38-2.76.38-3.89-1.57-.36-.62-.7-1.25-1.06-1.87-1.81-3.22-1.81-3.22-5.9-2.66Zm-.05-9.18a47.75,47.75,0,0,0,5,0,3.19,3.19,0,0,0,2.79-3.58,3,3,0,0,0-3-3.11c-1.49-.11-3,0-4.62,0-.05.91-.12,1.61-.13,2.31C280.07,449.27,280.08,450.69,280.08,452.3Z"></path> <path class="cls-11" d="M262.86,461.56l-4.82-.05c-5.22-1.25-8.42-7.79-5.76-13.58a8.44,8.44,0,0,1,7-5.16,8.61,8.61,0,0,1,8.9,4.26l-2,1.21c-.52-.48-1-.9-1.43-1.3a6,6,0,0,0-6.46-1.21c-3.34,1.25-5,5.32-3.74,9a6.4,6.4,0,0,0,8.28,4.07c2.33-.77,2.9-1.68,2.66-4.54h-4.81c-.05-.92-.08-1.59-.12-2.43.86,0,1.56-.12,2.26-.13,1.74,0,3.48,0,5.4,0a31.06,31.06,0,0,1-.08,5.24,5,5,0,0,1-1.73,2.7A20.8,20.8,0,0,1,262.86,461.56Z"></path> <path class="cls-2" d="M203.93,442.8c2.52,0,4.83,0,7.14,0a5.64,5.64,0,0,1,5.56,3.78,6.23,6.23,0,0,1-1.69,7c-.35.32-.72.61-1.22,1l3.78,6.86h-3c-.79-1.38-1.74-2.78-2.43-4.28-.76-1.67-1.83-2.53-3.71-2.17-.47.09-1,.08-1.72.14v6.3l-2.69.14Zm2.69,9.56h2.85a15.51,15.51,0,0,0,1.67,0,3.39,3.39,0,0,0,3.16-3.54,3.16,3.16,0,0,0-3.15-3.23c-1.47-.1-3,0-4.53,0Z"></path> <path class="cls-11" d="M236.45,461.54l-4.37,0c-6.53-1.29-9.32-10-4.88-15.6A9.07,9.07,0,0,1,243,449.63C244.42,455,241.71,459.78,236.45,461.54Zm-8.66-8.89a6.61,6.61,0,0,0,2.52,5.18,6,6,0,0,0,6.73.66A6.51,6.51,0,0,0,240.6,452c-.13-2.77-1.29-5.09-4.07-6.21C232.19,444,227.82,447.22,227.79,452.65Z"></path> <path class="cls-11" d="M129.93,461.62l-7.2-.12V442.85c3.1,0,6-.37,8.91.44a8.68,8.68,0,0,1,6.48,8.5c.13,4.4-2.06,7.84-5.88,9.19C131.49,461.25,130.7,461.41,129.93,461.62Zm-4.51-16v13.14c4.19.69,7.42-.31,8.93-2.7a7.59,7.59,0,0,0-.15-7.93C132,445.14,128.75,445.4,125.42,445.63Z"></path> <path class="cls-3" d="M45,461.53l-5.32,0c-2.72-.91-3.39-1.43-4.86-3.88l2.09-1.11c.5.46.93.91,1.41,1.29a6,6,0,0,0,6.09.88,2.35,2.35,0,0,0,1.68-2.12,2.13,2.13,0,0,0-1.55-2.17c-1-.44-2.11-.73-3.15-1.12a25.7,25.7,0,0,1-3.78-1.46,4.7,4.7,0,0,1-.75-7.68c2.57-2.32,9.62-2.48,11.37,2.65l-2.23.93a4.18,4.18,0,0,0-3.65-2.43,6.69,6.69,0,0,0-3,.57c-1.72.84-1.67,2.82,0,3.73a21.38,21.38,0,0,0,2.9,1.09c1.19.43,2.44.76,3.59,1.28a4.47,4.47,0,0,1,3,4.19A4.94,4.94,0,0,1,46.31,461,11.83,11.83,0,0,1,45,461.53Z"></path> <path class="cls-11" d="M483.52,461.5l-12.25-.11V442.92h12.18v2.6H474v5.34h8.58v2.57h-8.52V459h9.7C483.67,460,483.59,460.75,483.52,461.5Z"></path> <path class="cls-2" d="M506.23,442.88h2.53v7.83l.49.22,2.92-3.3c.89-1,1.86-2,2.64-3.11,1.16-1.64,2.64-2.09,4.83-1.5l-6.75,8,7.32,10.38c-2,.48-3.25.34-4.3-1.34-1.42-2.3-3.11-4.44-4.73-6.72a4.53,4.53,0,0,0-2.4,4.6,34.38,34.38,0,0,1,0,3.54l-2.57.19Z"></path> <path class="cls-11" d="M447.59,442.92h2.35v7.84h9.13V443l2.64-.19v18.65a7.38,7.38,0,0,1-1.08.17,12.19,12.19,0,0,1-1.47-.11v-7.9h-9v7.88l-2.53.12Z"></path> <path class="cls-3" d="M101.57,461.42l-2.86.2c.78-2.41,1.53-4.83,2.36-7.22,1.32-3.83,2.71-7.63,4.09-11.5h2.64c2.19,6.09,4.4,12.21,6.68,18.54h-2.89l-1.8-4.78h-6.67C102.59,458.27,102.08,459.84,101.57,461.42Zm5-14.48a39.55,39.55,0,0,0-2.23,6.81h4.47C108.08,451.55,107.41,449.52,106.56,446.94Z"></path> <path class="cls-11" d="M312.2,461.43l-12.44.13V443h12.05v2.47h-9.42v5.43H311c0,.94.07,1.61.11,2.57h-8.77v5.48H312Z"></path> <path class="cls-11" d="M145.1,442.86H148l4.66,8.66c1.64-3,3.14-5.79,4.66-8.62h2.83c-.28.68-.47,1.25-.75,1.78-1.42,2.68-2.81,5.37-4.31,8a7.8,7.8,0,0,0-1.13,4.54c.1,1.34,0,2.69,0,4.24l-2.67.16c0-1.77,0-3.35,0-4.91a7.1,7.1,0,0,0-1-3.87c-1.48-2.65-2.88-5.33-4.31-8C145.73,444.29,145.5,443.71,145.1,442.86Z"></path> <path class="cls-11" d="M548.72,442.92h2.86l4.65,8.58c1.62-3,3.13-5.78,4.67-8.61h2.94c-.51,1-.92,1.84-1.35,2.65-1.27,2.39-2.49,4.82-3.85,7.16a7.66,7.66,0,0,0-1.14,4.54c.09,1.34,0,2.69,0,4.2h-2.58c0-1.66-.05-3.24,0-4.81a6.26,6.26,0,0,0-.86-3.41c-1.55-2.79-3-5.61-4.52-8.43C549.29,444.25,549.06,443.67,548.72,442.92Z"></path> <path class="cls-3" d="M64.49,461.51H61.75v-16h-5.4l-.12-2.61H69.81v2.43l-5.32.3Z"></path> <path class="cls-9" d="M411.15,97.9l-3.72,3.48-2.67-2.08,4.13-3.68Z"></path> <path class="cls-4" d="M420.32,6.15l-.64.63c-.51-.33-1-.67-1.51-1l.5-.62Z"></path> <path class="cls-12" d="M270,142l-6.6,7.49c2.87.49,5.62,0,8.41.34.12.71.23,1.37.36,2.2,1.14-.44,1.86-.91,1.23-2.13a1.15,1.15,0,0,1,0-1.43c.64-1,.11-1.92-1.05-2.27s-2.1-.59-3.58-1c.92-.63,1.48-1,2.06-1.4.85-.56,1.52-1.14,1-2.34a1.89,1.89,0,0,1,.19-1.29c.32-.72.76-1.39,1.17-2.12-.79-1.53-2.22-1.68-3.63-1.88,0-.11,0-.22,0-.33l1.22-.72a26.41,26.41,0,0,1-3-2.4c-.48-.51-1-1.57-.76-2.06.81-1.8.24-3.42-.22-5.1-.14-.53-.23-1.07-.37-1.77-2.61.65-4.18,3.33-7,3.38a3.15,3.15,0,0,1-.76-3.18,2,2,0,0,0-.55-2.36,11.73,11.73,0,0,0-3.21-2.3,18.59,18.59,0,0,0-4.2-.41,2.26,2.26,0,0,0-2.39,1.15,56.66,56.66,0,0,1-3.56,4.76c-1,1.19-1.62,2.25-.7,3.85.69,1.2.36,2.17-1,3.05a26.29,26.29,0,0,1-4.63,2.45,3.08,3.08,0,0,0-2.19,2.5,18.6,18.6,0,0,1-1.55,4,2.2,2.2,0,0,1-2.58,1.28,2.16,2.16,0,0,1-1.47-2.65c.2-1.33.64-2.63.94-3.94a8,8,0,0,0,.09-1.28,14.53,14.53,0,0,1-1.65-.34,31.82,31.82,0,0,1-4-1.51c-1-.5-1.74-1.43-2.71-1.94a21.05,21.05,0,0,0-3.17-1.06c-.21-1.18.23-2.46-.87-3.4-.17-.14.16-1.28.55-1.58,3.54-2.71,7-5.49,11.42-6.83a91,91,0,0,0,9-3.75c.52.83-.31,1.06-.68,1.45-.55.59-1.17,1.11-1.87,1.76,2.11.8,2.13.84,3.65.09a3.34,3.34,0,0,1,3.37-.2,1.46,1.46,0,0,0,2.1-.52l-4-3-2.57.49,1.8-1.88a1.38,1.38,0,0,1,1.92-.37,2.36,2.36,0,0,0,2.48.11c1.42-.52,2.85-1,4.44-1.58-.49-2.49,2.07-3,2.86-4.75,1.71.08,3.77,1.66,4.35-1.34,2.69.57,4,2.58,5.56,4.25.63.69.19,1.49-.55,2-1.31,1-2.9,1.6-3.9,3.06-.29.43-1.3.48-2,.49a13.26,13.26,0,0,0-5.58,1.27,6.3,6.3,0,0,0,4.36.31c1.76-.35,2.62-.06,3.31,1.57a4.14,4.14,0,0,0,3.4,2.61c1.07.21,2.12.56,3.54.94L264.52,117l.42-.34,3.33,2.74c3.25-2.44,1-4.61-.31-6.77,2.09-1.12,2.39-1.06,3.64.57s1.21,1.48,2.8.33c1-.74,2.09-1.36,3.4-2.19l-6-3.73,2.25-1.38a8.3,8.3,0,0,0-1.19-1.61,9.61,9.61,0,0,0-2.95-1.94c-2.61-.76-4.93-3.07-8-1.69a7.15,7.15,0,0,1-2,.27l.4-2.3c-3.48-.54-6,.88-8.06,3.61-.64-1.51-.64-1.51,1.73-4-3-.5-4.85,1.75-7.39,2.83L248.1,103l-2.23.35-.06.33,4.72,1.22,0,.23-1.61.13a8,8,0,0,1-6.79,4.15l.05,0,1.1-2.82-3.25,1c-.54-.88-1.47-1.64-.08-2.7.3-.22.35-.86.38-1.31.06-.87,0-1.75,0-2.63,2.65-.84,5.44-1.24,7.95-2.57a11.8,11.8,0,0,0-6.11.14c-.83.17-1.45,1.35-2.16,2.08l-5.74,3.89,2.2,1.36c-1.5,2.43-3.77,3.41-6.31,4-.18-.82-.35-1.57-.52-2.33a6,6,0,0,0,2.09.11,1.84,1.84,0,0,0,1.11-1.29c0-.37-.67-1-1.15-1.15a2.3,2.3,0,0,0-2.55,1.23l.53,1.12c-.68.15-1.67.07-2,.49-1.22,1.65-2.74,1.29-4.32,1-6.13-1.31-12.25-.15-18.37.18a2.44,2.44,0,0,1-1.58-.29l2.39-1.43a7,7,0,0,0-1.13-.53c-2-.47-4-.94-6.06-1.33a4,4,0,0,0-2.13.07c-2,.84-3.72.68-5-1.14l-3.41,1c-.06-.47-.15-.7-.09-.75a214.6,214.6,0,0,1,20.8-16.11A159.45,159.45,0,0,1,269.5,64.2a178.87,178.87,0,0,1,38.38-2.68c2.87.11,5.74.39,8.61.58,1.3,3,2.57,6,3.93,9,1.56,3.41,3.22,6.77,4.8,10.17.4.86.69,1.77,1,2.65l-13,1.07c-2.44-2.6-4.91-5.17-7.29-7.81-1.53-1.7-2.92-3.52-4.52-5.2.38,5,2.51,9.32,5.14,13.44-.8,0-1.59,0-2.39-.08-2.7-.11-5.41-.36-7.92,1.09a5.26,5.26,0,0,1-1.85.39c-1.4.21-2.81.39-4.21.58l-.76.21.76.62.56.93-11.49,1.24-.25.5,1.88,1.07-1.59,1.33c2.51,1.81,5.24,1.8,8.07,1.54a12.55,12.55,0,0,1,4.24.15c2.57.63,4.46,4.45,1.54,6.51a6,6,0,0,0-.88,1.13c1.19,0,2-.07,2.73,0a2.19,2.19,0,0,1,2,2c.09,1.45-1.91,3.71-3.39,3.83-2.57.22-3.45.89-3.45,3.46a52.89,52.89,0,0,0,.72,7.83,3.54,3.54,0,0,0,3,3,8.49,8.49,0,0,1,2.33,1c1.48.87,2.1.77,3.19-.62a5,5,0,0,1,1.13-1.21,4.59,4.59,0,0,0,2.24-3.49,4.5,4.5,0,0,0,3.62-2.57,6.4,6.4,0,0,1,4.28-2.73c2.59-.67,5.37-.95,7.53-2.8a10.18,10.18,0,0,1,6.87-2.36,22.55,22.55,0,0,0,10-2l.59.07c.83,2.25,1.65,4.51,2.47,6.76l-2.57.59L334,111.63l-1.78,1.19a15.1,15.1,0,0,0,1.86,3.33c1.83,1.89,4,1.54,6.08.32a7.94,7.94,0,0,1,1,1,33,33,0,0,0,10.48,8.93c.41.23.81.49,1.41.86-4.42,6-8.53,12.14-15.78,15.16-5,2.07-7,6.25-5.92,11.4a8.42,8.42,0,0,0,4.71,6,10,10,0,0,1,3.22,2.37c2,2.37,4.78,2.64,7.65,2.48a7.56,7.56,0,0,0,0,7.44c2.13-.58,2.13-.58,3.3,1.19.71,1.07,1.15,1.24,2.08.41s1.95-1.33,3.24-.73a1,1,0,0,0,.89-.05c2.12-1.7,5-2.65,5.7-5.79a14,14,0,0,1,1.48-3l2.4,8.92c-2.11.9-4.29,1.66-6.29,2.74a5,5,0,0,1-3.84.66c-1.44-.36-2.91-.65-3.83-.85-1.87,1.69-3.37,3.07-4.89,4.42-.95.84-2,1.58-2.89,2.48a3.45,3.45,0,0,0-1.06,3.89,2.58,2.58,0,0,1-.83,3c-.34.32-.67.67-1,1-2.2.31-4.4.77-6.62.89a172.12,172.12,0,0,1-24.66-.67c-6.12-.58-12.28-.88-18.42-1.16-10.38-.49-20.75-1.07-31.14-1.23-13.4-.22-26.41,1.91-38.76,7.42A57.41,57.41,0,0,0,210,203a7.13,7.13,0,0,0-6,0,2.68,2.68,0,0,0-1.76,2.51c1.13-.43,1.94-.69,2.71-1a3.36,3.36,0,0,1,3.17,0,2.19,2.19,0,0,1-.28.66,38,38,0,0,0-8,13.19l-7.81.29c1.44-4.2,3.67-7.89,5-12.09-2.15-.42-3.9.21-5.65.62-.32.08-.58.51-.8.83a9.6,9.6,0,0,0-1,1.64c-1.15,2.7-3.3,3.66-6.09,3.74a5.31,5.31,0,0,1-5.26-3.34,10.22,10.22,0,0,1-.49-6.77c.76-2.91,1.9-5.73,2-8.83a4.26,4.26,0,0,1,2.9-3.55,52,52,0,0,1,7.19-2.62c1-.26,2.3.28,3.41.61a19.19,19.19,0,0,1,2.67,1.23c-.26-1.26-.42-2.06-.63-3.06,2.63-.86,5.07-.38,7.53.39,1.22.39,2.49.64,4.35,1.1,1.25,2.62.92,6.38,2.4,9.79a6,6,0,0,0,2.67-5,18.46,18.46,0,0,0-.09-4.07,7.44,7.44,0,0,1,3.69-7.71c2.2-1.45,4.41-2.87,6.59-4.35a6.79,6.79,0,0,0,3.23-4.27,6.46,6.46,0,0,1,1.33-2.5c1.16-1.52,2.41-3,3.69-4.41a9.32,9.32,0,0,1,7.14-3.38,7.2,7.2,0,0,0,1.05-.2c.12-.53.22-1.06.34-1.58a4.08,4.08,0,0,1,2.5-3c2.74-1.1,5.5-2.15,8.27-3.18a2.13,2.13,0,0,1,1.61.18l-3.28,2.75c1.8,0,9.08-2.88,12.48-4.9l-.85-1.79a13.83,13.83,0,0,1-2.16,1.77,8.56,8.56,0,0,1-2.87.89c-1.1.11-1.75-.58-1.9-1.72s-.33-2-.49-3l.11-.12a2.55,2.55,0,0,0,2.25-1.82c-3.16-.89-5.8,1.39-9.35,1.35a13.41,13.41,0,0,1,2.52-1.74c2.76-1,5.53-2,8.37-2.75a6.85,6.85,0,0,1,3.74.31,5.88,5.88,0,0,0,4.62-.27c1.31-.58,2.63-1.14,4-1.66a3.89,3.89,0,0,1,1.14-.07ZM230.33,93.11l-3.15,2.1c-3.38-2-6.54-1.54-9.84.4,4.41,1.93,15.46,1.13,15.33-1l-1.7-.28-.47-1.23a8.85,8.85,0,0,1,1.2-.94c.78-.42,1.61-.74,2.42-1.11-3-.28-4.24,0-5.44.93.3.17.57.3.81.47S230.05,92.88,230.33,93.11Zm-21.28,7.49-1.66.84,1,.9-2.11.79.05.49,6.41.72-.06.66h-7.17c1.74,1.74,3.24,2.67,5.21,2.49a51.19,51.19,0,0,0,5.68-.68,8.21,8.21,0,0,1,5.13.32,3.07,3.07,0,0,0,2.63-.19,5.4,5.4,0,0,1,3.64-1.62l-2.39-2.11a18.88,18.88,0,0,0,.88-2.79c.07-.45-.21-1.3-.5-1.38a2.15,2.15,0,0,0-1.69.33,8.57,8.57,0,0,0-1.22,1.74c-.3.39-.68.72-1.19,1.26l-.46-2.8c-2.48,1.33-4.4.74-6.19-1.07a5,5,0,0,0-2.6-1,22.27,22.27,0,0,0-4.74-.4,5,5,0,0,0-2.78,1,10.86,10.86,0,0,1-4.66,2.3,12.82,12.82,0,0,0-1.56.51,3,3,0,0,0,4.18,1.13,54.23,54.23,0,0,1,5.68-1.77Zm53.39-9-5.69,1.36a4.58,4.58,0,0,0,1,.52c1.82.21,3.65.31,5.47.58a13.26,13.26,0,0,0,8.71-1.64c1.38-.79,3.05-1.16,4.25-2.14a5.58,5.58,0,0,1,2.48-1.16c5.44-1.22,10.88-2.43,16.31-3.68a5.75,5.75,0,0,0,1.21-.56c-10.9-1.61-21.54,0-32.22.77l-.39.66,2.52,1.53c-2.17-.25-4-1.11-5.85-1.41s-3.76.89-5.5,1.75l.63,2.78C257.7,91.73,260.06,89.62,262.44,91.56Zm3,3.55c-1.15-.07-1.9-.16-2.65-.14-1.92,0-3.84.19-5.75.15a4.82,4.82,0,0,1-2.44-.63,13.3,13.3,0,0,0-6.37-1.74c-.21,0-.45.25-.89.52l2.63,1.51L249.19,97c4.55,0,8.84,0,13.14,0A4,4,0,0,0,265.4,95.11Zm-18.21.77c-1.22-.82-2.21-2-3.31-2.11a72.58,72.58,0,0,0-8.15-.09,9.09,9.09,0,0,0,.92,1.25A5,5,0,0,0,240.91,96c1.37-.2,2.61-.33,3.84.61C245.53,97.22,246.39,96.87,247.19,95.88Zm-8,2c-1.43-.06-3.12-.52-4,.71-1.06,1.47-2.27,1.67-4.05,1.24C234.58,103.12,237.94,102.22,239.2,97.9Zm-15.31-5.84a51.4,51.4,0,0,0-11.08,2.11C215.78,94.71,222.31,93.52,223.89,92.06Zm22.88-.23c-1.51-2.93-3.28-3.3-5.94-1.56Zm10.65,17.47c2.17,1.26,2.52,1.14,3.28-1.07C259.43,107.9,258.25,107.61,257.42,109.3Zm37.85-3.48a23.42,23.42,0,0,0-2.55-1.5,1.62,1.62,0,0,0-1.29.11,1,1,0,0,0-.21,1,2,2,0,0,0,1.24.8A14.38,14.38,0,0,0,295.27,105.82Zm-32.73-7.5,0,.5c2.65,1.19,3.21,1.2,5.08-.24Z"></path> <path class="cls-13" d="M283.32,297.48l5.16-5c1.87.81,3.93,1.65,5.95,2.57,7.56,3.46,15.59,5.16,23.77,6.23a98.48,98.48,0,0,0,20.09.41c4.13-.3,4.6.12,6.12,4.08a192.07,192.07,0,0,1,11.11,43.75,172.84,172.84,0,0,1,1.85,26.5c0,.86,0,1.73,0,2.63H251.78l-2.82-7a16.09,16.09,0,0,0,7.13-1.16c-2.44-1.28-4.52-2.28-6.51-3.44-2.66-1.53-3.29-3.42-2.19-6.25.52-1.34,1.16-2.63,1.77-3.92a1.42,1.42,0,0,0-.71-2.16,8.86,8.86,0,0,1-2.15-1.46c-1-.95-.92-1.44,0-2.41.55-.56,1.17-1,1.82-1.64-.51-2.53-1-5.06-1.58-7.81l3.77.51v-4.64l1.57-.12a19,19,0,0,0,4-.4c2.66-.82,3.35-3.54,1.55-5.64-.93-1.09-1.92-2.13-2.89-3.18l.93-1.22a22.94,22.94,0,0,0,3,1.28,4,4,0,0,0,5.27-2.8c.42-1.19.58-2.47.9-3.69a6.28,6.28,0,0,1,1.1-3l1.22.72c1.36-2.26,2.42-4.46,2.26-7.05l9.76-10.08a2.72,2.72,0,0,0,3.27-1.74,12.68,12.68,0,0,0,.67-2.49l0,0C283.11,297.81,283.22,297.65,283.32,297.48Z"></path> <path class="cls-14" d="M164.13,320.58c-3.79-6.38-7.85-12.62-11.31-19.18a164.62,164.62,0,0,1-18-83.76,167.63,167.63,0,0,1,6.85-39,13.55,13.55,0,0,1,.5-1.34c.06-.12.24-.2.59-.48,1.44,1.26,3,2.48,4.39,3.87a4.07,4.07,0,0,1,.94,2.13c.39,2.2.64,4.42.94,6.64,0,.39.23.93,0,1.17-1.14,1.49,0,2.4.78,3.39s2,2.12,1.52,3.81a1.16,1.16,0,0,0,.43,1c1.51.62,2,1.91,2.57,3.28.09.24.45.39.85.71a14.54,14.54,0,0,0-1.25-5.47c-.9-2.64-1.9-5.25-2.69-7.92a8,8,0,0,1,0-4.74c1.56.32,2,1.51,2.56,2.48,1.2,2.17,2.83,4.32,3.21,6.65.61,3.8,3.3,6.45,4.46,9.87.5,1.47,1.49,2.79.52,4.5-.48.85.23,1.69.93,2.27,1.17,1,2.32,2,3.56,2.84,2,1.37,4,2.7,6,3.92a7,7,0,0,0,5.77.79,4.86,4.86,0,0,1,5.6,1.57,10,10,0,0,0,5.08,3,19,19,0,0,1,3.15,1.13,7.24,7.24,0,0,1,4.17,5.23c.21,1.11.45,2.2,1.61,2.76.6,17.06-.63,33.94-5.11,50.48-1.44,5.31-3,10.58-5.79,15.39a33.6,33.6,0,0,1-11.21,11.91A34.77,34.77,0,0,0,165,319.8,4.62,4.62,0,0,1,164.13,320.58Z"></path> <path class="cls-12" d="M427.91,194.76a14.36,14.36,0,0,1,5.18,6.74,73,73,0,0,0,4.62,9.18c1.85,3.33,3.24,6.92,4.81,10.4.26.58.39,1.22.63,1.81.86,2.13,1.75,2.66,3.9,1.8q5-2,9.82-4.42a8.77,8.77,0,0,0,2.53-2.48c1.7-2.09,1.69-2.13,4.72-1.66a164.07,164.07,0,0,1-9.25,65.7c-.47-.95-.75-1.52-1.21-2.47a27.82,27.82,0,0,0-1.73,3.18,8.74,8.74,0,0,1-5.37,5.13c-.53.2-1.06.37-1.59.56a2.33,2.33,0,0,0-1.68,2.58,18.58,18.58,0,0,0,.31,2.36,6.36,6.36,0,0,1-1.23,5.65,4.7,4.7,0,0,0-.74,5.14,8.24,8.24,0,0,1-.92,7.77c-13.24,20.92-29.62,38.83-50.36,52.57-2,1.32-4.08,2.48-6.13,3.72.56-4.33,1.07-8.67,1.71-13,1.68-11.33,3.94-22.56,6.59-33.71a16.92,16.92,0,0,1,.46,2.06c.32,3.18,2.33,4.68,5.4,4a9.79,9.79,0,0,1,5.65-.13,3.05,3.05,0,0,0,2-.38c4.83-2.27,9.28-5,11.81-10,.32-.63.9-1.14,1.19-1.79a20.43,20.43,0,0,0,1.78-4.39,5.86,5.86,0,0,1,2.47-3.89c2.62-1.9,3.58-4.45,2.53-7.56a4.34,4.34,0,0,1,.79-4,9.58,9.58,0,0,1,1.79-1.92c2.11-1.7,4.32-3.29,6.4-5a4.87,4.87,0,0,0,1.82-2.34c.61-3.64.81-7.31-.74-10.83-1.44-3.28-1.41-6.83-1.73-10.29-.21-2.22,1.23-4.11,2.68-5.72,3.84-4.28,7.71-8.52,11.67-12.68a31.87,31.87,0,0,0,8.42-15.06,34.1,34.1,0,0,0,.4-3.65c-1.58.38-2.72.62-3.84.92-2,.55-4,1.29-6,1.68-2.76.53-4.82-.52-5.46-3s-2.38-4.21-4.29-5.84a18.32,18.32,0,0,1-2.88-3.43c-1.18-1.69-2.07-3.61-3.37-5.19-1.1-1.35-1.71-2.58-1.27-4.34a3.68,3.68,0,0,0-1.43-4,14.6,14.6,0,0,1-1.18-1.18Z"></path> <path class="cls-15" d="M427.63,203.15a14.6,14.6,0,0,0,1.18,1.18,3.68,3.68,0,0,1,1.43,4c-.44,1.76.17,3,1.27,4.34,1.3,1.58,2.19,3.5,3.37,5.19a18.32,18.32,0,0,0,2.88,3.43c1.91,1.63,3.62,3.21,4.29,5.84s2.7,3.57,5.46,3c2-.39,4-1.13,6-1.68,1.12-.3,2.26-.54,3.84-.92a34.1,34.1,0,0,1-.4,3.65,31.87,31.87,0,0,1-8.42,15.06c-4,4.16-7.83,8.4-11.67,12.68-1.45,1.61-2.89,3.5-2.68,5.72.32,3.46.29,7,1.73,10.29,1.55,3.52,1.35,7.19.74,10.83a4.87,4.87,0,0,1-1.82,2.34c-2.08,1.74-4.29,3.33-6.4,5a9.58,9.58,0,0,0-1.79,1.92,4.34,4.34,0,0,0-.79,4c1.05,3.11.09,5.66-2.53,7.56a5.86,5.86,0,0,0-2.47,3.89,20.43,20.43,0,0,1-1.78,4.39c-.29.65-.87,1.16-1.19,1.79-2.53,5-7,7.75-11.81,10a3.05,3.05,0,0,1-2,.38,9.79,9.79,0,0,0-5.65.13c-3.07.72-5.08-.78-5.4-4a16.92,16.92,0,0,0-.46-2.06c1.57-5.52,2.9-11.11,4.75-16.53a83.87,83.87,0,0,1,16.09-28.59c2.73-3.11,5.57-6.13,8.34-9.21,7.18-8,9.62-17.24,7.49-27.71a78.54,78.54,0,0,1-1.84-14.89c0-3.51-.38-7-.34-10.51S427.42,206.72,427.63,203.15Z"></path> <path class="cls-14" d="M228.46,316.25q-2.36,2.53-4.7,5.08c-1.13,1.24-2.3,2.45-3.36,3.75-4,4.87-4.58,10.24-2,15.91,2.67,5.88,5.47,11.71,8.26,17.53,2.93,6.12,5.94,12.2,8.87,18.32.22.46,1.29,1.18-.06,1.67-.27-.16-.52-.34-.8-.48-5.71-2.87-11.55-5.5-17.11-8.63A164.17,164.17,0,0,1,180.92,341c3.05-3,5.87-6.33,9.17-9.05,10.17-8.38,20.5-16.54,30.79-24.75,2.36-1.88,4.85-3.6,7.29-5.39Q228.31,309,228.46,316.25Z"></path> <path class="cls-6" d="M290.19,87.36c1.4-.19,2.81-.37,4.21-.58a5.26,5.26,0,0,0,1.85-.39c2.51-1.45,5.22-1.2,7.92-1.09.8,0,1.59.06,2.39.08a13.71,13.71,0,0,1,1,1c5,5.79,11.61,8.46,18.81,10.05,2.24.49,4.54.73,6.82,1,.92.12,1.47.45,1.55,1.44.13,1.74.32,3.48.48,5.21-.57-.24-1.13-.5-1.71-.72-.92-.34-1.27.17-1.44,1.16.91.18,1.83.33,2.71.59.16,0,.19.55.28.85a22.55,22.55,0,0,1-10,2,10.18,10.18,0,0,0-6.87,2.36c-2.16,1.85-4.94,2.13-7.53,2.8a6.4,6.4,0,0,0-4.28,2.73,4.5,4.5,0,0,1-3.62,2.57,4.59,4.59,0,0,1-2.24,3.49,5,5,0,0,0-1.13,1.21c-1.09,1.39-1.71,1.49-3.19.62a8.49,8.49,0,0,0-2.33-1,3.54,3.54,0,0,1-3-3,52.89,52.89,0,0,1-.72-7.83c0-2.57.88-3.24,3.45-3.46,1.48-.12,3.48-2.38,3.39-3.83a2.19,2.19,0,0,0-2-2c-.76-.08-1.54,0-2.73,0a6,6,0,0,1,.88-1.13c2.92-2.06,1-5.88-1.54-6.51a12.55,12.55,0,0,0-4.24-.15c-2.83.26-5.56.27-8.07-1.54l1.59-1.33L279,90.86l.25-.5,11.49-1.24-.56-.93Z"></path> <path class="cls-16" d="M322.82,62.93A167.38,167.38,0,0,1,360.64,73a39.74,39.74,0,0,1-2.11,15.27c-1,3.08-2.88,4.31-6.13,4.32a20.2,20.2,0,0,1-8.78-1.91c1.9-1,3.77-2,5.72-2.8,1.59-.67,3.28-1.1,4.92-1.63a5.82,5.82,0,0,0-3-.77c-2.45.06-4.9.25-7.34.39h0c.15-.48.3-1,.54-1.78l-10.28-.45a21.05,21.05,0,0,1-1.74-1.93,77.38,77.38,0,0,1-9.23-17.19A12.44,12.44,0,0,1,322.82,62.93Z"></path> <path class="cls-17" d="M367.69,376.48c.78-6,1.47-12,2.34-18a76.35,76.35,0,0,0,.45-18.86c-1.21-11.76-2.76-23.47-3.15-35.3-.07-2.22-.32-4.43-.5-6.91l10.05-.7c0,.84,0,1.59,0,2.34-.63,10-1.21,19.92-1.91,29.88-.67,9.73-.9,19.46-.76,29.22.07,4.39,0,8.78,0,13.17,0,.87-.16,1.74-.24,2.6Z"></path> <path class="cls-18" d="M366,75.54c2.24,1,4.56,1.84,6.72,3,4.83,2.57,9.6,5.27,14.35,8a14.65,14.65,0,0,1,2.13,1.82c-.06.25-.13.49-.2.73-2.18,0-4.35-.68-6.59-.26.73,2,.95,2.21,2.68,2l2.2-.19.1.41-1.64,1.08c.8,1.74,2.22,1.49,3.56,1.47,0,.82,0,1.65.08,2.48l-.11.1.12.09a8.61,8.61,0,0,1-4.05,9,6.36,6.36,0,0,1-4.51,1.17,6.46,6.46,0,0,0-2.14-.1A3,3,0,0,1,375,104.5a19.57,19.57,0,0,0-2-3,17.13,17.13,0,0,1-3.83-9.82A10.42,10.42,0,0,0,367.59,87c-.39,1.24-.78,2.48-1.21,3.87C365.24,87.49,365.06,79.21,366,75.54Z"></path> <path class="cls-9" d="M223.54,378.79c-1.44-.84-2.85-1.71-4.31-2.5a170,170,0,0,1-40.45-30.22c-.45-.45-.93-.87-1.4-1.3l3.54-3.79a164.17,164.17,0,0,0,36.63,28.42c5.56,3.13,11.4,5.76,17.11,8.63.28.14.53.32.8.48Z"></path> <path class="cls-19" d="M228.46,316.25q-.15-7.23-.29-14.46a21.4,21.4,0,0,1,1.88-1.81c4.77-3.73,9.54-7.46,14.37-11.12a28.55,28.55,0,0,1,4.09-2.45c1.17-.6,2.5-.89,3.58.14a2.94,2.94,0,0,1,.29,3.77,22.18,22.18,0,0,1-3.12,4.48c-5.7,6-11.5,12-17.27,17.94C230.83,313.93,229.64,315.08,228.46,316.25Z"></path> <path class="cls-6" d="M341.42,190.43c.34-.33.67-.68,1-1a2.58,2.58,0,0,0,.83-3,3.45,3.45,0,0,1,1.06-3.89c.89-.9,1.94-1.64,2.89-2.48,1.52-1.35,3-2.73,4.89-4.42.92.2,2.39.49,3.83.85a5,5,0,0,0,3.84-.66c2-1.08,4.18-1.84,6.29-2.74a6.45,6.45,0,0,1,.78,6.08,5.3,5.3,0,0,0-.41,1.61c-.17,2.23-1.62,3.15-3.5,3.94a86.26,86.26,0,0,1-19.37,5.61A16.85,16.85,0,0,1,341.42,190.43Z"></path> <path class="cls-9" d="M254.59,328c1,1,2,2.09,2.89,3.18,1.8,2.1,1.11,4.82-1.55,5.64a19,19,0,0,1-4,.4l-1.57.12V342l-3.77-.51c.56,2.75,1.07,5.28,1.58,7.81-.65.59-1.27,1.08-1.82,1.64-1,1-1,1.46,0,2.41a8.86,8.86,0,0,0,2.15,1.46,1.42,1.42,0,0,1,.71,2.16c-.61,1.29-1.25,2.58-1.77,3.92-1.1,2.83-.47,4.72,2.19,6.25,2,1.16,4.07,2.16,6.51,3.44A16.09,16.09,0,0,1,249,371.7c-1.85-4.49-3.85-8.93-5.53-13.49-2.09-5.7-1.23-11.33,1.3-16.69,2.15-4.54,4.51-9,8.34-12.44A15.07,15.07,0,0,1,254.59,328Z"></path> <path class="cls-7" d="M363.66,164.16a14,14,0,0,0-1.48,3c-.74,3.14-3.58,4.09-5.7,5.79a1,1,0,0,1-.89.05c-1.29-.6-2.24-.16-3.24.73s-1.37.66-2.08-.41c-1.17-1.77-1.17-1.77-3.3-1.19a7.56,7.56,0,0,1,0-7.44c4.46-.66,8.91-1.42,13.45-1C361.49,163.72,362.57,164,363.66,164.16Z"></path> <path class="cls-20" d="M421.9,152.64l7.41-2.47c0,2-1.64,3.15-2.05,4.86,2.9,2.43,7.12,3.1,9.05,6.8a4,4,0,0,1-3.72,1.84,14.64,14.64,0,0,1-6.75-1.26,4.34,4.34,0,0,0-1.38-.23c-.79-2.42-1.8-4.78-1.63-7.44C422.87,154.06,422.23,153.34,421.9,152.64Z"></path> <path class="cls-9" d="M269.32,312.24c.16,2.59-.9,4.79-2.26,7.05l-1.22-.72a6.28,6.28,0,0,0-1.1,3c-.32,1.22-.48,2.5-.9,3.69a4,4,0,0,1-5.27,2.8,22.94,22.94,0,0,1-3-1.28q3.72-4,7.43-8.09c1.57-1.7,3.13-3.41,4.73-5.08A16.58,16.58,0,0,1,269.32,312.24Z"></path> <path class="cls-10" d="M343.91,85.87c2.44-.14,4.89-.33,7.34-.39a5.82,5.82,0,0,1,3,.77c-1.64.53-3.33,1-4.92,1.63-1.95.82-3.82,1.85-5.72,2.8a19,19,0,0,1-9.44-7l10.28.45c-.24.81-.39,1.3-.54,1.78a.62.62,0,0,0-.19.07s0,.1,0,.15Z"></path> <path class="cls-19" d="M313.23,85l13-1.07A13.06,13.06,0,0,1,328.9,90C322.88,90.7,317.63,89.18,313.23,85Z"></path> <path class="cls-19" d="M405.38,103.7c-1.71,1.75-3.4,3.53-5.14,5.26s-3.94,1.61-6.44,1.2a26.72,26.72,0,0,1,5.64-6.52Z"></path> <path class="cls-10" d="M340.18,116.47c-2.1,1.22-4.25,1.57-6.08-.32a15.1,15.1,0,0,1-1.86-3.33l1.78-1.19,1.57,1.75,2.57-.59Z"></path> <path class="cls-9" d="M367.69,376.48l6.27-2.6c0,1.62-.08,3.24-.13,5h-6.26Z"></path> <path class="cls-8" d="M389.29,93.6c-1.34,0-2.76.27-3.56-1.47l1.64-1.08-.1-.41-2.2.19c-1.73.18-1.95,0-2.68-2,2.24-.42,4.41.27,6.59.26C389.85,90.52,389.37,92.07,389.29,93.6Z"></path> <path class="cls-20" d="M405.38,103.7l-5.94-.06,5.33-4.34,2.66,2.08C406.75,102.15,406.07,102.93,405.38,103.7Z"></path> <path class="cls-20" d="M391.67,91.24l1.24-1.08,3.93,3L394.05,95A9.31,9.31,0,0,1,391.67,91.24Z"></path> <path class="cls-1" d="M208.2,204.5a3.36,3.36,0,0,0-3.17,0c-.77.35-1.58.61-2.71,1a2.68,2.68,0,0,1,1.76-2.51,7.13,7.13,0,0,1,6,0Z"></path> <path class="cls-1" d="M283,297.93a12.68,12.68,0,0,1-.67,2.49,2.72,2.72,0,0,1-3.27,1.74Z"></path> <path class="cls-20" d="M335.1,106c-.09-.3-.12-.81-.28-.85-.88-.26-1.8-.41-2.71-.59.17-1,.52-1.5,1.44-1.16.58.22,1.14.48,1.71.72.14.65.29,1.3.43,2Z"></path> <polygon class="cls-8" points="389.38 96.27 389.26 96.18 389.37 96.08 389.38 96.27"></polygon> <path class="cls-1" d="M283.32,297.48c-.1.17-.21.33-.32.49Z"></path> <path class="cls-20" d="M217.5,158l1.65-1.88c-.94-1.82-1-1.83-2.42-1.15a4.54,4.54,0,0,0-2.93,3.14,7,7,0,0,1-3.78,4.22,2.71,2.71,0,0,1-.72-3,8.18,8.18,0,0,1,7-6.27c.55-.07,1.1-.09,1.78-.15-.3-.95-1-.8-1.53-.82l-9.79-.43a8.09,8.09,0,0,1-1.07-.21,5.44,5.44,0,0,1,3.72-2.19,7.91,7.91,0,0,0,3.8-1.84c2.07-1.77,5.83-.37,6.44,2.3.57,2.5.57,2.49,3.15,3a6.24,6.24,0,0,1,1.6.45c1.21.59,1.37,1.46.61,3.27l-1.82-.8-3.48,3.84Z"></path> <path class="cls-20" d="M202.28,118.59c-2.57,1-5.11,2.15-7.74,3a41.34,41.34,0,0,1-5.32,1.18,4.84,4.84,0,0,1-1.35-.26,3.73,3.73,0,0,1,3-1.54c1.24-.08,2-.5,1.92-2.16,2.2,1.22,4.12.72,6.07-.12C200,118.27,201.1,117.66,202.28,118.59Z"></path> <path class="cls-20" d="M203.37,143.36a45.07,45.07,0,0,1-.52-4.89c0-1.39.43-1.61,2.38-1.61a12.34,12.34,0,0,1-1.08,6.52Z"></path> <path class="cls-20" d="M269.55,135.85c0,.11,0,.22,0,.33l-2.06.9C267.84,136,268.7,135.92,269.55,135.85Z"></path> <path class="cls-12" d="M242.16,109.36l-.09.28s0-.11,0-.13a1.13,1.13,0,0,1,.18-.12Z"></path> <path class="cls-12" d="M252.68,148.8l-.28-.24.39.12Z"></path> <path class="cls-12" d="M270.05,142l.08-.33-.12.3Z"></path> <path class="cls-20" d="M458.58,201.07a6.39,6.39,0,0,1-1.91-1A14,14,0,0,1,454.1,197c-1.22-2.05-2.25-4.22-3.33-6.35-.21-.41-.51-1-.4-1.33a3.5,3.5,0,0,1,1.12-1.9,2.05,2.05,0,0,1,1.9.19,81.32,81.32,0,0,1,7.05,6.44,10.27,10.27,0,0,1,1.86,4.07C462.72,199.57,460.9,201.12,458.58,201.07Z"></path> <path class="cls-20" d="M447.55,152.93c2.72,6.48,5.36,12.78,8,19.1a3,3,0,0,1-3.91.2c-1.36-.93-2.93-1.81-2.51-3.92.07-.39.17-.78.25-1.17a4.45,4.45,0,0,0-1.31-4.36,17.12,17.12,0,0,1-4-6.2c-.84-2.27-.63-2.65,1.75-3.19C446.32,153.28,446.77,153.14,447.55,152.93Z"></path> <path class="cls-8" d="M262.44,91.56c-2.38-1.94-4.74.17-7.07-.64l-.63-2.78c1.74-.86,3.48-2.07,5.5-1.75s3.68,1.16,5.85,1.41l-2.52-1.53.39-.66c10.68-.72,21.32-2.38,32.22-.77a5.75,5.75,0,0,1-1.21.56c-5.43,1.25-10.87,2.46-16.31,3.68a5.58,5.58,0,0,0-2.48,1.16c-1.2,1-2.87,1.35-4.25,2.14A13.26,13.26,0,0,1,263.22,94c-1.82-.27-3.65-.37-5.47-.58a4.58,4.58,0,0,1-1-.52Z"></path> <path class="cls-8" d="M208.57,100.25a54.23,54.23,0,0,0-5.68,1.77,3,3,0,0,1-4.18-1.13,12.82,12.82,0,0,1,1.56-.51,10.86,10.86,0,0,0,4.66-2.3,5,5,0,0,1,2.78-1,22.27,22.27,0,0,1,4.74.4,5,5,0,0,1,2.6,1c1.79,1.81,3.71,2.4,6.19,1.07l.46,2.8c.51-.54.89-.87,1.19-1.26a8.57,8.57,0,0,1,1.22-1.74A2.15,2.15,0,0,1,225.8,99c.29.08.57.93.5,1.38a18.88,18.88,0,0,1-.88,2.79l2.39,2.11a5.4,5.4,0,0,0-3.64,1.62,3.07,3.07,0,0,1-2.63.19,8.21,8.21,0,0,0-5.13-.32,51.19,51.19,0,0,1-5.68.68c-2,.18-3.47-.75-5.21-2.49h7.17l.06-.66-6.41-.72-.05-.49,2.11-.79-1-.9,1.66-.84,2.27-.91-.22-.49Zm3.57-1,.11-.14-.17,0Z"></path> <path class="cls-1" d="M265.4,95.11a4,4,0,0,1-3.07,1.82c-4.3.06-8.59,0-13.14,0l.74-2.17-2.63-1.51c.44-.27.68-.54.89-.52a13.3,13.3,0,0,1,6.37,1.74,4.82,4.82,0,0,0,2.44.63c1.91,0,3.83-.12,5.75-.15C263.5,95,264.25,95,265.4,95.11Z"></path> <path class="cls-1" d="M230.5,93.09l.47,1.23,1.7.28c.13,2.14-10.92,2.94-15.33,1,3.3-1.94,6.46-2.4,9.84-.4,1.06-.71,2.1-1.41,3.15-2.1Z"></path> <path class="cls-21" d="M247.19,95.88c-.8,1-1.66,1.34-2.44.74-1.23-.94-2.47-.81-3.84-.61a5,5,0,0,1-4.26-1.08,9.09,9.09,0,0,1-.92-1.25,72.58,72.58,0,0,1,8.15.09C245,93.9,246,95.06,247.19,95.88Z"></path> <path class="cls-1" d="M240.26,113.71l2.57-.49,4,3a1.46,1.46,0,0,1-2.1.52,3.34,3.34,0,0,0-3.37.2c-1.52.75-1.54.71-3.65-.09.7-.65,1.32-1.17,1.87-1.76.37-.39,1.2-.62.68-1.45Z"></path> <path class="cls-1" d="M239.2,97.9c-1.26,4.32-4.62,5.22-8.06,1.95,1.78.43,3,.23,4.05-1.24C236.08,97.38,237.77,97.84,239.2,97.9Z"></path> <path class="cls-21" d="M223.89,92.06c-1.58,1.46-8.11,2.65-11.08,2.11A51.4,51.4,0,0,1,223.89,92.06Z"></path> <path class="cls-6" d="M240.08,100.54c.71-.73,1.33-1.91,2.16-2.08a11.8,11.8,0,0,1,6.11-.14c-2.51,1.33-5.3,1.73-7.95,2.57Z"></path> <path class="cls-21" d="M246.77,91.83l-5.94-1.56C243.49,88.53,245.26,88.9,246.77,91.83Z"></path> <path class="cls-21" d="M229.74,107.48l-.53-1.12a2.3,2.3,0,0,1,2.55-1.23c.48.12,1.18.78,1.15,1.15a1.84,1.84,0,0,1-1.11,1.29,6,6,0,0,1-2.09-.11Z"></path> <path class="cls-21" d="M230.5,93.09l-.17,0c-.28-.23-.55-.47-.84-.67s-.51-.3-.81-.47c1.2-.94,2.47-1.21,5.44-.93-.81.37-1.64.69-2.42,1.11A8.85,8.85,0,0,0,230.5,93.09Z"></path> <path class="cls-21" d="M257.42,109.3c.83-1.69,2-1.4,3.28-1.07C259.94,110.44,259.59,110.56,257.42,109.3Z"></path> <path class="cls-21" d="M295.27,105.82a14.38,14.38,0,0,1-2.81.42,2,2,0,0,1-1.24-.8,1,1,0,0,1,.21-1,1.62,1.62,0,0,1,1.29-.11A23.42,23.42,0,0,1,295.27,105.82Z"></path> <path class="cls-21" d="M262.54,98.32l5,.26c-1.87,1.44-2.43,1.43-5.08.24Z"></path> <path class="cls-20" d="M208.57,100.25l2.53-1,.22.49-2.27.91Z"></path> <path class="cls-21" d="M290.19,87.36v.83l-.76-.62Z"></path> <path class="cls-16" d="M343.91,85.87l-.17.23s0-.13,0-.15a.62.62,0,0,1,.19-.07Z"></path> <polygon class="cls-20" points="212.15 99.19 212.08 99.04 212.25 99.06 212.15 99.19"></polygon> </svg> 