<?xml version="1.0" encoding="UTF-8"?> <!-- Generator: Adobe Illustrator 24.0.2, SVG Export Plug-In . SVG Version: 6.00 Build 0) --> <svg xmlns="http://www.w3.org/2000/svg" xmlns:xlink="http://www.w3.org/1999/xlink" id="Capa_1" x="0px" y="0px" viewBox="0 0 128 134" style="enable-background:new 0 0 128 134;" xml:space="preserve"> <style type="text/css"> .st0{fill:#00BFBF;} .st1{fill:#25858C;stroke:#25858C;stroke-width:2;stroke-miterlimit:10;} .st2{fill:#25858C;} .st3{fill:#2E5D87;} .st4{fill:#FFFFFF;} .st5{fill:none;stroke:#2E5D87;stroke-width:4.5;stroke-miterlimit:10;} .st6{fill:#2E5D87;stroke:#2E5D87;stroke-width:0.25;stroke-miterlimit:10;} .st7{fill:none;stroke:#25858C;stroke-width:4;stroke-linecap:round;stroke-miterlimit:10;} </style> <path class="st3" d="M81.89,77.31c0.02-0.01,0.04-0.02,0.06-0.02c1.85-0.81,2.31-3.21,0.92-4.67c-1.76-1.84-3.81-3.47-6.17-4.88 c-2.87-1.71-3.93-2.54-0.84-5.26c4.18-3.67,5.82-8.77,6.03-13.22c0.1-10.31-6.05-18.57-14.97-21.22C58,25.39,48.41,28.95,43.4,36.78 c-5.14,8.03-4.46,18.51,2.36,25.27c3.09,3.06,2.44,3.93-0.82,5.91c-7.84,4.77-12.2,12.08-13.54,21.09c-0.17,1.18,0.68,3.42,1.5,3.65 c1.96,0.55,3.77,0.64,4.34-2.75c2.19-12.96,11.76-21.07,23.95-21c6.93,0.04,13.01,2.82,17.32,7.61 C79.37,77.51,80.72,77.83,81.89,77.31z M61.05,63.03c-8.33,0.03-15.17-6.88-15.07-15.21c0.1-8.13,6.82-14.78,14.96-14.81 c8.14-0.03,14.92,6.58,15.07,14.71C76.17,56.05,69.39,63,61.05,63.03z"></path> <g> <path class="st6" d="M105,86.37c-1.01,1.21-2.38,2.18-2.74,3.45c-0.36,1.26,0.28,2.81,0.52,4.52l-4.38,1.63v13.2 c0,1.27-1.27,2.16-2.47,1.72c-1.07-0.39-2.05-0.77-2.98-1.26c-2.64-1.4-5.11-1.45-7.77-0.03c-0.95,0.51-1.97,0.89-3.07,1.29 c-1.19,0.43-2.46-0.45-2.46-1.72v-7.5c0-0.26,0.01-0.51,0-0.77c-0.06-1.61,0.37-3.53-0.35-4.75c-0.64-1.07-2.59-1.37-4.27-2.16 c1.26-2.93,0.87-5.65-2.13-7.63c1.12-1.38,2.5-2.43,2.89-3.77c0.36-1.24-0.34-2.8-0.62-4.5c3.34-0.4,5.46-2.16,5.74-6.01 c3.37,1.59,6.03,0.97,8.16-2.08c2.12,2.75,4.52,3.99,7.83,2.2c0.62,1.6,0.83,3.32,1.79,4.3c0.98,1,2.7,1.27,4.15,1.89 c-0.22,1.59-0.86,3.19-0.51,4.54C102.67,84.2,104.04,85.2,105,86.37z M77.3,86.13c2.27,1.68,2.33,3.73,1.71,6.2 c2.98-0.35,3.4,1.95,4.36,3.82c2.23-0.79,4.02-0.05,5.66,1.63c1.55-2.08,3.6-2.14,6.07-1.52c-0.38-3.01,1.95-3.4,3.67-4.28 c-0.06-1.17-0.37-2.26-0.09-3.18c0.27-0.9,1.12-1.63,1.83-2.59c-2.05-1.51-2.1-3.57-1.53-5.85c-2.66-0.11-3.52-1.96-4.26-4.02 c-2.28,0.82-4.07,0.08-5.69-1.63c-1.55,2.13-3.62,2.13-6.08,1.54c0.36,2.98-1.94,3.41-3.78,4.32C79.7,82.72,79.55,84.6,77.3,86.13z M94.96,107.07c0-2.7,0-4.89,0-6.98c-3.08-2.14-4.12,1.49-6.11,2.02c-1.93-0.93-2.95-4.14-5.73-2.12c0,2.29,0,4.46,0,7.12 C87.15,104.25,91.01,104.39,94.96,107.07z"></path> <path class="st6" d="M81.21,86.03c0.1-4.29,3.75-7.71,8.09-7.56c4.2,0.14,7.55,3.67,7.51,7.89c-0.05,4.31-3.64,7.78-7.96,7.7 C84.53,93.98,81.11,90.39,81.21,86.03z M88.88,81.77c-2.36,0.08-4.37,2.14-4.37,4.49c0,2.45,2.18,4.58,4.62,4.5 c2.35-0.08,4.37-2.15,4.37-4.5C93.51,83.82,91.32,81.69,88.88,81.77z"></path> </g> </svg> 