<?xml version="1.0" encoding="UTF-8"?> <svg xmlns="http://www.w3.org/2000/svg" id="Capa_1" data-name="Capa 1" viewBox="0 0 406.54 406.54"> <defs> <style>.cls-1{fill:#fff;stroke:#0bb;stroke-miterlimit:10;stroke-width:8px;}.cls-2{fill:#137cc6;}</style> </defs> <title>Sin tiÌtulo-1</title> <circle class="cls-1" cx="203.27" cy="202.65" r="183.03"></circle> <path class="cls-2" d="M90.28,196.08c0-23.42-.19-46.84,0-70.26a43,43,0,0,1,34.88-41.93,52.34,52.34,0,0,1,10.33-.74c45-.05,90,.44,135-.2,27.27-.39,46.23,22.56,45.87,45.85-.69,45-.55,89.95-.07,134.92a45.22,45.22,0,0,1-45.55,45.37c-45-.51-90-.6-135,.05-23.28.34-46.25-18.65-45.64-45.2.52-22.61.11-45.24.11-67.86ZM205,233c7.4,3.24,32.83,3.53,41.28,0a42.37,42.37,0,0,0,4.93-2.63c10.72-6.35,15.08-16.87,18-28.12,5.82-22.11,11.43-44.29,17-66.46.89-3.5,1.27-7.13,1.87-10.57-10.64-3.21-18.65.63-21.63,9.85-1.22,3.79-2.07,7.7-3.1,11.56q-7.12,26.58-14.27,53.16c-2,7.28-6.59,12.57-13.93,13.94-8.78,1.64-18.16,3.64-24.45-5.58H195.92a13.37,13.37,0,0,1-11.86,6.64c-16.64.31-21.65-3.05-26.54-19.07-.54-1.78-1.05-3.57-1.57-5.36-3.06-10.46-5.93-21-9.25-31.38-3.24-10.14-12.17-14.5-21.93-10.92,0,1.45-.35,3.1,0,4.55,5.64,20.51,11.1,41.08,17.21,61.46,3.73,12.46,15,20.51,28.17,21.12,6.65.31,13.33.37,20,.05C194.58,235,199,234,205,233Zm66,7.7c-8.82.17-16.76,8.35-16.61,17.09s8.41,16.95,16.94,16.9c9-.05,17.33-8.66,17-17.59S279.88,240.54,271,240.71Zm-151.79,17a17,17,0,0,0,16.42,17.14c8.68.16,17-8.08,17-16.77,0-9.59-7-16.58-16.7-16.64C125.91,241.36,119.21,247.87,119.19,257.68Zm121.14-101.3c0-4.36-3.63-7.64-8.45-7.57-4.6.06-7.85,2.9-8.11,7.08a8.29,8.29,0,1,0,16.56.49Zm-64.61-7.55a7.67,7.67,0,0,0-8,7.94,8.29,8.29,0,0,0,16.56-.26C184.28,152.48,180.25,148.86,175.72,148.83Zm.13,46.39a8.17,8.17,0,0,0,8.28-7.84,8.22,8.22,0,0,0-16.43,0C167.64,191.74,171.2,195.17,175.85,195.22Zm27.82,0c4.72.08,8-3,8.15-7.68a7.9,7.9,0,0,0-7.84-8.13c-4.68-.2-7.87,2.93-7.94,7.77S198.8,195.16,203.67,195.24Zm28.26-15.84a8.65,8.65,0,0,0-8.16,8.14c0,4,4.09,7.79,8.45,7.69s8.26-4,8.17-8S236.18,179.35,231.93,179.4Zm-35.88-22.75a7.58,7.58,0,0,0,8,7.95,8.45,8.45,0,0,0,7.81-8.48c-.11-4.36-3.16-7.2-7.8-7.28C199.07,148.75,196.06,151.68,196.05,156.65Z"></path> <path class="cls-2" d="M271.5,263.83A6.54,6.54,0,0,1,265,258a6.71,6.71,0,0,1,5.62-6.7,6.61,6.61,0,0,1,6.89,6.23A6.47,6.47,0,0,1,271.5,263.83Z"></path> <path class="cls-2" d="M141.72,258.05a6.46,6.46,0,0,1-6.27,5.9,6.36,6.36,0,0,1-6.12-6c0-3.28,3.56-6.64,6.76-6.44A6.52,6.52,0,0,1,141.72,258.05Z"></path> </svg> 