<?xml version="1.0" encoding="UTF-8"?> <svg xmlns="http://www.w3.org/2000/svg" id="Layer_1" data-name="Layer 1" viewBox="0 0 95.83 95.83"> <defs> <style>.cls-1{fill:#00bfbf;stroke-width:4px;}.cls-1,.cls-2{stroke:#fff;stroke-miterlimit:10;}.cls-2{fill:#fff;stroke-width:2px;}</style> </defs> <title>DIAG COLOR</title> <circle class="cls-1" cx="47.92" cy="47.92" r="45.92"></circle> <path class="cls-2" d="M76,48.54c.61,2.86-1.06,4.29-4.1,4.94a4.84,4.84,0,0,0-3,7.58c1.85,2.75,1.17,4.57-1,6.74s-3.9,3-6.71,1.14a4.81,4.81,0,0,0-7.7,3.17c-.67,3.26-2.51,4-5.56,4s-4.87-.81-5.53-4A4.84,4.84,0,0,0,34.62,69c-2.84,1.91-4.62.91-6.7-1.21S25,64,26.78,61.28c2.21-3.36.69-7-3.23-7.86-3.36-.7-3.8-2.75-3.82-5.68s.79-4.67,3.87-5.32c3.76-.8,5.41-4.55,3.33-7.65-1.85-2.75-1.18-4.57,1-6.73s3.9-3.05,6.72-1.16a4.8,4.8,0,0,0,7.69-3.15c.67-3.26,2.51-4,5.56-4s4.87.79,5.53,4a4.83,4.83,0,0,0,7.72,3.11c2.83-1.91,4.61-.93,6.71,1.19s2.92,3.76,1.14,6.48c-2.2,3.38-.66,6.87,3.21,7.93C75.73,43.42,76,43.82,76,48.54ZM31.88,27.61c-2.67.13-4.45,4.21-3.07,6.54a6.77,6.77,0,0,1-4.17,10c-2.18.47-3.08,1.29-3.06,3.7s.76,3.45,3.17,3.93c4.13.82,6.39,6.25,4.11,9.74-1.25,1.94-1.45,3.21.39,5s3.07,1.72,5,.44c3.49-2.27,9,0,9.76,4.07.47,2.37,1.42,3.21,3.9,3.2s3.26-.8,3.74-3A6.64,6.64,0,0,1,61.59,67c2.07,1.36,3.29,1.08,5-.6s1.58-2.93.41-4.77a6.68,6.68,0,0,1,4.13-9.95c2.17-.47,3.13-1.28,3-3.7-.08-2.19-.5-3.36-2.85-3.87a6.63,6.63,0,0,1-4.26-10.06c1.24-1.94,1.09-3.13-.57-4.76s-2.8-1.87-4.76-.62a6.65,6.65,0,0,1-10.08-4.21c-.5-2.34-1.64-2.82-3.85-2.88-2.37-.06-3.32.77-3.75,3-.22,1.21-.83,2.88-1.74,3.31-3,1.38-6.08,3.6-9.27.3A3.55,3.55,0,0,0,31.88,27.61Z"></path> </svg> 