<?xml version="1.0" encoding="UTF-8"?> <svg xmlns="http://www.w3.org/2000/svg" viewBox="1950 2450 100 100" width="100" height="100"><path fill="#00bfbf" stroke="none" fill-opacity="1" stroke-width="1" stroke-opacity="1" color="rgb(51, 51, 51)" fill-rule="evenodd" id="tSvg2941fd0d07" title="Path 1" d="M 2000.239 2507.014 C 1980.399 2507.014 1964.259 2523.158 1964.259 2543 C 1964.259 2543.828427124746 1964.9305728752538 2544.5 1965.759 2544.5 C 1988.7473333333332 2544.5 2011.7356666666667 2544.5 2034.724 2544.5 C 2035.5524271247461 2544.5 2036.224 2543.828427124746 2036.224 2543C 2036.224 2523.158 2020.081 2507.014 2000.239 2507.014Z M 1967.292 2541.5 C 1968.079 2524.005 1982.556 2510.014 2000.239 2510.014 C 2017.924 2510.014 2032.403 2524.005 2033.19 2541.5C 2011.224 2541.5 1989.258 2541.5 1967.292 2541.5Z M 1999.642 2461.633 C 1988.224 2461.633 1978.934 2470.921 1978.934 2482.337 C 1978.934 2493.755 1988.224 2503.044 1999.642 2503.044 C 2011.058 2503.044 2020.346 2493.755 2020.346 2482.337C 2020.346 2470.921 2011.058 2461.633 1999.642 2461.633Z M 1999.642 2500.044 C 1989.878 2500.044 1981.934 2492.101 1981.934 2482.337 C 1981.934 2472.575 1989.878 2464.633 1999.642 2464.633 C 2009.404 2464.633 2017.346 2472.575 2017.346 2482.337C 2017.346 2492.101 2009.404 2500.044 1999.642 2500.044Z"></path><path fill="#00bfbf" stroke="none" fill-opacity="1" stroke-width="1" stroke-opacity="1" color="rgb(51, 51, 51)" fill-rule="evenodd" id="tSvg69f53c7069" title="Path 2" d="M 1972.999 2494.5 C 1973.732 2494.5 1974.465 2494.5 1975.198 2494.5 C 1976.026427124746 2494.5 1976.698 2493.828427124746 1976.698 2493 C 1976.698 2486.3333333333335 1976.698 2479.6666666666665 1976.698 2473 C 1976.698 2472.496 1976.707 2472.382 1976.707 2472.004 C 1980.87 2462.688 1989.348 2456.5 1999.642 2456.5 C 2010.329 2456.5 2019.766 2462.923 2023.685 2472.861 C 2023.691 2472.876 2023.701 2472.889 2023.707 2472.903 C 2023.705 2472.935 2023.6970000000001 2472.966 2023.6970000000001 2472.999 C 2023.6970000000001 2479.2563333333333 2023.6970000000001 2485.5136666666667 2023.6970000000001 2491.771 C 2022.4189864902019 2495.0342556672613 2020.4886200672777 2498.002453491281 2018.024 2500.494 C 2017.2126304116632 2501.315761873238 2017.5951077404734 2502.7076963893087 2018.7124591927272 2502.9994821280475 C 2019.2310238202408 2503.1349003642863 2019.782442063708 2502.983381032866 2020.159 2502.602 C 2022.487757055028 2500.2457937765007 2024.391177133355 2497.504341079714 2025.785 2494.499 C 2026.3206666666667 2494.499 2026.8563333333334 2494.499 2027.392 2494.499 C 2033.733 2494.499 2038.892 2489.341 2038.892 2483 C 2038.892 2476.658 2033.733 2471.499 2027.392 2471.499 C 2027.0483333333334 2471.499 2026.7046666666668 2471.499 2026.361 2471.499 C 2021.924 2460.557 2011.472 2453.499 1999.641 2453.499 C 1987.863 2453.499 1978.014 2460.663 1973.541 2471.515 C 1973.541 2471.515 1973.017 2471.509 1972.913 2471.503 C 1966.612 2471.549 1961.499 2476.687 1961.499 2483C 1961.5 2489.342 1966.658 2494.5 1972.999 2494.5Z M 2026.698 2474.5 C 2026.9296666666667 2474.5 2027.1613333333332 2474.5 2027.393 2474.5 C 2032.08 2474.5 2035.893 2478.313 2035.893 2483.001 C 2035.893 2487.688 2032.08 2491.5 2027.393 2491.5 C 2027.1613333333332 2491.5 2026.9296666666667 2491.5 2026.698 2491.5C 2026.698 2485.8333333333335 2026.698 2480.1666666666665 2026.698 2474.5Z M 1972.999 2474.5 C 1973.232 2474.5 1973.465 2474.5 1973.698 2474.5 C 1973.698 2480.1666666666665 1973.698 2485.8333333333335 1973.698 2491.5 C 1973.465 2491.5 1973.232 2491.5 1972.999 2491.5 C 1968.312 2491.5 1964.5 2487.688 1964.5 2483.001C 1964.5 2478.314 1968.313 2474.5 1972.999 2474.5Z"></path><defs> </defs></svg> 