<?xml version="1.0" encoding="UTF-8"?> <svg xmlns="http://www.w3.org/2000/svg" id="Capa_1" data-name="Capa 1" viewBox="0 0 151.29 26.64"> <defs> <style>.cls-1{fill:#113f61;}.cls-2{fill:none;stroke:#113f61;stroke-linecap:round;stroke-linejoin:round;stroke-width:2px;}</style> </defs> <title>Captura_de_pantalla_</title> <path class="cls-1" d="M7,5.39c.44-.81.88-.68,1.34.39.15.39.33.91.53,1.54.37,1.17.89,2.73,1.58,4.66a29.62,29.62,0,0,0,1.16,3q.39.39,1.38-4.41c0-.31.09-.61.16-.92a18.76,18.76,0,0,1,1-4A1.21,1.21,0,0,1,15,5.37c.41,0,.66,0,.77.18s.29,1.07.66,2.75q1,5.29,1.73,6.08c.09.09.15.09.2,0a20.09,20.09,0,0,0,.52-4,23.32,23.32,0,0,1,.51-3.89q.27-1,.9-1.08a.76.76,0,0,1,1,.64,18.92,18.92,0,0,1-.08,3.68,44.5,44.5,0,0,1-1.4,8.4,1.94,1.94,0,0,1-.41.77,1.51,1.51,0,0,1-.77.24,1.26,1.26,0,0,1-1.26-.62A19,19,0,0,1,16,15.1l-1-2.88-.68,2.13c-.9,2.83-1.75,4.35-2.55,4.54-.53.13-1-.12-1.28-.75s-1.06-2.6-2.19-5.92A35,35,0,0,1,7,7.56,3.38,3.38,0,0,1,7,5.39Z"></path> <path class="cls-1" d="M30,18.44q0,.25-1.23.78a5.25,5.25,0,0,1-1.88.52,3,3,0,0,1-2.27-.93,3.23,3.23,0,0,1-.9-2.34A4.21,4.21,0,0,1,25,13.53a4,4,0,0,1,2.86-1.37,1.78,1.78,0,0,0,.63-.07c.1,0,.14-.13.09-.26a3,3,0,0,0-.36-.65,1.28,1.28,0,0,0-1.14-.58,1.89,1.89,0,0,0-1.31.64q-1,1.11-1.44.36a1,1,0,0,1,0-1,3.54,3.54,0,0,1,.81-1.2A2.35,2.35,0,0,1,26,8.85a4.63,4.63,0,0,1,1.26,0,3.73,3.73,0,0,1,2.63,1.34,8.06,8.06,0,0,1,1.39,3.66,7.13,7.13,0,0,1,.1,2.33,2.77,2.77,0,0,1-.82,1.44C30.18,18,30,18.33,30,18.44Zm-.79-2.36a3.33,3.33,0,0,0-.26-1.4c-.33-.92-1.07-.88-2.22.13a3.73,3.73,0,0,0-.72.83,1.34,1.34,0,0,0-.13.77c0,.59.23.95.55,1.09A2.16,2.16,0,0,0,28,17.29a3,3,0,0,0,1-.51A1,1,0,0,0,29.19,16.08Z"></path> <path class="cls-1" d="M34.52,6.37c1.11-.79,1.44.7,1,4.45.18,0,.46,0,.84,0s.73,0,1.06.05.66,0,1,.08a3.12,3.12,0,0,1,.82.16c.2.08.32.17.34.28a.58.58,0,0,1-.2.91,4.53,4.53,0,0,1-2,.49L35.73,13a9.54,9.54,0,0,0,.75,2.88,1.25,1.25,0,0,0,.53.62,4,4,0,0,0,1.21,0c.37,0,.66,0,.86,0a.71.71,0,0,1,.43.12.47.47,0,0,1,.15.29A1.29,1.29,0,0,1,39.15,18a2.77,2.77,0,0,1-3.79.15,6,6,0,0,1-1.52-3A15.7,15.7,0,0,1,33.53,10C33.69,7.93,34,6.74,34.52,6.37Z"></path> <path class="cls-1" d="M46.46,11.37a2.19,2.19,0,0,0-1.62.57,4.32,4.32,0,0,0-.9,2.05,2.44,2.44,0,0,0,.1,2,2.56,2.56,0,0,0,1.47,1,2.33,2.33,0,0,0,1.73,0c.9-.39,1.55-.4,2,0s.3.57,0,1A4,4,0,0,1,48,18.93a2.91,2.91,0,0,1-1.38.55,6.22,6.22,0,0,1-2.06-.55C42,18,41.07,16,41.94,13.14q.86-2.94,2.52-3.53a6.09,6.09,0,0,1,2.41-.17,5.76,5.76,0,0,1,2.2.49,1.55,1.55,0,0,1,.69.89,1.06,1.06,0,0,1-.16,1c-.16.19-.29.29-.41.29a2.28,2.28,0,0,1-.74-.29A4.29,4.29,0,0,0,46.46,11.37Z"></path> <path class="cls-1" d="M58.75,18.17a1.32,1.32,0,0,1-1.29-.75,24.59,24.59,0,0,1-1.13-4c-.32-1.3-.57-2-.75-2s-.56.44-.95,1.33a9.39,9.39,0,0,0-.75,2.5,4.4,4.4,0,0,1-.64,2.08c-.27.31-.66.32-1.16,0-.15-.08-.25-.54-.29-1.37s0-2.63,0-5.4q.09-6.57.32-6.8c.57-.7,1-.3,1.21,1.18.09.59.17,1.38.23,2.39l.17,2.87.75-.62c1.13-1,2.1-.89,2.91.2A11.22,11.22,0,0,1,59,14.38a8,8,0,0,0,.56,1.8,1.54,1.54,0,0,1,.13,1.37A.94.94,0,0,1,58.75,18.17Z"></path> <path class="cls-1" d="M72.63,18.44q0,.25-1.23.78a5.25,5.25,0,0,1-1.88.52,3,3,0,0,1-2.27-.93,3.23,3.23,0,0,1-.9-2.34,4.21,4.21,0,0,1,1.32-2.94,4,4,0,0,1,2.86-1.37,1.68,1.68,0,0,0,.62-.07c.11,0,.15-.13.1-.26a3,3,0,0,0-.36-.65,1.28,1.28,0,0,0-1.14-.58,1.89,1.89,0,0,0-1.31.64q-1,1.11-1.44.36a1,1,0,0,1,0-1,3.72,3.72,0,0,1,.82-1.2,2.35,2.35,0,0,1,.84-.59,4.53,4.53,0,0,1,1.25,0,3.76,3.76,0,0,1,2.64,1.34A8.06,8.06,0,0,1,74,13.82a7.13,7.13,0,0,1,.1,2.33,2.77,2.77,0,0,1-.82,1.44C72.83,18,72.63,18.33,72.63,18.44Zm-.79-2.36a3.5,3.5,0,0,0-.26-1.4c-.33-.92-1.07-.88-2.22.13a3.73,3.73,0,0,0-.72.83,1.34,1.34,0,0,0-.13.77c0,.59.23.95.55,1.09a2.16,2.16,0,0,0,1.57-.21,3.11,3.11,0,0,0,1-.51A1,1,0,0,0,71.84,16.08Z"></path> <path class="cls-1" d="M83.49,12.48a20.14,20.14,0,0,0,.85,2.13,22.18,22.18,0,0,1,2.13-4.74A3.48,3.48,0,0,1,87.15,9a1,1,0,0,1,.72-.13,1.6,1.6,0,0,1,.59.21.61.61,0,0,1,.18.54,3.51,3.51,0,0,1-.23,1c-.14.39-.36.91-.67,1.56-1,2.21-1.57,3.55-1.76,4a4.28,4.28,0,0,1-1.2,1.93c-.38.24-.78.09-1.19-.43a11.65,11.65,0,0,1-1.41-2.81,36.37,36.37,0,0,1-1.35-4c-.21-.84-.21-1.39,0-1.65s.46-.33.66-.26a6.48,6.48,0,0,1,1.09,1.67A7.71,7.71,0,0,1,83.49,12.48Z"></path> <path class="cls-1" d="M91.73,18.17a.9.9,0,0,1-.91-.81,22,22,0,0,1-.23-3.73c0-2.49.08-3.88.32-4.19A1,1,0,0,1,91.78,9a.62.62,0,0,1,.57.58,32,32,0,0,1,.3,4.18,21.23,21.23,0,0,1,0,3.6A.84.84,0,0,1,91.73,18.17Z"></path> <path class="cls-1" d="M103.24,9a33.55,33.55,0,0,0,.3,4.23,15.73,15.73,0,0,0,.65,3.29c.52,1.42.37,2.2-.46,2.35-.5.11-1-.28-1.57-1.17l-.91.91a3.87,3.87,0,0,1-2.62.79,14,14,0,0,1-1.94-.4,3.29,3.29,0,0,1-1.2-.68,2.29,2.29,0,0,1-.7-1.38,11.36,11.36,0,0,1-.08-2.38,8.55,8.55,0,0,1,.46-2.83,4.18,4.18,0,0,1,1.56-1.62,3.88,3.88,0,0,1,2.56-.52l1.66.06q0-.22-.09-.75c0-.35-.08-.66-.1-1s-.05-.58-.07-.9a2.91,2.91,0,0,1,0-.81,1.11,1.11,0,0,1,.25-.51c.56-.9,1.09-1,1.57-.23A6.74,6.74,0,0,1,103.24,9ZM96.7,15a2.51,2.51,0,0,0,.41,1.65,2.11,2.11,0,0,0,1.55.44,2.85,2.85,0,0,0,1-.13,1.36,1.36,0,0,0,.54-.62,6.85,6.85,0,0,0,.41-1.26,7.63,7.63,0,0,0,.22-1.79q0-.91-.36-1.17a2,2,0,0,0-1.33-.53,2.09,2.09,0,0,0-1.45.36C97,12.5,96.7,13.51,96.7,15Z"></path> <path class="cls-1" d="M108.87,9a4.8,4.8,0,0,1,3.19-.46c1.34.17,2.12.55,2.33,1.14a2.56,2.56,0,0,1-.78,2.72,4.77,4.77,0,0,1-4,1.57,3.51,3.51,0,0,0-1.08,0c-.11.06-.14.24-.1.54a1.36,1.36,0,0,0,.69,1.13,6.32,6.32,0,0,0,2.32.41c1.49.11,2.23.32,2.23.62s-.2.46-.59.85a2,2,0,0,1-.87.58,8.2,8.2,0,0,1-1.65,0q-4.57-.33-4.09-4.84a7.21,7.21,0,0,1,.84-2.52A4.42,4.42,0,0,1,108.87,9Zm3.46,1.86c0-.33-.32-.49-1-.49a2.49,2.49,0,0,0-1.59.49,2.58,2.58,0,0,0-.62.65.39.39,0,0,0,0,.48.83.83,0,0,0,.62.18,3.62,3.62,0,0,0,1.64-.48C112,11.37,112.33,11.09,112.33,10.85Z"></path> <path class="cls-1" d="M119.33,8.72a3.78,3.78,0,0,1,1.15-.62,3.91,3.91,0,0,1,1.3,0A4.34,4.34,0,0,1,125,10a5.33,5.33,0,0,1,.76,3.43,5,5,0,0,1-1.29,3.27,4.4,4.4,0,0,1-2.19,1.2,5.29,5.29,0,0,1-2.65,0,3.93,3.93,0,0,1-2.7-2.24A4.94,4.94,0,0,1,116.8,12,6.18,6.18,0,0,1,119.33,8.72Zm1.51,7.1a3.21,3.21,0,0,0,1.81-.43,2.2,2.2,0,0,0,.87-1.4,4.1,4.1,0,0,0,0-2,2.53,2.53,0,0,0-.89-1.5,2,2,0,0,0-2.91.46,4.06,4.06,0,0,0-1,3.26,2,2,0,0,0,.63,1.28A2.57,2.57,0,0,0,120.84,15.82Z"></path> <path class="cls-2" d="M144.64,18.08c-1-8.56-6.38-14.16-15-9.51"></path> <polyline class="cls-2" points="146.72 17.5 144.64 20.31 142.19 17.24"></polyline> </svg> 