<?xml version="1.0" encoding="UTF-8"?> <!-- Generator: Adobe Illustrator 24.0.2, SVG Export Plug-In . SVG Version: 6.00 Build 0) --> <svg xmlns="http://www.w3.org/2000/svg" xmlns:xlink="http://www.w3.org/1999/xlink" x="0px" y="0px" viewBox="0 0 792 612" style="enable-background:new 0 0 792 612;" xml:space="preserve"> <style type="text/css"> .st0{display:none;} .st1{display:inline;fill:#E6E6F4;} .st2{display:inline;} .st3{opacity:0.5;fill:url(#SVGID_5_);} .st4{opacity:0.73;fill:#FFFFFF;} .st5{opacity:0.2;fill:url(#SVGID_6_);} .st6{opacity:0.4;fill:url(#SVGID_7_);} .st7{opacity:0.4;fill:url(#SVGID_8_);} .st8{fill:#1F5875;} .st9{fill:#1AE8DD;} .st10{fill:#134A60;} .st11{fill:#1AC1B5;} .st12{fill:#114260;} .st13{fill:#00BFBF;} .st14{fill:#0A3449;} .st15{fill:#049B97;} .st16{fill:#D7E4F6;} .st17{opacity:0.4;fill:url(#SVGID_9_);} .st18{opacity:0.5;fill:url(#SVGID_10_);} .st19{opacity:0.4;fill:url(#SVGID_11_);} .st20{opacity:0.4;fill:url(#SVGID_12_);} .st21{opacity:0.4;fill:url(#SVGID_13_);} .st22{fill:#F1B2B7;} .st23{fill:#F36980;} .st24{opacity:0.8;fill:#114260;} .st25{fill:#FFFFFF;} .st26{fill:#97BDE4;} .st27{fill:#BAD8F0;} .st28{fill:#E1656F;} .st29{fill:#FCB952;} .st30{opacity:0.58;} .st31{opacity:0.7;} .st32{fill:#FFFFFF;stroke:#00BFBF;stroke-width:1.5;stroke-miterlimit:10;} .st33{fill:#8DE2DE;stroke:#FFFFFF;stroke-width:2;stroke-miterlimit:10;} .st34{fill:#F25664;} .st35{fill:#29367C;} .st36{fill:#F05769;} .st37{fill:#FBB782;} .st38{fill:#F99C60;} .st39{fill:#02253A;} .st40{fill:#F69331;} .st41{fill:#4F5BA6;} .st42{fill:#F26A7F;} .st43{fill:url(#SVGID_14_);} .st44{fill:#F9AB46;} .st45{fill:#FEFDFE;} .st46{fill:url(#SVGID_15_);} .st47{fill:url(#SVGID_16_);} .st48{fill:url(#SVGID_17_);} .st49{opacity:0.38;fill:url(#SVGID_18_);} .st50{fill:#FFFFFF;stroke:#1F5875;stroke-miterlimit:10;} .st51{fill:none;stroke:#1F5875;stroke-width:2;stroke-linecap:round;stroke-miterlimit:10;} .st52{opacity:0.26;fill:url(#SVGID_19_);} .st53{fill:#FFFFFF;stroke:#114260;stroke-miterlimit:10;} .st54{fill:none;stroke:#114260;stroke-linecap:round;stroke-miterlimit:10;} .st55{opacity:0.38;fill:url(#SVGID_20_);} .st56{fill:#FFFFFF;stroke:#114260;stroke-linecap:round;stroke-miterlimit:10;} .st57{opacity:0.38;fill:url(#SVGID_21_);} .st58{opacity:0.82;fill:#25AFAB;} .st59{fill:#B5EAE6;stroke:#1F5875;stroke-miterlimit:10;} .st60{opacity:0.38;fill:#02253A;} .st61{opacity:0.42;fill:#DF6671;} .st62{fill:#F3994B;} .st63{opacity:0.57;fill:#EA751F;} .st64{opacity:0.58;fill:#E1656F;} .st65{fill:#C6C6C6;} .st66{fill:#D34654;} .st67{fill:url(#SVGID_22_);} .st68{opacity:0.38;fill:url(#SVGID_23_);} .st69{fill:none;stroke:#114260;stroke-miterlimit:10;} .st70{opacity:0.4;fill:url(#SVGID_24_);} .st71{fill:#FFCFCF;} .st72{fill:#FAB782;} .st73{fill:#F79A5D;} .st74{fill:#F15763;} .st75{fill:#F69431;} .st76{fill:#F16A7F;} .st77{fill:#F1576F;} .st78{fill:url(#SVGID_25_);} .st79{fill:#E59E91;} .st80{fill:#FCAF9B;} .st81{fill:none;stroke:#FCAF9B;stroke-linecap:round;stroke-miterlimit:10;} .st82{fill:none;stroke:#E59989;stroke-linecap:round;stroke-miterlimit:10;} .st83{opacity:0.5;fill:url(#SVGID_26_);} .st84{fill:#A7B2B7;} .st85{opacity:0.43;fill:#E59E91;} .st86{fill:#EF435B;} .st87{fill:#F78C47;} .st88{fill:url(#SVGID_27_);} .st89{fill:#F58B45;} .st90{fill:#F99B5D;} .st91{opacity:0.67;fill:url(#SVGID_28_);} .st92{opacity:0.67;fill:url(#SVGID_29_);} .st93{fill:#FFC257;} .st94{fill:#FFB433;} .st95{fill:#F0B1B7;} .st96{fill:none;stroke:#114260;stroke-width:2;stroke-linecap:round;stroke-miterlimit:10;} .st97{opacity:0.76;fill:#1F5875;} .st98{fill:none;stroke:#D7434E;stroke-width:3;stroke-linecap:round;stroke-miterlimit:10;} .st99{fill:#EEE8F6;} .st100{fill:#D7434E;} .st101{fill:none;stroke:#F3994B;stroke-width:2;stroke-miterlimit:10;} .st102{fill:none;stroke:#F3994B;stroke-miterlimit:10;} .st103{fill:#227799;} .st104{fill:#D83D49;} .st105{fill:#F2C7CC;} .st106{fill:#DA3D49;} .st107{fill:#34398B;} .st108{fill:#20419A;} .st109{fill:#E2646F;} .st110{fill:none;stroke:#1F5875;stroke-linecap:round;stroke-miterlimit:10;} .st111{fill:#D93D4A;} .st112{fill:none;stroke:#D66471;stroke-miterlimit:10;} .st113{fill:#083A59;} .st114{fill:#F2F2F2;} .st115{opacity:0.5;fill:#1F5875;} .st116{fill:#A1DCE2;} .st117{fill:#001C30;} .st118{fill:#F57C2C;} .st119{fill:#FAAE4C;} .st120{opacity:0.4;fill:url(#SVGID_30_);} .st121{opacity:0.4;fill:url(#SVGID_31_);} .st122{opacity:0.4;fill:url(#SVGID_32_);} .st123{opacity:0.4;fill:url(#SVGID_33_);} .st124{opacity:0.61;fill:#1F5875;} .st125{opacity:0.29;fill:none;stroke:#114260;stroke-width:3;stroke-linecap:round;stroke-miterlimit:10;} .st126{opacity:0.09;} .st127{opacity:0.11;} .st128{opacity:0.2;} .st129{opacity:0.4;fill:url(#SVGID_34_);} .st130{opacity:0.5;fill:url(#SVGID_35_);} .st131{fill:#B03377;} .st132{opacity:0.15;fill:#00BFBF;} .st133{opacity:0.5;fill:url(#SVGID_36_);} .st134{fill:#FFACAB;} .st135{fill:#FFCE6E;} .st136{fill:#0B4860;} .st137{opacity:0.52;fill:#0B4156;} .st138{fill:#FFAFAE;} .st139{fill:#FFE6E4;} .st140{fill:#FEAEAD;} .st141{fill:#EEE7F5;} .st142{fill:#FBCECD;} .st143{fill:#0B2E4E;} .st144{fill:#FFCFCE;} .st145{fill:#0C3647;} .st146{fill:#0C3A60;} .st147{fill:#F3CFD1;} .st148{fill:#FFBA1D;} .st149{fill:#FFD06C;} .st150{opacity:0.45;fill:#FFFFFF;} .st151{opacity:0.32;fill:#FFFFFF;} .st152{fill:#0B2E4D;} .st153{fill:#FECFCE;} .st154{fill:#041D38;} .st155{fill:#FECED0;} .st156{fill:#FFB4B1;} .st157{fill:#0C2F4F;} .st158{fill:#FFCECF;} .st159{fill:#FCD0D0;} .st160{fill:none;stroke:#FEAEAD;stroke-miterlimit:10;} .st161{fill:#FEAEAE;} .st162{fill:#F4BDBD;} .st163{fill:#FFCED1;} .st164{fill:#0E3B62;} .st165{fill:#FFD1D1;} .st166{fill:#FFBA20;} .st167{fill:none;stroke:#FED77F;stroke-miterlimit:10;} .st168{fill:#FFD06D;} .st169{fill:#FFC749;} .st170{fill:none;stroke:#FED77F;stroke-width:3;stroke-miterlimit:10;} .st171{opacity:0.25;fill:#FFFFFF;} .st172{fill:#0B2B3F;} .st173{fill:#9DEAE6;} .st174{fill:#74D1CA;} .st175{fill:#FDD2D1;} .st176{fill:none;stroke:#805EF1;stroke-miterlimit:10;} .st177{fill:#805EF1;stroke:#FEAFB0;stroke-width:0.75;stroke-miterlimit:10;} .st178{fill:#805EF1;} .st179{fill:#082139;} .st180{fill:#FECDCE;} .st181{fill:#0B2E4F;} .st182{fill:#67DBD5;} .st183{fill:#103E5B;} .st184{opacity:0.21;fill:#C7EFEA;} .st185{fill:#07334F;stroke:#FFFFFF;stroke-width:3;stroke-miterlimit:10;} .st186{opacity:0.38;fill:#00BFBF;} .st187{opacity:0.58;fill:#00BFBF;} .st188{opacity:0.84;fill:#00BFBF;} .st189{opacity:0.61;fill:#D6D6D6;} .st190{fill:#D6D6D6;} .st191{fill:#2079B5;} .st192{opacity:0.49;} .st193{fill:#FFFFFF;stroke:#54E5E2;stroke-miterlimit:10;} .st194{fill:none;stroke:#54E5E2;stroke-miterlimit:10;} .st195{fill:#FFFFFF;stroke:#00BFBF;stroke-miterlimit:10;} .st196{fill:none;stroke:#00BFBF;stroke-miterlimit:10;} .st197{fill:#8DE2DE;} .st198{fill:#59D1CE;} .st199{fill:#FCCF47;} .st200{fill:#F9981F;} .st201{opacity:0.51;fill:#FFFFFF;} .st202{fill:#C9F7F6;} .st203{fill:#8CE0DA;} .st204{fill:#02507E;} .st205{fill:#2486C7;} .st206{opacity:0.59;fill:#114260;} .st207{fill:none;stroke:#114260;stroke-width:2;stroke-miterlimit:10;} .st208{fill:#E33D85;} .st209{fill:#E33E86;} .st210{fill:#FDFDFD;} .st211{fill:#E43D85;} .st212{fill:none;stroke:#001C30;stroke-miterlimit:10;} .st213{fill:none;stroke:#1882C6;stroke-miterlimit:10;} .st214{fill:#F89635;} .st215{fill:#1E203F;} .st216{fill:#F5B3B0;} .st217{fill:#DCF7F4;} .st218{fill:#ACEFE8;} .st219{fill:#F6BDBC;} .st220{fill:#1D3D6C;} .st221{fill:#055C90;} .st222{fill:#77B9E4;} .st223{fill:#A4D2F1;} .st224{fill:#FBC6C8;} .st225{fill:#2768AE;} .st226{fill:#FBC6C8;stroke:#FFFFFF;stroke-width:0.75;stroke-miterlimit:10;} .st227{fill:#F17C24;} .st228{opacity:0.4;fill:url(#SVGID_37_);} .st229{fill:#1C77B2;} .st230{fill:#F5BCBD;} .st231{fill:#F9AD9D;} .st232{fill:#E33D83;} .st233{fill:#FCFBF9;} .st234{fill:#144C68;stroke:#114260;stroke-miterlimit:10;} .st235{fill:#1F5875;stroke:#114260;stroke-miterlimit:10;} .st236{fill:#1D3D70;} .st237{fill:#F9C4C8;} .st238{fill:#F79823;} .st239{fill:#F07D24;} .st240{fill:#E89CA7;} .st241{fill:#FEE7A1;} .st242{fill:#FFE078;} .st243{fill:#FDE3A9;} .st244{fill:#FFD269;} .st245{fill:#FFD284;} .st246{fill:#FFBF53;} .st247{fill:#FC9852;} .st248{fill:#FEB22E;} .st249{fill:#FFEA9F;} .st250{fill:#FEE791;} .st251{fill:#FFBA1E;} .st252{fill:#FDD06E;} .st253{fill:#FFD070;} .st254{opacity:0.56;fill:#FFFFFF;} .st255{fill:#CECECE;} .st256{fill:#FFC158;} .st257{fill:#FFD591;} .st258{fill:#FFDF78;} .st259{fill:#FFE585;} .st260{fill:#FFE8A2;} .st261{fill:#FEC96D;} .st262{fill:#FEC155;} .st263{fill:#FFE790;} .st264{fill:#FED266;} .st265{fill:#FFE6AE;} </style> <g id="Layer_8" class="st0"> <path class="st1" d="M105.66,423.01c0,0,2.06-13.26,5.77-47.2s12.05-81.02,46.1-115.26c0,0,107.62-64.95,137.94-69.39 c0,0,34.44-18.05,40.79-20.19c6.35-2.14,32.18-17.43,71.31-16.53c0,0,11.54-2.58,36.54,6.59c24.99,9.17,55.83,29.33,55.83,29.33 l143.72,50.13c0,0,24.24,7.44,38.81,24.87c14.56,17.43,29.24,49.53,34.51,80.71c5.27,31.18,11.16,137.3,11.16,137.3H101.07 L105.66,423.01z"></path> </g> <g id="Layer_1"> <linearGradient id="SVGID_2_" gradientUnits="userSpaceOnUse" x1="414.0855" y1="485.3758" x2="414.0855" y2="158.1645"> <stop offset="0" style="stop-color:#FFFFFF"></stop> <stop offset="1" style="stop-color:#00BFBF"></stop> </linearGradient> <path style="opacity:0.4;fill:url(#SVGID_2_);" d="M728.13,483.38l-625.91,2c0,0-21.4-112.22,31.22-189.16s113.7-35.93,158.6-82.05 c122.05-125.37,184.11-1.51,264.77,1.38C719.1,221.36,737.97,369.26,728.13,483.38z"></path> <linearGradient id="SVGID_4_" gradientUnits="userSpaceOnUse" x1="391.6897" y1="492.147" x2="391.6897" y2="164.9357"> <stop offset="0" style="stop-color:#FFFFFF"></stop> <stop offset="1" style="stop-color:#00BFBF"></stop> </linearGradient> <path style="opacity:0.4;fill:url(#SVGID_4_);" d="M705.73,490.15l-625.91,2c0,0-21.4-112.22,31.22-189.16s113.7-35.93,158.6-82.05 c122.05-125.37,184.11-1.51,264.77,1.38C696.71,228.13,715.57,376.03,705.73,490.15z"></path> <rect x="149.57" y="434.82" class="st8" width="11.58" height="45.97"></rect> <rect x="168.94" y="434.82" class="st8" width="9.63" height="45.97"></rect> <rect x="161.15" y="434.82" class="st9" width="7.8" height="45.97"></rect> <rect x="148.88" y="423.01" class="st8" width="12.27" height="9.63"></rect> <rect x="168.94" y="423.01" class="st8" width="11.08" height="9.63"></rect> <rect x="161.15" y="423.01" class="st9" width="7.8" height="9.63"></rect> <rect x="149.57" y="432.64" class="st10" width="11.58" height="2.18"></rect> <rect x="168.94" y="432.64" class="st10" width="9.63" height="2.18"></rect> <rect x="161.15" y="432.64" class="st11" width="7.8" height="2.18"></rect> <rect x="112.46" y="434.82" class="st12" width="13.18" height="45.97"></rect> <rect x="133.44" y="434.82" class="st12" width="16.13" height="45.97"></rect> <rect x="125.64" y="434.82" class="st13" width="7.8" height="45.97"></rect> <rect x="111.43" y="423.01" class="st12" width="13.18" height="9.63"></rect> <rect x="132.41" y="423.01" class="st12" width="16.47" height="9.63"></rect> <rect x="124.61" y="423.01" class="st13" width="7.8" height="9.63"></rect> <rect x="112.46" y="432.64" class="st14" width="13.18" height="2.18"></rect> <rect x="133.44" y="432.64" class="st14" width="16.13" height="2.18"></rect> <rect x="125.64" y="432.64" class="st15" width="7.8" height="2.18"></rect> </g> <g id="Layer_3"> <path class="st8" d="M156.1,145.9h116.03c0,0,15.13,3.21,18.57,16.28l41.96,255.21c0,0,1.38,19.49-14.1,20.64 c-15.48,1.15-116.6,0-116.6,0s-15.18-2.68-17.79-20.09l-41.59-253.7C142.57,164.24,140.28,149.57,156.1,145.9z"></path> <path class="st24" d="M639.17,145.9H523.14c0,0-15.13,3.21-18.57,16.28l-41.96,255.21c0,0-1.38,19.49,14.1,20.64 c15.48,1.15,116.6,0,116.6,0s15.18-2.68,17.79-20.09l41.59-253.7C652.7,164.24,654.99,149.57,639.17,145.9z"></path> <path class="st13" d="M140.4,421.13c0,0-12.08-9.1-13.38-11.24c0,0-0.76-0.99-2.14,0c0,0-2.75,4.45-7.91,7.26 c0,0-0.86,0.65,0.57,1.96l8.75,3.89h33.44c0,0,11.35-7.39,12.04-7.91c0.69-0.52,1.26-2.69,0-3.38c-1.26-0.69-5.33-2.29-7.34-5.27 c0,0-0.32,0.75-2.78,0c0,0-7.6,10.32-10.35,12.32l-1.49-0.11v-1.89h-9.29L140.4,421.13z"></path> <path class="st25" d="M154.04,422.17c0,0,11.13-6.69,12.8-11.08c0,0-0.34-1.07-0.99-1.11c-0.65-0.04-8.56,9.4-12.76,11.5 C153.08,421.48,152.44,422.09,154.04,422.17z"></path> <rect x="143.57" y="416.76" class="st25" width="1.83" height="6.25"></rect> <polygon class="st25" points="134.32,420.6 122.43,412.99 121.32,414.14 132.98,421.67 133.9,421.67 134.51,421.32 "></polygon> </g> <g id="Layer_4"> <path class="st25" d="M163.67,150.94h106.85c0,0,12.15-1.38,16.97,12.61l40.74,255.56c0,0,1.99,10.19-7.64,14.32H207.92 c0,0-10.85-2.29-12.38-14.52L154.11,164.7C154.11,164.7,152.59,151.71,163.67,150.94z"></path> <path class="st25" d="M153.33,200.02l1.13-0.17c0.79-0.12,1.53,0.43,1.65,1.22l2.82,18.66c0.12,0.79-0.43,1.53-1.22,1.65 l-1.13,0.17c-0.79,0.12-1.53-0.43-1.65-1.22l-2.82-18.66C152,200.88,152.54,200.14,153.33,200.02z"></path> <path class="st25" d="M158.51,228.1l1.13-0.17c0.79-0.12,1.53,0.43,1.65,1.22l4.66,30.81c0.12,0.79-0.43,1.53-1.22,1.65l-1.13,0.17 c-0.79,0.12-1.53-0.43-1.65-1.22l-4.66-30.81C157.17,228.96,157.72,228.21,158.51,228.1z"></path> <linearGradient id="SVGID_5_" gradientUnits="userSpaceOnUse" x1="288.4466" y1="292.2078" x2="201.1206" y2="292.2078"> <stop offset="0" style="stop-color:#54E5E2;stop-opacity:0.5"></stop> <stop offset="0.9995" style="stop-color:#00BFBF;stop-opacity:0.8"></stop> </linearGradient> <path style="fill:url(#SVGID_5_);" d="M286.45,284.45c7.19,38.63-5.63,73.42-28.64,77.7c-23.01,4.28-47.49-23.56-54.69-62.19 s5.63-73.42,28.64-77.7S279.26,245.82,286.45,284.45z"></path> <path class="st25" d="M631.6,150.94H524.75c0,0-12.15-1.38-16.97,12.61l-40.74,255.56c0,0-1.99,10.19,7.64,14.32h112.66 c0,0,10.85-2.29,12.38-14.52l41.43-254.22C641.15,164.7,642.68,151.71,631.6,150.94z"></path> <path class="st25" d="M643.01,199.04l-1.13-0.17c-0.79-0.12-1.53,0.42-1.66,1.21l-2.87,18.65c-0.12,0.79,0.42,1.53,1.21,1.66 l1.13,0.17c0.79,0.12,1.53-0.42,1.66-1.21l2.87-18.65C644.35,199.9,643.8,199.16,643.01,199.04z"></path> <path class="st25" d="M637.77,227.1l-1.13-0.17c-0.79-0.12-1.53,0.42-1.66,1.21l-4.74,30.8c-0.12,0.79,0.42,1.53,1.21,1.66 l1.13,0.17c0.79,0.12,1.53-0.42,1.66-1.21l4.74-30.8C639.11,227.96,638.56,227.22,637.77,227.1z"></path> <linearGradient id="SVGID_6_" gradientUnits="userSpaceOnUse" x1="506.9151" y1="292.6039" x2="598.3125" y2="292.6039"> <stop offset="0" style="stop-color:#54E5E2;stop-opacity:0.5"></stop> <stop offset="0.9995" style="stop-color:#00BFBF;stop-opacity:0.8"></stop> </linearGradient> <path style="fill:url(#SVGID_6_);" d="M508.82,284.45c-7.19,38.63,6.58,73.6,30.77,78.1c24.19,4.5,49.62-23.16,56.81-61.79 c7.19-38.63-6.58-73.6-30.77-78.1S516.01,245.82,508.82,284.45z"></path> <linearGradient id="SVGID_7_" gradientUnits="userSpaceOnUse" x1="535.0374" y1="240.498" x2="535.0374" y2="348.526"> <stop offset="0" style="stop-color:#114260"></stop> <stop offset="1" style="stop-color:#1F5875"></stop> </linearGradient> <path style="fill:url(#SVGID_7_);" d="M588.71,240.5l-112.86,19.82c0,0-6.35,2.65-3.44,9.63c0.43,1.03,1.25,3.33,2.13,6.54 c5.47,19.82,18.05,65.92,18.05,65.92s0.12,8.78,12.44,5.31l77.05-9.9C582.08,337.81,613.94,289.9,588.71,240.5z"></path> <path class="st25" d="M473.46,276.45l11.46,53.01l4.59-0.46c1.7-0.22,2.81-1.89,2.35-3.54l-12.94-46.92 c-0.33-1.21-1.43-2.05-2.68-2.07L473.46,276.45z"></path> <path class="st12" d="M209.98,239.78l98.61,17.79c0,0,6.35,2.65,3.44,9.63s-20.18,72.46-20.18,72.46s-0.12,8.78-12.44,5.31 l-62.51-8.22C216.89,336.75,186.98,285.92,209.98,239.78z"></path> </g> <g id="Layer_5"> <path class="st71" d="M338.5,329.46l-13.34,14.77c0,0-1.11,3.59,0,5.34c1.11,1.75,7.53,4.96,11.62,3.8 c4.09-1.17,15.85-13.33,15.85-13.33L338.5,329.46z"></path> <g id="Layer_6"> </g> <path class="st25" d="M297.69,337.37l15.75,1.99c0,0,2.64,0.34,4.01-4.59l17.2-58.13c0,0,0.69-6.31-2.98-6.54 c-3.67-0.23-17.01-2.75-17.01-2.75L297.69,337.37z"></path> <polygon class="st79" points="334.05,278.66 336.25,278.66 324.67,329.61 318.98,329.61 "></polygon> <path class="st80" d="M399.01,373.97l5.96,3.67c0,0,3.67,2.45,10.09,0c6.42-2.45,5.35-6.88,5.35-6.88l5.35,3.98 c0,0,5.96,2.13,10.39-2.45c4.43-4.59-1.68-12.38-1.68-12.38s6.08,2.68,12.27,1.07c6.19-1.61,6.31-6.65,5.5-8.37 c-0.8-1.72-0.69-3.9-5.5-7.68c0,0,10.2,2.64,14.33,1.72c4.13-0.92,7.57-5.04,5.85-9.52c-1.72-4.47-58.4-55.76-70.9-60.69 c0,0-9.13,10.11-12.57,11.49c-3.44,1.38-6.44,3.88-11.49,1.48l6.87-17.24c0,0-12.23-1.19-28.28,4.31l-14.3,2.17l-11.58,50.96 c0,0,8.51,1.1,10.03,1.9c1.52,0.8,21.56,15.33,21.56,15.33l14.92-5.47c0,0,7.72,3.63,7.95,10.05l4.47-2.5c0,0,6.76-0.8,9.86,2.52 c3.1,3.32,1.1,6.51,0.52,9.61c0,0,6.15,1.83,4.89,7.11C397.75,372.9,399.01,373.97,399.01,373.97z"></path> <path class="st71" d="M473.46,276.45l-26.26,4.17l-24.65-17.92c0,0-5.66-4.51-10.93-4.74c-5.27-0.23-27.71,5.46-30.69,5.92 l-13.87,27.29c0,0,7.22,3.67,15.13,0c0,0,4.82-2.06,12.73-11.35c0,0,28.63,20.32,41.29,30.42c0.74,0.59,28.82,24.45,28.82,24.45 l19.89-5.22l-4.39-20.33L473.46,276.45z"></path> <path class="st71" d="M353.4,344.51c0,0,2.35,1.49,8.23-0.81c0,0,5.28-2.44,10.74-2.14s8.44,5.65,8.9,7.64c0,0,4.04-3.18,7.45-2.44 c3.4,0.74,9.83,3.25,7.88,12.09c0,0,3.8,2.55,4.09,6.1s0.38,5.27-1.68,9.02c-2.06,3.75-7.8,6.5-11.16,5.89 c-3.36-0.61-6.42-3.21-5.66-6.57c0,0-4.45,0.38-8.94-0.61c-5.34-1.19-8.51-6.71-6.88-11.93l0,0c0,0-4.51,3.6-9.25,1.54 c0,0-5.73-1.99-6.73-8.41c-0.37-2.37-0.34-4.11-0.16-5.37c0.23-1.59,1.22-2.96,2.64-3.71L353.4,344.51z"></path> <line class="st81" x1="367.74" y1="359.65" x2="379.13" y2="351.43"></line> <line class="st81" x1="383.22" y1="372.36" x2="395.5" y2="360.17"></line> <line class="st82" x1="423.77" y1="326.59" x2="445.44" y2="344.14"></line> <line class="st82" x1="412.51" y1="343.01" x2="433.77" y2="359.2"></line> <line class="st82" x1="402.93" y1="358.35" x2="419.58" y2="370.08"></line> <linearGradient id="SVGID_8_" gradientUnits="userSpaceOnUse" x1="97.1206" y1="483.3795" x2="705.9371" y2="483.3795"> <stop offset="0" style="stop-color:#1F5875;stop-opacity:0.5"></stop> <stop offset="0.9995" style="stop-color:#094A6B;stop-opacity:0.8"></stop> </linearGradient> <path style="opacity:0.5;fill:url(#SVGID_8_);" d="M97.79,484.93c-1.2-1.37-0.72-3.52,0.94-4.28c2.84-1.3,8.2-3.35,13.73-3.35 c7.28,0,83.69-1.74,99.08-2.09c1.5-0.03,2.69-1.26,2.69-2.76l0,0c0-1.5,1.19-2.72,2.69-2.76c29.46-0.68,291.99-6.59,330.51-1.17 c1.37,0.19,2.38,1.35,2.38,2.73l0,3.69c0,1.52,1.23,2.76,2.76,2.76h132.99v-1.03c0,0,18.46,1.62,20.18,5.03 c1.56,3.09-6.25,5.26-7.73,5.64c-0.16,0.04-0.31,0.06-0.47,0.08c-8.15,0.55-229.24,15.42-301.53,12.78c0,0-247.1-3.12-291.53-11.64 c-2.1-0.4-4.09-1.29-5.72-2.67C98.4,485.58,98.08,485.27,97.79,484.93z"></path> <polygon class="st84" points="292.04,336.3 297.69,337.37 314.66,267.36 311.76,266.6 "></polygon> <polygon class="st85" points="331.36,337.37 345.09,347.32 350.11,342.58 336.25,332.54 "></polygon> </g> <g id="Layer_2"> <path class="st93" d="M161.76,360.68c0,0,25.53-5.2,57.78,0l-0.36,5.27l-2.09,30.81c0,0-2.6,16.66-21.55,22.17v27.06 c0,0,5.35-0.15,6.57,3.97l0.13,2.64h6.65l0.52,21.21h4.82v6.08h-35.66v-27.29h2.52v-2.29c0,0,1.15-4.47,6.08-4.82l0.69-26.83 c0,0-19.15-1.49-22.93-21.44L161.76,360.68z"></path> <path class="st93" d="M214,406.69h5.04c0,0,10.32-0.31,14.6-12.54l1.03-6.27l0.99-16.64c0,0-0.17-4.93-5.56-4.82l-10.57,0 l-0.27,3.56l10.38-0.17c0,0,2.24,0.69,2.35,2.29c0.11,1.61-1.61,19.78-1.61,19.78s-3.73,10.26-12.15,10.78l-3.07-0.13l-2.34,4.16 H214z"></path> <path class="st94" d="M214,406.69h5.04c0,0,10.32-0.31,14.6-12.54l1.03-6.27l0.99-16.64c0,0-0.17-4.93-5.56-4.82l-10.57,0 l-0.27,3.56l10.38-0.17c0,0,2.24,0.69,2.35,2.29c0.11,1.61-1.61,19.78-1.61,19.78s-3.73,10.26-12.15,10.78l-3.07-0.13l-2.34,4.16 H214z"></path> <path class="st93" d="M167.77,406.69h-5.04c0,0-10.32-0.31-14.6-12.54l-1.03-6.27l-0.99-16.64c0,0,0.17-4.93,5.56-4.82l10.57,0 l0.27,3.56l-10.38-0.17c0,0-2.24,0.69-2.35,2.29c-0.11,1.61,1.61,19.78,1.61,19.78s3.73,10.26,12.15,10.78l3.07-0.13l2.34,4.16 H167.77z"></path> <path class="st94" d="M211.82,359.63c2.6,0.23,5.52,0.55,8.1,1.13l-0.36,5.12l-2.09,30.83c0,0-2.6,16.67-21.57,22.18v27.08 c0,0,5.35-0.15,6.58,3.98l0.13,2.64c0,0-0.93-0.06-3.43-0.06c0-4.16-4.04-6.34-5.52-6.39c0-7.64-0.1-31.6-0.1-31.6 s13.34-0.8,16.29-16.67S211.82,359.63,211.82,359.63z"></path> <path class="st94" d="M209.41,473.65L209,452.59h-3.24v20.37c0,0.95,0.77,1.72,1.72,1.72h3.51c0.69,0,1.24,0.56,1.24,1.24v3.96 h2.45v-5.24c0-0.54-0.44-0.98-0.98-0.98H209.41z"></path> </g> <g id="Layer_7"> <rect x="549.46" y="413.19" class="st114" width="14.68" height="68.56"></rect> <rect x="564.14" y="413.19" class="st8" width="11.92" height="68.56"></rect> <rect x="576.06" y="413.19" class="st114" width="17.66" height="68.56"></rect> <rect x="547.97" y="396.16" class="st114" width="15.42" height="13.7"></rect> <rect x="563.39" y="396.16" class="st8" width="11.92" height="13.7"></rect> <rect x="575.32" y="396.16" class="st114" width="20.01" height="13.7"></rect> <rect x="549.46" y="409.86" class="st115" width="14.68" height="3.32"></rect> <rect x="564.14" y="409.86" class="st12" width="11.92" height="3.32"></rect> <rect x="576.06" y="409.86" class="st115" width="17.66" height="3.32"></rect> <rect x="593.72" y="413.19" class="st116" width="23.5" height="68.56"></rect> <rect x="617.22" y="413.19" class="st12" width="11.92" height="68.56"></rect> <rect x="629.15" y="413.19" class="st116" width="19.38" height="68.56"></rect> <rect x="593.72" y="396.16" class="st116" width="23.5" height="13.7"></rect> <rect x="617.22" y="396.16" class="st12" width="13.53" height="13.7"></rect> <rect x="630.75" y="396.16" class="st116" width="19.38" height="13.7"></rect> <rect x="593.72" y="409.86" class="st13" width="23.5" height="3.32"></rect> <rect x="617.22" y="409.86" class="st117" width="11.92" height="3.32"></rect> <rect x="629.15" y="409.86" class="st13" width="19.38" height="3.32"></rect> <path class="st8" d="M593.91,393.39c0,0-17.84-13.43-19.75-16.59c0,0-1.13-1.47-3.16,0c0,0-4.06,6.58-11.68,10.72 c0,0-1.27,0.96,0.85,2.89l12.93,5.74h49.39c0,0,16.76-10.92,17.78-11.68c1.02-0.76,1.86-3.98,0-5c-1.86-1.02-7.87-3.39-10.84-7.79 c0,0-0.48,1.1-4.1,0c0,0-11.22,15.24-15.29,18.2l-2.2-0.17v-2.79H594.1L593.91,393.39z"></path> <path class="st25" d="M614.06,394.92c0,0,16.44-9.88,18.9-16.37c0,0-0.51-1.58-1.47-1.64c-0.96-0.06-12.64,13.88-18.85,16.99 C612.64,393.9,611.69,394.81,614.06,394.92z"></path> <rect x="598.59" y="383.44" class="st25" width="2.71" height="12.72"></rect> <polygon class="st25" points="584.93,392.6 567.37,381.37 565.74,383.07 582.95,394.18 584.31,394.18 585.21,393.68 "></polygon> <g id="Layer_10"> </g> </g> <g id="Layer_9"> <path class="st151" d="M187.76,422.7l32.03-60.01c0,0,0.14-0.86,0.14-1.93c-1.35-0.35-4.2-0.8-8.1-1.13 c0,0-24.73,44.62-31.59,56.95c3.26,1.59,5.42,1.71,7.63,2.07C187.81,420.56,187.73,421.42,187.76,422.7z"></path> <path class="st151" d="M177,414.95l29.39-55.07c0,0,0.14-0.86,0.14-1.93c-1.35-0.35,0.8-0.8-3.1-1.13c0,0-23.71,42.78-30.56,55.1 C174.31,413.13,175.25,413.91,177,414.95z"></path> <g> <rect x="669.32" y="475.13" class="st241" width="0.99" height="8.13"></rect> <rect x="670.31" y="475.13" class="st242" width="7.64" height="8.13"></rect> <rect x="660.41" y="475.13" class="st243" width="1.26" height="8.13"></rect> <rect x="661.68" y="475.13" class="st244" width="7.64" height="8.13"></rect> <rect x="651.51" y="475.13" class="st245" width="1.26" height="8.13"></rect> <rect x="652.77" y="475.13" class="st246" width="7.64" height="8.13"></rect> <rect x="642.61" y="475.13" class="st247" width="1.26" height="8.13"></rect> <rect x="643.87" y="475.13" class="st248" width="7.64" height="8.13"></rect> <rect x="677.96" y="475.13" class="st249" width="0.99" height="8.13"></rect> <rect x="678.95" y="475.13" class="st250" width="7.64" height="8.13"></rect> <rect x="667.77" y="466.33" class="st241" width="0.99" height="8.8"></rect> <rect x="668.77" y="466.33" class="st242" width="7.64" height="8.8"></rect> <rect x="658.87" y="466.33" class="st243" width="1.26" height="8.8"></rect> <rect x="660.13" y="466.33" class="st244" width="7.64" height="8.8"></rect> <rect x="649.96" y="466.33" class="st245" width="1.26" height="8.8"></rect> <rect x="651.22" y="466.33" class="st246" width="7.64" height="8.8"></rect> <rect x="641.06" y="466.33" class="st247" width="1.26" height="8.8"></rect> <rect x="642.32" y="466.33" class="st248" width="7.64" height="8.8"></rect> <rect x="676.41" y="466.33" class="st249" width="0.99" height="8.8"></rect> <rect x="677.4" y="466.33" class="st250" width="7.64" height="8.8"></rect> <rect x="669.95" y="457.85" class="st241" width="0.99" height="8.48"></rect> <rect x="670.94" y="457.85" class="st242" width="7.64" height="8.48"></rect> <rect x="661.05" y="457.85" class="st243" width="1.26" height="8.48"></rect> <rect x="662.31" y="457.85" class="st244" width="7.64" height="8.48"></rect> <rect x="652.14" y="457.85" class="st245" width="1.26" height="8.48"></rect> <rect x="653.4" y="457.85" class="st246" width="7.64" height="8.48"></rect> <rect x="643.24" y="457.85" class="st247" width="1.26" height="8.48"></rect> <rect x="644.5" y="457.85" class="st248" width="7.64" height="8.48"></rect> <rect x="678.59" y="457.85" class="st249" width="0.99" height="8.48"></rect> <rect x="679.58" y="457.85" class="st250" width="7.64" height="8.48"></rect> <rect x="668.4" y="449.94" class="st241" width="0.99" height="7.91"></rect> <rect x="669.4" y="449.94" class="st242" width="7.64" height="7.91"></rect> <rect x="659.5" y="449.94" class="st243" width="1.26" height="7.91"></rect> <rect x="660.76" y="449.94" class="st244" width="7.64" height="7.91"></rect> <rect x="650.59" y="449.94" class="st245" width="1.26" height="7.91"></rect> <rect x="651.85" y="449.94" class="st246" width="7.64" height="7.91"></rect> <rect x="641.69" y="449.94" class="st247" width="1.26" height="7.91"></rect> <rect x="642.95" y="449.94" class="st248" width="7.64" height="7.91"></rect> <rect x="677.04" y="449.94" class="st249" width="0.99" height="7.91"></rect> <rect x="678.03" y="449.94" class="st250" width="7.64" height="7.91"></rect> <rect x="670.22" y="441.46" class="st241" width="0.99" height="8.48"></rect> <rect x="671.21" y="441.46" class="st242" width="7.64" height="8.48"></rect> <rect x="661.31" y="441.46" class="st243" width="1.26" height="8.48"></rect> <rect x="662.57" y="441.46" class="st244" width="7.64" height="8.48"></rect> <rect x="652.41" y="441.46" class="st245" width="1.26" height="8.48"></rect> <rect x="653.67" y="441.46" class="st246" width="7.64" height="8.48"></rect> <rect x="643.5" y="441.46" class="st247" width="1.26" height="8.48"></rect> <rect x="644.77" y="441.46" class="st248" width="7.64" height="8.48"></rect> <rect x="678.85" y="441.46" class="st249" width="0.99" height="8.48"></rect> <rect x="679.85" y="441.46" class="st250" width="7.64" height="8.48"></rect> <rect x="670.85" y="433.54" class="st241" width="0.99" height="7.91"></rect> <rect x="671.84" y="433.54" class="st242" width="7.64" height="7.91"></rect> <rect x="661.94" y="433.54" class="st243" width="1.26" height="7.91"></rect> <rect x="663.2" y="433.54" class="st244" width="7.64" height="7.91"></rect> <rect x="653.04" y="433.54" class="st245" width="1.26" height="7.91"></rect> <rect x="654.3" y="433.54" class="st246" width="7.64" height="7.91"></rect> <rect x="644.13" y="433.54" class="st247" width="1.26" height="7.91"></rect> <rect x="645.4" y="433.54" class="st248" width="7.64" height="7.91"></rect> <rect x="679.48" y="433.54" class="st249" width="0.99" height="7.91"></rect> <rect x="680.48" y="433.54" class="st250" width="7.64" height="7.91"></rect> <rect x="669.89" y="424.07" transform="matrix(0.9971 0.0766 -0.0766 0.9971 34.7793 -50.1242)" class="st241" width="0.99" height="7.91"></rect> <rect x="670.87" y="424.4" transform="matrix(0.9971 0.0766 -0.0766 0.9971 34.8173 -50.4533)" class="st242" width="7.64" height="7.91"></rect> <rect x="661.01" y="423.4" transform="matrix(0.9971 0.0766 -0.0766 0.9971 34.702 -49.4559)" class="st243" width="1.26" height="7.91"></rect> <rect x="662.26" y="423.74" transform="matrix(0.9971 0.0766 -0.0766 0.9971 34.7412 -49.7952)" class="st244" width="7.64" height="7.91"></rect> <rect x="652.13" y="422.71" transform="matrix(0.9971 0.0766 -0.0766 0.9971 34.6236 -48.7774)" class="st245" width="1.26" height="7.91"></rect> <rect x="653.38" y="423.06" transform="matrix(0.9971 0.0766 -0.0766 0.9971 34.6628 -49.1167)" class="st246" width="7.64" height="7.91"></rect> <rect x="643.25" y="422.03" transform="matrix(0.9971 0.0766 -0.0766 0.9971 34.5452 -48.0989)" class="st247" width="1.26" height="7.91"></rect> <rect x="644.5" y="422.37" transform="matrix(0.9971 0.0766 -0.0766 0.9971 34.5844 -48.4382)" class="st248" width="7.64" height="7.91"></rect> <rect x="678.5" y="424.73" transform="matrix(0.9971 0.0766 -0.0766 0.9971 34.8554 -50.7823)" class="st249" width="0.99" height="7.91"></rect> <rect x="679.48" y="425.06" transform="matrix(0.9971 0.0766 -0.0766 0.9971 34.8934 -51.1114)" class="st250" width="7.64" height="7.91"></rect> <rect x="670.75" y="406.23" transform="matrix(0.9912 -0.1325 0.1325 0.9912 -48.4256 92.5449)" class="st241" width="0.99" height="7.91"></rect> <rect x="671.71" y="405.66" transform="matrix(0.9912 -0.1325 0.1325 0.9912 -48.3121 93.1069)" class="st242" width="7.64" height="7.91"></rect> <rect x="661.92" y="407.39" transform="matrix(0.9912 -0.1325 0.1325 0.9912 -48.6562 91.4034)" class="st243" width="1.26" height="7.91"></rect> <rect x="663.15" y="406.8" transform="matrix(0.9912 -0.1325 0.1325 0.9912 -48.5391 91.9829)" class="st244" width="7.64" height="7.91"></rect> <rect x="653.1" y="408.57" transform="matrix(0.9912 -0.1325 0.1325 0.9912 -48.8903 90.2445)" class="st245" width="1.26" height="7.91"></rect> <rect x="654.32" y="407.98" transform="matrix(0.9912 -0.1325 0.1325 0.9912 -48.7732 90.824)" class="st246" width="7.64" height="7.91"></rect> <rect x="644.27" y="409.75" transform="matrix(0.9912 -0.1325 0.1325 0.9912 -49.1243 89.0856)" class="st247" width="1.26" height="7.91"></rect> <rect x="645.49" y="409.16" transform="matrix(0.9912 -0.1325 0.1325 0.9912 -49.0073 89.6651)" class="st248" width="7.64" height="7.91"></rect> <rect x="679.31" y="405.08" transform="matrix(0.9912 -0.1325 0.1325 0.9912 -48.1985 93.669)" class="st249" width="0.99" height="7.91"></rect> <rect x="680.27" y="404.51" transform="matrix(0.9912 -0.1325 0.1325 0.9912 -48.085 94.231)" class="st250" width="7.64" height="7.91"></rect> </g> <g> <g> <path class="st166" d="M206.85,472.94l0.16-2.61l-0.9-0.57l0.33-2.77l-0.57-0.82l-0.24-5.79l1.22-1.96l0.16-1.96l-1.98-4.21 l2.23-11.93l9.02-10.78c0,0,20.49-4.86,34.67,2.55c0,0,2.77,1.22,3.34,4.97v9.48l-1.01,0.76l1.73,24.12c0,0-0.72,1.17-2.15,3.85 C252.86,475.28,229.58,484.48,206.85,472.94z"></path> <path class="st168" d="M237.91,437.05l3.55-2.08c0.16-0.1,0.28-0.26,0.32-0.44l-0.01-0.47l-0.23-0.12l-6.6-0.29 c0,0-3.18-3.14-3.3-3.18c-0.12-0.04-3.02-0.12-3.02,0c0,0.12-1.79,2.83-1.79,2.83l-7.25-0.08c0,0-2.28,0.92-1.51,1.78 c0.77,0.86,4.93,2.4,4.93,2.4l-0.86,3.02c0,0-0.41,1.14,3.46,1.02l3.46-1.47c0,0,2.08-0.41,2.65-0.04 c0.57,0.37,3.95,1.52,3.95,1.52s2.92,0.55,2.69-0.66c-0.24-1.26-0.65-3.73-0.65-3.73"></path> <path class="st167" d="M252.36,452.86c0,0-7.44,5.76-20.16,5.73c-5.58-0.01-9.28-0.44-11.67-0.61c-2.71-0.2-5.37-0.81-7.89-1.83 c-2.17-0.89-4.68-2.08-6.03-3.29"></path> <path class="st167" d="M252.36,448.04c0,0-7.44,5.76-20.16,5.73c-5.58-0.01-9.28-0.44-11.67-0.61c-2.71-0.2-5.37-0.81-7.89-1.83 c-2.17-0.89-4.68-2.08-6.03-3.29"></path> <path class="st167" d="M252.74,443.56c0,0-7.82,5.21-20.54,5.18c-5.58-0.01-9.28-0.44-11.67-0.61c-2.71-0.2-5.37-0.81-7.89-1.83 c-1.44-0.59-3.03-1.31-4.33-2.08"></path> <path class="st167" d="M252.74,458.59c0,0-8.23,4.4-20.54,4.98c-5.58,0.26-9.28-0.44-11.67-0.61c-2.71-0.2-5.37-0.81-7.89-1.83 c-2.17-0.89-4.68-2.08-6.03-3.29"></path> <path class="st167" d="M252.74,463.63c-4.41,2.39-16.08,4.26-21.13,4.25c-5.58-0.01-9.28-0.44-11.67-0.61 c-2.71-0.2-5.37-0.81-7.89-1.83c-2.17-0.89-4.68-2.08-6.03-3.29"></path> <path class="st167" d="M253.38,468.85c-3.21,1.52-16.72,3.82-21.77,3.81c-5.58-0.01-9.28-0.44-11.67-0.61 c-2.71-0.2-5.37-0.81-7.89-1.83c-2.17-0.89-4.68-2.08-6.03-3.29"></path> <path class="st170" d="M208.05,441.09c4.1,2.49,11.88,4.17,20.8,4.17c13.19,0,23.89-3.68,23.89-8.21c0-4.53-10.7-8.21-23.89-8.21 c-4.84,0-9.34,0.49-13.11,1.34"></path> <path class="st171" d="M250.73,441.57l-34.31-12.53l-1.17,0.14l-0.98,2.06l33.83,11.81C248.1,443.05,249.78,442.5,250.73,441.57z "></path> </g> <g> <path class="st251" d="M207.02,432.73v6.09c0,0,4.51,6.96,23.28,6.87c0,0,17.96-0.54,22.12-7.36v-6l-24.7,7.42L207.02,432.73z"></path> <ellipse class="st252" cx="230.01" cy="432.73" rx="22.98" ry="8.31"></ellipse> <ellipse class="st251" cx="229.84" cy="432.32" rx="20.87" ry="6.77"></ellipse> <path class="st253" d="M222.07,436.91l0.49-3.15l-3.86-2.06v-0.98l0.54-0.6l1.09-0.33h5.98l2.61-3.04c0,0,0.22-0.27,0.38-0.27 s1.03,0,1.03,0l1.41,0.27l2.17,2.72l6.41,0.22c0,0,0.6,0,0.82,0.16c0.22,0.16,0.76,0.82,0.76,0.82s0,1.09,0,1.25 c0,0.16-4.73,1.58-4.73,1.58l0.71,3.42l-0.27,0.76l-0.98,0.33c0,0,0.11,0.16-1.2,0c-1.3-0.16-4.89-1.96-4.89-1.96l-5.81,2.03 l-1.22,0.25h-0.79l-0.43-0.54L222.07,436.91z"></path> <path class="st254" d="M214.52,439.57l33.01-12.23c0,0-2.47-0.96-3.81-1.29l-32.54,11.73 C211.18,437.78,212.81,439.17,214.52,439.57z"></path> <path class="st254" d="M220.15,441.04l30.56-11.57c0,0-1.79-1.47-2.12-1.63c-0.33-0.16-32.44,12.31-32.44,12.31 S218.6,440.88,220.15,441.04z"></path> </g> <polygon class="st169" points="231.28,441.02 228.07,441.02 234.47,478.68 238.04,478.42 "></polygon> <path class="st169" d="M217.25,442.01l6.26,36.05c0,0,5.21,1.23,9.55,0.68l-6.56-37.72l-9.78-1.28L217.25,442.01z"></path> </g> <g> <g> <path class="st166" d="M643.42,480.68l0.16-2.61l-0.9-0.57l0.33-2.77l-0.57-0.82l-0.24-5.79l1.22-1.96l0.16-1.96L641.6,460 l2.23-11.93l9.02-10.78c0,0,20.49-4.86,34.67,2.55c0,0,2.77,1.22,3.34,4.97v9.48l-1.01,0.76l1.73,24.12c0,0-0.72,1.17-2.15,3.85 C689.42,483.02,666.14,492.22,643.42,480.68z"></path> <path class="st168" d="M674.47,444.79l3.55-2.08c0.16-0.1,0.28-0.26,0.32-0.44l-0.01-0.47l-0.23-0.12l-6.6-0.29 c0,0-3.18-3.14-3.3-3.18c-0.12-0.04-3.02-0.12-3.02,0s-1.79,2.83-1.79,2.83l-7.25-0.08c0,0-2.28,0.92-1.51,1.78 c0.77,0.86,4.93,2.4,4.93,2.4l-0.86,3.02c0,0-0.41,1.14,3.46,1.02l3.46-1.47c0,0,2.08-0.41,2.65-0.04 c0.57,0.37,3.95,1.52,3.95,1.52s2.92,0.55,2.69-0.66c-0.24-1.26-0.65-3.73-0.65-3.73"></path> <path class="st167" d="M688.92,460.6c0,0-7.44,5.76-20.16,5.73c-5.58-0.01-9.28-0.44-11.67-0.61c-2.71-0.2-5.37-0.81-7.89-1.83 c-2.17-0.89-4.68-2.08-6.03-3.29"></path> <path class="st167" d="M688.92,455.78c0,0-7.44,5.76-20.16,5.73c-5.58-0.01-9.28-0.44-11.67-0.61c-2.71-0.2-5.37-0.81-7.89-1.83 c-2.17-0.89-4.68-2.08-6.03-3.29"></path> <path class="st167" d="M689.3,451.3c0,0-7.82,5.21-20.54,5.18c-5.58-0.01-9.28-0.44-11.67-0.61c-2.71-0.2-5.37-0.81-7.89-1.83 c-1.44-0.59-3.03-1.31-4.33-2.08"></path> <path class="st167" d="M689.3,466.33c0,0-8.23,4.4-20.54,4.98c-5.58,0.26-9.28-0.44-11.67-0.61c-2.71-0.2-5.37-0.81-7.89-1.83 c-2.17-0.89-4.68-2.08-6.03-3.29"></path> <path class="st167" d="M689.3,471.37c-4.41,2.39-16.08,4.26-21.13,4.25c-5.58-0.01-9.28-0.44-11.67-0.61 c-2.71-0.2-5.37-0.81-7.89-1.83c-2.17-0.89-4.68-2.08-6.03-3.29"></path> <path class="st167" d="M689.95,476.59c-3.21,1.52-16.72,3.82-21.77,3.81c-5.58-0.01-9.28-0.44-11.67-0.61 c-2.71-0.2-5.37-0.81-7.89-1.83c-2.17-0.89-4.68-2.08-6.03-3.29"></path> <path class="st170" d="M644.61,448.83c4.1,2.49,11.88,4.17,20.8,4.17c13.19,0,23.89-3.68,23.89-8.21c0-4.53-10.7-8.21-23.89-8.21 c-4.84,0-9.34,0.49-13.11,1.34"></path> <path class="st171" d="M687.29,449.31l-34.31-12.53l-1.17,0.14l-0.98,2.06l33.83,11.81 C684.66,450.79,686.34,450.24,687.29,449.31z"></path> </g> <g> <path class="st251" d="M643.59,440.47v6.09c0,0,4.51,6.96,23.28,6.87c0,0,17.96-0.54,22.12-7.36v-6l-24.7,7.42L643.59,440.47z"></path> <ellipse class="st252" cx="666.57" cy="440.47" rx="22.98" ry="8.31"></ellipse> <ellipse class="st251" cx="666.41" cy="440.06" rx="20.87" ry="6.77"></ellipse> <path class="st253" d="M658.64,444.65l0.49-3.15l-3.86-2.06v-0.98l0.54-0.6l1.09-0.33h5.98l2.61-3.04c0,0,0.22-0.27,0.38-0.27 s1.03,0,1.03,0l1.41,0.27l2.17,2.72l6.41,0.22c0,0,0.6,0,0.82,0.16c0.22,0.16,0.76,0.82,0.76,0.82s0,1.09,0,1.25 c0,0.16-4.73,1.58-4.73,1.58l0.71,3.42l-0.27,0.76l-0.98,0.33c0,0,0.11,0.16-1.2,0c-1.3-0.16-4.89-1.96-4.89-1.96l-5.81,2.03 l-1.22,0.25h-0.79l-0.43-0.54L658.64,444.65z"></path> <path class="st254" d="M651.08,447.32l33.01-12.23c0,0-2.47-0.96-3.81-1.29l-32.54,11.73 C647.74,445.52,649.37,446.91,651.08,447.32z"></path> <path class="st254" d="M656.71,448.78l30.56-11.57c0,0-1.79-1.47-2.12-1.63c-0.33-0.16-32.44,12.31-32.44,12.31 S655.16,448.62,656.71,448.78z"></path> </g> <polygon class="st169" points="667.84,448.76 664.64,448.76 671.04,486.42 674.61,486.16 "></polygon> <path class="st169" d="M653.81,449.75l6.26,36.05c0,0,5.21,1.23,9.55,0.68l-6.56-37.72l-9.78-1.28L653.81,449.75z"></path> </g> <g> <g> <path class="st166" d="M643.42,446.28l0.16-2.61l-0.9-0.57l0.33-2.77l-0.57-0.82l-0.24-5.79l1.22-1.96l0.16-1.96l-1.98-4.21 l2.23-11.93l9.02-10.78c0,0,20.49-4.86,34.67,2.55c0,0,2.77,1.22,3.34,4.97v9.48l-1.01,0.76l1.73,24.12c0,0-0.72,1.17-2.15,3.85 C689.42,448.62,666.14,457.81,643.42,446.28z"></path> <path class="st168" d="M674.47,410.39l3.55-2.08c0.16-0.1,0.28-0.26,0.32-0.44l-0.01-0.47l-0.23-0.12l-6.6-0.29 c0,0-3.18-3.14-3.3-3.18s-3.02-0.12-3.02,0s-1.79,2.83-1.79,2.83l-7.25-0.08c0,0-2.28,0.92-1.51,1.78s4.93,2.4,4.93,2.4 l-0.86,3.02c0,0-0.41,1.14,3.46,1.02l3.46-1.47c0,0,2.08-0.41,2.65-0.04c0.57,0.37,3.95,1.52,3.95,1.52s2.92,0.55,2.69-0.66 c-0.24-1.26-0.65-3.73-0.65-3.73"></path> <path class="st167" d="M688.92,426.2c0,0-7.44,5.76-20.16,5.73c-5.58-0.01-9.28-0.44-11.67-0.61c-2.71-0.2-5.37-0.81-7.89-1.83 c-2.17-0.89-4.68-2.08-6.03-3.29"></path> <path class="st167" d="M688.92,421.37c0,0-7.44,5.76-20.16,5.73c-5.58-0.01-9.28-0.44-11.67-0.61c-2.71-0.2-5.37-0.81-7.89-1.83 c-2.17-0.89-4.68-2.08-6.03-3.29"></path> <path class="st167" d="M689.3,416.89c0,0-7.82,5.21-20.54,5.18c-5.58-0.01-9.28-0.44-11.67-0.61c-2.71-0.2-5.37-0.81-7.89-1.83 c-1.44-0.59-3.03-1.31-4.33-2.08"></path> <path class="st167" d="M689.3,431.93c0,0-8.23,4.4-20.54,4.98c-5.58,0.26-9.28-0.44-11.67-0.61c-2.71-0.2-5.37-0.81-7.89-1.83 c-2.17-0.89-4.68-2.08-6.03-3.29"></path> <path class="st167" d="M689.3,436.97c-4.41,2.39-16.08,4.26-21.13,4.25c-5.58-0.01-9.28-0.44-11.67-0.61 c-2.71-0.2-5.37-0.81-7.89-1.83c-2.17-0.89-4.68-2.08-6.03-3.29"></path> <path class="st167" d="M689.95,442.18c-3.21,1.52-16.72,3.82-21.77,3.81c-5.58-0.01-9.28-0.44-11.67-0.61 c-2.71-0.2-5.37-0.81-7.89-1.83c-2.17-0.89-4.68-2.08-6.03-3.29"></path> <path class="st170" d="M644.61,414.43c4.1,2.49,11.88,4.17,20.8,4.17c13.19,0,23.89-3.68,23.89-8.21c0-4.53-10.7-8.21-23.89-8.21 c-4.84,0-9.34,0.49-13.11,1.34"></path> <path class="st171" d="M687.29,414.91l-34.31-12.53l-1.17,0.14l-0.98,2.06l33.83,11.81 C684.66,416.39,686.34,415.83,687.29,414.91z"></path> </g> <g> <path class="st251" d="M643.59,406.07v6.09c0,0,4.51,6.96,23.28,6.87c0,0,17.96-0.54,22.12-7.36v-6l-24.7,7.42L643.59,406.07z"></path> <ellipse class="st252" cx="666.57" cy="406.07" rx="22.98" ry="8.31"></ellipse> <ellipse class="st251" cx="666.41" cy="405.66" rx="20.87" ry="6.77"></ellipse> <path class="st253" d="M658.64,410.25l0.49-3.15l-3.86-2.06v-0.98l0.54-0.6l1.09-0.33h5.98l2.61-3.04c0,0,0.22-0.27,0.38-0.27 s1.03,0,1.03,0l1.41,0.27l2.17,2.72l6.41,0.22c0,0,0.6,0,0.82,0.16c0.22,0.16,0.76,0.82,0.76,0.82s0,1.09,0,1.25 c0,0.16-4.73,1.58-4.73,1.58l0.71,3.42l-0.27,0.76l-0.98,0.33c0,0,0.11,0.16-1.2,0c-1.3-0.16-4.89-1.96-4.89-1.96l-5.81,2.03 l-1.22,0.25h-0.79l-0.43-0.54L658.64,410.25z"></path> <path class="st254" d="M651.08,412.91l33.01-12.23c0,0-2.47-0.96-3.81-1.29l-32.54,11.73 C647.74,411.12,649.37,412.5,651.08,412.91z"></path> <path class="st254" d="M656.71,414.38l30.56-11.57c0,0-1.79-1.47-2.12-1.63c-0.33-0.16-32.44,12.31-32.44,12.31 S655.16,414.22,656.71,414.38z"></path> </g> <polygon class="st169" points="667.84,414.36 664.64,414.36 671.04,452.02 674.61,451.75 "></polygon> <path class="st169" d="M653.81,415.35l6.26,36.05c0,0,5.21,1.23,9.55,0.68l-6.56-37.72l-9.78-1.28L653.81,415.35z"></path> </g> <g> <circle class="st135" cx="281.81" cy="416.46" r="29.59"></circle> <circle class="st148" cx="281.94" cy="416.46" r="25.5"></circle> <path class="st149" d="M284.75,400.21l2.43,4.93c0,0,0.58,1.88,3.04,2.25c2.46,0.36,6.45,0.8,6.45,0.8s1.59,0.51,1.88,1.23 c0.29,0.72,0,2.43,0,2.43l-5.44,5.6c0,0-1.03,1.14-0.87,1.96c0.16,0.82,0.98,8.48,0.98,8.48s-0.76,2.61-3.59,2.01l-5.93-3.43 c0,0-2.23-0.82-4.02,0.16c-1.79,0.98-4.95,2.94-4.95,2.94s-3.81,1.25-4.08-1.69l0.82-6.8c0,0,1.52-2.88-0.82-4.24l-4.62-4.4 c0,0-2.42-2.77,0.75-4.3l7.14-0.38c0,0,2.17-0.38,3.7-3.91s2.94-5.22,2.94-5.22s1.85-1.36,3.26,0L284.75,400.21z"></path> <path class="st150" d="M269.01,443.14l39.34-39.76c0,0-0.51-1.22-1.87-3.28l-41.26,40.86 C265.22,440.96,266.67,442.03,269.01,443.14z"></path> <path class="st150" d="M263.02,439.31l41.18-42.19c0,0-1.7-2.15-5.21-4.75l-41.42,41.06 C257.57,433.43,260.11,437.08,263.02,439.31z"></path> </g> <g> <polygon class="st199" points="615.71,334.43 619.24,328.26 622.55,334.43 629.61,335.88 625.43,340.97 625.66,347.96 619.36,345.22 613.2,348.41 613.2,341.04 609.02,335.8 "></polygon> <path class="st200" d="M619.24,328.26c0.08,0,1.65,0,1.65,0l3.42,5.91l6.44,1.25v0.84l-4.29,4.98l0.49,7.18l-1.29-0.46l-0.23-6.99 l4.18-5.09l-7.07-1.44L619.24,328.26z"></path> <polygon class="st201" points="613.2,341.69 620.69,330.97 621.5,332.47 613.2,344.54 "></polygon> <polygon class="st201" points="613.17,347.46 622.55,334.43 625.79,335.1 619.36,345.22 613.2,348.41 "></polygon> <polygon class="st200" points="613.2,348.41 614.32,348.53 620.16,345.57 619.36,345.22 "></polygon> </g> <g> <polygon class="st199" points="116.86,382.84 122.84,372.39 128.43,382.84 140.39,385.28 133.32,393.9 133.7,405.72 123.03,401.1 112.62,406.5 112.62,394.02 105.54,385.15 "></polygon> <path class="st200" d="M122.84,372.39c0.13,0,2.8,0,2.8,0l5.79,10l10.9,2.12v1.41l-7.26,8.42l0.84,12.15l-2.19-0.77l-0.39-11.83 l7.07-8.61l-11.96-2.44L122.84,372.39z"></path> <polygon class="st201" points="112.62,395.12 125.3,376.98 126.65,379.52 112.62,399.94 "></polygon> <polygon class="st201" points="112.56,404.89 128.43,382.84 133.93,383.96 123.03,401.1 112.62,406.5 "></polygon> <polygon class="st200" points="112.62,406.5 114.51,406.69 124.39,401.68 123.03,401.1 "></polygon> </g> <g> <polygon class="st199" points="635.48,302.65 641.46,292.2 647.05,302.65 659.01,305.09 651.94,313.7 652.33,325.53 641.65,320.9 631.24,326.3 631.24,313.83 624.17,304.96 "></polygon> <path class="st200" d="M641.46,292.2c0.13,0,2.8,0,2.8,0l5.79,10l10.9,2.12v1.41l-7.26,8.42l0.84,12.15l-2.19-0.77l-0.39-11.83 l7.07-8.61l-11.96-2.44L641.46,292.2z"></path> <polygon class="st201" points="631.24,314.93 643.92,296.79 645.28,299.33 631.24,319.75 "></polygon> <polygon class="st201" points="631.19,324.7 647.05,302.65 652.55,303.77 641.65,320.9 631.24,326.3 "></polygon> <polygon class="st200" points="631.24,326.3 633.14,326.5 643.01,321.49 641.65,320.9 "></polygon> </g> <g> <polygon class="st199" points="147.05,345.8 150.58,339.63 153.89,345.8 160.95,347.25 156.77,352.34 157,359.33 150.7,356.59 144.54,359.78 144.54,352.41 140.36,347.17 "></polygon> <path class="st200" d="M150.58,339.63c0.08,0,1.65,0,1.65,0l3.42,5.91l6.44,1.25v0.84l-4.29,4.98l0.49,7.18l-1.29-0.46l-0.23-6.99 l4.18-5.09l-7.07-1.44L150.58,339.63z"></path> <polygon class="st201" points="144.54,353.06 152.03,342.34 152.84,343.84 144.54,355.91 "></polygon> <polygon class="st201" points="144.51,358.83 153.89,345.8 157.14,346.47 150.7,356.59 144.54,359.78 "></polygon> <polygon class="st200" points="144.54,359.78 145.66,359.9 151.5,356.94 150.7,356.59 "></polygon> </g> <g> <g> <path class="st256" d="M656.48,396.24v-8.84h-5.66v7.03C652.43,395.17,654.3,395.8,656.48,396.24z"></path> </g> <path class="st257" d="M657.57,396.43v-7.32h-1.09v7.12C656.83,396.31,657.2,396.37,657.57,396.43z"></path> <path class="st258" d="M649.32,393.65v-11.13h-4.41v7.68C646,391.38,647.43,392.59,649.32,393.65z"></path> <path class="st259" d="M641.69,377.14v7.8c0,0,0.44,1.66,1.95,3.74v-11.84h-2.17L641.69,377.14z"></path> <path class="st260" d="M644.9,390.2v-7.91h-1.26v6.37C644,389.16,644.42,389.68,644.9,390.2z"></path> <path class="st261" d="M650.82,394.43v-7.32h-1.51v6.54C649.79,393.92,650.29,394.18,650.82,394.43z"></path> <path class="st260" d="M682.01,388.09v-6.9h-0.82v7.78C681.48,388.66,681.75,388.37,682.01,388.09z"></path> <path class="st260" d="M677.92,391.83v-6.05h-1.36v7C677.03,392.47,677.49,392.15,677.92,391.83z"></path> <path class="st261" d="M672.03,395.12v-6.83h-1.3v7.29C671.18,395.44,671.61,395.29,672.03,395.12z"></path> <path class="st258" d="M676.56,392.78v-6.26h-4.49v8.59C673.74,394.44,675.24,393.64,676.56,392.78z"></path> <path class="st256" d="M670.73,395.59v-6.47h-6.15v7.68C666.83,396.64,668.88,396.21,670.73,395.59z"></path> <rect x="663.82" y="390.05" class="st257" width="0.76" height="6.76"></rect> <path class="st262" d="M660.69,396.8c0.14,0.01,0.27,0.01,0.4,0.02h2.72v-7.7h-6.25v7.32 C658.55,396.59,659.59,396.72,660.69,396.8z"></path> <path class="st259" d="M683.92,385.67v-6.59l-0.21-2.57l0.21-0.05v-0.39h-1.91v12.01C682.89,387.09,683.53,386.24,683.92,385.67z"></path> <path class="st263" d="M681.19,388.97v-6.1h-3.21v8.92C679.23,390.85,680.3,389.87,681.19,388.97z"></path> <ellipse class="st264" cx="662.7" cy="376.51" rx="21.01" ry="13.76"></ellipse> <ellipse class="st265" cx="662.87" cy="376.39" rx="16.71" ry="11.35"></ellipse> <ellipse class="st263" cx="662.78" cy="376.34" rx="15.54" ry="10.43"></ellipse> </g> <g> <circle class="st135" cx="662.31" cy="358.79" r="22.32"></circle> <circle class="st148" cx="662.41" cy="358.79" r="19.24"></circle> <path class="st149" d="M664.53,346.54l1.83,3.72c0,0,0.44,1.42,2.3,1.7c1.86,0.27,4.87,0.6,4.87,0.6s1.2,0.38,1.42,0.93 c0.22,0.55,0,1.83,0,1.83l-4.1,4.22c0,0-0.78,0.86-0.66,1.48c0.12,0.62,0.74,6.4,0.74,6.4s-0.57,1.97-2.71,1.52l-4.47-2.58 c0,0-1.68-0.62-3.04,0.12s-3.73,2.22-3.73,2.22s-2.87,0.94-3.08-1.27l0.62-5.13c0,0,1.15-2.17-0.62-3.2l-3.49-3.32 c0,0-1.83-2.09,0.56-3.24l5.38-0.29c0,0,1.64-0.29,2.79-2.95c1.15-2.67,2.22-3.94,2.22-3.94s1.39-1.03,2.46,0L664.53,346.54z"></path> <path class="st150" d="M652.65,378.92l29.68-30c0,0-0.38-0.92-1.41-2.47l-31.13,30.82C649.79,377.28,650.89,378.08,652.65,378.92z "></path> <path class="st150" d="M648.13,376.03l31.07-31.83c0,0-1.28-1.62-3.93-3.58l-31.25,30.98 C644.02,371.6,645.93,374.35,648.13,376.03z"></path> </g> </g> </svg> 