<?xml version="1.0" encoding="UTF-8"?> <svg xmlns="http://www.w3.org/2000/svg" id="Capa_1" data-name="Capa 1" viewBox="0 0 56.84 56.84"> <defs> <style>.cls-1{fill:#00bfbf;}.cls-2,.cls-3{fill:#fff;stroke:#fff;stroke-miterlimit:10;}.cls-2{stroke-width:0.25px;}.cls-3{stroke-width:0.5px;}</style> </defs> <title>free t</title> <circle class="cls-1" cx="28.42" cy="28.42" r="28.42"></circle> <path class="cls-2" d="M38.53,20.8H40.4a5.22,5.22,0,0,0,.18.56,1.26,1.26,0,0,0,1.62.53.92.92,0,0,0,.08-1.42,3.27,3.27,0,0,0-.73-.43c-.48-.24-1-.46-1.47-.68a2.31,2.31,0,0,1,0-4,13.39,13.39,0,0,1,1.3-.55l.09-1.1h.78l.07,1.14a2.53,2.53,0,0,1,2.28,2.55H42.71c0-.12-.09-.28-.15-.43a.91.91,0,0,0-1-.58.66.66,0,0,0-.71.5c-.11.4-.16.82.23,1.1a8.07,8.07,0,0,0,1,.59c.38.2.8.33,1.16.55a2.4,2.4,0,0,1,1.12,2.73A2,2,0,0,1,43,23.43c-.27.09-.54.15-.83.22l-.09,1-.81,0-.09-1.12C39.71,23.27,38.5,22.66,38.53,20.8Z"></path> <path class="cls-3" d="M41.55,27.4a8.21,8.21,0,1,1,8.2-8.2A8.21,8.21,0,0,1,41.55,27.4Zm0-15.19a7,7,0,1,0,7,7A7,7,0,0,0,41.55,12.21Z"></path> <path class="cls-2" d="M17.93,42.26H19.8a3.65,3.65,0,0,0,.18.56,1.26,1.26,0,0,0,1.61.54.93.93,0,0,0,.09-1.42,3,3,0,0,0-.73-.43c-.49-.24-1-.47-1.48-.69a2.3,2.3,0,0,1,0-4c.4-.22.84-.36,1.31-.56l.08-1.09h.79l.06,1.13A2.56,2.56,0,0,1,24,38.9H22.1c0-.13-.08-.28-.14-.43a.92.92,0,0,0-1-.58.65.65,0,0,0-.71.5c-.11.39-.16.82.23,1.09a7.6,7.6,0,0,0,1,.6c.38.19.79.32,1.15.54a2.44,2.44,0,0,1,1.13,2.74,2,2,0,0,1-1.47,1.54c-.26.08-.54.14-.83.22l-.09,1-.81.05L20.55,45C19.11,44.73,17.89,44.12,17.93,42.26Z"></path> <path class="cls-3" d="M20.94,48.87a8.21,8.21,0,1,1,8.21-8.21A8.23,8.23,0,0,1,20.94,48.87Zm0-15.2a7,7,0,1,0,7,7A7,7,0,0,0,20.94,33.67Z"></path> <path class="cls-2" d="M28.68,14.76,26.2,12.28c-.39-.39-.67-.82-.18-1.29s.87-.16,1.23.21l4,4a.58.58,0,0,1,0,.8c-.23.22-.43.43-.64.64l-3.34,3.34c-.37.37-.78.62-1.23.19s-.24-.85.14-1.23c.8-.8,1.59-1.6,2.54-2.54-.45,0-.75,0-1,0H17.86c-.57,0-1.27.14-1.38-.72-.07-.57.35-.8,1.39-.8h9.79C27.94,14.8,28.23,14.78,28.68,14.76Z"></path> <path class="cls-2" d="M18.1,26.83l2.48-2.48c.39-.4.82-.68,1.29-.18s.16.86-.21,1.23l-4,4a.57.57,0,0,1-.8,0l-.64-.64-3.34-3.34c-.37-.37-.62-.78-.19-1.23s.86-.24,1.23.14l2.54,2.54c0-.45,0-.74,0-1,0-4.87,0-4.43,0-9.3,0-.58-.14-1.28.72-1.39.57-.07.8.36.8,1.4,0,4.87,0,4.43,0,9.3C18.06,26.09,18.08,26.37,18.1,26.83Z"></path> </svg> 