<?xml version="1.0" encoding="UTF-8"?> <svg xmlns="http://www.w3.org/2000/svg" width="288" height="126" viewBox="0 0 288 126" fill="none"> <g clip-path="url(#clip0)"> <path d="M69.65 119C63.76 122.4 57.56 124.57 51.03 125.51C44.51 126.45 38 126.05 31.49 124.31C25.05 122.68 19.22 119.93 14 116.04C8.77 112.15 4.49 107.32 1.16 101.55C0 99.5403 -0.29 97.4703 0.29 95.3403C0.86 93.2003 2.15 91.5603 4.15 90.4003C6.15 89.2403 8.22 88.9503 10.36 89.5303C12.49 90.1003 14.14 91.3803 15.3 93.3903C17.54 97.2803 20.43 100.51 23.97 103.1C27.5 105.69 31.37 107.5 35.58 108.52C39.78 109.55 44.13 109.79 48.6 109.25C53.07 108.71 57.37 107.24 61.5 104.86C65.62 102.48 69.04 99.4903 71.75 95.8903C74.46 92.2903 76.41 88.4103 77.63 84.2503C78.84 80.0903 79.21 75.8403 78.74 71.4803C78.26 67.1203 76.91 63.0003 74.66 59.1103C73.5 57.1003 73.21 55.0403 73.79 52.9003C74.36 50.7603 75.65 49.1203 77.65 47.9603C79.65 46.8003 81.72 46.5103 83.86 47.0803C85.99 47.6503 87.64 48.9303 88.8 50.9403C92.13 56.7103 94.17 62.8303 94.93 69.3003C95.68 75.7703 95.15 82.2003 93.35 88.5903C91.61 95.0903 88.7 100.93 84.62 106.11C80.52 111.31 75.54 115.6 69.65 119Z" fill="#2C2057"></path> <path d="M56.3503 7.00017C62.2403 3.60017 68.4403 1.43017 74.9703 0.490174C81.4903 -0.439826 88.0003 -0.049826 94.5003 1.70017C100.94 3.33017 106.77 6.08017 111.99 9.97017C117.22 13.8602 121.5 18.6902 124.83 24.4602C125.99 26.4702 126.28 28.5302 125.7 30.6702C125.13 32.8102 123.84 34.4502 121.84 35.6102C119.84 36.7702 117.77 37.0602 115.63 36.4802C113.5 35.9102 111.85 34.6302 110.69 32.6202C108.45 28.7302 105.56 25.5002 102.02 22.9102C98.4903 20.3202 94.6203 18.5102 90.4103 17.4902C86.2103 16.4602 81.8603 16.2202 77.3903 16.7602C72.9203 17.3002 68.6203 18.7702 64.4903 21.1502C60.3703 23.5302 56.9503 26.5202 54.2403 30.1202C51.5303 33.7202 49.5803 37.6002 48.3603 41.7602C47.1503 45.9202 46.7803 50.1702 47.2503 54.5302C47.7303 58.8902 49.0803 63.0102 51.3303 66.9002C52.4903 68.9102 52.7803 70.9702 52.2003 73.1102C51.6303 75.2502 50.3403 76.8902 48.3403 78.0502C46.3403 79.2102 44.2703 79.5002 42.1303 78.9302C40.0003 78.3602 38.3503 77.0802 37.1903 75.0702C33.8603 69.3002 31.8203 63.1802 31.0603 56.7102C30.3103 50.2402 30.8403 43.8102 32.6403 37.4202C34.3803 30.9202 37.2903 25.0802 41.3703 19.9002C45.4803 14.6902 50.4603 10.4002 56.3503 7.00017Z" fill="#2C2057"></path> <path d="M146.95 58.5303C148.06 59.1103 148.53 59.9003 148.53 61.0603C148.53 62.4803 147.47 63.5903 146.1 63.5903C145.26 63.5903 144.68 63.3303 143.78 62.9603C141.56 62.0603 139.98 61.7503 137.45 61.7503C134.44 61.7503 131.59 63.3303 131.59 66.1803C131.59 68.7103 132.96 69.9303 135.97 71.3003L142.14 74.1503C145.67 75.7903 149.53 78.1603 149.53 84.2803C149.53 90.6603 144.36 94.6203 137.5 94.6203C133.75 94.6203 130.54 93.8803 127.69 92.5603C126.53 92.0303 126 91.1403 126 90.0303C126 88.4503 127.06 87.3903 128.53 87.3903C129.27 87.3903 129.74 87.5503 130.9 88.0203C132.75 88.8103 134.75 89.4403 137.5 89.4403C141.3 89.4403 143.94 87.7003 143.94 84.4303C143.94 81.5803 142.31 80.3103 139.14 78.7803L132.7 75.7703C129.01 74.0303 126.05 71.2803 126.05 66.3803C126.05 60.4203 130.8 56.5703 137.76 56.5703C141.46 56.5803 144.36 57.2603 146.95 58.5303ZM161.2 59.2703V91.8803C161.2 93.5203 159.93 94.6203 158.46 94.6203C156.93 94.6203 155.66 93.5103 155.66 91.8803V59.2703C155.66 57.6903 156.93 56.5803 158.46 56.5803C159.93 56.5803 161.2 57.6903 161.2 59.2703ZM190.64 58.7403C191.54 59.2703 192.17 60.2703 192.17 61.1703C192.17 62.5903 190.96 63.7003 189.43 63.7003C189.01 63.7003 188.32 63.4403 187.9 63.2803C186.48 62.6503 184.05 61.7503 182.04 61.7503C176.71 61.7503 173.92 64.6003 173.92 70.0303V81.2203C173.92 86.5503 176.61 89.4503 182.04 89.4503C184.04 89.4503 186.26 89.0803 188 88.5003V78.7403H183.3C181.67 78.7403 180.61 77.5803 180.61 76.0503C180.61 74.5703 181.67 73.4103 183.3 73.4103H190.32C192.17 73.4103 193.54 74.7803 193.54 76.5803V89.7703C193.54 91.0403 192.8 92.2503 191.59 92.7803C189.06 93.8403 185.36 94.6303 182.04 94.6303C173.44 94.6303 168.32 89.8803 168.32 81.0203V70.1903C168.32 61.2703 173.44 56.5803 182.04 56.5803C184.99 56.5803 188.21 57.4203 190.64 58.7403ZM226.05 59.3803V91.7203C226.05 93.3003 224.73 94.6203 223.15 94.6203C221.99 94.6203 220.99 93.9903 220.41 92.9303L206.22 68.6603V91.8203C206.22 93.4603 204.95 94.6203 203.48 94.6203C201.95 94.6203 200.68 93.4603 200.68 91.8203V59.4803C200.68 57.9003 201.95 56.5803 203.53 56.5803C204.74 56.5803 205.75 57.2103 206.33 58.2703L220.52 82.4903V59.3803C220.52 57.7403 221.79 56.5803 223.32 56.5803C224.83 56.5803 226.05 57.7403 226.05 59.3803ZM259.29 69.4503V81.7403C259.29 89.8703 254.07 94.6103 246.26 94.6103C238.4 94.6103 233.18 89.8603 233.18 81.7403V69.4503C233.18 61.3203 238.4 56.5803 246.26 56.5803C254.07 56.5803 259.29 61.3303 259.29 69.4503ZM238.77 69.0303V82.1103C238.77 86.7003 241.62 89.4403 246.26 89.4403C250.85 89.4403 253.7 86.7003 253.7 82.1103V69.0303C253.7 64.4903 250.85 61.7503 246.26 61.7503C241.62 61.7503 238.77 64.4903 238.77 69.0303ZM285.41 58.5303C286.52 59.1103 286.99 59.9003 286.99 61.0603C286.99 62.4803 285.93 63.5903 284.56 63.5903C283.71 63.5903 283.14 63.3303 282.24 62.9603C280.02 62.0603 278.44 61.7503 275.91 61.7503C272.9 61.7503 270.05 63.3303 270.05 66.1803C270.05 68.7103 271.42 69.9303 274.43 71.3003L280.6 74.1503C284.14 75.7903 287.99 78.1603 287.99 84.2803C287.99 90.6603 282.82 94.6203 275.96 94.6203C272.21 94.6203 269 93.8803 266.15 92.5603C264.99 92.0303 264.46 91.1403 264.46 90.0303C264.46 88.4503 265.52 87.3903 266.99 87.3903C267.73 87.3903 268.2 87.5503 269.37 88.0203C271.21 88.8103 273.22 89.4403 275.96 89.4403C279.76 89.4403 282.4 87.7003 282.4 84.4303C282.4 81.5803 280.77 80.3103 277.6 78.7803L271.16 75.7703C267.47 74.0303 264.51 71.2803 264.51 66.3803C264.51 60.4203 269.26 56.5703 276.22 56.5703C279.93 56.5803 282.83 57.2603 285.41 58.5303Z" fill="#2C2057"></path> </g> <defs> <clipPath id="clip0"> <rect width="288" height="126" fill="white"></rect> </clipPath> </defs> </svg> 