<?xml version="1.0" encoding="UTF-8"?> <svg xmlns="http://www.w3.org/2000/svg" id="Capa_1" data-name="Capa 1" viewBox="0 0 406.54 406.54"> <defs> <style>.cls-1{fill:#fff;stroke:#0bb;stroke-miterlimit:10;stroke-width:8px;}.cls-2{fill:#a6dae6;}.cls-3{fill:#c3b5a1;}.cls-4{fill:#a8967a;}.cls-5{fill:#fdfdfd;}.cls-6{fill:#525353;}.cls-7{fill:#dc1168;}.cls-8{fill:#9c2554;}.cls-9{fill:#535453;}.cls-10{fill:#fbfbfc;}.cls-11{fill:#b9bbbc;}.cls-12{fill:#8a7461;}.cls-13{fill:#050606;}.cls-14{fill:#babbbc;}.cls-15{fill:#020101;}.cls-16{fill:#f7ae4c;}.cls-17{fill:#e1dbd9;}.cls-18{fill:#020202;}.cls-19{fill:#686b6b;}.cls-20{fill:#a8957a;}.cls-21{fill:#555;}.cls-22{fill:#010202;}.cls-23{fill:#030303;}.cls-24{fill:#8f9393;}.cls-25{fill:#f6f7f8;}</style> </defs> <title>Sin título-1</title> <circle class="cls-1" cx="203.77" cy="202.98" r="183.03"></circle> <path class="cls-2" d="M43.45,213.28V191.4a13.14,13.14,0,0,0,.61-2c.78-5.63,1.28-11.32,2.34-16.9A151.93,151.93,0,0,1,64,124.82,160.71,160.71,0,0,1,95.12,85.53a164.13,164.13,0,0,1,44-28.87,151.83,151.83,0,0,1,58.14-13.22,208.1,208.1,0,0,1,30.43,1.79c17.18,2.07,33.39,7.67,48.75,15.56a160.07,160.07,0,0,1,49.4,39.43,156.94,156.94,0,0,1,27.81,47.71,162.68,162.68,0,0,1,8.42,76.93,155.25,155.25,0,0,1-11.56,41.58c-9.45,22-23.38,40.67-41,56.69a6.69,6.69,0,0,1-1.62.83A168.94,168.94,0,0,0,276,297.14a153.21,153.21,0,0,0,31.18-19.45c5.68-4.51,10.92-9.56,16.36-14.37l0,0,.85-.64c1.89-1,.92-2.15.12-3.28l-14.19-20a12.74,12.74,0,0,1,.29-1.52A114,114,0,0,0,316,204.66c-1-8.68-1.63-17.39-3-26-.68-4.39-2.53-8.6-3.85-12.89a18.66,18.66,0,0,0-.71-2.69C290.31,120.51,258.3,96,212.23,91.74c-33-3-62.24,7.64-86.08,30.78C98,149.8,87.4,183.4,93,222.08c.77,5.26,2.73,10.35,4.13,15.52.34,1.29.58,2.63,1,3.89,7.66,21.44,21,38.66,39,52.35-5.34,3.38-11.07,6.28-15.94,10.23-7.7,6.26-14.83,13.22-22.2,19.88a5.49,5.49,0,0,1-1.62-.82c-6.08-6.28-12.45-12.3-18.09-18.95a150.45,150.45,0,0,1-23.9-40,148.51,148.51,0,0,1-10.83-42.06C44.36,219.16,43.86,216.22,43.45,213.28Z"></path> <path class="cls-3" d="M191,363.3q-5.92-.94-11.85-1.87a149.17,149.17,0,0,1-44.46-13.82c1-6,2-11.94,3.05-18.08h65.77V363.3Z"></path> <path class="cls-4" d="M203.5,363.3q0-16.89,0-33.77c21,0,42.05,0,63.07,0,2.37,0,3.08.58,3.31,3.09.46,5,1.57,10,2.41,15a119.17,119.17,0,0,1-29.66,10.74c-8.17,1.79-16.48,3-24.72,4.42a5.41,5.41,0,0,0-1.29.61Z"></path> <path class="cls-5" d="M137.23,293.84c-18-13.69-31.39-30.91-39-52.35-.44-1.26-.68-2.6-1-3.9.45-1.9.82-3.83,1.38-5.7,2.82-9.61,6.17-19,11.69-27.48,14.78,0,29.57.06,44.35.14a42.5,42.5,0,0,1,4.61.52c5.84,1.4,11.68,2.83,17.54,4.2,7.66,1.78,15.33,3.52,23,5.28,9.76,9.79,23.87,4.49,26.37-6.89.07-.06.2-.13.2-.18a3.16,3.16,0,0,0-.16-.46c.07-.82.13-1.65.19-2.48,3.22,0,6.44-.11,9.65.05.9,0,1.77.88,2.65,1.36a34.57,34.57,0,0,1-1.19,6.06c-3.81,9.81-7.78,19.56-11.69,29.33q-3,7.6-6.1,15.2c-1.35,3.4-2.69,6.8-4.32,10.92l-32.13-16.6a7.77,7.77,0,0,0,.7,1.1,156.08,156.08,0,0,0,27.73,24.48,4.7,4.7,0,0,1,2,3c.71,11.34,5.28,17.69,16.11,21.51A58.57,58.57,0,0,0,251,304.62l-5,2.89-12.5,4.28c-.82.13-1.66.19-2.46.39-11.66,2.91-23.49,4.27-35.46,3-7.39-.79-14.71-2.31-22.06-3.5l-11.81-4.13-17.42-8.79Z"></path> <path class="cls-6" d="M110.23,204.41c-5.52,8.47-8.87,17.87-11.69,27.48-.56,1.87-.93,3.8-1.38,5.7-1.4-5.16-3.36-10.25-4.13-15.51-5.63-38.68,5-72.28,33.12-99.56C150,99.38,179.24,88.7,212.23,91.74c46.07,4.25,78.08,28.77,96.21,71.34a18.66,18.66,0,0,1,.71,2.69l-4.39-4.71c-1.93-4.32-3.31-9-5.95-12.84a28.61,28.61,0,0,0-9.28-8.47c-6.45-3.58-13.78-.93-19.34,6.08-6.57,8.29-9.65,18-11.62,28.22-.09.5.31,1.11.48,1.66-.48.95-1,1.9-1.43,2.85L254.14,176l-13-9.5-1.4-.8a13.61,13.61,0,0,0-.85-2.89,57,57,0,0,0-53.63-29.08c-16.58,1.29-30,8.39-40.5,21.08-4.74,5.71-8.42,12.06-10,19.44a10.92,10.92,0,0,1-.77.89C124.36,183.53,116.1,193,110.23,204.41Z"></path> <path class="cls-7" d="M310.32,239.41l14.19,20c.8,1.13,1.77,2.25-.12,3.28l-.85.64,0,0a13.39,13.39,0,0,0-3,.57c-20.74,9.19-42.54,12.26-65,11.19-4.84-.23-9.63-1.2-14.45-1.82.69-6.36,3.71-11.77,6.73-17.24,4.26-7.71,8.63-15.41,12.12-23.47,4.76-11,5.5-22.67,2.91-34.46a23.29,23.29,0,0,0-.48-3c-1.5-5.21-3.06-10.4-4.6-15.61.87.73,1.81,1.39,2.6,2.19q11.22,11.44,22.38,22.92c1.42,1.77,2.85,3.54,4.26,5.33Z"></path> <path class="cls-8" d="M241.11,273.26c4.82.62,9.61,1.59,14.45,1.82,22.48,1.07,44.28-2,65-11.19a13.39,13.39,0,0,1,3-.57c-5.44,4.81-10.68,9.86-16.36,14.37A153.21,153.21,0,0,1,276,297.14l-12,4.78-11.1,1.86L250.42,301C243.2,293.16,239.57,284.07,241.11,273.26Z"></path> <path class="cls-9" d="M137.23,293.84l7,4.9q-3.54,12-7.1,23.92c-1.13,0-2.47-.34-3.34.15-1.15.64-2.56,1.84-2.76,3-.55,3.31-.56,6.72-.79,10.09l-6.89,5.63c-8.84-4.83-17.18-10.35-24.3-17.56,7.37-6.66,14.5-13.62,22.2-19.88C126.16,300.12,131.89,297.22,137.23,293.84Z"></path> <path class="cls-6" d="M264,301.92l12-4.78A168.94,168.94,0,0,1,307.9,324c-5.57,4.34-11.07,8.78-16.74,13a81.43,81.43,0,0,1-7.62,4.49,29.63,29.63,0,0,0-2.83-2.88,31.89,31.89,0,0,0-3.6-2.09c-.35-3.45-.85-6.9-1-10.35-.1-2.24-1.18-3.19-3.17-3.41a29.07,29.07,0,0,0-3.1,0Z"></path> <path class="cls-10" d="M310.32,239.41,287,209.91c-1.41-1.79-2.84-3.56-4.26-5.33l12.58-.05c.65,2.57.93,5.33,2.1,7.63.78,1.52,2.89,3.32,4.33,3.26,1.63-.07,3.41-1.87,4.7-3.3,1-1.09,1.27-2.77,1.87-4.18l3.37-3.4,4.25.12a114,114,0,0,1-5.36,33.23A12.74,12.74,0,0,0,310.32,239.41Z"></path> <path class="cls-11" d="M316,204.66l-4.25-.12-3.76-3.8-2.15-4.92c.2-.3.63-.66.57-.91-1.51-6.76-3.08-13.51-4.64-20.25V158.74l3,2.32,4.39,4.71c1.32,4.29,3.17,8.5,3.85,12.89C314.34,187.27,315,196,316,204.66Z"></path> <path class="cls-8" d="M323.54,263.34l.85-.64Z"></path> <path class="cls-12" d="M269.83,322.66a29.07,29.07,0,0,1,3.1,0c2,.22,3.07,1.17,3.17,3.41.16,3.45.66,6.9,1,10.35.49,2.61,1,5.21,1.48,7.82l-6.3,3.24c-.84-5-1.95-9.94-2.41-15-.23-2.51-.94-3.1-3.31-3.09-21,.08-42,0-63.07,0H137.74c-1,6.14-2,12.11-3.05,18.08L129,345q.66-4.54,1.31-9.08c.23-3.37.24-6.78.79-10.09.2-1.14,1.61-2.34,2.76-3,.87-.49,2.21-.13,3.34-.15H269.83Z"></path> <path class="cls-13" d="M278.6,344.29c-.49-2.61-1-5.21-1.48-7.82a32.65,32.65,0,0,1,3.59,2.09,29.63,29.63,0,0,1,2.83,2.88Z"></path> <path class="cls-13" d="M130.28,335.88q-.65,4.53-1.31,9.08l-5.58-3.45Z"></path> <path class="cls-14" d="M110.23,204.41c5.87-11.4,14.13-20.88,23.74-29.25a10.92,10.92,0,0,0,.77-.89,7.08,7.08,0,0,0,.81-.46c14.64-11.91,31.25-19.12,50.11-20.83,8.52-.76,17-.61,25.36,1.6l.57,8.12c-1.51,4.25-3.11,8.47-4.5,12.76-1.92,5.88-3.69,11.8-5.52,17.71l-1,.91c-13.32,3.24-26.65,6.46-40,9.75-.52.13-.91.81-1.36,1.24a42.5,42.5,0,0,0-4.61-.52C139.8,204.47,125,204.45,110.23,204.41Z"></path> <path class="cls-15" d="M241.11,273.26c-1.54,10.81,2.09,19.9,9.31,27.78l2.49,2.74-1.95.84a58.57,58.57,0,0,1-21.23-3.69c-10.83-3.82-15.4-10.17-16.11-21.51a4.7,4.7,0,0,0-2-3A156.08,156.08,0,0,1,183.9,252a7.77,7.77,0,0,1-.7-1.1l32.13,16.6c1.63-4.12,3-7.52,4.32-10.92,4.87-4.83,9.81-9.59,14.6-14.51,12.42-12.76,23.67-26.3,28.62-43.94,2.59,11.79,1.85,23.43-2.91,34.46-3.49,8.06-7.86,15.76-12.12,23.47C244.82,261.49,241.8,266.9,241.11,273.26Z"></path> <path class="cls-16" d="M262.87,198.09c-4.95,17.64-16.2,31.18-28.62,43.94-4.79,4.92-9.73,9.68-14.6,14.51q3-7.61,6.1-15.2c3.91-9.77,7.88-19.52,11.69-29.33a34.57,34.57,0,0,0,1.19-6.06c.79-6,1.94-12,2.29-18,.42-7.11.17-14.26.2-21.4l13,9.5,3.48,2.54c.06.3.12.61.17.91,1.54,5.21,3.1,10.4,4.6,15.61A23.29,23.29,0,0,1,262.87,198.09Z"></path> <path class="cls-17" d="M241.12,166.52c0,7.14.22,14.29-.2,21.4-.35,6-1.5,12-2.29,18-.88-.48-1.75-1.31-2.65-1.36-3.21-.16-6.43-.05-9.65-.05a16.94,16.94,0,0,0-5.24-11.42q-4.74-15.21-9.5-30.42l-.57-8.12a81.86,81.86,0,0,1,28.7,11.14Z"></path> <path class="cls-18" d="M250.34,322.66H156.65c.41-1.66.83-3.31,1.24-5l.57-.69h0c3-1,6-2,9-3,2-.72,4-1.55,6.07-2.33,7.35,1.19,14.67,2.71,22.06,3.5,12,1.29,23.8-.07,35.46-3,.8-.2,1.64-.26,2.46-.39l14.94,5.35Z"></path> <path class="cls-18" d="M221.09,193.12a16.94,16.94,0,0,1,5.24,11.42c-.06.83-.12,1.66-.19,2.48l0,.64c-2.5,11.38-16.61,16.68-26.37,6.89-4.54-7-4.41-13.84.79-20.47l1-.91C208.07,188.58,214.58,188.71,221.09,193.12Zm-9.92,9.59a5.66,5.66,0,1,0-5.69-5.79A5.77,5.77,0,0,0,211.17,202.71Z"></path> <path class="cls-19" d="M200.52,194.08c-5.2,6.63-5.33,13.46-.79,20.47-7.67-1.76-15.34-3.5-23-5.28-5.86-1.37-11.7-2.8-17.54-4.2.45-.43.84-1.11,1.36-1.24C173.87,200.54,187.2,197.32,200.52,194.08Z"></path> <path class="cls-20" d="M157.89,317.7c-.41,1.65-.83,3.3-1.24,5H137.17q3.56-12,7.1-23.92l17.42,8.79q-1.62,4.74-3.23,9.48h0Z"></path> <path class="cls-20" d="M250.34,322.66l-1.92-5.52q-1.21-4.81-2.44-9.63l5-2.89,1.95-.84,11.1-1.86,5.82,20.74Z"></path> <path class="cls-21" d="M158.46,317q1.6-4.74,3.23-9.48l11.81,4.13c-2,.78-4,1.61-6.07,2.33C164.45,315,161.45,316,158.46,317Z"></path> <path class="cls-9" d="M246,307.51q1.23,4.82,2.44,9.63l-14.94-5.35Z"></path> <path class="cls-17" d="M226.1,207.66l0-.64a3.16,3.16,0,0,1,.16.46C226.3,207.53,226.17,207.6,226.1,207.66Z"></path> <path class="cls-22" d="M239.72,165.72A81.86,81.86,0,0,0,211,154.58c-8.35-2.21-16.84-2.36-25.36-1.6-18.86,1.71-35.47,8.92-50.11,20.83a7.08,7.08,0,0,1-.81.46c1.58-7.38,5.26-13.73,10-19.44,10.51-12.69,23.92-19.79,40.5-21.08a57,57,0,0,1,53.63,29.08A13.61,13.61,0,0,1,239.72,165.72Z"></path> <path class="cls-17" d="M257.79,179.47c-.05-.3-.11-.61-.17-.91.47-.95.95-1.9,1.43-2.85,4.09-7.44,8.79-14.4,16.08-19.14,8.95-5.83,18.7-5,26.6,2.17q0,8,0,15.91l-4.65,22.69-1.74,7.19-12.58.05q-11.19-11.46-22.38-22.92C259.6,180.86,258.66,180.2,257.79,179.47Z"></path> <path class="cls-23" d="M301.73,158.74c-7.9-7.16-17.65-8-26.6-2.17-7.29,4.74-12,11.7-16.08,19.14-.17-.55-.57-1.16-.48-1.66,2-10.19,5.05-19.93,11.62-28.22,5.56-7,12.89-9.66,19.34-6.08a28.61,28.61,0,0,1,9.28,8.47c2.64,3.82,4,8.52,5.95,12.84Z"></path> <path class="cls-13" d="M295.35,204.53l1.74-7.19c3.37-4.25,4.82-4.5,8.72-1.52l2.15,4.92.39,7.2c-.6,1.41-.9,3.09-1.87,4.18-1.29,1.43-3.07,3.23-4.7,3.3-1.44.06-3.55-1.74-4.33-3.26C296.28,209.86,296,207.1,295.35,204.53Zm3.26-5.44,3.64,4.17c.82-1.39,2.28-2.78,2.27-4.17s-1.49-2.73-2.33-4.09Z"></path> <path class="cls-19" d="M308.35,207.94l-.39-7.2,3.76,3.8Z"></path> <path class="cls-24" d="M305.81,195.82c-3.9-3-5.35-2.73-8.72,1.52l4.65-22.69c1.56,6.75,3.13,13.5,4.64,20.26C306.44,195.16,306,195.52,305.81,195.82Z"></path> <path class="cls-24" d="M221.09,193.12c-6.51-4.41-13-4.54-19.52,0,1.83-5.91,3.6-11.83,5.52-17.71,1.39-4.29,3-8.51,4.5-12.76Q216.34,177.91,221.09,193.12Z"></path> <path class="cls-21" d="M157.89,317.7l.57-.69Z"></path> <path class="cls-25" d="M211.17,202.71a5.66,5.66,0,1,1,6-5.53A5.78,5.78,0,0,1,211.17,202.71Z"></path> <path class="cls-25" d="M298.61,199.09l3.58-4.09c.84,1.36,2.33,2.73,2.33,4.09s-1.45,2.78-2.27,4.17Z"></path> </svg> 