<?xml version="1.0" encoding="UTF-8"?> <!-- Generator: Adobe Illustrator 24.0.2, SVG Export Plug-In . SVG Version: 6.00 Build 0) --> <svg xmlns="http://www.w3.org/2000/svg" xmlns:xlink="http://www.w3.org/1999/xlink" id="Capa_1" x="0px" y="0px" viewBox="0 0 140 136" style="enable-background:new 0 0 140 136;" xml:space="preserve"> <style type="text/css"> .st0{fill:#00BFBF;} .st1{fill:#25858C;stroke:#25858C;stroke-width:2;stroke-miterlimit:10;} .st2{fill:#25858C;} .st3{fill:#2E5D87;} .st4{fill:#FFFFFF;} .st5{fill:none;stroke:#2E5D87;stroke-width:4.5;stroke-miterlimit:10;} .st6{fill:#2E5D87;stroke:#2E5D87;stroke-width:0.25;stroke-miterlimit:10;} .st7{fill:none;stroke:#25858C;stroke-width:4;stroke-linecap:round;stroke-miterlimit:10;} </style> <path class="st3" d="M98.72,90.22H82.28c-1.26,0-2.28,1.02-2.28,2.28v0c0,1.26,1.02,2.28,2.28,2.28h16.43 c1.26,0,2.28-1.02,2.28-2.28v0C101,91.24,99.98,90.22,98.72,90.22z"></path> <path class="st3" d="M88.22,84.28v16.43c0,1.26,1.02,2.28,2.28,2.28l0,0c1.26,0,2.28-1.02,2.28-2.28V84.28 c0-1.26-1.02-2.28-2.28-2.28l0,0C89.24,82,88.22,83.02,88.22,84.28z"></path> <path class="st3" d="M83.89,80.31c0.02-0.01,0.04-0.02,0.06-0.02c1.85-0.81,2.31-3.21,0.92-4.67c-1.76-1.84-3.81-3.47-6.17-4.88 c-2.87-1.71-3.93-2.54-0.84-5.26c4.18-3.67,5.82-8.77,6.03-13.22c0.1-10.31-6.05-18.57-14.97-21.22C60,28.39,50.41,31.95,45.4,39.78 c-5.14,8.03-4.46,18.51,2.36,25.27c3.09,3.06,2.44,3.93-0.82,5.91c-7.84,4.77-12.2,12.08-13.54,21.09c-0.17,1.18,0.68,3.42,1.5,3.65 c1.96,0.55,3.77,0.64,4.34-2.75c2.19-12.96,11.76-21.07,23.95-21c6.93,0.04,13.01,2.82,17.32,7.61 C81.37,80.51,82.72,80.83,83.89,80.31z M63.05,66.03c-8.33,0.03-15.17-6.88-15.07-15.21c0.1-8.13,6.82-14.78,14.96-14.81 c8.14-0.03,14.92,6.58,15.07,14.71C78.17,59.05,71.39,66,63.05,66.03z"></path> <circle class="st5" cx="90.5" cy="92.5" r="15"></circle> </svg> 