<?xml version="1.0" encoding="UTF-8"?> <svg xmlns="http://www.w3.org/2000/svg" viewBox="1950 2450 100 100" width="100" height="100"><path fill="#00bfbf" stroke="none" fill-opacity="1" stroke-width="1" stroke-opacity="1" color="rgb(51, 51, 51)" fill-rule="evenodd" id="tSvgd49bc1cd04" title="Path 8" d="M 1968.22 2520.702 C 1968.22 2525.734 1972.314 2529.829 1977.347 2529.829 C 1982.38 2529.829 1986.474 2525.734 1986.474 2520.702 C 1986.474 2515.67 1982.38 2511.575 1977.347 2511.575C 1972.314 2511.575 1968.22 2515.669 1968.22 2520.702Z M 1983.474 2520.702 C 1983.474 2524.08 1980.725 2526.829 1977.347 2526.829 C 1973.969 2526.829 1971.22 2524.08 1971.22 2520.702 C 1971.22 2517.324 1973.969 2514.575 1977.347 2514.575C 1980.725 2514.575 1983.474 2517.324 1983.474 2520.702Z M 2040.219 2486.618 C 2039.601004011836 2486.0662370574823 2038.6527184439187 2486.119964285205 2038.101 2486.738 C 2030.8386666666668 2494.8723333333332 2023.5763333333334 2503.0066666666667 2016.314 2511.141 C 2012.5753333333332 2507.4023333333334 2008.8366666666666 2503.663666666667 2005.098 2499.925 C 2004.2958159174498 2499.0944375212925 2002.8953406087626 2499.4437257150094 2002.5771444440468 2500.5537187483633 C 2002.424324074835 2501.086816139186 2002.5781049831849 2501.660734300893 2002.977 2502.046 C 2007.09 2506.1586666666667 2011.203 2510.271333333333 2015.316 2514.384 C 2015.598 2514.666 2015.979 2514.823 2016.377 2514.823 C 2016.391 2514.8226666666665 2016.405 2514.8223333333335 2016.419 2514.822 C 2016.83143701298 2514.810334667981 2017.2209138362182 2514.629519059804 2017.496 2514.322 C 2025.1106666666667 2505.793 2032.7253333333333 2497.264 2040.34 2488.735C 2040.8908351027032 2488.1168730422187 2040.8366775145564 2487.169339037542 2040.219 2486.618Z"></path><path fill="#00bfbf" stroke="none" fill-opacity="1" stroke-width="1" stroke-opacity="1" color="rgb(51, 51, 51)" fill-rule="evenodd" id="tSvge8e1321e41" title="Path 9" d="M 2016.894 2518.574 C 2016.0655728752538 2518.574 2015.394 2519.245572875254 2015.394 2520.074 C 2015.394 2525.049666666667 2015.394 2530.0253333333335 2015.394 2535.001 C 1997.6893333333333 2535.001 1979.9846666666667 2535.001 1962.28 2535.001 C 1962.28 2511.6676666666667 1962.28 2488.3343333333332 1962.28 2465.001 C 1979.9846666666667 2465.001 1997.6893333333333 2465.001 2015.394 2465.001 C 2015.394 2475.4766666666665 2015.394 2485.952333333333 2015.394 2496.428 C 2015.394 2497.5827005383794 2016.644 2498.3043883748664 2017.644 2497.7270381056765 C 2018.1081016151377 2497.4590889132455 2018.394 2496.963898384862 2018.394 2496.428 C 2018.394 2485.452333333333 2018.394 2474.4766666666665 2018.394 2463.501 C 2018.394 2462.672572875254 2017.7224271247462 2462.001 2016.894 2462.001 C 1998.1893333333333 2462.001 1979.4846666666667 2462.001 1960.78 2462.001 C 1959.9515728752538 2462.001 1959.28 2462.672572875254 1959.28 2463.501 C 1959.28 2487.8343333333332 1959.28 2512.1676666666667 1959.28 2536.501 C 1959.28 2537.329427124746 1959.9515728752538 2538.001 1960.78 2538.001 C 1979.4846666666667 2538.001 1998.1893333333333 2538.001 2016.894 2538.001 C 2017.7224271247462 2538.001 2018.394 2537.329427124746 2018.394 2536.501 C 2018.394 2531.0253333333335 2018.394 2525.549666666667 2018.394 2520.074C 2018.394 2519.245572875254 2017.7224271247462 2518.574 2016.894 2518.574Z"></path><path fill="#00bfbf" stroke="none" fill-opacity="1" stroke-width="1" stroke-opacity="1" color="rgb(51, 51, 51)" fill-rule="evenodd" id="tSvg7ae7118a7e" title="Path 10" d="M 1999.36 2482.226 C 2000.5147005383792 2482.226 2001.2363883748662 2480.976 2000.6590381056767 2479.976 C 2000.3910889132455 2479.5118983848624 1999.8958983848622 2479.226 1999.36 2479.226 C 1989.3146666666667 2479.226 1979.2693333333334 2479.226 1969.224 2479.226 C 1968.0692994616209 2479.226 1967.3476116251338 2480.476 1967.9249618943234 2481.476 C 1968.1929110867545 2481.940101615138 1968.6881016151378 2482.226 1969.224 2482.226C 1979.2693333333334 2482.226 1989.3146666666667 2482.226 1999.36 2482.226Z M 2001.229 2494.07 C 2001.229 2493.241572875254 2000.5574271247463 2492.57 1999.729 2492.57 C 1989.6863333333333 2492.57 1979.6436666666666 2492.57 1969.601 2492.57 C 1968.4462994616208 2492.57 1967.7246116251338 2493.82 1968.3019618943233 2494.82 C 1968.5699110867545 2495.284101615138 1969.0651016151378 2495.57 1969.601 2495.57 C 1979.6436666666666 2495.57 1989.6863333333333 2495.57 1999.729 2495.57C 2000.5574271247463 2495.57 2001.229 2494.8984271247464 2001.229 2494.07Z"></path><defs> </defs></svg> 