<?xml version="1.0" encoding="UTF-8"?> <svg xmlns="http://www.w3.org/2000/svg" id="Capa_1" data-name="Capa 1" viewBox="0 0 34.2 32.57"> <defs> <style>.cls-1{fill:#174669;}</style> </defs> <title>emojis</title> <path class="cls-1" d="M31.78,27.06a2.6,2.6,0,0,0,2.42-2.79V2.86A2.65,2.65,0,0,0,31.34,0H2.45A2.64,2.64,0,0,0,0,2.82V15.1a1.3,1.3,0,0,0,.12.55,1,1,0,0,0,1.06.56A1.1,1.1,0,0,0,2,15V3.48C2,2,2,2,3.45,2H31c1.14,0,1.18.14,1.18,1.22V24c0,1.09-.11,1.12-1.14,1.12H2.89c-.76,0-.89-.26-.89-.9,0-.2,0-.42,0-.64,0-.44,0-.89,0-1.19a.78.78,0,0,1,.16-.58.79.79,0,0,1,.59-.18H27.67a1,1,0,0,0,.35,0,1,1,0,0,0,.82-1.14,1,1,0,0,0-1.15-.82H.9A1.06,1.06,0,0,0,.21,20a1,1,0,0,0-.2.77V24.6a2.62,2.62,0,0,0,2.77,2.46h9.91l-.48,1.2c-.09.21-.19.42-.29.63-.32.7-.66,1.42-.94,2.15a1.55,1.55,0,0,0,0,1,1,1,0,0,0,1.25.39,1,1,0,0,0,.47-.54c.62-1.29,1.2-2.61,1.77-3.88l.19-.43a.7.7,0,0,1,.68-.5h3.52a.89.89,0,0,1,.65.42l.17.37c.33.69.64,1.33.94,2a4.48,4.48,0,0,1,.12.46l0,.15h-3.6a1,1,0,0,0-1,.75.83.83,0,0,0,.37,1,1.75,1.75,0,0,0,.83.22h4.76a1.23,1.23,0,0,0,1.09-.44,1.29,1.29,0,0,0,0-1.18l-1.36-3c-.05-.12-.1-.24-.14-.37s-.07-.18-.11-.29l-.06-.17h9.8A2.94,2.94,0,0,0,31.78,27.06Z"></path> <path class="cls-1" d="M22.11,13.38v0a3.67,3.67,0,0,0-.5-1.15,2.84,2.84,0,0,0-.18-.31,2.2,2.2,0,0,0-3-.57,2.31,2.31,0,0,1-1.28.38,2.39,2.39,0,0,1-1.28-.36A2.18,2.18,0,0,0,14.19,11a2.23,2.23,0,0,0-1.42.91c0,.07-.08.14-.1.17h0l0,0a3.9,3.9,0,0,0-.56,1.28c-.25,1.24-.45,2.54.26,3.4s2,.94,3.3.94h2.91c1.28,0,2.59-.08,3.3-.94S22.37,14.63,22.11,13.38ZM20.5,15.62c-.17.19-.82.29-1.94.29H15.64c-1.12,0-1.76-.1-1.92-.29a3.5,3.5,0,0,1,.13-1.87,2.67,2.67,0,0,1,.37-.8.32.32,0,0,1,.22-.18.52.52,0,0,1,.42,0,4.19,4.19,0,0,0,4.57-.05.39.39,0,0,1,.33,0c.08,0,.18.1.29.33a2.26,2.26,0,0,1,.3.65A3.85,3.85,0,0,1,20.5,15.62Z"></path> <path class="cls-1" d="M14.78,4.94A3,3,0,0,0,14,7.11v.16a3.1,3.1,0,0,0,1,2.15l0,0a3.19,3.19,0,0,0,2.18.79.7.7,0,0,0,.21,0h.08a3,3,0,0,0,2.06-1.07,2.91,2.91,0,0,0,.7-2.1,1.3,1.3,0,0,0,0-.28,3,3,0,0,0-1-2.07,2.94,2.94,0,0,0-2.08-.75h-.24A3,3,0,0,0,14.78,4.94Zm2.4.79h.07a1.21,1.21,0,0,1,1.19,1.13v.22a1.33,1.33,0,0,1-.29.91,1.24,1.24,0,0,1-.85.44H17a1.22,1.22,0,0,1-.84-.35,1.38,1.38,0,0,1-.44-1A1.3,1.3,0,0,1,17,5.74Z"></path> </svg> 