<?xml version="1.0" encoding="UTF-8"?> <!-- Generator: Adobe Illustrator 24.0.2, SVG Export Plug-In . SVG Version: 6.00 Build 0) --> <svg xmlns="http://www.w3.org/2000/svg" xmlns:xlink="http://www.w3.org/1999/xlink" x="0px" y="0px" viewBox="0 0 792 612" style="enable-background:new 0 0 792 612;" xml:space="preserve"> <style type="text/css"> .st0{display:none;} .st1{display:inline;fill:#E6E6F4;} .st2{display:inline;} .st3{opacity:0.5;fill:url(#SVGID_5_);} .st4{opacity:0.73;fill:#FFFFFF;} .st5{opacity:0.2;fill:url(#SVGID_6_);} .st6{opacity:0.4;fill:url(#SVGID_7_);} .st7{opacity:0.4;fill:url(#SVGID_8_);} .st8{fill:#1F5875;} .st9{fill:#1AE8DD;} .st10{fill:#134A60;} .st11{fill:#1AC1B5;} .st12{fill:#114260;} .st13{fill:#00BFBF;} .st14{fill:#0A3449;} .st15{fill:#049B97;} .st16{fill:#D7E4F6;} .st17{opacity:0.4;fill:url(#SVGID_9_);} .st18{opacity:0.5;fill:url(#SVGID_10_);} .st19{opacity:0.4;fill:url(#SVGID_11_);} .st20{opacity:0.4;fill:url(#SVGID_12_);} .st21{opacity:0.4;fill:url(#SVGID_13_);} .st22{fill:#F1B2B7;} .st23{fill:#F36980;} .st24{opacity:0.8;fill:#114260;} .st25{fill:#FFFFFF;} .st26{fill:#97BDE4;} .st27{fill:#BAD8F0;} .st28{fill:#E1656F;} .st29{fill:#FCB952;} .st30{opacity:0.58;} .st31{opacity:0.7;} .st32{fill:#FFFFFF;stroke:#00BFBF;stroke-width:1.5;stroke-miterlimit:10;} .st33{fill:#8DE2DE;stroke:#FFFFFF;stroke-width:2;stroke-miterlimit:10;} .st34{fill:#F25664;} .st35{fill:#29367C;} .st36{fill:#F05769;} .st37{fill:#FBB782;} .st38{fill:#F99C60;} .st39{fill:#02253A;} .st40{fill:#F69331;} .st41{fill:#4F5BA6;} .st42{fill:#F26A7F;} .st43{fill:url(#SVGID_14_);} .st44{fill:#F9AB46;} .st45{fill:#FEFDFE;} .st46{fill:url(#SVGID_15_);} .st47{fill:url(#SVGID_16_);} .st48{fill:url(#SVGID_17_);} .st49{opacity:0.38;fill:url(#SVGID_18_);} .st50{fill:#FFFFFF;stroke:#1F5875;stroke-miterlimit:10;} .st51{fill:none;stroke:#1F5875;stroke-width:2;stroke-linecap:round;stroke-miterlimit:10;} .st52{opacity:0.26;fill:url(#SVGID_19_);} .st53{fill:#FFFFFF;stroke:#114260;stroke-miterlimit:10;} .st54{fill:none;stroke:#114260;stroke-linecap:round;stroke-miterlimit:10;} .st55{opacity:0.38;fill:url(#SVGID_20_);} .st56{fill:#FFFFFF;stroke:#114260;stroke-linecap:round;stroke-miterlimit:10;} .st57{opacity:0.38;fill:url(#SVGID_21_);} .st58{opacity:0.82;fill:#25AFAB;} .st59{fill:#B5EAE6;stroke:#1F5875;stroke-miterlimit:10;} .st60{opacity:0.38;fill:#02253A;} .st61{opacity:0.42;fill:#DF6671;} .st62{fill:#F3994B;} .st63{opacity:0.57;fill:#EA751F;} .st64{opacity:0.58;fill:#E1656F;} .st65{fill:#C6C6C6;} .st66{fill:#D34654;} .st67{fill:url(#SVGID_22_);} .st68{opacity:0.38;fill:url(#SVGID_23_);} .st69{fill:none;stroke:#114260;stroke-miterlimit:10;} .st70{opacity:0.4;fill:url(#SVGID_24_);} .st71{fill:#FFCFCF;} .st72{fill:#FAB782;} .st73{fill:#F79A5D;} .st74{fill:#F15763;} .st75{fill:#F69431;} .st76{fill:#F16A7F;} .st77{fill:#F1576F;} .st78{fill:url(#SVGID_25_);} .st79{fill:#E59E91;} .st80{fill:#FCAF9B;} .st81{fill:none;stroke:#FCAF9B;stroke-linecap:round;stroke-miterlimit:10;} .st82{fill:none;stroke:#E59989;stroke-linecap:round;stroke-miterlimit:10;} .st83{opacity:0.5;fill:url(#SVGID_26_);} .st84{fill:#A7B2B7;} .st85{opacity:0.43;fill:#E59E91;} .st86{fill:#EF435B;} .st87{fill:#F78C47;} .st88{fill:url(#SVGID_27_);} .st89{fill:#F58B45;} .st90{fill:#F99B5D;} .st91{opacity:0.67;fill:url(#SVGID_28_);} .st92{opacity:0.67;fill:url(#SVGID_29_);} .st93{fill:#FFC257;} .st94{fill:#FFB433;} .st95{fill:#F0B1B7;} .st96{fill:none;stroke:#114260;stroke-width:2;stroke-linecap:round;stroke-miterlimit:10;} .st97{opacity:0.76;fill:#1F5875;} .st98{fill:none;stroke:#D7434E;stroke-width:3;stroke-linecap:round;stroke-miterlimit:10;} .st99{fill:#EEE8F6;} .st100{fill:#D7434E;} .st101{fill:none;stroke:#F3994B;stroke-width:2;stroke-miterlimit:10;} .st102{fill:none;stroke:#F3994B;stroke-miterlimit:10;} .st103{fill:#227799;} .st104{fill:#D83D49;} .st105{fill:#F2C7CC;} .st106{fill:#DA3D49;} .st107{fill:#34398B;} .st108{fill:#20419A;} .st109{fill:#E2646F;} .st110{fill:none;stroke:#1F5875;stroke-linecap:round;stroke-miterlimit:10;} .st111{fill:#D93D4A;} .st112{fill:none;stroke:#D66471;stroke-miterlimit:10;} .st113{fill:#083A59;} .st114{fill:#F2F2F2;} .st115{opacity:0.5;fill:#1F5875;} .st116{fill:#A1DCE2;} .st117{fill:#001C30;} .st118{fill:#F57C2C;} .st119{fill:#FAAE4C;} .st120{opacity:0.4;fill:url(#SVGID_30_);} .st121{opacity:0.4;fill:url(#SVGID_31_);} .st122{opacity:0.4;fill:url(#SVGID_32_);} .st123{opacity:0.4;fill:url(#SVGID_33_);} .st124{opacity:0.61;fill:#1F5875;} .st125{opacity:0.29;fill:none;stroke:#114260;stroke-width:3;stroke-linecap:round;stroke-miterlimit:10;} .st126{opacity:0.09;} .st127{opacity:0.11;} .st128{opacity:0.2;} .st129{opacity:0.4;fill:url(#SVGID_34_);} .st130{opacity:0.5;fill:url(#SVGID_35_);} .st131{fill:#B03377;} .st132{opacity:0.15;fill:#00BFBF;} .st133{opacity:0.5;fill:url(#SVGID_36_);} .st134{fill:#FFACAB;} .st135{fill:#FFCE6E;} .st136{fill:#0B4860;} .st137{opacity:0.52;fill:#0B4156;} .st138{fill:#FFAFAE;} .st139{fill:#FFE6E4;} .st140{fill:#FEAEAD;} .st141{fill:#EEE7F5;} .st142{fill:#FBCECD;} .st143{fill:#0B2E4E;} .st144{fill:#FFCFCE;} .st145{fill:#0C3647;} .st146{fill:#0C3A60;} .st147{fill:#F3CFD1;} .st148{fill:#FFBA1D;} .st149{fill:#FFD06C;} .st150{opacity:0.45;fill:#FFFFFF;} .st151{opacity:0.32;fill:#FFFFFF;} .st152{fill:#0B2E4D;} .st153{fill:#FECFCE;} .st154{fill:#041D38;} .st155{fill:#FECED0;} .st156{fill:#FFB4B1;} .st157{fill:#0C2F4F;} .st158{fill:#FFCECF;} .st159{fill:#FCD0D0;} .st160{fill:none;stroke:#FEAEAD;stroke-miterlimit:10;} .st161{fill:#FEAEAE;} .st162{fill:#F4BDBD;} .st163{fill:#FFCED1;} .st164{fill:#0E3B62;} .st165{fill:#FFD1D1;} .st166{fill:#FFBA20;} .st167{fill:none;stroke:#FED77F;stroke-miterlimit:10;} .st168{fill:#FFD06D;} .st169{fill:#FFC749;} .st170{fill:none;stroke:#FED77F;stroke-width:3;stroke-miterlimit:10;} .st171{opacity:0.25;fill:#FFFFFF;} .st172{fill:#0B2B3F;} .st173{fill:#9DEAE6;} .st174{fill:#74D1CA;} .st175{fill:#FDD2D1;} .st176{fill:none;stroke:#805EF1;stroke-miterlimit:10;} .st177{fill:#805EF1;stroke:#FEAFB0;stroke-width:0.75;stroke-miterlimit:10;} .st178{fill:#805EF1;} .st179{fill:#082139;} .st180{fill:#FECDCE;} .st181{fill:#0B2E4F;} .st182{fill:#67DBD5;} .st183{fill:#103E5B;} .st184{opacity:0.21;fill:#C7EFEA;} .st185{fill:#07334F;stroke:#FFFFFF;stroke-width:3;stroke-miterlimit:10;} .st186{opacity:0.38;fill:#00BFBF;} .st187{opacity:0.58;fill:#00BFBF;} .st188{opacity:0.84;fill:#00BFBF;} .st189{opacity:0.61;fill:#D6D6D6;} .st190{fill:#D6D6D6;} .st191{fill:#2079B5;} .st192{opacity:0.49;} .st193{fill:#FFFFFF;stroke:#54E5E2;stroke-miterlimit:10;} .st194{fill:none;stroke:#54E5E2;stroke-miterlimit:10;} .st195{fill:#FFFFFF;stroke:#00BFBF;stroke-miterlimit:10;} .st196{fill:none;stroke:#00BFBF;stroke-miterlimit:10;} .st197{fill:#8DE2DE;} .st198{fill:#59D1CE;} .st199{fill:#FCCF47;} .st200{fill:#F9981F;} .st201{opacity:0.51;fill:#FFFFFF;} .st202{fill:#C9F7F6;} .st203{fill:#8CE0DA;} .st204{fill:#02507E;} .st205{fill:#2486C7;} .st206{opacity:0.59;fill:#114260;} .st207{fill:none;stroke:#114260;stroke-width:2;stroke-miterlimit:10;} .st208{fill:#E33D85;} .st209{fill:#E33E86;} .st210{fill:#FDFDFD;} .st211{fill:#E43D85;} .st212{fill:none;stroke:#001C30;stroke-miterlimit:10;} .st213{fill:none;stroke:#1882C6;stroke-miterlimit:10;} .st214{fill:#F89635;} .st215{fill:#1E203F;} .st216{fill:#F5B3B0;} .st217{fill:#DCF7F4;} .st218{fill:#ACEFE8;} .st219{fill:#F6BDBC;} .st220{fill:#1D3D6C;} .st221{fill:#055C90;} .st222{fill:#77B9E4;} .st223{fill:#A4D2F1;} .st224{fill:#FBC6C8;} .st225{fill:#2768AE;} .st226{fill:#FBC6C8;stroke:#FFFFFF;stroke-width:0.75;stroke-miterlimit:10;} .st227{fill:#F17C24;} .st228{opacity:0.4;fill:url(#SVGID_37_);} .st229{fill:#1C77B2;} .st230{fill:#F5BCBD;} .st231{fill:#F9AD9D;} .st232{fill:#E33D83;} .st233{fill:#FCFBF9;} .st234{fill:#144C68;stroke:#114260;stroke-miterlimit:10;} .st235{fill:#1F5875;stroke:#114260;stroke-miterlimit:10;} .st236{fill:#1D3D70;} .st237{fill:#F9C4C8;} .st238{fill:#F79823;} .st239{fill:#F07D24;} .st240{fill:#E89CA7;} .st241{fill:#FEE7A1;} .st242{fill:#FFE078;} .st243{fill:#FDE3A9;} .st244{fill:#FFD269;} .st245{fill:#FFD284;} .st246{fill:#FFBF53;} .st247{fill:#FC9852;} .st248{fill:#FEB22E;} .st249{fill:#FFEA9F;} .st250{fill:#FEE791;} .st251{fill:#FFBA1E;} .st252{fill:#FDD06E;} .st253{fill:#FFD070;} .st254{opacity:0.56;fill:#FFFFFF;} .st255{fill:#CECECE;} .st256{fill:#FFC158;} .st257{fill:#FFD591;} .st258{fill:#FFDF78;} .st259{fill:#FFE585;} .st260{fill:#FFE8A2;} .st261{fill:#FEC96D;} .st262{fill:#FEC155;} .st263{fill:#FFE790;} .st264{fill:#FED266;} .st265{fill:#FFE6AE;} </style> <g id="Layer_8" class="st0"> </g> <g id="Layer_1"> </g> <g id="Layer_3"> </g> <g id="Layer_4"> </g> <g id="Layer_5"> <g id="Layer_6"> </g> </g> <g id="Layer_2"> </g> <g id="Layer_7"> <g id="Layer_10"> </g> </g> <g id="Layer_9"> <g class="st126"> <path class="st13" d="M496.68,165.18c0.23,0.45,0.64,0.79,1.13,0.92c2.96,0.83,13.69,3.82,16.97,4.72 c3.82,1.06,10.57,1.21,11.32,1.21c0.61,0,2.14-2.56,2.7-3.53c0.14-0.24,0.22-0.51,0.24-0.79c0.16-2.64,0.64-16.91-6.73-22.15 c-7.16-5.09-22.38,12.27-25.96,16.54c-0.47,0.56-0.55,1.34-0.22,1.99L496.68,165.18z"></path> <path class="st13" d="M516.72,89.83c0.89,0.86,2.36,0.6,2.9-0.52c1.49-3.08,4.04-8.43,4.52-10.03c0.69-2.29,3.21-9.29,2.06-12.04 c-1.15-2.75-5.16-4.93-7.68-4.82s-4.93,1.38-5.85,2.52c-0.92,1.15-2.64,3.32-2.64,5.16v12.52c0,0.5,0.2,0.97,0.56,1.31 L516.72,89.83z"></path> <path class="st13" d="M473.22,216.52c0.31-0.14,0.65-0.19,0.99-0.15c4.55,0.61,37.96,5.05,42.09,5.05 c3.79,0,11.78-3.02,14.01-3.89c0.39-0.15,0.7-0.43,0.91-0.79c1.27-2.23,5.83-10.61,4.72-14.15c-1.29-4.1-22.86-11.9-34.01-7.92 c-8.2,2.92-20.44,11.46-26.36,15.78c-1.29,0.95-3.08-0.13-2.87-1.72l0.42-3.16c0.18-1.31-1.06-2.36-2.33-1.99l0,0 c-0.68,0.2-1.18,0.79-1.28,1.5l-1.2,8.69c-0.06,0.45,0.05,0.91,0.31,1.29l1.02,1.46c0.5,0.72,1.45,0.98,2.25,0.62L473.22,216.52z"></path> <path class="st13" d="M497.91,257.26c0.3,0.53,0.83,0.87,1.43,0.92c3.39,0.28,14.87,1.01,16.43-1.92c1.83-3.44,4.66-11.92,0-15.59 s-12.23-12.6-22.78-11.5c-10.55,1.1-6.8,5.83-6.8,5.83S495.56,253.04,497.91,257.26z"></path> </g> <g class="st127"> <path class="st13" d="M304.89,196.86l-2.75-6.94l-1.99-7.95c0,0-19.97,11.96-42.62,9.95l-3.1-2.51c0,0,3.22-4.08,3.68-4.54 c0.46-0.46,4.31-7.95,4.31-7.95h2.72c0,0,23.54-2.45,31.64,0.61l-2.66-18.25c0,0-30.82,10.05-34.8,11.02 c-3.97,0.96-12.69-11.02-12.69-11.02s17.12-19.36,27.97-18.75s26.98,33.46,26.98,33.46s3.67,21.11,8.6,26.16s-5.16,3.21-5.16,3.21 L304.89,196.86z"></path> <path class="st13" d="M306.88,130.38c0,0,8.25,0.15,10.24-1.07v-10.78c0,0,0.61-5.5,3.13-8.71c0,0-9.17-5.27-15.82-2.22 c-6.65,3.06-9.32,8.04-9.32,8.04L306.88,130.38z"></path> <path class="st13" d="M293.35,115.65V97.66c0,0,23.31-8.86,26.14-15.85c2.83-6.99-8.64-4.62-10.55-3.63s-14.81,12.31-14.81,12.31 V56.47c0,0-2.85-5.73-7.43-4.28c-4.59,1.45-6.27,4.59-6.42,5.96c-0.15,1.38-1.22,9.02,10.62,17.58v14.68c0,0-28.05-6.27-36-1.61 c-7.95,4.66-2.75,10.17-2.75,10.17s2.9,1.76,5.12,2.14c2.22,0.38,29.96,0.23,33.63-1.53v9.71c0,0-12.69-4.97-21.1-0.08 c-8.41,4.89-7.87,7.18-7.87,7.18l14.37,2.13L293.35,115.65z"></path> </g> <g class="st128"> <path class="st13" d="M304.81,401.41c0,0,10.71-7.11,13.08-10.55c2.37-3.44,2.14-4.55,2.14-4.55h-0.92c0,0-9.76,1.24-13.56,4.04 l-0.66,10.67"></path> <path class="st13" d="M261.88,386.05l-29.75,2.08c0,0-3.38-0.55-4.44-6.06c-1.06-5.5,5.66-17.89,14.22-22.17s15.9,3.97,15.9,3.97 l8.75,11.77l-1.87,9.38L261.88,386.05z"></path> <path class="st13" d="M238.98,302.77c0,0-19.28,10.37-20.48,10.52s-3.95,1.38-4.56,0s-3.62-8.71-1.35-14.68 c2.27-5.96,9.63-16.97,15.28-18.58c5.64-1.6,23.52-21.21,23.52-21.21s12.85-3.15,18.35,2.27s7.3,8.78,7.3,8.78s0.72,1.92,0,2.03 c-0.72,0.11-27.32,9.72-29,11.49c-1.68,1.77-1.68,1.77-1.68,1.77l10.7,23.71l5.04,11.33l0.61-9.06c0,0,8.45-20.42,15.76-23.43 c7.32-3.01,22.3-1.94,22.3-1.94l1.99,12.23l-1.57,3.27l-4.83,4.39l-17.89,10.36l-17.86,9.83L238.98,302.77z"></path> <path class="st13" d="M212.58,235.4l-4-10.17l-0.92-5.81c0,0,1.07-3.02,1.38-3.19c0.31-0.17,5.41-2.92,5.41-2.92 s3.96,1.93,4.7,2.72c0.74,0.79,3,14.09,2.63,15.32c-0.36,1.22-1.85,8.04-1.85,8.04L212.58,235.4z"></path> <path class="st13" d="M227.86,251.23c0,0,18.79-21.26,28.27-23.93c9.48-2.68,7.34,9.71,7.34,9.71s-16.05,17.1-20.56,19.25 C238.39,258.41,227.86,251.23,227.86,251.23z"></path> <path class="st13" d="M260.21,409.82l-15.86,1.3c0,0-2.75,0.91-5.35-1.3c-2.6-2.21-8.71-5.58-8.87-6.49 c-0.15-0.92,0.76-4.07,0.76-4.07s6.27-1.89,8.87-1.89s9.78,3.21,9.78,3.21s4.28,1.3,5.96,1.64c1.68,0.34,5.78,1.38,5.78,1.38 L260.21,409.82z"></path> <path class="st13" d="M208.13,342.94c0,0,0.61,11.92,10.7,14.75c10.09,2.83,41.77-14.75,41.77-14.75l-7.74-9l-12.32-4.45 c0,0-11.68-0.46-16.08,3.52C220.05,336.98,208.13,342.94,208.13,342.94z"></path> </g> <linearGradient id="SVGID_2_" gradientUnits="userSpaceOnUse" x1="547.7855" y1="169.7403" x2="547.7855" y2="113.6522"> <stop offset="0" style="stop-color:#FFFFFF"></stop> <stop offset="1" style="stop-color:#00BFBF"></stop> </linearGradient> <path style="opacity:0.4;fill:url(#SVGID_2_);" d="M451.27,169.74l192.08-1.47c0,0,5.89-11.98-11.6-10.29 c0,0-5.71-26.56-23.03-22.33c0,0-8.83,1.35-12.12,9.81c0,0-6.58-31.64-32.73-31.81c0,0-20.78-0.68-22.68,26.9 c0,0-9-9.47-17.49-4.74c0,0-7.96,4.4-9.18,14.89c0,0-4.5-9.14-18.87-7.44c0,0-12.99,3.55-8.66,13.7 C487,156.97,459.18,155.28,451.27,169.74z"></path> <linearGradient id="SVGID_4_" gradientUnits="userSpaceOnUse" x1="227.6871" y1="463.2484" x2="628.2158" y2="463.2484"> <stop offset="0" style="stop-color:#1F5875;stop-opacity:0.5"></stop> <stop offset="0.9995" style="stop-color:#094A6B;stop-opacity:0.8"></stop> </linearGradient> <ellipse style="opacity:0.5;fill:url(#SVGID_4_);" cx="427.95" cy="463.25" rx="200.26" ry="39.16"></ellipse> <path class="st131" d="M354.74,439.83c0,0,3.28-39.42,42.53-40.79l7.36,5.43C404.62,404.47,366,401.41,354.74,439.83z"></path> <path class="st132" d="M581.16,438.03v-16.97c0,0,18.53,0.23,20.94,0c2.41-0.23,5.39-1.41,7.45-1.62c2.06-0.21,2.75-0.67,5.27-1.81 c2.52-1.15,5.5-3.21,5.5-3.21s2.06-2.06,2.75-2.75c0.69-0.69,1.15-3.44,1.15-3.44l-7.49-1.22h-5.5c0,0-2.75,0.61-4.89,1.38 c-2.14,0.76-5.81,1.53-7.03,1.99c-1.22,0.46-10.02,3.52-11.28,3.97s-4.31,1.22-4.31,1.22s-1.45,0.31-2.56-1.07 s-1.57-0.76-1.57-3.06s0.76-2.45,0-4.43c-0.76-1.99-1.07-9.48-1.07-9.48h39.59c0,0,7.34,0,8.71-4.13 c1.38-4.13-5.66-18.27-15.75-20.37c-10.09-2.1-14.6-0.92-18.04,2.29c-3.44,3.21-9.86,9.17-13.99,18.34c0,0-1.13-9.31,0.64-25.18 c1.77-15.87,13.23-47.74,20.69-54.62c0,0,30.73,13.46,34.97,12.75c4.24-0.71,5.85-23.97-9.75-29.2s-21.67,5.85-21.67,5.85 l13.87-23.8c0,0,24.08,3.78,30.84,0.69c6.76-3.1-4.93-8.87-4.93-8.87s-16.05-3.4-23.16,1.88c0,0,10.32-16.17,10.43-16.74 c0.11-0.57,4.24-6.54,4.7-7.91s2.64-5.5,2.52-6.99c-0.11-1.49,0.69-10.09-9.86-8.25c-10.55,1.83-2.52,23.16-2.52,23.16l-7.45,14.86 c0,0-20.75-23.35-36.46-21.86c0,0-4.36,1.72-4.7,4.93c-0.34,3.21,7.34,14.56,35.66,25.57l-4.13,10.16c0,0-9.84-14.07-24.07-13.32 c-14.23,0.75-16.92,8.66-16.92,8.66l1.49,6.54l11.6,5.25c0,0,13.68-0.87,18.15,4.11c0,0-11.79,23.9-14.32,30.2 c0,0-15.61-28.51-36.26-27.8c0,0-11.17,9.75-9.8,14.79s10.74,9.92,10.74,9.92s21.82,7.87,34.51,7.91l-7.16,23.05 c0,0-18.52-24.56-35.95-23.86c-17.43,0.7-4.43,18-4.43,18l6.07-1.43c0,0,21.43,7.55,27.47,8.07c6.04,0.52,7.95,3.76,7.95,3.76 s-5.42,15.11-4.35,25.72c0,0-13.3-9.13-20.03-7.89c-6.73,1.24-1.46,5.58-1.46,5.58s16.74,6.82,22.25,8.5c0,0,0.64,13.3,1.93,18.65 c0,0-47.45-13.61-50.83-12.08c-3.38,1.53,4.73,13.76,4.73,13.76l9.69,0.46c0,0,19.49,7.8,36.85,4.43v16.97H581.16z"></path> <circle class="st182" cx="483.51" cy="118.5" r="47.39"></circle> <path class="st13" d="M449.57,85.53c0,0-5.08,33.52,24.5,49.8c0,0,31.76,15.59,56.06-8.71c0,0-4.01,29.89-35.2,37.64l-27.4-6.23 l-1.95-24.23l-18-24.61l0.92-6.54l-10.09-0.11C438.42,102.54,443.19,89.74,449.57,85.53z"></path> <path class="st183" d="M461.12,81.22l11.69-9.17c0,0,11.81-1.61,21.32,0v2.64l9.06,6.96c1.4,1.07,2.06,2.85,1.69,4.58l-0.03,0.16 l0.63,3.44v10.66l-1.38,2.52c0,0-3.1-0.8-3.44,0c-0.34,0.8-2.87,3.21-2.87,3.21l-0.69,2.64l-0.8,1.26v2.41l-0.8,1.72l-2.29,1.26 l-0.92,1.38c0,0-0.23,2.87,2.87,3.1s4.24-2.29,4.24-2.29l0.11-3.27l3.27-3.15c0,0,1.32-0.34,1.66-0.17 c0.34,0.17,2.24,1.15,2.24,1.15s1.43,0.63,1.66,0.69c0.23,0.06,0.92-0.23,0.92-0.23s0-0.46,0-0.75c0-0.29-0.06-0.92-0.63-1.15 s-1.78-0.46-1.78-0.46l-0.8-0.46l0.17-0.69l0.97-0.11l1.55,0.4c0,0,1.03,0.97,1.09,1.15c0.06,0.17,0.8,1.26,0.92,1.49 c0.11,0.23,0.69,0.75,0.69,0.75l0.86,0.23c0,0,0.23-0.06,0.4-0.17c0.17-0.11,0.46,0.17,0.52-0.46c0.06-0.63,0.23-0.92,0-1.32 s-0.52-0.75-0.52-0.92s-0.23-0.8,0-0.92c0.23-0.11,0.58,0.06,0.63-0.52s0,0,0-1.03c0-1.03,0.28-0.86,0.03-1.32 c-0.26-0.46-0.31-0.63-0.26-0.97c0.06-0.34,0.29-0.8,0.63-1.2s0.8-0.75,0.97-0.86c0.17-0.11,1.15-0.75,1.66-0.57 s1.95,0.69,2.06,0.86c0.11,0.17,0.34,0.69,0,1.15c-0.34,0.46-1.03,0.97-1.43,1.43c-0.4,0.46-0.52,0.4-0.97,1.2 c-0.46,0.8-0.8,1.38-0.86,1.78c-0.06,0.4-0.17,1.61-0.06,1.78c0.11,0.17-0.34-0.29,0.11,0.17c0.46,0.46,0.86,0.46,1.09,0.46 c0.23,0,0.75,0.11,0.97-0.4s0.34-1.03,0.52-1.15c0.17-0.11,0.11-0.34,0.52-0.23c0.4,0.11,1.49,0.23,1.49,0.4s0.11,1.2,0.23,1.66 c0.11,0.46,0.4,0.8,0,1.43c-0.4,0.63-0.8,1.09-1.43,1.78c-0.63,0.69-1.83,1.95-2.69,2.18c-0.86,0.23-1.89,0.29-1.89,0.29 s-0.8,0.97-0.97,1.32c-0.17,0.34-0.69,1.26-1.2,1.32c-0.52,0.06-0.75,0.11-1.38,0c-0.63-0.11-1.26,0-1.95-0.63 c-0.69-0.63-0.46-0.29-1.09-1.09c-0.63-0.8-0.75-1.03-1.09-1.26c-0.34-0.23-0.63-0.57-1.09-0.52c-0.46,0.06-0.97,0.11-1.15,0.29 c-0.17,0.17-0.97,0.57-1.49,0.92s-0.75,0.46-1.26,0.86c-0.52,0.4-1.15,0.46-1.72,0.97s-0.63,0.57-1.55,1.03 c-0.92,0.46-1.26,0.63-2.06,0.8s-2.24,0.34-2.24,0.34l-0.23,3.9c0,0-4.01,2.64-4.24,2.81c-0.23,0.17-1.03,0.57-1.26,1.09 c-0.23,0.52-0.46,0.8-0.57,1.32c-0.11,0.52-0.48,7.45,3.2,10.03s5.92,1.89,6.09,1.89c0.1,0,4.42-1.06,7.79-1.89 c2.01-0.5,3.96,1.04,3.95,3.11l0,0c0,0,0.61,1.76,0.99,1.99c0.38,0.23,1.45,1.07,1.45,1.07s0.23,1.15,0.23,1.91 s-0.54,1.91-0.61,2.29c-0.08,0.38-0.92,1.15-1.22,1.61c-0.31,0.46-1.15,1.76-1.15,1.76v0.69c0,0,0.31,0.92,0.84,0.99s1.07,0,1.07,0 l0.76,0.03v0.58c0,0-9.48,6.73-18.27,7.11l-16.28-4.43l-1.8-6.96l-0.11-2.52l-1.26-1.38l-2.52-1.15l-0.74-0.44 c-1.46-0.87-2.36-2.43-2.36-4.13l-0.1-27.53c0,0-2.18-7.22-5.5-8.25l4.93,0.52l-0.06-3.04c0,0-3.15-5.68-6.31-6.94l-4.64,0.97 c0,0-1.38-4.3,2.01-7.97l1.03-0.8l0.86-0.11c0,0,3.37,4,4.3,8.03l0.97,0.57c0,0,1.38-0.86,1.61-0.92c0.23-0.06,0.8-0.23,1.2-0.75 c0.4-0.52,0.92-0.75,1.03-1.43s0.34-1.32,0.23-1.78c-0.11-0.46-0.23-1.15-0.63-1.61c-0.4-0.46-1.03-1.09-0.8-1.49 c0.23-0.4,0.8-0.97,0.97-1.15c0.17-0.17,0.8-0.97,1.2-1.15s1.72-0.92,1.95-0.92c0.23,0,1.43-0.23,1.89-0.11 c0.46,0.11,2.12,0.11,2.12,0.11l-2.29,1.55l-0.4,1.55c0,0,0.23,0.23,0.52,0.34s1.95,0.46,2.06,0.97s0.23,1.32,0.06,1.78 c-0.17,0.46-0.52,1.26-0.92,1.72c-0.4,0.46-0.86,1.15-1.09,1.78c-0.23,0.63-0.63,1.55-0.63,2.06s0,1.61,0.17,2.01 c0.17,0.4,0,0.69,0.57,0.86c0.57,0.17,1.95,0.46,2.29,0.17c0.34-0.29,0.23,0.11,0.97-0.69c0.75-0.8,1.43-1.49,1.55-1.89 c0.11-0.4,0.34-1.03,0.34-1.03l5.62-0.29l0.63-4.64c0,0,3.04-4.13,3.04-4.36c0-0.23,0.57-1.49,0.06-1.43 c-0.52,0.06-2.52,1.09-2.52,1.09s-0.17,0.4-0.52-0.06c-0.34-0.46-1.15-1.2-1.15-1.2l-0.75-0.69c0,0,0-0.46-0.8-0.4 c-0.8,0.06-1.38,0.11-2.35,0.23c-0.97,0.11-1.78,0.11-2.12,0.11c-0.34,0-1.78-0.29-1.78-0.29s-2.06-2.81-2.35-2.92 c-0.29-0.11-0.92-0.57-1.2-0.97s-1.03-1.03-1.26-1.03s-1.95-0.11-1.95-0.11s-0.8,0-0.97,0.23c-0.17,0.23-1.09,0.69-1.15,0.86 s-0.52,0.52-0.57,0.92c-0.06,0.4-0.29,1.26-0.29,1.26v1.03c0,0-0.06,0.29,0.11,0.46c0.17,0.17,0.34,0.46,0.34,0.63 s0.11,0.4,0.06,0.63c-0.06,0.23-0.69,0.8-1.32,0.75c-0.63-0.06-1.55-0.23-2.01-0.4s-1.32-0.52-1.32-0.8c0-0.29,0.57-1.15,0.75-1.15 s1.32-0.29,1.26-0.46c-0.06-0.17-0.06-0.69-0.29-0.86s-0.46-0.46-0.75-0.69s-0.75-0.69-1.09-0.69c-0.34,0-1.03,0.17-1.2-0.17 s-0.75-1.03-0.75-1.03L461.12,81.22z"></path> <path class="st184" d="M471.55,72.56c0,0-3.32,23.37,17.62,32.85s38.01-5.35,38.01-5.35S514.24,64.13,471.55,72.56z"></path> <path class="st185" d="M452.64,105.08c6.6,0,12,4.37,12,10.97v237.22c0,15.84-12.96,28.81-28.81,28.81H332.18 c-6.6,0-15.67-6.24-15.67-12.84l4.09-250.44c0.05-3.2,0.95-6.36,2.77-8.98c2.24-3.21,6.21-6.42,13.17-6.42 C350.45,103.4,452.64,105.08,452.64,105.08z"></path> <path class="st25" d="M345.17,112.42l94.47,1.38c0,0,8.03,0.17,12.59,8.33c1.27,2.28,1.85,4.89,1.82,7.5l-3.15,232.52 c-0.02,1.73-0.31,3.44-0.92,5.06c-0.67,1.78-1.83,3.94-3.83,5.84c-2.82,2.68-6.66,4-10.54,3.94l-89.75-1.18 c-6.92-0.09-12.95-4.76-14.77-11.43l-3.23-11.83c-0.38-1.4-0.57-2.85-0.55-4.3l3.09-219.58c0.01-1,0.12-1.99,0.33-2.96 C331.6,121.72,334.72,112.69,345.17,112.42z"></path> <path class="st186" d="M428.29,161.61h-32.73c-8.29,0-15.08-6.78-15.08-15.08v0c0-8.29,6.78-15.08,15.08-15.08h35.66 c8.29,0,15.08,6.78,15.08,15.08v0c0,5.54-3.03,10.41-7.51,13.03l1.43,9.62L428.29,161.61z"></path> <path class="st187" d="M428.29,254.55h-32.73c-8.29,0-15.08-6.78-15.08-15.08v0c0-8.29,6.78-15.08,15.08-15.08h35.66 c8.29,0,15.08,6.78,15.08,15.08v0c0,5.54-3.03,10.41-7.51,13.03l1.43,9.62L428.29,254.55z"></path> <path class="st188" d="M428.29,356.36h-53.9c-8.29,0-15.08-6.78-15.08-15.08v0c0-8.29,6.78-15.08,15.08-15.08h56.82 c8.29,0,15.08,6.78,15.08,15.08v0c0,5.54-3.03,10.41-7.51,13.03l1.43,9.62L428.29,356.36z"></path> <path class="st189" d="M355.38,204.71h49.46c8.29,0,15.08-6.78,15.08-15.08v0c0-8.29-6.78-15.08-15.08-15.08h-52.38 c-8.29,0-15.08,6.78-15.08,15.08v0c0,5.54,3.03,10.41,7.51,13.03l-1.43,9.62L355.38,204.71z"></path> <path class="st190" d="M355.38,297.96h49.46c8.29,0,15.08-6.78,15.08-15.08v0c0-8.29-6.78-15.08-15.08-15.08h-52.38 c-8.29,0-15.08,6.78-15.08,15.08v0c0,5.54,3.03,10.41,7.51,13.03l-1.43,9.62L355.38,297.96z"></path> <rect x="355.11" y="117.31" class="st191" width="5.2" height="13.07"></rect> <rect x="347.16" y="121.36" class="st191" width="5.2" height="9.02"></rect> <rect x="339.21" y="125.18" class="st191" width="5.2" height="5.2"></rect> <path class="st71" d="M419.91,199.1c0,0,17.9,1.15,37.39,7.57l14.22,6.88c0,0,13.3,15.59,28.2,46.78l11.24,46.46l1.61,73.46 l7.8,8.94l44.25,62.6c0,0-1.61,10.32-22.01,18.34c0,0-17.66,5.04-32.79,7.11c0,0-33.94,1.38-46.55,1.61c0,0-3.21-20.41-15.13-37.38 l-15.59-20.18c0,0-40.36-21.17-51.36-37.68l71.54,2.14l-3.9-31.64v-1.65c0-1.96,0.17-3.91,0.52-5.83l4.31-23.98 c0.3-1.65,0.69-3.28,1.19-4.88l8.2-26.49l-0.27-1.42l-8.67-45.93c0,0-30.06-17.43-34.18-29.58s-2.28-14.68-2.28-14.68L419.91,199.1 z"></path> <path class="st140" d="M464.64,290.7l-0.57-59.62c0,0-37.73-8.13-46.84-28.77c0,0-0.68,4.62,3.57,14.04 c4.25,9.42,33.29,27.58,33.29,27.58l8.94,47.35L464.64,290.7z"></path> <path class="st140" d="M320.75,107.61c0,0,4.7-5.85,10.2-6.31c5.5-0.46,18.8,0,18.8,0s-15.82-11.46-23.73-12.27 c-7.91-0.8-8.03,6.54-8.03,6.54S316.85,99.92,320.75,107.61z"></path> <path class="st71" d="M315.13,196.86l1.83,21.4c0,0,24.61,18.34,28.59,35.62s-12.08,12.84-12.08,12.84s-26.35-5.63-38.68-21.86 c0,0-10.39-13.76-3.21-29.96C291.59,214.9,297.25,198.39,315.13,196.86z"></path> <path class="st71" d="M301.53,251.23c0,0,8.77,6.7,13.71,8.17v9.27c0,0,23.97,22.36,27.3,35.77c2.02,8.14-0.99,11.17-3.67,12.3 c-1.44,0.6-5,0.85-6.53,0.59c-4.61-0.79-18.88-4.17-27.29-12.09c-9.04-8.52-16.28-20.52-16.62-29.24 c-0.34-8.71,3.19-20.09,13.64-24.38"></path> <g class="st192"> <path class="st193" d="M290.06,83.23h-23.63c-6.76,0-12.29-6.02-12.29-13.38v0c0-7.36,5.53-13.38,12.29-13.38h29.07 c6.76,0,12.29,6.02,12.29,13.38v0c0,4.92-3.29,10.31-7.18,12.07l0.69,9.02L290.06,83.23z"></path> <circle class="st194" cx="268.41" cy="69.17" r="3.81"></circle> <circle class="st194" cx="281.79" cy="69.17" r="3.81"></circle> <circle class="st194" cx="295.18" cy="69.17" r="3.81"></circle> </g> <g> <path class="st195" d="M234.1,111.18h17.87c5.11,0,9.29-4.55,9.29-10.12v0c0-5.56-4.18-10.12-9.29-10.12h-21.98 c-5.11,0-9.29,4.55-9.29,10.12v0c0,3.72,2.49,7.8,5.43,9.13l-0.52,6.82L234.1,111.18z"></path> <circle class="st196" cx="250.47" cy="100.54" r="2.88"></circle> <circle class="st196" cx="240.36" cy="100.54" r="2.88"></circle> <circle class="st196" cx="230.24" cy="100.54" r="2.88"></circle> </g> <g> <path class="st13" d="M237.81,196.75h-34.96c-10,0-18.19-8.91-18.19-19.79v0c0-10.89,8.18-19.79,18.19-19.79h43.01 c10,0,18.19,8.91,18.19,19.79v0c0,7.27-4.86,15.26-10.63,17.86l1.02,13.34L237.81,196.75z"></path> <circle class="st25" cx="205.78" cy="175.95" r="5.64"></circle> <circle class="st25" cx="225.58" cy="175.95" r="5.64"></circle> <circle class="st25" cx="245.37" cy="175.95" r="5.64"></circle> </g> <circle class="st117" cx="392.13" cy="100.47" r="3.98"></circle> <circle class="st117" cx="502.58" cy="95.54" r="3.98"></circle> <circle class="st25" cx="523.26" cy="226.04" r="3.14"></circle> <circle class="st25" cx="534.27" cy="226.04" r="3.14"></circle> <circle class="st25" cx="545.28" cy="226.04" r="3.14"></circle> <path class="st197" d="M536.84,199.56h28.44c8.14,0,14.79-7.25,14.79-16.1v0c0-8.86-6.66-16.1-14.79-16.1h-34.98 c-8.14,0-14.79,7.25-14.79,16.1v0c0,5.92,3.95,12.41,8.65,14.53l-0.83,10.85L536.84,199.56z"></path> <circle class="st25" cx="562.89" cy="182.64" r="4.59"></circle> <circle class="st25" cx="546.79" cy="182.64" r="4.59"></circle> <circle class="st25" cx="530.69" cy="182.64" r="4.59"></circle> <path class="st198" d="M271.68,143.4h24.51c7.01,0,12.75-6.24,12.75-13.88v0c0-7.63-5.74-13.88-12.75-13.88h-30.15 c-7.01,0-12.75,6.24-12.75,13.88v0c0,5.1,3.41,10.7,7.45,12.52l-0.71,9.35L271.68,143.4z"></path> <circle class="st25" cx="294.13" cy="128.82" r="3.95"></circle> <circle class="st25" cx="280.26" cy="128.82" r="3.95"></circle> <circle class="st25" cx="266.38" cy="128.82" r="3.95"></circle> <path class="st140" d="M316.51,146.2v35.77c0,0-43.26-20.94-47.85-35.77c0,0-2.45-5.12,2.45-8.33 C276,134.66,295.64,137.64,316.51,146.2z"></path> <path class="st71" d="M296.52,171.01c-12-7.28-25.41-16.91-27.86-24.81c0,0-2.45-5.12,2.45-8.33c4.57-3,21.99-0.6,41.26,6.7 c0,0-2.42,15.37-15.38,26.72L296.52,171.01z"></path> <g> <polygon class="st199" points="176.52,211.02 181.85,201.7 186.84,211.02 197.5,213.2 191.2,220.88 191.54,231.43 182.03,227.3 172.74,232.11 172.74,220.99 166.43,213.08 "></polygon> <path class="st200" d="M181.85,201.7c0.11,0,2.49,0,2.49,0l5.16,8.91l9.72,1.89v1.26l-6.48,7.51l0.75,10.83l-1.95-0.69 l-0.34-10.55l6.31-7.68l-10.66-2.18L181.85,201.7z"></path> <polygon class="st201" points="172.74,221.97 184.05,205.8 185.26,208.06 172.74,226.27 "></polygon> <polygon class="st201" points="172.69,230.68 186.84,211.02 191.74,212.02 182.03,227.3 172.74,232.11 "></polygon> <polygon class="st200" points="172.74,232.11 174.43,232.29 183.23,227.82 182.03,227.3 "></polygon> </g> <polygon class="st199" points="569.77,347.51 576.17,336.33 582.15,347.51 594.94,350.12 587.38,359.33 587.79,371.99 576.37,367.04 565.23,372.81 565.23,359.47 557.67,349.98 "></polygon> <path class="st200" d="M576.17,336.33c0.14,0,2.99,0,2.99,0l6.19,10.69l11.66,2.27v1.51l-7.77,9.01l0.89,13l-2.34-0.83l-0.41-12.65 l7.56-9.21l-12.79-2.61L576.17,336.33z"></path> <polygon class="st201" points="565.23,360.64 578.8,341.24 580.25,343.95 565.23,365.8 "></polygon> <polygon class="st201" points="565.18,371.09 582.15,347.51 588.03,348.71 576.37,367.04 565.23,372.81 "></polygon> <polygon class="st200" points="565.23,372.81 567.26,373.02 577.82,367.67 576.37,367.04 "></polygon> <ellipse transform="matrix(0.1105 -0.9939 0.9939 0.1105 -65.6116 439.208)" class="st202" cx="212.56" cy="256.26" rx="21.64" ry="11.62"></ellipse> <path class="st203" d="M214.47,276.14c0,0-12.42-21.97,4.86-39.13C219.33,237.01,233.62,255.27,214.47,276.14z"></path> <path class="st13" d="M223.37,252.37c-0.04-0.06-1.48-0.06-3.19-0.04c-2.57,0.03-5.75,0.1-5.75,0.1s-3.84,3.04-0.52,7.34l9,2.12 C222.92,261.88,226.01,256.03,223.37,252.37z"></path> <ellipse class="st204" cx="214.45" cy="255.81" rx="1.87" ry="2.35"></ellipse> <path class="st205" d="M220.41,252.32c0,0,1.62,4.21-1.25,8.67l3.76,0.89c0,0,2.92-5.8,0.63-9.56H220.41z"></path> <path class="st8" d="M222.19,268.73l12.52,0.31c0,0,9.92-7.75,1.43-16.72l-11.72-3.69c0,0,1.43,4.74,0,12.15 C223.97,263.14,223.37,265.88,222.19,268.73z"></path> <path class="st206" d="M224.22,261.77l14.76,1.35c0,0-1.18,3.33-4.27,5.91l-12.52-0.31C222.19,268.73,223.99,263.46,224.22,261.77z "></path> <ellipse transform="matrix(0.1105 -0.9939 0.9939 0.1105 -65.6116 439.208)" class="st207" cx="212.56" cy="256.26" rx="21.64" ry="11.62"></ellipse> <path class="st12" d="M236.14,252.32l9.36,2.27c0,0,4.51,8.41-2.6,15.29l-8.2-0.84C234.71,269.03,244.59,261.36,236.14,252.32z"></path> <path class="st8" d="M245.5,254.59l2.9,0.61c0,0,6.34,7.57-1.07,14.48l-4.43,0.19C242.9,269.87,249.55,264.33,245.5,254.59z"></path> <path class="st8" d="M230.26,268.92c0,0-0.13,3.73,3.52,5.23c1.91,0.79,3.15,0.89,4.18,0.54c0.85-0.29,1.57-0.88,2.11-1.6 l2.46-3.25l-7.81-0.8L230.26,268.92z"></path> <circle class="st208" cx="399.19" cy="449.54" r="45.5"></circle> <circle class="st25" cx="399.19" cy="450.18" r="37.15"></circle> <circle class="st208" cx="399.19" cy="449.95" r="28.89"></circle> <circle class="st25" cx="399.19" cy="450.18" r="21.32"></circle> <circle class="st209" cx="399.19" cy="450.06" r="13.18"></circle> <circle class="st210" cx="399.19" cy="450.64" r="5.73"></circle> <circle class="st211" cx="399.19" cy="450.46" r="3.04"></circle> <path class="st140" d="M474.73,478.53c0,0-15.75-33.17-20.64-40.2c0,0-3.36-12.54,0-23.24c3.36-10.7-10.86-29.63-10.86-29.63 l-62.05-1.86c0,0,10.89,16.36,51.36,37.68c0,0,16.92,21.74,18.97,25.44c2.05,3.7,9.92,18.5,11.76,32.11L474.73,478.53z"></path> <line class="st212" x1="505.53" y1="96.13" x2="529.01" y2="96.13"></line> <circle class="st117" cx="556.65" cy="232.01" r="3.98"></circle> <line class="st212" x1="554.88" y1="116.03" x2="554.88" y2="167.36"></line> <polygon class="st199" points="538.86,92.99 545.26,81.81 551.24,92.99 564.03,95.6 556.47,104.82 556.88,117.47 545.46,112.52 534.32,118.3 534.32,104.96 526.76,95.47 "></polygon> <path class="st200" d="M545.26,81.81c0.14,0,2.99,0,2.99,0l6.19,10.69l11.66,2.27v1.51l-7.77,9.01l0.89,13l-2.34-0.83l-0.41-12.65 l7.56-9.21l-12.79-2.61L545.26,81.81z"></path> <polygon class="st201" points="534.32,106.12 547.89,86.73 549.34,89.44 534.32,111.28 "></polygon> <polygon class="st201" points="534.27,116.58 551.24,92.99 557.12,94.19 545.46,112.52 534.32,118.3 "></polygon> <polygon class="st200" points="534.32,118.3 536.35,118.5 546.91,113.15 545.46,112.52 "></polygon> <path class="st214" d="M239.14,281.39l17.54,29.01c0,0,9.08,9.17,12.56,13.81c0,0-5.51,9.75-2.05,25.65 c0,0-15.33-15.16-21.75-26.51c0,0-11.24-34.97-11.92-40.01C233.52,283.34,236.5,280.48,239.14,281.39z"></path> <polygon class="st25" points="277.03,325 277.03,348.78 289.39,325.85 284.52,319.76 282.19,320.21 278.23,319.43 "></polygon> <path class="st12" d="M252.86,487.53l7.34,4.74l1.3-0.38l9.63-56.52l9.13-14.22l-3.04-27.04l-3.23-9.07c0,0-3.67,9.34-6.88,14.85 l-5.24,0.34l-5.77,33.19l-1.15,8.05L252.86,487.53z"></path> <path class="st215" d="M241.62,494.95h18.34l0.23-2.68l-7.34-4.74l-3.13,0.38l-1.99,0.92c0,0-1.53,0.84-1.91,0.84 s-4.2,0.31-4.2,0.31l-1.3,1.26l-0.38,0.65v1.61l1.07,1.45H241.62z"></path> <path class="st215" d="M289.07,494.87c0.14,0.11,2.12,0.43,2.12,0.43s1.86,0.63,2.18,0.66s3.78,0.06,4.16,0 c0.37-0.06,2.52-0.34,2.52-0.34l-0.34-1.49c0,0-1-0.75-1.12-0.95c-0.11-0.2-0.92-1.09-1.12-1.46c-0.2-0.37-0.89-1.66-0.92-1.78 c-0.03-0.11-0.29-1.11-0.29-1.11h-7.19l-0.17,2.05l-0.49,0.63c0,0-0.11,0.44-0.11,0.9c0,0.45,0.26,2.23,0.26,2.23L289.07,494.87z"></path> <path class="st12" d="M227.03,281.7c0,0,4.54-9.12,4.71-8.95c0.17,0.17,0.58,0.54,0.58,0.54l0.82,0.55l1.18,0.51l1.19,0.36 l1.07,0.16l-4.77,9.26L227.03,281.7z"></path> <path class="st216" d="M237.89,281.22l0.18-3.59l-1.49-1.49l-5.28-2.72h-1.63l-1.03,0.43l-0.46,1.03c0,0-0.29,0.43-0.29,0.54 c0,0.11-0.06,0.54,0,0.86c0.06,0.32,0.37,1.06,0.4,1.18c0.03,0.11,0.4,0.46,0.4,0.46l0.92,1.06c0,0,1.18,0.23,1.28,0.23 c0.1,0,0.53-0.06,0.7-0.2c0.17-0.14,0.4-0.26,0.43-0.69c0.03-0.43,0.03-1.18,0.09-1.46s0.14-0.57,0.37-0.57 c0.23,0,1.52-0.11,1.72,0.06s1.04,1.15,1.04,1.15s-0.15,1.35-0.35,1.69c-0.2,0.34-1.29,1.48-1.36,1.61c-0.07,0.14-0.15,1.17,0,1.37 c0.15,0.2,0.64,0.64,0.64,0.64S236.05,281.45,237.89,281.22z"></path> <ellipse class="st217" cx="511.5" cy="358.37" rx="31.53" ry="31.76"></ellipse> <ellipse class="st218" cx="559.49" cy="303.27" rx="21.67" ry="21.83"></ellipse> <path class="st219" d="M519.06,369.75c0,0-0.82,0.13-0.06-0.4s1.41-1.61,1.72-2.06s1.3-2.45,1.45-2.83 c0.15-0.38,0.71-1.39,0.94-1.61c0.23-0.23,0.78-0.59,1.01-0.75s1.18-1,1.18-1.46c0-0.46,0.38-3.97,0.38-3.97s-0.61-1.22-1.07-1.22 c-0.46,0-0.69,0.19-0.84-0.11c-0.15-0.31-1.23-7.68-1.23-7.68s-3.96-5.15-4.59-5.96c-1.45-1.89-2.06-1.53-2.29-1.53 s-0.99,0.23-1.45,0.38c-0.46,0.15-1.91,0.76-2.98,0.84c-1.07,0.08-2.9,0.08-2.9,0.08s-1.69,0.34-2.78,1.05 c-2.25,1.45-2.41,2.56-2.44,3.21c-0.02,0.56-1.8,1.18-2.18,2.79c-0.38,1.61,0.21,4.11,0.21,4.95c0,0.84-0.21,1.95-0.21,2.48 s-1.94,0.73-1.94,0.73s-0.34,1.5-0.34,1.96c0,0.46,0.05,1.74,0.28,2.13c0.23,0.38-0.06,1.58,0.63,1.96 c0.69,0.38,1.49,1.15,1.49,1.15s1.06,0.64,1.36,0.95s0.62,1.28,1.07,1.96c0.46,0.69,0.87,1.71,1.18,2.02 c0.31,0.31,0.88,0.29,1.65,0.52c0.76,0.23-0.21,0.33-0.21,0.33s2.11,0.31,1.88,0.46c-0.23,0.15-0.33-0.43-0.64,0.03 c-0.31,0.46-2.02,0.56-2.02,1.25s0.79,5.48,0.79,5.48l5.54,4.95h3.31l2.54-2.81l1.91-2.29l-0.23-6.34l-0.29-0.13L519.06,369.75z"></path> <path class="st220" d="M496.7,381.6l1.68-36.61c0,0,4.28-6.96,9.25-8.41c4.97-1.45,8.41,0,8.41,0v1.07c0,0,3.52-0.31,3.82-0.31 s1.68,0.69,1.68,0.69l5.43,14.75l0.46,30.04c0,0-4.68-3.67-6.5-6.65l-2.14,1.31l-0.23-8.19c0,0,0.66-0.44,1.15-0.89 c0.49-0.45,0.83-0.8,1.17-1.43s0.16-0.22,0.64-1.24c0.48-1.02,0.35-0.83,0.75-1.67c0.4-0.85,0.57-1.11,0.57-1.11 s0.39-0.37,0.57-0.51c0.18-0.14,0.57-0.41,0.83-0.6c0.26-0.19,0.83-0.73,0.86-0.84s0.07-0.74,0.12-1.27 c0.05-0.53,0.15-1.52,0.18-1.75c0.02-0.23-0.47-1.96-0.47-1.96s-0.57-0.31-1.02-0.48s-0.7-1.66-0.7-1.66l-0.93-6.13l-2.65-3.75 l-3.53-3.6c0,0-0.77-0.31-1.3,0c-0.53,0.31-1.6,0.69-1.83,0.77s-0.63,0.26-1.27,0.36c-0.64,0.1-2.16,0.16-2.7,0.17 c-0.54,0.01,0.43-0.15-2,0.77s-4.95,5.2-4.95,5.2s-0.99,2-0.69,2.9c0.31,0.91-0.15,3.13-0.15,3.82s-0.13,1.98-0.13,1.98l-1.63,0.31 c0,0-0.75,1.13-0.69,1.45c0.06,0.32-0.06,1.28,0.2,2.05c0.26,0.78,0.48,1.84,0.87,2.19s1.12,0.72,1.12,0.72l1.04,0.69l0.9,1 l0.52,1.46c0,0,0.85,1.43,1.03,1.64c0.17,0.21,0.9,0.88,0.9,0.88l1.52,0.61l1.64,0.36l0.02,0.56l-2.42,1.06 c0,0-0.38,0.61-0.38,1.15s0.27,3.37,0.27,3.37s0.82,1.16-0.03,1c-0.85-0.16-1.46-0.62-1.46-0.62s-0.23-0.08-0.38,0.23 c-0.15,0.31-1.22,1.15-1.22,1.15s1.68-0.38-1.38,1.22C498.46,380.45,496.7,381.6,496.7,381.6z"></path> <path class="st221" d="M505.34,388.4l-1.45-5.58l-0.99-5.2l-6.19,3.97l-4.59,1.22v0.69c0,0,5.75,4.28,11.31,5.58l2.6,0.56 L505.34,388.4z"></path> <polygon class="st222" points="508.32,387.33 512.14,381.6 505.96,376.87 504.5,376.25 502.89,377.63 503.24,379.41 504.2,384.01 "></polygon> <polygon class="st222" points="520.93,376.17 521.59,377.12 521.59,382.82 517.34,387.33 514.66,381.48 518.79,377.49 "></polygon> <path class="st223" d="M504.2,384.01l1.14,4.39c0,0,0.37,1.09,0.69,1.24c1.49,0.69,6.11,0.47,6.11,0.47s3.69-0.19,4.98-0.47 c0.6-0.13,4.27-1.12,4.27-1.12l0.2-5.7l-4.25,4.51l-2.68-5.86l-2.52,0.13l-3.82,5.73L504.2,384.01z"></path> <path class="st221" d="M521.39,388.53c2.94-0.5,7.89-3.94,7.89-3.94l-1.85-1.76l-3.02-2.64l-2.82-3.06L521.39,388.53z"></path> <path class="st28" d="M565.14,305.55l0.1-2.29c0,0,0.97-0.86,1.15-1.03c0.17-0.17,0.86-1.03,0.86-1.03s0.52-0.63,0.52-0.92 s-0.4-1.43-0.4-1.43l-1.03-1.43l-1.03,0.29l-0.34,2.18v1.66l-1.2,0.17l-0.4-3.9c0,0-0.57-0.69-0.8-0.86 c-0.23-0.17-0.75-0.86-0.75-0.86l-0.34-0.46c0,0-3.61,0.52-3.84,0.52c-0.23,0-0.11,0.06-1.15,0c-1.03-0.06-2.46-0.92-2.46-0.92 h-0.57l-0.86,1.2v0.69l-0.69,0.06v-0.86l-0.92-1.09c0,0-0.34-0.06-0.34-0.57c0-0.52-0.17-1.89,0-2.06c0.17-0.17,0.75-1.2,0.92-1.32 c0.17-0.11,0.69-1.26,1.03-1.43s0.86-0.46,1.15-0.63c0.29-0.17,1.15-0.57,1.32-0.57c0.17,0,1.43,0,1.43,0h0.92l0.69,0.8l3.84,0.57 h1.55l2.98-0.17l0.97,0.34l0.97,0.92l0.86,0.86v0.97c0,0,0.23,0.92,0.23,1.38s-0.23,1.83,0,2.78c0.23,0.95,0.17,2.09,0.29,2.78 c0.11,0.69,0.17,2.35,0,2.69c-0.17,0.34-0.52,1.2-0.52,1.2s-0.57,0.69-0.63,0.92s-0.52,0.57-0.86,0.69s-1.09,0.62-1.09,0.62h-0.69 L565.14,305.55z"></path> <path class="st224" d="M555.83,318.5c0,0,7.81-5.22,9.01-6.36l0.4-8.89c0,0,0.97-0.86,1.15-1.03c0.17-0.17,0.86-1.03,0.86-1.03 s0.52-0.63,0.52-0.92s-0.4-1.43-0.4-1.43l-1.03-1.43l-1.03,0.29l-0.34,2.18v1.66l-1.2,0.17l-0.4-3.9c0,0-0.57-0.69-0.8-0.86 c-0.23-0.17-0.75-0.86-0.75-0.86l-0.34-0.46c0,0-3.61,0.52-3.84,0.52c-0.23,0-0.11,0.06-1.15,0c-1.03-0.06-2.46-0.92-2.46-0.92 h-0.57l-0.86,1.2v0.69v9.52c0,0,0.29,2.01,1.89,2.75c1.61,0.75,2.06,0.29,2.06,0.29l-0.92,7.39l0.17,0.97L555.83,318.5z"></path> <path class="st8" d="M556.13,318.25c0,0,8.22-6.04,8.71-6.11l0.3-6.59l0.85,0.45h0.69l1.49-0.83h2.75c0,0,1.15,0.5,1.34,0.83 c0.19,0.33,0.92,1.57,0.99,1.58s0.73,1.19,0.8,1.35s0.27,0.8,0.38,0.92c0.11,0.11,0.27,0.84,0.31,0.99 c0.04,0.15,0.15,0.69,0.15,1.03c0,0.34,0.15,0.73,0,1.3c-0.15,0.57-0.31,1.03-0.38,1.41c-0.08,0.38-0.38,1.03-0.61,1.38 c-0.23,0.34-0.84,0.84-0.99,0.99c-0.15,0.15-1.72,0.69-1.72,0.69l-1.57-0.65l-0.88-0.5l-0.41,0.07c0.03,0.13-1.17,0.04-1.46,0.12 c-0.39,0.11-0.89,0.5-1.32,0.69c-0.47,0.2-0.97,0.42-1.24,0.67s-0.42,0.21-1.07,0.59c-0.65,0.38-1.91,0.99-2.1,1.15 c-0.19,0.15-0.31,0.38-0.92,0.57s-0.99,0.34-1.53,0.54c-0.54,0.19-0.38,0.31-1.76,0.38c-1.38,0.08-1.61-0.08-1.91,0 c-0.31,0.08-0.27,0.2-0.61,0.02s-0.84-0.25-1.07-0.48c-0.23-0.23-0.69-0.23-0.76-0.69c-0.08-0.46-0.15-0.19-0.34-0.92 c-0.19-0.73-0.23-0.15-0.34-1.17c-0.11-1.01-0.08-0.97-0.19-1.62c-0.11-0.65-0.19-0.19-0.31-1.26c-0.11-1.07-0.15-1.28-0.19-1.88 c-0.04-0.6-0.27-0.79,0-1.1s0.88-0.84,0.96-0.99c0.08-0.15,1.98-1.98,1.98-1.98l0.91,0.42l0.65,0.16l0.25,0.02l0.59-0.13l-0.91,7.3 l0.27,1.4L556.13,318.25z"></path> <path class="st12" d="M569.62,316.99v3.86c0,0-0.5,0.57-0.57,0.88c-0.08,0.31-0.69,0.96-0.8,1.22c-0.11,0.27-0.73,0.84-0.73,0.84 l3.44-1.61c0,0,0.59-0.59,1.41-1.3c0.78-0.67,0.85-0.76,1.5-1.29c0.62-0.51,1.22-0.89,1.71-1.63c0.5-0.75,0.63-0.44,1.14-1.2 c0.51-0.76,0.7-0.9,0.81-1.21c0.11-0.32,0.48-0.53,0.39-1.13c-0.09-0.6,0.11-1.04,0.01-1.14s-0.37-0.87-0.37-0.87l-0.65-2.09 l-2.48-0.47l0.44,1.75l0.09,1.14l-0.29,1.23l-0.16,0.62l-0.35,0.91l-0.7,0.95l-0.55,0.5l-1.72,0.69L569.62,316.99z"></path> <path class="st12" d="M545.92,320.2c0.11,0,0.99-0.54,1.3-1.38c0.31-0.84,0.42-0.57,0.76-1.76c0.34-1.18-0.11-0.73,0.54-1.8 c0.65-1.07,1.38-2.29,1.38-2.29l1.17-0.57l0.36,3.05l0.19,0.51l0.06,0.34l0.13,0.9l0.07,0.53l0.12,0.58c0,0-2.03,4.11-2.03,4.26 s-0.6,0.52-0.6,0.52L545.92,320.2z"></path> <path class="st225" d="M558.34,325.1c0,0,6.42,0.54,9.17-1.3l0.57-0.6l0.84-1.22l0.29-0.59l0.4-0.53v-3.86l-0.88-0.5l-1.87,0.19 c0,0-3.86,1.75-5.73,3.1l-0.73,0.51l-2.36,0.86l-1.54,0.08l-2.25-0.1c0,0-1.13-0.56-1.18-0.59c-0.04-0.03-1.14-2.11-1.14-2.11 l-2.12,4.33l-0.46,0.33C549.36,323.09,554.33,325.08,558.34,325.1z"></path> <line class="st226" x1="557.73" y1="319.29" x2="557.73" y2="325.1"></line> <line class="st226" x1="554.14" y1="318.83" x2="554.14" y2="324.64"></line> <path class="st227" d="M483.45,178.4c-0.89,0-1.5,0-1.5,0l-2.37,2.83l-8.36,14.6c0,0-4.11-9.78-4.72-10.55l-4.35,0.23 c0,0,1.3,19.41,5.2,22.32c3.9,2.9,19.06-21.15,19.03-25.91c0-0.48,0.35-3.11,0.35-3.11S484.34,178.4,483.45,178.4z"></path> <linearGradient id="SVGID_5_" gradientUnits="userSpaceOnUse" x1="396" y1="88.5159" x2="396" y2="66.1592"> <stop offset="0" style="stop-color:#FFFFFF"></stop> <stop offset="1" style="stop-color:#00BFBF"></stop> </linearGradient> <path style="opacity:0.4;fill:url(#SVGID_5_);" d="M369.61,88.52l43.35-2.41c0,0,6.87-4.08,9.43-5.01h-3.76 c0,0-0.08-1.25-0.08-1.56s0.38-0.15,0-1.15c-0.38-0.99-0.69-1.45-0.69-1.45s-0.84-0.76-1.45-1.3c-0.61-0.54-1.15-1.3-1.76-1.38 c-0.61-0.08-0.15-0.38-1.3,0c-1.15,0.38-2.68,1.22-2.68,1.22l-2.6,4.43c0,0,0-4.2,0.08-4.43c0.08-0.23,0-0.68-0.38-1.41 c-0.38-0.73-0.84-1.95-1.15-2.64s0-1.22-0.76-1.68c-0.76-0.46-1.91-0.99-1.91-0.99s-1.68-1.38-1.99-1.45s-2.37-0.54-2.37-0.54 h-0.38l-2.75-0.61l-3.13,0.38l-1,0.84c0,0-1.14,1.38-1.29,1.83s-0.46,1.45-0.46,1.68c0,0.23,0-0.08,0,1.15s0.08,1.99,0.31,2.68 c0.23,0.69,0.69,2.18,0.69,2.62s0,1.51,0,1.97s0,1.22,0,1.45c0,0.23,0,0.23,0,0.23l-3.59-2.45c0,0,0.15-0.63-0.31-0.5 c-0.46,0.12-1.83-0.22-1.83-0.22s-0.92-0.69-1.3-0.48s-1.22,0.65-1.22,0.65s-0.69,0.02-1.22,0.63s-1.3,1.3-1.38,1.68 c-0.08,0.38-0.38,0.99-0.46,1.53c-0.08,0.54-0.23,1.07-0.31,1.61c-0.08,0.54-0.38,1.15-0.38,1.15c-1.07-0.23-1.91-0.76-2.29-0.92 c-0.38-0.15-0.99-0.15-1.3-0.15c-0.31,0-0.61-0.08-1.07,0.15c-0.46,0.23-0.92,0.38-1.15,0.54c-0.23,0.15-0.54,0.31-0.99,0.61 s-0.84,0.46-1.07,0.76s-0.76,0.38-0.92,0.69s-0.84,1.07-0.84,1.07L369.61,88.52z"></path> <circle class="st25" cx="507.24" cy="282.95" r="23.89"></circle> <path class="st229" d="M515.17,286.05c0,0,1.07-0.69,1.3-0.92c0.23-0.23,0.38-0.61,0.76-1.15c0.38-0.54,0.38-0.61,0.69-1.15 c0.31-0.54,0.76-1.07,0.76-1.07l1.22-2.45v-4.43c0,0-0.08-1.83-0.54-2.29c-0.46-0.46-0.92-1.07-1.3-1.53 c-0.38-0.46-1.15-1.38-1.15-1.38l-0.92-0.61l-3.29-1.61h-3.67h-1.68l-1.3,0.38c0,0-1.45,0.31-1.68,0.54 c-0.23,0.23-1.53,0.84-1.68,1.15s-1.15,1.68-1.38,1.99c-0.23,0.31-0.84,1.22-0.84,1.22l-0.46,1.15v0.99c0,0.61,0.08,1.61,0,1.87 s-0.38,1.57-0.38,1.8s0,1.22,0,1.22s0.99-0.23,0.99-0.46c0-0.23-0.15,0,0-0.99c0.15-0.99,0-0.76,0.31-1.57s0.23-0.42,0.61-1.34 s0.38-0.99,0.61-1.3c0.23-0.31-0.61,0.08,0.69-0.76c1.3-0.84,1.3-0.92,1.61-1.07c0.31-0.15,0.38-0.31,1.07-0.46 s1.45-0.31,1.45-0.31s1.22,0.31,1.61,0.31s1.3,0.31,1.53,0.46s0.69,0.23,1.38,0.54s0.38-0.23,1.83,0.61 c1.45,0.84,1.45,0.84,1.45,0.84s0.54,0.92,0.61,1.15s0.15,0.92,0.15,0.92s0-0.23,0,0.42s0,1.72,0,2.64c0,0.92,0.08,1.15,0,1.76 c-0.08,0.61-0.15,1.53-0.15,1.53l-0.92,1.91l-0.31,0.92L515.17,286.05z"></path> <path class="st230" d="M518.2,282.08l0.63-0.61l0.61,0.31c0,0,0.37-0.15,0.46,0.31c0.17,0.83,0.08,1.22,0,1.45 c-0.08,0.23-0.46,1.22-0.46,1.22l-0.38,0.84l-0.61,0.46l-0.25,0.92c0,0-0.82,0.99-1.05,1.07c-0.23,0.08-1.53,0-1.53,0l-0.54,0.03 c0,0-0.38,0.42-0.38,0.65c0,0.23-0.31,1.3-0.31,1.3s-0.38,0.92-0.54,1.15c-0.15,0.23-1.15,1.45-1.15,1.45l-1.07,0.92l-2.72,0.46 c0,0-1.48,0.54-1.71,0.61c-0.23,0.08-2.6,0-2.6,0l-1.15-1.53c0,0-0.38-0.61-0.38-0.84c0-0.23-1.07-1.38-1.07-1.38 s-0.54-1.22-0.76-1.45c-0.23-0.23-0.76-0.88-0.92-1.36s-0.7-1.23-0.69-1.62c0.01-0.38-0.01-0.65,0-0.84 c0.01-0.3,0.06-0.76-0.01-0.84c-0.3-0.37-0.64-0.42-0.64-0.42s-0.27-0.25-0.5-0.63c-0.23-0.38,0-0.99,0-0.99l0.13-1.24v-0.46v-0.38 l0.43-0.4l0.15-0.38l0.44-0.06c0,0,0.99-0.23,0.99-0.46c0-0.23-0.15,0,0-0.99c0.15-0.99,0-0.76,0.31-1.57s0.23-0.42,0.61-1.34 s0.38-0.99,0.61-1.3c0.23-0.31-0.61,0.08,0.69-0.76c1.3-0.84,1.3-0.92,1.61-1.07c0.31-0.15,0.38-0.31,1.07-0.46 s1.45-0.31,1.45-0.31s1.22,0.31,1.61,0.31s1.3,0.31,1.53,0.46s0.69,0.23,1.38,0.54s0.38-0.23,1.83,0.61 c1.45,0.84,1.45,0.84,1.45,0.84s0.54,0.92,0.61,1.15s0.15,0.92,0.15,0.92s0-0.23,0,0.42s0,1.72,0,2.64c0,0.92,0.08,1.15,0,1.76 c-0.08,0.61-0.15,1.53-0.15,1.53l-0.92,1.91l-0.31,0.92l0.99,0.54c0,0,1.07-0.69,1.3-0.92c0.23-0.23,0.38-0.61,0.76-1.15 c0.38-0.54,0.38-0.61,0.69-1.15c0.09-0.15,0.19-0.31,0.29-0.45"></path> <path class="st231" d="M498.63,297.17c0.14-0.29,0.6-0.75,1.29-1.03s1.66-0.57,1.66-0.57s0.29-0.11,0.29-0.52s-0.06-0.97,0-1.55 c0.06-0.57-0.21-3.42-0.21-3.42l0.84,1.32c0,0,0.73,0.87,0.85,1.04s0.3,0.8,0.41,1.02c0.11,0.22,0.4,0.54,0.4,0.54l0.46,0.61 c0,0,1,0.03,1.18,0.03c0.17,0,0.67,0,0.67,0l0.98-0.12l1.31-0.47c0,0,0.41-0.46,1.02-0.43c0.66,0.03,0.92,0,0.92,0 s0.4,0.13,0.77-0.06s0.83-0.58,0.83-0.58l1.05-1.13l0.16,5.31l-1.95,2.35c0,0-1.03,0.63-1.32,0.92c-0.29,0.29-0.6,1.15-0.96,1.55 s-1.05,1.15-1.22,1.43s-0.86,0.75-1.32,0.97c-0.46,0.23-1.09,0.34-1.09,0.34h-1.55c0,0-1.2-0.52-1.49-0.75 c-0.29-0.23-0.97-1.03-0.97-1.03l-0.34-0.29c0,0-0.29-0.57-0.86-1.26s-1.15-1.2-1.15-1.2s-0.68-1.03-0.66-1.2 S498.63,297.17,498.63,297.17z"></path> <path class="st232" d="M508.94,302.36l1.18,4.24h1.32l6.08-7.54l-1.75-2.01l-1.12-0.75l-1.18-0.29l0.04,1.15l-1.95,2.35 c0,0-0.56,0.36-0.67,0.43s-0.31,0.22-0.31,0.22l-0.24,0.18l-0.18,0.19l-0.25,0.4l-0.24,0.46c0,0-0.13,0.24-0.16,0.28 C509.47,301.73,508.94,302.36,508.94,302.36z"></path> <path class="st232" d="M501.65,295.52h0.1c0,0,0.04-0.15,0.06-0.2c0.02-0.05,0.13-0.17,0.13-0.17l-0.08-0.51l-0.06-0.64l-2.55,0.17 l-2.55,1.4c0,0-0.42,1.04-0.67,1.63c-0.09,0.21-0.16,0.36-0.18,0.39c-0.08,0.1-0.31,0.44-0.36,0.69c-0.06,0.25-0.1,0.5-0.1,0.8 c0,0.31-0.06,0.96,0,1.2c0.06,0.25,0.1,0.46,0.21,0.76c0.11,0.31,0.23,0.63,0.34,0.88c0.11,0.25,0.34,0.59,0.48,0.8 c0.13,0.21,0.15,0.32,0.4,0.67c0.25,0.34,0.46,0.71,0.71,0.96c0.25,0.25,0.27,0.49,0.48,0.63c0.21,0.13,1.17,0.46,1.24,0.48 c0.08,0.02,0.42,0.16,0.42,0.16l-0.09-5.13l-0.37-0.51l-0.21-0.32l-0.31-0.63c0-0.11,0.05-0.24,0-0.36 c-0.05-0.12-0.04-0.2-0.04-0.26c-0.01-0.06,0.01-0.13,0-0.31c-0.01-0.17,0.01-0.23,0-0.29c-0.01-0.06,0-0.41,0-0.41l0.11-0.32 c0,0,0.16-0.16,0.21-0.21c0.05-0.05,0.03-0.07,0.14-0.14c0.11-0.06,0.2-0.11,0.25-0.14c0.05-0.02,0.19-0.1,0.27-0.13 c0.09-0.03,0.21-0.07,0.29-0.11s0.16-0.11,0.25-0.14s0.37-0.14,0.37-0.14s0.03-0.03,0.06-0.03s0.38-0.17,0.41-0.17 C501.06,295.88,501.65,295.52,501.65,295.52z"></path> <path class="st28" d="M488.51,297.77l7.51-0.56l-0.39,0.71l-0.15,0.36l-0.1,0.98l-0.02,0.8l0.18,0.84l0.39,1.02l0.66,1.14 l1.01,1.38l0.39,0.54C498.01,304.98,492.4,303.11,488.51,297.77z"></path> <path class="st233" d="M499.65,301.68l0.02,3.94c0,0,3.87,1.93,10.45,0.98l-1.18-4.24c0,0-0.56,0.64-0.6,0.68s-0.51,0.63-0.56,0.67 c-0.05,0.04-1.14,0.73-1.14,0.73l-1.1,0.3h-1.39l-1.42-0.66l-1.48-1.62l-1.61-1.9V301.68z"></path> <path class="st28" d="M511.44,306.6c5.7-0.95,9.87-4.38,9.87-4.38l-3.8-3.15L511.44,306.6z"></path> <line class="st234" x1="434.27" y1="423.52" x2="399.19" y2="450.64"></line> <polygon class="st235" points="432.14,425.26 436.78,425.46 427.34,432.45 422.74,432.45 "></polygon> <polygon class="st235" points="432.24,425.02 433.28,420.49 424.02,427.72 422.88,432.15 "></polygon> <line class="st234" x1="431.11" y1="474.6" x2="399.19" y2="450.45"></line> <polygon class="st235" points="429.23,473.17 430.29,477.7 421.01,470.49 419.76,466.06 "></polygon> <polygon class="st235" points="429.44,473.25 434.08,473.03 424.62,466.06 420.04,466.16 "></polygon> <path class="st236" d="M478.17,161.77c-0.19-0.35-0.4-0.76-0.49-1.02c-0.15-0.46-0.84-0.69-0.69-1.07c0.15-0.38-0.15-1.3,0-1.91 s0.92-0.84,1.38-1.07c0.46-0.23,0-0.69,0-0.92s0.61-1.3,0.92-2.45s1.3-1.45,1.3-1.45l0.76-0.69l2.37-0.46c0,0,2.83,0,3.36,0 s0.84,0.46,1.38,0.84c0.54,0.38,1.61,1.38,1.91,1.61s0.38,0.99,0.38,1.3s0.38,2.22,0.46,3.06c0.08,0.84,0,1.45,0,2.29 c0,0.84-0.31,1.07-0.76,2.14c-0.46,1.07-0.54,0.76-1.07,0.99c-0.54,0.23-1.15,0.84-1.76,1.15c-0.61,0.31-1.45,0.61-1.99,0.84 c-0.54,0.23-0.99,0.76-1.38,1.15c-0.38,0.38-1.15,1.83-1.15,1.83l-0.92,2.83l1.91,4.05c0,0,0.39,1.83,0.54,2.22 c0.15,0.38,0.54,1.61,0.76,1.83c0.23,0.23,0.99,1.15,0.99,1.15l-3.38,9.48c-0.33,0.93,0.15,1.95,1.08,2.29l0.46,0.09 c2.94,0.57,5.87-1,7.03-3.76v0c0,0,2.54-5.86,0.92-10.01c-0.23-0.59,0.82,0,0.07-1.45c-0.76-1.45-0.76-1.07-0.99-2.22 c-0.23-1.15-1.15-1.68-0.35-3.06s0.5-1.15,1.11-2.06c0.61-0.92,0.38-0.23,0.92-1.68c0.54-1.45,0.61-1.22,0.92-2.29 c0.31-1.07,0.46-1.15,0.54-2.29c0.08-1.15-0.31-1.68,0-1.99c0.31-0.31-0.29-0.76,0.01-0.99c0.3-0.23,0.32-0.46,0.08-1.38 c-0.24-0.92-0.47-1.3-0.47-1.3s0.08,1.15-0.23-0.69c-0.31-1.83-0.38-2.14-0.38-2.37c0-0.23,0-0.61,0-1.22s-0.08-0.76,0-1.22 c0.08-0.46,0.15-0.76,0.15-1.15s-0.08-1.07-0.08-1.07l-1.07-0.46l-1.99-0.69h-0.84h-0.76l0.31-1.99l-3.9-1.45 c0,0-1.83-1.53-2.37-1.61c-0.54-0.08-2.14,0-2.14,0l-0.99,0.61l-0.54,1.15l-0.54,1.15c0,0-0.38,0.69-0.61,0.99 c-0.23,0.31-0.23,0.54-0.31,0.92c-0.08,0.38-0.38,0.69-0.61,1.15c-0.23,0.46-0.5,0.99-0.5,0.99s-0.55,0.76-0.56,0.99 c-0.01,0.23-0.47,0.92-0.62,1.22c-0.15,0.31-0.69,1.22-0.69,1.22s-0.38,0.46-0.69,0.84c-0.31,0.38-0.38,0.76-0.69,0.99 s-0.92,0.76-0.92,0.76l-0.69,0.46l3.9,3.36L478.17,161.77z"></path> <path class="st237" d="M482.19,170.76l0.92-2.83c0,0,0.76-1.45,1.15-1.83c0.38-0.38,0.84-0.92,1.38-1.15 c0.54-0.23,1.38-0.54,1.99-0.84c0.61-0.31,1.22-0.92,1.76-1.15c0.54-0.23,0.61,0.08,1.07-0.99c0.46-1.07,0.76-1.3,0.76-2.14 c0-0.84,0.08-1.45,0-2.29c-0.08-0.84-0.46-2.75-0.46-3.06s-0.08-1.07-0.38-1.3s-1.38-1.22-1.91-1.61 c-0.54-0.38-0.84-0.84-1.38-0.84s-3.36,0-3.36,0l-2.37,0.46l-0.76,0.69c0,0-0.99,0.31-1.3,1.45s-0.92,2.22-0.92,2.45 s0.46,0.69,0,0.92c-0.46,0.23-1.22,0.46-1.38,1.07s0.15,1.53,0,1.91c-0.15,0.38,0.54,0.61,0.69,1.07s0.69,1.38,0.84,1.61 c0.15,0.23,0.31,0.69,0.31,1.07c0,0.38-1.88,2.68-1.88,2.68l-0.49,1.53c0,0-0.15,1.76,0,1.99s-0.07,1.64,0.92,1.72 s1.89-0.15,2.35,0.01C480.19,171.49,482.19,170.76,482.19,170.76z"></path> <path class="st238" d="M466.16,153.07v4.41l1.49,0.52c0,0,0,0.86,0,1.03c0,0.17-0.23,0.99,0,1.75c0.23,0.77,0.23,1.86,0.23,2.09 s-1.09,1.2-0.86,1.38c0.23,0.17-0.23,0.69-0.23,0.69l-0.29,20.69c0,0,4.64,10.24,4.92,11.2c0,0,7.26-13.76,8.25-15.59l2.37-2.83 h1.61c0,0,1.41,0.21,1.76,0.46l-0.32-0.63c0,0-0.13-0.33-0.16-0.42s-0.1-0.28-0.17-0.48c-0.07-0.2-0.13-0.35-0.18-0.5 c-0.04-0.15-0.16-0.62-0.17-0.67c-0.01-0.05-0.05-0.19-0.09-0.38c-0.04-0.19-0.2-0.93-0.2-0.93l-1.91-4.09l-4.55,0.15 c0,0-0.61-0.11-0.67-0.32s-0.32-0.35-0.37-0.53c-0.05-0.18-0.05-0.29-0.09-0.63c-0.04-0.34,0.04-0.3-0.04-0.59 c-0.08-0.3,0.04-0.55,0.04-0.69c0-0.14-0.06-0.19-0.03-0.6c0.03-0.41,0.4-1.24,0.4-1.24l0.07-0.2c0,0,1.32-1.49,1.46-1.62 s0.54-1.03,0.54-1.03l-0.29-1.15l-0.52-0.59l-8.34-6.86l-2.06-1.55l-1.58-0.8V153.07z"></path> <path class="st237" d="M462.18,158.94c0,0-0.06,4.71,0,4.77c0.06,0.06,0.68,0.59,0.77,0.62c0.09,0.03,1.17,0.4,1.32,0.49 c0.15,0.09,0.46,0.15,1.05,0.28c0.59,0.12,0.83-0.06,1.14,0c0.31,0.06,0.55-0.09,0.65-0.12c0.09-0.03,0.4-0.03,0.34-0.18 c-0.06-0.15,0.19-0.73,0.26-0.81c0.07-0.08,0.09-0.11,0.25-0.29s0.28-0.15,0.32-0.43c0.04-0.28,0.07-0.15,0.02-0.8 c-0.06-0.65,0.25-1.01,0.03-1.2c-0.22-0.19-0.27,0.01-0.32-0.6c-0.05-0.6-0.22-0.55-0.03-0.85c0.19-0.3,0.46-0.67,0.43-0.86 s0.03-0.62-0.15-0.74s-0.63-0.43-0.63-0.43l-0.79-0.49c0,0-0.18,0.06-0.37,0c-0.18-0.06-1.48,0.31-1.63,0.34 c-0.15,0.03-0.99,0.18-1.51,0.34S462.18,158.94,462.18,158.94z"></path> <path class="st237" d="M463.97,186.05c-0.41,0.08-0.81-0.17-0.92-0.58c-0.05-0.18-0.11-0.35-0.19-0.47 c-0.22-0.36-0.04-0.45-0.4-1.08c-0.36-0.63-0.31-0.31-0.63-1.17c-0.31-0.85-0.58-1.03-0.58-1.7c0-0.67-0.18-0.45,0-1.03 c0.18-0.58,0-0.67,0.49-0.99c0.49-0.31-0.13-0.09,0.49-0.31c0.63-0.22,0.96-0.4,0.96-0.4l0.61-0.36l0.45-0.67 c0,0,0.31-0.18,0.36-0.49s0.18-0.72,0.36-0.81c0.18-0.09,0.09-0.22,0.36-0.22s0.45-0.13,0.58,0.18c0.13,0.31,0.4,0.94,0.45,1.08 c0.04,0.13-0.04,0.81,0,0.94c0.04,0.13,0.07,0.72,0.01,0.94c-0.06,0.22-0.19,0.76-0.19,1.53c0,0.76,0.18,1.7,0.23,1.93 c0.04,0.22-0.13,0.63,0,0.94s0.06,1.48,0.01,1.62s0.07,0.63,0.07,0.63L463.97,186.05z"></path> <path class="st216" d="M338.82,387.8l3.3-1.48l6.44,3.92c0,0,2.06,1.83,2.22,2.06s1.45,1.63,1.91,1.81s1.53,0.79,1.53,0.79 s-2.9,0.46-3.36,0.38c-0.46-0.08-4.05-1.17-4.05-1.17l-2.37-0.66l-0.46,0.66c0,0,0.15,1.04,0.23,1.18 c0.08,0.14,0.99,0.99,0.99,0.99l-0.46,0.54l-2.06-1.45c0,0-2.22-1.68-2.29-1.99c-0.08-0.31-0.84-1.45-0.84-1.45L338.82,387.8z"></path> <path class="st239" d="M268.61,324.5c0,0-4.74,12.08-1.53,24.76c0,0,2.09,9.32,0.21,15.75c-1.89,6.42-7.39,27.36-6.17,34.24 l0.76,0.97l5.24-0.34c0,0,5.96-10.03,6.88-14.85c0,0,4.41,13.59,6.08,14.73c1.66,1.15,20.94,3.31,24.31,2.08 s-1.22-42.04-1.22-42.04l3.97-10.7c0,0-4.59-6.11-2.14-26.75l-6.73-3.52l-3.75-3.17l-17.66,34.39v-25.22l1.61-6.54 C278.46,318.31,277.66,320.49,268.61,324.5z"></path> <path class="st214" d="M304.11,322.27l2.41,0.57c0,0,19.26,22.01,21.44,25.57s12.84,36.57,12.84,36.57l-4.59,2.06l-20.41-29.19 l-10.55-9.83c0,0-4.17-7.92-2.49-23.43L304.11,322.27z"></path> <path class="st214" d="M294.52,315.67c0,0-19.49,35.43-20.06,39.44l0.29,1.26l20.35-28.78v-2.58l2.64-0.06l0.54-6.11L294.52,315.67 z"></path> <polygon class="st214" points="278.46,318.31 277.03,324.16 277.03,348.91 276.13,350.82 272.81,344.3 271.74,327.33 273.5,326.18 272.96,324.73 "></polygon> <polygon class="st214" points="299.73,386.76 302.37,382.17 286.36,380.74 286.36,387.04 "></polygon> <circle class="st214" cx="279.25" cy="390.36" r="1.78"></circle> <circle class="st214" cx="277.2" cy="357.69" r="1.61"></circle> <circle class="st214" cx="277.2" cy="370" r="1.61"></circle> <path class="st114" d="M284.27,319.76c0,0,9.32-5.31,9.21-5.2s1.03,1.11,1.03,1.11l-5.53,10.17L284.27,319.76z"></path> <polygon class="st114" points="279.31,316.74 282.32,320.21 278.46,325 278.46,318.31 "></polygon> <polygon class="st8" points="284.46,323.85 284.46,334.33 277.03,348.91 277.03,339.56 279.08,331.38 281.75,326.26 281.25,321.54 282.32,320.21 284.27,319.76 286.36,322.45 "></polygon> <path class="st8" d="M296.35,300.66c-0.69,0-1.83,0-1.83,0l-1.45-5.96l-0.99-1.38c0,0-3.94,2.45-5.71,2.52 c-1.78,0.08-5.96-2.83-5.96-2.83l-1.93,2.52l-0.46,5.12l-0.54,0.61l-0.76-0.61v-7.11l1.15-2.14l-1.76-1.3v-0.61l6.91-5.2h1.27 l2.08-0.54c0,0,1.74-0.84,2.35,0c0.61,0.84,2.14,2.22,2.14,2.22l1.3,1.15h1.68l0.69,3.44l1.83,1.3V300.66z"></path> <path class="st216" d="M293.9,306.99l-0.54,3.3l-3.97,4.28l-2.52,1.45l-3.86-0.84l-2.99-2.36l-0.79-0.62l-1.53-4.36l-0.67-0.08 c0,0-0.47-1.22-0.55-1.68c-0.08-0.46-0.38-5.04-0.38-5.04l0.61-0.38l0.32,0.61l0.98-0.61l0.46-5.12l1.93-2.52 c0,0,4.16,2.9,5.48,2.79c1.32-0.11,4.82-1.3,6.2-2.48l0.99,1.38l1.45,5.96h1.83l0.31,1.07c0,0,0,0.99,0,1.15s0,0.84,0,1.3 c0,0.46-0.19,1.11-0.31,1.49c-0.11,0.38-0.27,0.88-0.46,1.07c-0.19,0.19-1.11,0.54-1.11,0.54L293.9,306.99z"></path> <polygon class="st240" points="279.94,317.47 280.02,312.82 283.01,315.18 286.87,316.02 289.39,314.56 293.37,310.29 293.6,308.87 293.6,314.68 293.48,314.57 284.27,319.76 282.32,320.21 "></polygon> <polygon class="st8" points="287.87,488.83 296.89,488.83 299.64,451.08 301.01,433.04 302.37,402.17 286.09,401.05 281.03,400.13 277.22,394.11 "></polygon> <circle class="st12" cx="399.31" cy="450.54" r="0.52"></circle> <g> <path class="st195" d="M546.42,239.76h17.87c5.11,0,9.29-4.55,9.29-10.12v0c0-5.56-4.18-10.12-9.29-10.12H542.3 c-5.11,0-9.29,4.55-9.29,10.12v0c0,3.72,2.48,7.8,5.43,9.13l-0.52,6.82L546.42,239.76z"></path> <circle class="st196" cx="562.79" cy="229.12" r="2.88"></circle> <circle class="st196" cx="552.67" cy="229.12" r="2.88"></circle> <circle class="st196" cx="542.55" cy="229.12" r="2.88"></circle> </g> <polygon class="st255" points="286.36,322.45 288.99,325.85 287.67,328.3 "></polygon> <polygon class="st255" points="281.25,321.54 278.46,325 278.81,326.2 "></polygon> </g> </svg> 