<?xml version="1.0" encoding="UTF-8"?> <svg xmlns="http://www.w3.org/2000/svg" xmlns:xlink="http://www.w3.org/1999/xlink" id="Capa_1" x="0px" y="0px" viewBox="0 0 519.4 45.9" style="enable-background:new 0 0 519.4 45.9;" xml:space="preserve"> <style type="text/css"> .st0{fill:none;stroke:#1EBEBE;stroke-width:2.5;stroke-linecap:round;stroke-linejoin:round;} .st1{fill:#1EBEBE;stroke:#1EBEBE;stroke-width:0.5;stroke-miterlimit:10;} .st2{fill:#1EBEBE;stroke:#1EBEBE;stroke-width:0.25;stroke-miterlimit:10;} </style> <title>Captura de pantalla 2020-10-13 a las 7.35.24 a.m.</title> <path class="st0" d="M407.4,12.1c-16.4,0-45.3,2.9-68.3,31"></path> <polyline class="st0" points="351.7,39.3 339.1,43.1 340.4,31.6 "></polyline> <g> <path class="st1" d="M421.5,4.4c0.2-0.1,0.3-0.1,0.4-0.1c0.1,0,0.3,0.2,0.5,0.5c0.3,0.3,0.5,1,0.6,2c0.2,1.1,0.4,2.3,0.7,3.4 c0.6,2.1,0.9,3.6,0.9,4.3c0.1,0.8-0.1,1.2-0.5,1.2c-0.3,0-0.5-0.1-0.6-0.3c-0.1-0.2-0.3-0.7-0.4-1.5l-0.3-1.4 c-1.5-0.3-2.8-0.6-4.1-0.9l-0.9,1.5c-0.5,0.8-0.8,1.3-1.1,1.6s-0.5,0.4-0.8,0.3c-0.2-0.1-0.2-0.3-0.2-0.6c0.1-0.3,0.3-0.7,0.6-1.3 c0.1-0.2,0.4-0.7,0.8-1.5c0.4-0.8,0.8-1.6,1.2-2.3c0.4-0.7,0.8-1.5,1.3-2.2c0.4-0.8,0.8-1.4,1.1-1.9C421.2,4.7,421.4,4.4,421.5,4.4 z M421.7,7.2c0.1-0.5-0.1-0.4-0.6,0.3c-0.1,0.2-0.3,0.4-0.4,0.7c-0.6,1.1-0.9,1.8-0.9,1.9c0,0.1,0.2,0.2,0.6,0.3 c0.7,0.2,1.4,0.3,2.1,0.3c0-0.1-0.1-0.5-0.2-1.1c-0.1-0.6-0.3-1.2-0.3-1.6C421.7,7.6,421.7,7.3,421.7,7.2z"></path> <path class="st1" d="M431,16.4c-0.4,0-0.7-0.3-0.9-0.6c-0.1-0.4-0.3-1.3-0.5-2.9c-0.1-1-0.3-1.4-0.4-1.5c-0.2,0-0.4,0.3-0.8,0.9 c-0.4,0.6-0.6,1.2-0.7,1.7c-0.2,0.7-0.4,1.2-0.6,1.4c-0.2,0.2-0.5,0.2-0.8-0.1c-0.1-0.1-0.1-0.4-0.1-1c0-0.6,0.2-1.9,0.4-3.8 c0.4-3.1,0.7-4.7,0.8-4.8c0.5-0.4,0.7-0.1,0.8,0.9c0,0.4,0,1,0,1.7l-0.1,2.1l0.6-0.4c0.9-0.6,1.6-0.5,2,0.4 c0.4,0.7,0.7,1.8,0.8,3.3c0,0.4,0.1,0.9,0.2,1.3c0.1,0.4,0.1,0.7,0,1C431.6,16.4,431.3,16.5,431,16.4z"></path> <path class="st1" d="M435.9,10.2c0.4-0.2,0.7-0.3,0.9-0.3c0.2,0,0.5,0,0.9,0.1c1,0.2,1.7,0.8,2.1,1.6c0.4,0.7,0.4,1.5,0.3,2.5 c-0.2,1-0.6,1.7-1.2,2.2c-0.4,0.4-1,0.6-1.7,0.7c-0.7,0.1-1.3,0-1.9-0.2c-0.9-0.4-1.5-1-1.7-1.8c-0.3-0.9-0.2-1.7,0.2-2.6 C434.3,11.4,434.9,10.7,435.9,10.2z M436.4,15.4c0.6,0.1,1,0,1.3-0.2c0.3-0.2,0.6-0.5,0.7-0.9c0.2-0.5,0.2-0.9,0.2-1.4 c-0.1-0.5-0.2-0.9-0.5-1.1c-0.3-0.3-0.7-0.4-1.1-0.4c-0.4,0-0.7,0.2-1,0.5c-0.7,0.7-1.1,1.5-1,2.2c0,0.4,0.1,0.8,0.3,1 C435.5,15.2,435.9,15.3,436.4,15.4z"></path> <path class="st1" d="M447.3,12.7c-0.1,0.5-0.6,0.5-1.5,0.1c-0.9-0.4-1.6-0.4-2,0.1c-0.4,0.5-0.7,1.5-0.9,3.1 c-0.1,1.3-0.2,2-0.4,2.1c-0.2,0.1-0.4,0.1-0.7-0.1c-0.3-0.1-0.4-0.3-0.5-0.4c-0.1-0.2,0-1.3,0.1-3.3c0.1-1.4,0.2-2.2,0.2-2.5 c0.1-0.3,0.2-0.5,0.3-0.6c0.2-0.1,0.4,0,0.6,0.3c0.2,0.2,0.4,0.3,0.5,0.2c0.1-0.1,0.4-0.2,0.8-0.4c0.7-0.3,1.4-0.2,2.1,0.1 C446.9,11.8,447.3,12.2,447.3,12.7z"></path> <path class="st1" d="M454.2,13.5c-0.1,0.5-0.6,0.5-1.5,0.1c-0.9-0.4-1.6-0.4-2,0.1c-0.4,0.5-0.7,1.5-0.9,3.1 c-0.1,1.3-0.2,2-0.4,2.1c-0.2,0.1-0.4,0.1-0.7-0.1s-0.4-0.3-0.5-0.4c-0.1-0.2,0-1.3,0.1-3.3c0.1-1.4,0.2-2.2,0.2-2.5 c0.1-0.3,0.2-0.5,0.3-0.6c0.2-0.1,0.4,0,0.6,0.3c0.2,0.2,0.4,0.3,0.5,0.2c0.1-0.1,0.4-0.2,0.8-0.4c0.7-0.3,1.4-0.2,2.1,0.1 C453.9,12.6,454.3,13,454.2,13.5z"></path> <path class="st1" d="M459.4,19.8c0,0.1-0.3,0.3-0.9,0.5c-0.6,0.2-1.1,0.3-1.4,0.2c-0.6-0.1-1.2-0.4-1.5-0.8 c-0.4-0.5-0.5-1.1-0.5-1.7c0.1-0.7,0.5-1.4,1.2-2c0.7-0.6,1.4-0.8,2.1-0.7c0.2,0,0.4,0,0.4,0c0.1,0,0.1-0.1,0.1-0.2 c0-0.1-0.1-0.3-0.2-0.5c-0.2-0.3-0.4-0.5-0.8-0.5c-0.3,0-0.7,0.1-1,0.3c-0.5,0.5-0.9,0.5-1,0.1c-0.1-0.2-0.1-0.4,0.1-0.7 c0.2-0.3,0.4-0.5,0.7-0.8c0.3-0.2,0.5-0.3,0.6-0.4c0.2,0,0.5,0,0.9,0.1c0.8,0.2,1.4,0.6,1.8,1.2c0.4,0.6,0.6,1.5,0.7,2.7 c0,0.7,0,1.3-0.1,1.7s-0.4,0.7-0.7,1C459.6,19.6,459.5,19.8,459.4,19.8z M459.1,18.1c0-0.4,0-0.7-0.1-1c-0.2-0.7-0.7-0.7-1.6-0.1 c-0.3,0.2-0.5,0.4-0.6,0.5c-0.1,0.1-0.1,0.3-0.2,0.5c0,0.4,0.1,0.7,0.3,0.8c0.2,0.1,0.6,0.1,1.1,0c0.4-0.1,0.6-0.2,0.7-0.3 C459,18.5,459,18.3,459.1,18.1z"></path> <path class="st1" d="M474.1,14.7c-0.1,0.9-0.1,1.9-0.1,3c0,1.1,0.1,1.9,0.2,2.4c0.3,1,0.1,1.6-0.5,1.6c-0.4,0-0.7-0.3-1-1l-0.7,0.6 c-0.4,0.3-0.6,0.5-0.8,0.5c-0.1,0-0.5,0-1.2-0.2c-0.6-0.2-1.1-0.3-1.3-0.4c-0.3-0.1-0.6-0.3-0.8-0.6s-0.4-0.6-0.4-1 c0-0.4,0-1,0.1-1.7c0.2-1,0.3-1.6,0.6-2c0.2-0.4,0.6-0.7,1.2-1c0.4-0.2,1-0.3,1.9-0.2l1.2,0.2c0-0.1,0-0.3,0-0.5c0-0.3,0-0.5,0-0.7 c0-0.2,0-0.4,0-0.6s0-0.4,0.1-0.6s0.1-0.3,0.2-0.3c0.5-0.6,0.9-0.6,1.1,0C474.2,12.7,474.2,13.6,474.1,14.7z M469,18.5 c-0.1,0.6,0,1,0.2,1.2c0.2,0.2,0.5,0.4,1.1,0.4c0.4,0,0.6,0,0.7,0c0.1,0,0.3-0.2,0.4-0.4c0.1-0.2,0.2-0.5,0.4-0.9s0.2-0.8,0.3-1.2 s0-0.7-0.2-0.9c-0.2-0.2-0.5-0.4-0.9-0.5c-0.4-0.1-0.8,0-1.1,0.1C469.4,16.7,469.1,17.4,469,18.5z"></path> <path class="st1" d="M476.5,21.6c-0.3,0-0.5-0.3-0.6-0.7c0-0.4,0-1.3,0.1-2.7c0.2-1.8,0.4-2.7,0.6-2.9c0.2-0.2,0.4-0.3,0.6-0.2 c0.2,0,0.3,0.2,0.4,0.5c0,0.5,0,1.5-0.1,3c-0.1,1.3-0.2,2.2-0.3,2.6C477.1,21.5,476.8,21.6,476.5,21.6z"></path> <path class="st1" d="M484.2,22.8c-0.3,0-0.5-0.1-0.6-0.3c-0.1-0.1-0.1-1-0.2-2.6s-0.2-2.5-0.3-2.6c-0.3-0.7-0.9-0.7-1.7-0.2 c-0.7,0.5-1.2,1.6-1.4,3.5c-0.1,1-0.3,1.5-0.5,1.6c-0.3,0.1-0.5-0.1-0.6-0.4c-0.1-0.4-0.1-1-0.1-1.8c0.1-2.5,1-3.9,2.6-4.5 c1.1-0.4,1.9-0.2,2.5,0.4c0.4,0.4,0.6,0.8,0.8,1.4c0.1,0.5,0.2,1.4,0.3,2.5c0,1.2,0,2.1-0.1,2.4C484.7,22.7,484.5,22.9,484.2,22.8z "></path> <path class="st1" d="M488.6,16.4c0.6-0.3,1.4-0.3,2.3-0.1c0.9,0.2,1.5,0.6,1.6,1c0.2,0.7-0.1,1.3-0.8,1.9c-0.8,0.7-1.8,1-2.9,0.8 c-0.4-0.1-0.7-0.1-0.8-0.1c-0.1,0-0.1,0.2-0.1,0.4c0,0.4,0.1,0.7,0.4,0.9s0.8,0.3,1.6,0.5c1,0.2,1.6,0.4,1.5,0.6 c0,0.1-0.2,0.3-0.5,0.6c-0.3,0.2-0.5,0.3-0.7,0.3c-0.2,0-0.6,0-1.2-0.1c-2.1-0.4-3-1.7-2.5-3.8c0.1-0.6,0.4-1.2,0.8-1.7 C487.8,16.9,488.2,16.6,488.6,16.4z M490.9,18c0-0.2-0.2-0.4-0.6-0.4c-0.5-0.1-0.8,0-1.2,0.2c-0.2,0.1-0.4,0.3-0.5,0.4 c-0.1,0.1-0.1,0.2,0,0.3s0.2,0.2,0.4,0.2c0.3,0,0.7,0,1.2-0.2C490.7,18.3,490.9,18.1,490.9,18z"></path> <path class="st1" d="M499.5,18.6c-0.1,0.5-0.6,0.5-1.5,0.1c-0.9-0.4-1.6-0.4-2,0.1c-0.4,0.5-0.7,1.5-0.9,3.1 c-0.1,1.3-0.2,2-0.4,2.1c-0.2,0.1-0.4,0.1-0.7-0.1s-0.4-0.3-0.5-0.4c-0.1-0.2,0-1.3,0.1-3.3c0.1-1.4,0.2-2.2,0.2-2.5 c0.1-0.3,0.2-0.5,0.3-0.6c0.2-0.1,0.4,0,0.6,0.3c0.2,0.2,0.4,0.3,0.5,0.2c0.1-0.1,0.4-0.2,0.8-0.4c0.7-0.3,1.4-0.2,2.1,0.1 C499.2,17.7,499.6,18.1,499.5,18.6z"></path> <path class="st1" d="M503,17.8c0.4-0.2,0.7-0.3,0.9-0.3s0.5,0,0.9,0.1c1,0.2,1.7,0.8,2.1,1.6c0.4,0.7,0.4,1.5,0.3,2.5 c-0.2,1-0.6,1.7-1.2,2.2c-0.4,0.4-1,0.6-1.7,0.7c-0.7,0.1-1.3,0-1.9-0.2c-0.9-0.4-1.5-1-1.7-1.8c-0.3-0.9-0.2-1.7,0.2-2.6 C501.4,19,502.1,18.3,503,17.8z M503.5,22.9c0.6,0.1,1,0,1.3-0.2c0.3-0.2,0.6-0.5,0.7-0.9c0.2-0.5,0.2-0.9,0.2-1.4 c-0.1-0.5-0.2-0.9-0.5-1.1c-0.3-0.3-0.7-0.4-1.1-0.4c-0.4,0-0.7,0.2-1,0.5c-0.7,0.7-1.1,1.5-1,2.2c0,0.4,0.1,0.8,0.3,1 C502.7,22.8,503,22.9,503.5,22.9z"></path> <path class="st2" d="M510.5,24.8c0,0.2-0.1,0.4-0.1,0.5c-0.1,0.1-0.2,0.1-0.5,0c-0.3,0-0.5-0.1-0.6-0.3c-0.1-0.2,0-0.4,0.1-0.7 c0.1-0.2,0.3-0.2,0.6-0.1c0.2,0,0.3,0.1,0.4,0.2C510.5,24.5,510.5,24.6,510.5,24.8z M510.7,14.9c0.1-0.2,0.3-0.3,0.5-0.3 c0.2,0.1,0.4,0.2,0.5,0.5c0.1,0.3,0,1.3-0.2,3.2c-0.2,1.9-0.4,3.1-0.6,3.6c-0.1,0.3-0.2,0.5-0.3,0.6c-0.1,0.1-0.2,0.2-0.3,0.2 c-0.4,0-0.6-0.2-0.7-0.7s0.1-1.6,0.3-3.4C510.3,16.4,510.6,15.1,510.7,14.9z"></path> </g> <g> <path class="st2" d="M412.4,15.8c-0.1,0.2-0.3,0.3-0.5,0.3c-0.2-0.1-0.4-0.2-0.5-0.5c-0.1-0.3,0-1.3,0.2-3.2 c0.2-1.9,0.4-3.1,0.6-3.6c0.1-0.3,0.2-0.5,0.3-0.6c0.1-0.1,0.2-0.2,0.3-0.1c0.4,0,0.6,0.2,0.7,0.7c0,0.4-0.1,1.6-0.3,3.4 C412.7,14.3,412.5,15.6,412.4,15.8z M412.6,5.9c0-0.2,0.1-0.4,0.1-0.5c0.1-0.1,0.2-0.1,0.5,0c0.3,0,0.5,0.1,0.6,0.3 c0.1,0.2,0,0.4-0.1,0.7c-0.1,0.2-0.3,0.2-0.6,0.1c-0.2,0-0.3-0.1-0.4-0.2C412.6,6.3,412.6,6.1,412.6,5.9z"></path> </g> </svg> 