<?xml version="1.0" encoding="UTF-8"?> <svg xmlns="http://www.w3.org/2000/svg" viewBox="0 0 100 100" fill-rule="evenodd"> <g fill="#20537a"> <path d="M56.939 45.942a1.452 1.452 0 1 0 2.906 0c0-4.032-3.57-7.372-8.208-7.959v-6.176a1.452 1.452 0 1 0-2.906 0v6.176c-4.638.588-8.208 3.928-8.208 7.959 0 4.029 3.569 7.368 8.208 7.956v10.291c-3.028-.508-5.303-2.571-5.303-5.035a1.452 1.452 0 1 0-2.906 0c0 4.035 3.571 7.377 8.209 7.963v6.173a1.452 1.452 0 1 0 2.906 0v-6.174c4.639-.59 8.207-3.93 8.207-7.961 0-4.03-3.569-7.369-8.207-7.958V40.911c3.029.509 5.302 2.57 5.302 5.031zm-13.509 0c0-2.461 2.274-4.521 5.302-5.03V50.97c-3.028-.509-5.302-2.569-5.302-5.028zm13.508 13.211c0 2.461-2.273 4.522-5.301 5.033V54.123c3.029.511 5.301 2.571 5.301 5.03z"></path> <path d="M50.177 24.291c-15.58 0-28.255 12.675-28.255 28.255 0 15.58 12.675 28.255 28.255 28.255 15.58 0 28.255-12.675 28.255-28.255 0-15.58-12.675-28.255-28.255-28.255zm0 53.604c-13.978 0-25.349-11.371-25.349-25.349s11.371-25.349 25.349-25.349 25.349 11.371 25.349 25.349-11.372 25.349-25.349 25.349zm48.65 9.333a1.454 1.454 0 0 0-2.055.031l-5.209 5.372V45.3a1.452 1.452 0 1 0-2.906 0v47.401l-5.332-5.499a1.454 1.454 0 0 0-2.086 2.024l7.794 8.037a1.45 1.45 0 0 0 2.086 0l7.739-7.98a1.453 1.453 0 0 0-.031-2.055zM11.36 2.423c-.045-.045-.103-.063-.151-.101l-.07-.047c-.566-.385-1.331-.353-1.833.149l-7.795 7.792a1.453 1.453 0 0 0 2.054 2.055l5.348-5.346V52.86a1.452 1.452 0 1 0 2.906 0V6.991l5.229 5.225a1.454 1.454 0 0 0 2.055-2.055L11.36 2.423z"></path> </g> </svg> 