<?xml version="1.0" encoding="UTF-8"?> <!-- Generator: Adobe Illustrator 24.0.2, SVG Export Plug-In . SVG Version: 6.00 Build 0) --> <svg xmlns="http://www.w3.org/2000/svg" xmlns:xlink="http://www.w3.org/1999/xlink" id="Capa_1" x="0px" y="0px" viewBox="0 0 28 34.8" style="enable-background:new 0 0 28 34.8;" xml:space="preserve"> <style type="text/css"> .st0{fill:#053857;stroke:#053857;stroke-width:0.25;stroke-miterlimit:10;} .st1{fill:#053857;stroke:#053857;stroke-width:0.75;stroke-miterlimit:10;} </style> <title>111</title> <g> <g> <g> <path class="st0" d="M18.4,12.5c0,0.6-0.4,1.1-0.9,1.2c-0.5,0.1-1-0.1-1.3-0.6c-0.1-0.3-0.2-0.5-0.3-0.8c-0.4-0.8-1-1.1-1.9-1 c-0.8,0.1-1.2,0.5-1.4,1.2c-0.2,0.8,0.1,1.5,0.8,2c0.4,0.2,0.8,0.4,1.1,0.5c0.8,0.4,1.7,0.8,2.5,1.2c1.4,0.9,1.7,2.2,1.5,3.7 c-0.2,1.4-1.1,2.2-2.3,2.7c-0.2,0.1-0.4,0.1-0.6,0.2C15.1,23,15,23.2,15,23.6c0,0.8-0.2,1.1-0.7,1.2c-0.5,0-0.7-0.3-0.8-1.2 c0-0.4-0.2-0.6-0.6-0.8c-0.5-0.1-0.9-0.3-1.3-0.5c-0.8-0.4-1.3-1.1-1.6-2c-0.2-0.7,0.1-1.3,0.7-1.5c0.6-0.2,1.2,0.1,1.5,0.8 c0.5,1.2,1.3,1.7,2.6,1.5c0.7-0.1,1.3-0.5,1.6-1.2c0.2-0.7,0-1.5-0.7-1.9c-0.4-0.3-0.9-0.4-1.3-0.6c-0.8-0.4-1.7-0.7-2.4-1.2 c-1.3-0.8-1.6-2-1.5-3.4c0.1-1.4,0.9-2.4,2.2-2.9c0.1-0.1,0.3-0.1,0.5-0.2c0.6-0.1,0.8-0.4,0.7-1c0-0.2,0-0.5,0.1-0.7 c0.1-0.3,0.4-0.5,0.7-0.5c0.4,0,0.6,0.2,0.7,0.5c0,0.1,0,0.1,0,0.2c0,1.4,0.5,1.4,1.3,1.7C17.6,10.3,18.2,11.3,18.4,12.5z"></path> </g> <g> <path class="st1" d="M18.1,33.8H5.3c-2.4,0-4.3-1.9-4.3-4.3V5.3C1,2.9,2.9,1,5.3,1h17.5c2.4,0,4.3,1.9,4.3,4.3v19.4L18.1,33.8z M5.3,2.3c-1.7,0-3,1.3-3,3v24.2c0,1.7,1.3,3,3,3h12.3l8.3-8.3V5.3c0-1.7-1.3-3-3-3H5.3z"></path> <path class="st1" d="M18,33.5c-0.1,0-0.2,0-0.2,0c-0.2-0.1-0.4-0.3-0.4-0.6v-4.8c0-2.2,1.8-3.9,3.9-3.9h4.8 c0.3,0,0.5,0.2,0.6,0.4c0.1,0.2,0,0.5-0.1,0.7l-8.1,8.1C18.3,33.5,18.2,33.5,18,33.5z M21.3,25.5c-1.5,0-2.6,1.2-2.6,2.6v3.2 l5.9-5.9H21.3z"></path> </g> </g> </g> </svg> 