<?xml version="1.0" encoding="UTF-8"?> <svg xmlns="http://www.w3.org/2000/svg" id="Layer_1" data-name="Layer 1" viewBox="0 0 95.83 95.83"> <defs> <style>.cls-1{fill:#25858c;stroke:#fff;stroke-miterlimit:10;stroke-width:4px;}.cls-2{fill:#fff;}</style> </defs> <title>DIAG COLOR</title> <circle class="cls-1" cx="47.92" cy="47.92" r="45.92"></circle> <path class="cls-2" d="M18.51,37.84c4-1.29,8-2.52,11.89-3.89,9.82-3.4,19.62-6.87,29.43-10.3.89-.32,1.81-.59,3-1,1.91,5.47,3.76,10.73,5.7,16.28h-4.2c-.51-1.4-1.09-2.92-1.61-4.46a2.37,2.37,0,0,0-2.85-1.87,3.77,3.77,0,0,1-4-1.71A3,3,0,0,0,53.17,30c-8.05,2.83-16,5.83-24.07,8.73a20.92,20.92,0,0,1-3.46.62v17.5l-.56.06L18.51,39Z"></path> <path class="cls-2" d="M27.93,41.34H74.45v28H27.93Zm23.2,24.45c3.79,0,7.58,0,11.37,0,1.65,0,2.85-.41,3.15-2.25a2.72,2.72,0,0,1,2.56-2.4,2.38,2.38,0,0,0,2.39-2.7c0-2,0-3.89,0-5.84,0-1.66-.46-2.82-2.36-3a2.74,2.74,0,0,1-2.6-2.36c-.3-1.82-1.44-2.3-3.11-2.3-7.58,0-15.17,0-22.75,0-1.54,0-2.69.42-3,2.09a2.9,2.9,0,0,1-2.74,2.58c-1.73.21-2.26,1.26-2.26,2.82,0,2,0,3.89,0,5.84,0,1.54.48,2.65,2.22,2.85a2.75,2.75,0,0,1,2.69,2.26c.35,2.2,1.78,2.46,3.61,2.43C43.93,65.76,47.53,65.8,51.13,65.79Z"></path> <path class="cls-2" d="M58.43,55.51c-.07,3.72-3.19,6.5-7.22,6.44s-7.13-3.13-7-6.72,3.35-6.49,7.31-6.44A6.7,6.7,0,0,1,58.43,55.51Z"></path> <path class="cls-2" d="M38.47,52.44a2.94,2.94,0,1,1-3.21,3A3,3,0,0,1,38.47,52.44Z"></path> <path class="cls-2" d="M67.16,55.32a3.11,3.11,0,1,1-3-2.88A3,3,0,0,1,67.16,55.32Z"></path> </svg> 