<?xml version="1.0" encoding="UTF-8"?> <svg xmlns="http://www.w3.org/2000/svg" id="Capa_1" data-name="Capa 1" viewBox="0 0 184.12 184.12"> <defs> <style>.cls-1,.cls-4{fill:#fff;}.cls-1{stroke:#00bfbf;stroke-width:3px;}.cls-1,.cls-3,.cls-4{stroke-miterlimit:10;}.cls-2{fill:#00bfbf;}.cls-3{fill:none;stroke-width:2px;}.cls-3,.cls-4{stroke:#fff;}.cls-4{stroke-width:0.25px;}</style> </defs> <title>Grupo_6</title> <circle class="cls-1" cx="92.06" cy="92.06" r="90.56"></circle> <circle class="cls-2" cx="92.06" cy="92.06" r="82.64"></circle> <circle class="cls-3" cx="73.22" cy="89.59" r="6.63"></circle> <path class="cls-3" d="M72.75,100.24h.94a10.83,10.83,0,0,1,10.83,10.83v3.36A3.49,3.49,0,0,1,81,117.93H65.41a3.49,3.49,0,0,1-3.49-3.49v-3.36a10.83,10.83,0,0,1,10.83-10.83Z"></path> <circle class="cls-3" cx="110.9" cy="89.59" r="6.63"></circle> <path class="cls-3" d="M110.44,100.24h.94a10.83,10.83,0,0,1,10.83,10.83v3.36a3.49,3.49,0,0,1-3.49,3.49H103.09a3.49,3.49,0,0,1-3.49-3.49v-3.36A10.83,10.83,0,0,1,110.44,100.24Z"></path> <circle class="cls-4" cx="74.99" cy="76.39" r="0.97"></circle> <circle class="cls-4" cx="78.26" cy="72.41" r="0.97"></circle> <circle class="cls-4" cx="82.26" cy="69.26" r="0.97"></circle> <circle class="cls-4" cx="87.03" cy="67.78" r="0.97"></circle> <circle class="cls-4" cx="91.33" cy="67.16" r="0.97"></circle> <circle class="cls-4" cx="107.68" cy="76.39" r="0.97"></circle> <circle class="cls-4" cx="104.41" cy="72.41" r="0.97"></circle> <circle class="cls-4" cx="100.41" cy="69.26" r="0.97"></circle> <circle class="cls-4" cx="95.63" cy="67.78" r="0.97"></circle> </svg> 