<?xml version="1.0" encoding="UTF-8"?> <!-- Generator: Adobe Illustrator 24.0.2, SVG Export Plug-In . SVG Version: 6.00 Build 0) --> <svg xmlns="http://www.w3.org/2000/svg" xmlns:xlink="http://www.w3.org/1999/xlink" id="Capa_1" x="0px" y="0px" viewBox="0 0 140 136" style="enable-background:new 0 0 140 136;" xml:space="preserve"> <style type="text/css"> .st0{fill:#00BFBF;} .st1{fill:#25858C;stroke:#25858C;stroke-width:2;stroke-miterlimit:10;} .st2{fill:#25858C;} .st3{fill:#2E5D87;} .st4{fill:#FFFFFF;} .st5{fill:none;stroke:#2E5D87;stroke-width:4.5;stroke-miterlimit:10;} .st6{fill:#2E5D87;stroke:#2E5D87;stroke-width:0.25;stroke-miterlimit:10;} .st7{fill:none;stroke:#25858C;stroke-width:4;stroke-linecap:round;stroke-miterlimit:10;} </style> <g> <path class="st0" d="M87.56,115.12c-5.36-2.67-9.56-4.56-13.56-6.82c-2.76-1.55-5.16-1.67-7.91-0.05 c-2.86,1.69-5.88,3.12-8.88,4.55c-4.36,2.07-5.31,1.52-5.34-3.27c-0.07-9.33-0.15-18.66,0.03-27.98c0.1-5.16-0.87-9.08-6.8-10.28 c-1.24-0.25-3.27-2.79-2.99-3.48c2.37-5.83-0.44-9.86-4.74-13.67c1.1-1.49,1.77-2.86,2.85-3.76c2.77-2.32,3.65-5.08,2.35-8.39 c-1.39-3.56-0.03-5.54,3.47-6.01c3.96-0.54,5.61-2.99,6.33-6.54c0.62-3.02,2.41-4.37,5.41-3.16c3.77,1.53,6.77,0.57,9.31-2.41 c2.1-2.46,4.26-2.41,6.21,0.08c2.5,3.18,5.58,3.91,9.25,2.49c3.23-1.25,4.86,0.36,5.33,3.24c0.65,4,2.89,6.06,6.74,6.76 c3.17,0.58,4.13,2.56,3.03,5.48c-1.32,3.51-0.78,6.46,2.19,8.91c2.57,2.12,2.84,4.43,0.07,6.58c-3.03,2.36-3.82,5.32-2.48,8.79 c1.3,3.38-0.08,5.23-3.29,5.72c-5.07,0.77-6.22,3.85-6.11,8.46c0.22,9.32,0.09,18.65,0.05,27.98 C88.06,110.1,87.81,111.84,87.56,115.12z M55.91,77.68c6.15-2.93,10.51-0.89,14.28,3.81c3.34-6.03,8.11-5.55,13.44-4.02 c0.45-6.09,3.86-8.98,9.77-9.67c-2.12-5.59-1.4-10.17,4.09-13.62c-5.21-3.58-6.14-8.12-3.86-13.86c-6.34-0.4-9.08-4.19-10.02-10.06 c-5.89,3.09-10.03,0.81-13.72-3.79c-3.41,5.82-8.31,5.51-13.74,4.08c-0.13,6.46-4.19,8.7-9.78,9.74c2.79,5.76,1.01,10.03-3.9,13.65 c5.66,3.46,5.72,8.24,4.07,13.59C52.21,68.38,55.59,71.08,55.91,77.68z M56.37,82.13c0,8.74,0,17.14,0,27.37 c9.2-9.21,18.12-7.8,27.28-0.61c0-9.73,0-18.15,0-26.52c-3.87-1.75-7.41-2.4-10.43,1.38c-2.28,2.85-4.71,2.76-6.96-0.09 C63.49,80.16,60.19,80.17,56.37,82.13z"></path> <path class="st0" d="M49.87,53.56c0.17-11.01,9.28-19.82,20.37-19.7c11.22,0.12,20.11,9.42,19.82,20.75 c-0.28,10.97-9.52,19.68-20.63,19.45C58.44,73.83,49.69,64.67,49.87,53.56z M69.99,38.08c-8.65-0.01-15.89,7.21-15.91,15.86 c-0.02,8.65,7.21,15.9,15.85,15.92c8.63,0.01,15.9-7.23,15.91-15.86C85.87,45.34,78.64,38.09,69.99,38.08z"></path> </g> </svg> 