<?xml version="1.0" encoding="UTF-8"?> <svg xmlns="http://www.w3.org/2000/svg" viewBox="0 0 370.58 359.5"> <defs> <style>.cls-1{fill:none;stroke:#25858c;stroke-width:3px;}.cls-1,.cls-2{stroke-miterlimit:10;}.cls-2{fill:#fff;stroke:#fff;stroke-width:7px;}.cls-3,.cls-5{font-size:22px;}.cls-3{fill:#00bfbf;}.cls-3,.cls-4,.cls-5{font-family:Roboto-Medium, Roboto;font-weight:500;}.cls-4{font-size:23px;fill:#1f5875;}.cls-5{fill:#25858c;}</style> </defs> <title>DIAG COLOR</title> <g id="Layer_4" data-name="Layer 4"> <circle class="cls-1" cx="187.38" cy="184.09" r="153.27"></circle> <path class="cls-2" d="M225.5,339.75a6.77,6.77,0,0,0,8.42,4.94c70.33-20.3,121.77-85,121.77-161.77q0-5.1-.3-10.12c-.19-3.23-.48-6.43-.85-9.61a6.82,6.82,0,0,0-7.85-6l-28.48,4.62a6.79,6.79,0,0,0-5.66,7.44c.22,2,.38,4.06.51,6.1.14,2.5.22,5,.22,7.54a126.35,126.35,0,0,1-90,121,6.77,6.77,0,0,0-4.59,8.11ZM317.32,88.54a7.48,7.48,0,0,0,1.44-10.75A168.95,168.95,0,0,0,62.14,69.67a6.81,6.81,0,0,0,.57,9.74L84.4,98.16a6.77,6.77,0,0,0,9.42-.52A126.3,126.3,0,0,1,285,103.28a7.46,7.46,0,0,0,10.18,1.33Z"></path> <path class="cls-2" d="M18.42,190.21a168.75,168.75,0,0,0,99.84,146.55,6.8,6.8,0,0,0,9.15-3.78l10.15-26.7a6.79,6.79,0,0,0-3.49-8.57A126.49,126.49,0,0,1,60.84,189.53a6.79,6.79,0,0,0-6.78-6.43H25.22A6.81,6.81,0,0,0,18.42,190.21Z"></path> <text class="cls-3" transform="matrix(0.74, -0.67, 0.67, 0.74, 89.37, 84.75)">E</text> <text class="cls-3" transform="matrix(0.81, -0.59, 0.59, 0.81, 98.13, 76.49)">M</text> <text class="cls-3" transform="translate(113.45 65.53) rotate(-29.25)">P</text> <text class="cls-3" transform="translate(125.35 58.81) rotate(-23.35)">O</text> <text class="cls-3" transform="matrix(0.96, -0.28, 0.28, 0.96, 138.85, 52.82)">W</text> <text class="cls-3" transform="translate(157.07 47.66) rotate(-9.88)">E</text> <text class="cls-3" transform="translate(169 45.53) rotate(-4.6)">R</text> <text class="cls-3" transform="translate(182.41 44.59) rotate(-0.77)"> </text> <text class="cls-3" transform="matrix(1, 0.06, -0.06, 1, 187.65, 44.35)">A</text> <text class="cls-3" transform="translate(201.89 45.13) rotate(9.03)">D</text> <text class="cls-3" transform="matrix(0.97, 0.25, -0.25, 0.97, 215.49, 47.27)">V</text> <text class="cls-3" transform="matrix(0.94, 0.35, -0.35, 0.94, 228.78, 50.71)">O</text> <text class="cls-3" transform="translate(242.64 55.93) rotate(26.64)">C</text> <text class="cls-3" transform="translate(255.16 62.19) rotate(32.5)">A</text> <text class="cls-3" transform="translate(266.14 69.13) rotate(37.6)">T</text> <text class="cls-3" transform="translate(276.46 77.08) rotate(42.78)">E</text> <text class="cls-3" transform="translate(285.36 85.27) rotate(47.92)">S</text> <text class="cls-4" transform="translate(241.51 329.92) rotate(-23.24)">G</text> <text class="cls-4" transform="matrix(0.87, -0.49, 0.49, 0.87, 257.87, 322.69)">E</text> <text class="cls-4" transform="matrix(0.82, -0.58, 0.58, 0.82, 271.25, 315.06)">T</text> <text class="cls-4" transform="translate(283.54 306.17) rotate(-39.21)"> </text> <text class="cls-4" transform="matrix(0.72, -0.69, 0.69, 0.72, 289.54, 301.39)">R</text> <text class="cls-4" transform="matrix(0.65, -0.76, 0.76, 0.65, 301.42, 289.89)">E</text> <text class="cls-4" transform="translate(311.18 278.37) rotate(-54.76)">F</text> <text class="cls-4" transform="translate(319.62 266.26) rotate(-60.21)">E</text> <text class="cls-4" transform="matrix(0.41, -0.91, 0.91, 0.41, 327.1, 253.04)">R</text> <text class="cls-4" transform="translate(333.74 237.82) rotate(-72.11)">R</text> <text class="cls-4" transform="translate(338.75 221.97) rotate(-78.41)">A</text> <text class="cls-4" transform="translate(342.08 204.79) rotate(-84.33)">L</text> <text class="cls-4" transform="matrix(0, -1, 1, 0, 343.45, 190.29)">S</text> <text class="cls-5" transform="matrix(0.16, 0.99, -0.99, 0.16, 31.3, 200.71)">G</text> <text class="cls-5" transform="translate(34.18 217.57) rotate(74.71)">R</text> <text class="cls-5" transform="matrix(0.36, 0.93, -0.93, 0.36, 38.44, 232.86)">O</text> <text class="cls-5" transform="matrix(0.48, 0.88, -0.88, 0.48, 44.84, 249.16)">W</text> <text class="cls-5" transform="translate(55.41 267.71) rotate(56.17)"> </text> <text class="cls-5" transform="matrix(0.61, 0.79, -0.79, 0.61, 59.39, 273.78)">S</text> <text class="cls-5" transform="matrix(0.69, 0.72, -0.72, 0.69, 68.87, 285.86)">A</text> <text class="cls-5" transform="matrix(0.76, 0.65, -0.65, 0.76, 80.52, 297.8)">L</text> <text class="cls-5" transform="translate(91.09 306.79) rotate(35.54)">E</text> <text class="cls-5" transform="translate(102.92 315.15) rotate(30.08)">S</text> </g> </svg> 