<?xml version="1.0" encoding="UTF-8"?> <!-- Generator: Adobe Illustrator 24.0.2, SVG Export Plug-In . SVG Version: 6.00 Build 0) --> <svg xmlns="http://www.w3.org/2000/svg" xmlns:xlink="http://www.w3.org/1999/xlink" id="Capa_1" x="0px" y="0px" viewBox="0 0 519.4 45.9" style="enable-background:new 0 0 519.4 45.9;" xml:space="preserve"> <style type="text/css"> .st0{fill:none;stroke:#1EBEBE;stroke-width:2.5;stroke-linecap:round;stroke-linejoin:round;} .st1{enable-background:new ;} .st2{fill:#1EBEBE;stroke:#1EBEBE;stroke-width:0.25;stroke-miterlimit:10;} </style> <title>Captura de pantalla 2020-10-13 a las 7.35.24 a.m.</title> <path class="st0" d="M407.4,12.1c-16.4,0-45.3,2.9-68.3,31"></path> <polyline class="st0" points="351.7,39.3 339.1,43.1 340.4,31.6 "></polyline> <g class="st1"> <path class="st2" d="M416.7,11.2c0,0.4,0.3,0.8,0.9,1.4c0.6,0.5,1.2,1.2,1.7,1.9c0.3,0.5,0.5,0.8,0.6,1.1s0.1,0.6,0,1 c-0.2,1.3-1.2,1.8-3,1.6c-1.1-0.2-1.9-0.5-2.5-1c-0.5-0.5-0.6-1-0.2-1.5c0.2-0.2,0.7-0.1,1.6,0.2c0.7,0.3,1.2,0.4,1.6,0.4 s0.6-0.1,0.7-0.3c0-0.2-0.8-1.2-2.6-3c-0.6-0.6-0.8-1.4-0.5-2.4c0.2-0.9,0.8-1.6,1.6-2c0.6-0.3,1.2-0.4,1.9-0.2 c0.6,0.1,1.1,0.4,1.4,0.8c0.3,0.5,0.4,0.8,0.2,1c-0.2,0.2-0.5,0.2-1.1,0s-1.1-0.2-1.5,0C417,10.5,416.8,10.8,416.7,11.2z"></path> <path class="st2" d="M427.3,18.9c0,0.2-0.4,0.4-1.2,0.6c-0.8,0.2-1.4,0.3-1.8,0.3c-0.8-0.1-1.5-0.5-2-1.1s-0.7-1.4-0.6-2.2 c0.1-1,0.6-1.8,1.5-2.5s1.8-1.1,2.8-0.9c0.3,0,0.5,0,0.6,0s0.1-0.1,0.1-0.2c0-0.1-0.1-0.3-0.3-0.6c-0.2-0.4-0.5-0.6-1-0.6 c-0.4,0-0.9,0.1-1.3,0.4c-0.7,0.6-1.1,0.7-1.4,0.2c-0.1-0.2-0.1-0.5,0.1-0.9s0.5-0.7,0.9-1c0.3-0.3,0.6-0.4,0.8-0.4s0.6,0,1.2,0.1 c1,0.2,1.8,0.7,2.3,1.5s0.8,1.9,0.9,3.5c0.1,0.9,0,1.6-0.2,2.1s-0.5,0.9-0.9,1.2C427.5,18.5,427.3,18.8,427.3,18.9z M426.8,16.6 c0.1-0.5,0-0.9-0.1-1.3c-0.2-0.9-0.9-0.9-2-0.1c-0.4,0.3-0.6,0.5-0.7,0.7c-0.1,0.2-0.2,0.4-0.2,0.7c0,0.5,0.1,0.9,0.4,1.1 s0.8,0.2,1.5,0c0.5-0.1,0.8-0.2,1-0.4C426.7,17.1,426.8,16.9,426.8,16.6z"></path> <path class="st2" d="M433.7,14.1c0,0.1,0.2,0.8,0.5,2c0.9-1.8,1.7-3.2,2.5-4.1c0.3-0.4,0.6-0.7,0.7-0.8c0.2-0.1,0.4-0.1,0.7,0 c0.2,0.1,0.4,0.2,0.5,0.3s0.1,0.3,0.1,0.5s-0.1,0.5-0.3,0.9c-0.2,0.3-0.4,0.8-0.8,1.4c-1.1,1.9-1.8,3.1-2,3.5 c-0.5,0.9-0.9,1.5-1.3,1.6c-0.4,0.2-0.7,0-1-0.5s-0.6-1.4-1-2.7c-0.4-1.7-0.7-3-0.8-3.8c-0.1-0.8,0-1.3,0.2-1.5s0.5-0.2,0.6-0.2 c0.1,0.1,0.4,0.6,0.8,1.6C433.5,13.3,433.7,14,433.7,14.1z"></path> <path class="st2" d="M442.7,12c0.8-0.4,1.8-0.4,3-0.1c1.2,0.3,1.9,0.7,2,1.3c0.2,0.9-0.1,1.6-1,2.4c-1.1,0.9-2.3,1.3-3.8,1 c-0.6-0.1-0.9-0.1-1-0.1s-0.2,0.2-0.1,0.5c0,0.5,0.2,0.9,0.5,1.1s1,0.4,2.1,0.6c1.3,0.3,2,0.5,2,0.8c0,0.2-0.2,0.4-0.6,0.7 c-0.3,0.3-0.6,0.4-0.9,0.4c-0.2,0-0.7,0-1.5-0.2c-2.8-0.5-3.8-2.1-3.2-4.9c0.2-0.8,0.5-1.5,1-2.2C441.6,12.7,442.1,12.2,442.7,12z M445.7,14c0-0.3-0.2-0.5-0.8-0.6c-0.6-0.1-1.1,0-1.5,0.3c-0.3,0.2-0.5,0.4-0.6,0.5c-0.1,0.2-0.1,0.3-0.1,0.4 c0.1,0.1,0.3,0.2,0.5,0.2c0.4,0.1,1,0,1.5-0.3C445.3,14.5,445.6,14.3,445.7,14z"></path> <path class="st2" d="M460.1,13.8c0.5,0.1,0.8,0.2,1,0.3s0.5,0.4,0.8,0.9l0.8,1l0.5-0.5c0.3-0.3,0.6-0.5,1.1-0.6s1-0.1,1.4,0 c0.4,0.2,0.9,0.6,1.5,1.2c0.5,0.7,0.9,1.3,1,1.8c0.2,0.6,0.3,1.6,0.4,2.9s0.1,2.1,0,2.3c-0.1,0.2-0.3,0.3-0.7,0.4 c-0.8,0.1-1.3-0.7-1.4-2.4c-0.1-1.3-0.1-2.1-0.2-2.4c-0.1-0.5-0.3-0.9-0.7-1.3c-0.3-0.4-0.6-0.6-0.9-0.6c-0.3,0.1-0.5,0.5-0.8,1.2 s-0.4,1.6-0.6,2.6c-0.1,1-0.3,1.7-0.4,2c-0.2,0.3-0.5,0.4-1,0.4c-0.3,0-0.6-0.2-0.7-0.5s-0.2-0.9-0.2-1.6c0-0.9-0.1-1.9-0.3-3 c-0.2-1.1-0.4-1.7-0.6-1.9c-0.4-0.5-1-0.2-1.5,0.8c-0.4,0.8-0.7,1.8-1,3.2c-0.2,1-0.3,1.6-0.4,1.8c-0.1,0.2-0.3,0.3-0.5,0.3 c-0.3,0-0.6-0.2-0.7-0.5c-0.1-0.4-0.2-1-0.2-2c0-2.2,0.8-3.8,2.2-5c0.4-0.4,0.8-0.6,1-0.7C459.4,13.8,459.7,13.8,460.1,13.8z"></path> <path class="st2" d="M473.9,15.5c0.5-0.3,0.8-0.4,1.1-0.4c0.3,0,0.7,0,1.2,0.2c1.2,0.3,2.1,1,2.7,2c0.5,0.9,0.6,2,0.3,3.2 c-0.2,1.2-0.8,2.2-1.5,2.8c-0.6,0.5-1.3,0.7-2.1,0.9c-0.9,0.1-1.7,0-2.4-0.3c-1.1-0.5-1.9-1.2-2.2-2.3c-0.3-1.1-0.2-2.2,0.3-3.4 C471.8,17,472.7,16.1,473.9,15.5z M474.5,22.1c0.7,0.1,1.3,0,1.7-0.2c0.4-0.2,0.7-0.6,0.9-1.2c0.2-0.6,0.3-1.2,0.2-1.8 c-0.1-0.7-0.3-1.1-0.6-1.5c-0.4-0.4-0.9-0.5-1.4-0.5s-1,0.2-1.3,0.6c-0.9,1-1.4,1.9-1.3,2.9c0,0.6,0.2,1,0.4,1.2 C473.4,21.8,473.9,22,474.5,22.1z"></path> <path class="st2" d="M487.8,26.3c-0.4,0-0.6-0.2-0.8-0.4c-0.1-0.2-0.2-1.3-0.2-3.3c-0.1-2.1-0.2-3.2-0.3-3.3 c-0.4-0.9-1.2-1-2.2-0.3c-0.9,0.6-1.5,2.1-1.8,4.5c-0.2,1.3-0.4,2-0.6,2c-0.4,0.1-0.7-0.1-0.8-0.5c-0.1-0.5-0.2-1.3-0.1-2.4 c0.2-3.2,1.3-5.1,3.4-5.7c1.4-0.4,2.4-0.3,3.2,0.5c0.5,0.5,0.8,1.1,1,1.8c0.2,0.7,0.3,1.8,0.3,3.3c0,1.6,0,2.6-0.1,3.1 C488.4,26.2,488.2,26.4,487.8,26.3z"></path> <path class="st2" d="M493.5,18c0.8-0.4,1.8-0.4,3-0.1s1.9,0.7,2,1.3c0.2,0.9-0.1,1.6-1,2.4c-1.1,0.9-2.3,1.3-3.8,1 c-0.6-0.1-0.9-0.1-1-0.1s-0.2,0.2-0.1,0.5c0,0.5,0.2,0.9,0.5,1.1s1,0.4,2.1,0.6c1.3,0.3,2,0.5,2,0.8c0,0.2-0.2,0.4-0.6,0.7 c-0.3,0.3-0.6,0.4-0.9,0.4c-0.2,0-0.7,0-1.5-0.2c-2.8-0.5-3.8-2.2-3.2-4.9c0.2-0.8,0.5-1.5,1-2.2C492.4,18.8,493,18.3,493.5,18z M496.5,20.1c0-0.3-0.2-0.5-0.8-0.6c-0.6-0.1-1.1,0-1.5,0.3c-0.3,0.2-0.5,0.4-0.6,0.5c-0.1,0.2-0.1,0.3-0.1,0.4 c0.1,0.1,0.3,0.2,0.5,0.2c0.4,0.1,1,0,1.5-0.3C496.1,20.5,496.4,20.3,496.5,20.1z"></path> <path class="st2" d="M507.1,25.9c-0.2,1.7-0.6,2.9-1.2,3.7c-0.6,0.8-1.5,1.3-2.7,1.5c-1,0.2-1.8,0.1-2.4-0.2 c-0.5-0.3-0.8-0.7-0.7-1.4c0-0.4,0.2-0.7,0.3-0.7c0.2-0.1,0.4,0,0.8,0.2s0.9,0.3,1.6,0.2c0.7-0.1,1.2-0.4,1.5-0.9s0.6-1.3,0.8-2.3 l-1,0.5c-1.3,0.7-2.4,0.4-3.2-0.7c-0.6-0.8-0.8-2.1-0.8-4c0-0.6,0-1,0.1-1.2s0.2-0.5,0.4-0.7c0.3-0.2,0.4-0.4,0.5-0.4 s0.2,0.1,0.4,0.2c0.1,0.2,0.2,0.4,0.3,0.5c0,0.2,0.1,0.3,0.1,0.5s0,0.4,0,0.7c0,0.3,0,0.6,0,1c0.1,1.4,0.4,2.2,0.8,2.4 c0.4,0.2,0.9-0.2,1.6-1.2c0.5-0.8,0.8-1.7,0.9-2.7c0.1-1.1,0.2-1.6,0.4-1.7c0.1-0.1,0.3-0.1,0.6-0.1c0.3,0,0.5,0.1,0.7,0.3 c0.2,0.2,0.3,1,0.4,2.5C507.3,23.3,507.3,24.7,507.1,25.9z"></path> <path class="st2" d="M510.3,27.9c0,0.3-0.1,0.5-0.2,0.6s-0.3,0.1-0.6,0c-0.4,0-0.6-0.2-0.7-0.4c-0.1-0.2-0.1-0.5,0.2-0.9 c0.1-0.2,0.4-0.3,0.8-0.2c0.3,0.1,0.4,0.1,0.5,0.2C510.3,27.4,510.3,27.6,510.3,27.9z M510.6,15.2c0.2-0.3,0.4-0.4,0.7-0.3 c0.3,0.1,0.5,0.3,0.6,0.7c0.1,0.4,0,1.7-0.3,4.1s-0.5,4-0.7,4.7c-0.1,0.4-0.2,0.6-0.3,0.7c-0.1,0.1-0.3,0.2-0.4,0.2 c-0.5,0-0.8-0.3-0.9-0.8c0-0.6,0.1-2,0.4-4.4C510.1,17.1,510.4,15.4,510.6,15.2z"></path> </g> </svg> 