<?xml version="1.0" encoding="UTF-8"?> <svg xmlns="http://www.w3.org/2000/svg" viewBox="1950 2450 100 100" width="100" height="100"><path fill="#00bfbf" stroke="#00bfbf" fill-opacity="1" stroke-width="1" stroke-opacity="1" color="rgb(51, 51, 51)" fill-rule="evenodd" id="tSvgeae013dcfd" title="Path 11" d="M 2037.666 2461.582 C 2017.3013333333333 2461.582 1996.9366666666667 2461.582 1976.572 2461.582 C 1972.924 2461.582 1970.001 2464.147 1969.917 2467.46 C 1969.917 2471.731333333333 1969.917 2476.0026666666668 1969.917 2480.274 C 1969.917 2481.4287005383794 1971.167 2482.1503883748665 1972.167 2481.5730381056765 C 1972.6311016151378 2481.3050889132455 1972.917 2480.809898384862 1972.917 2480.274 C 1972.917 2476.0153333333333 1972.917 2471.7566666666667 1972.917 2467.498 C 1972.958 2465.89 1974.598 2464.582 1976.572 2464.582 C 1996.9366666666667 2464.582 2017.3013333333333 2464.582 2037.666 2464.582 C 2039.684 2464.582 2041.325 2465.917 2041.325 2467.559 C 2041.325 2483.874333333333 2041.325 2500.1896666666667 2041.325 2516.505 C 2041.325 2518.148 2039.683 2519.484 2037.666 2519.484 C 2017.3013333333333 2519.484 1996.9366666666667 2519.484 1976.572 2519.484 C 1974.557 2519.484 1972.917 2518.148 1972.917 2516.505 C 1972.917 2514.1693333333333 1972.917 2511.833666666667 1972.917 2509.498 C 1972.917 2508.3432994616205 1971.667 2507.621611625134 1970.667 2508.1989618943235 C 1970.2028983848622 2508.4669110867544 1969.917 2508.9621016151377 1969.917 2509.498 C 1969.917 2511.833666666667 1969.917 2514.1693333333333 1969.917 2516.505 C 1969.917 2519.802 1972.902 2522.484 1976.572 2522.484 C 1986.1779999999999 2522.484 1995.784 2522.484 2005.39 2522.484 C 2005.39 2526.795666666667 2005.39 2531.1073333333334 2005.39 2535.419 C 1999.043 2535.419 1992.696 2535.419 1986.349 2535.419 C 1985.1942994616206 2535.419 1984.4726116251338 2536.669 1985.0499618943234 2537.669 C 1985.3179110867545 2538.1331016151375 1985.8131016151378 2538.419 1986.349 2538.419 C 1999.987 2538.419 2013.625 2538.419 2027.263 2538.419 C 2028.4177005383792 2538.419 2029.1393883748663 2537.169 2028.5620381056767 2536.169 C 2028.2940889132456 2535.704898384862 2027.7988983848622 2535.419 2027.263 2535.419 C 2020.972 2535.419 2014.681 2535.419 2008.39 2535.419 C 2008.39 2531.107 2008.39 2526.795 2008.39 2522.483 C 2018.1486666666667 2522.483 2027.9073333333333 2522.483 2037.666 2522.483 C 2041.338 2522.483 2044.325 2519.801 2044.325 2516.504 C 2044.325 2500.189 2044.325 2483.874 2044.325 2467.559C 2044.325 2464.263 2041.338 2461.582 2037.666 2461.582Z"></path><path fill="#00bfbf" stroke="#00bfbf" fill-opacity="1" stroke-width="1" stroke-opacity="1" color="rgb(51, 51, 51)" fill-rule="evenodd" id="tSvg12a636375fa" title="Path 12" d="M 1997.129 2486.057 C 2007.846 2486.057 2018.563 2486.057 2029.28 2486.057 C 2030.4347005383793 2486.057 2031.1563883748663 2484.807 2030.5790381056768 2483.807 C 2030.3110889132456 2483.342898384862 2029.8158983848623 2483.057 2029.28 2483.057 C 2018.563 2483.057 2007.846 2483.057 1997.129 2483.057 C 1995.9742994616208 2483.057 1995.2526116251338 2484.307 1995.8299618943233 2485.307C 1996.0979110867545 2485.771101615138 1996.5931016151378 2486.057 1997.129 2486.057Z M 1997.129 2495.556 C 2007.846 2495.556 2018.563 2495.556 2029.28 2495.556 C 2030.4347005383793 2495.556 2031.1563883748663 2494.306 2030.5790381056768 2493.306 C 2030.3110889132456 2492.8418983848624 2029.8158983848623 2492.556 2029.28 2492.556 C 2018.563 2492.556 2007.846 2492.556 1997.129 2492.556 C 1995.9742994616208 2492.556 1995.2526116251338 2493.806 1995.8299618943233 2494.806C 1996.0979110867545 2495.2701016151377 1996.5931016151378 2495.556 1997.129 2495.556Z M 1997.129 2505.58 C 2007.846 2505.58 2018.563 2505.58 2029.28 2505.58 C 2030.4347005383793 2505.58 2031.1563883748663 2504.33 2030.5790381056768 2503.33 C 2030.3110889132456 2502.8658983848622 2029.8158983848623 2502.58 2029.28 2502.58 C 2018.563 2502.58 2007.846 2502.58 1997.129 2502.58 C 1995.9742994616208 2502.58 1995.2526116251338 2503.83 1995.8299618943233 2504.83C 1996.0979110867545 2505.2941016151376 1996.5931016151378 2505.58 1997.129 2505.58Z M 1971.111 2498.725 C 1971.498 2498.725 1971.882 2498.576 1972.172 2498.286 C 1979.396 2491.0616666666665 1986.62 2483.8373333333334 1993.844 2476.613 C 1994.6745624775633 2475.8108159162653 1994.325274283388 2474.41034060659 1993.2152812495806 2474.0921444434575 C 1992.68218385854 2473.939324075006 1992.1082656985377 2474.0931049826354 1991.723 2474.492 C 1984.798 2481.4173333333333 1977.873 2488.3426666666664 1970.948 2495.268 C 1966.647 2492.206 1962.346 2489.144 1958.045 2486.082 C 1957.1159910292652 2485.3962335196093 1955.7929964326006 2485.9733111816467 1955.6636097248859 2487.120739790842 C 1955.6014594264595 2487.6719017435953 1955.84852724076 2488.2123746944035 1956.306 2488.526 C 1960.9516666666666 2491.833 1965.5973333333334 2495.14 1970.243 2498.447C 1970.504 2498.634 1970.809 2498.725 1971.111 2498.725Z"></path><defs> </defs></svg> 