<?xml version="1.0" encoding="UTF-8"?> <svg xmlns="http://www.w3.org/2000/svg" xmlns:xlink="http://www.w3.org/1999/xlink" id="svg" version="1.1" width="400" height="148.0608548659744" viewBox="0, 0, 400,148.0608548659744"><g id="svgg"><path id="path0" d="M54.583 33.116 C 54.217 33.148,53.317 33.286,52.583 33.423 C 51.850 33.559,50.762 33.743,50.167 33.832 C 48.780 34.038,47.701 34.313,47.141 34.604 C 46.898 34.730,46.613 34.833,46.508 34.833 C 46.403 34.833,46.007 34.983,45.627 35.167 C 45.248 35.350,44.858 35.500,44.760 35.501 C 44.663 35.502,44.368 35.614,44.105 35.751 C 43.842 35.888,43.436 36.035,43.202 36.078 C 42.968 36.120,42.725 36.239,42.662 36.342 C 42.598 36.444,42.517 36.522,42.481 36.513 C 42.308 36.471,41.333 36.924,41.333 37.046 C 41.333 37.123,41.271 37.148,41.195 37.101 C 41.119 37.054,40.815 37.237,40.518 37.508 C 40.222 37.779,39.872 38.000,39.740 38.000 C 39.608 38.000,39.500 38.079,39.500 38.177 C 39.500 38.274,39.425 38.307,39.333 38.250 C 39.242 38.193,39.167 38.226,39.167 38.323 C 39.167 38.421,39.110 38.491,39.042 38.480 C 38.709 38.428,38.491 38.517,38.583 38.667 C 38.640 38.758,38.569 38.833,38.427 38.833 C 38.284 38.833,38.167 38.913,38.167 39.010 C 38.167 39.107,38.100 39.145,38.017 39.094 C 37.935 39.043,37.825 39.114,37.773 39.251 C 37.720 39.388,37.570 39.500,37.440 39.500 C 37.309 39.500,37.159 39.612,37.106 39.750 C 37.054 39.887,36.896 40.000,36.755 40.000 C 36.615 40.000,36.500 40.077,36.500 40.172 C 36.500 40.266,36.370 40.394,36.212 40.454 C 36.054 40.515,35.764 40.738,35.568 40.949 C 35.372 41.160,35.156 41.333,35.088 41.333 C 34.891 41.333,32.167 44.135,32.167 44.338 C 32.167 44.438,32.094 44.475,32.005 44.420 C 31.916 44.365,31.795 44.510,31.737 44.742 C 31.679 44.974,31.583 45.141,31.524 45.113 C 31.465 45.085,31.251 45.235,31.048 45.448 C 30.845 45.660,30.732 45.836,30.798 45.838 C 30.863 45.841,30.785 45.920,30.625 46.013 C 30.465 46.107,30.333 46.284,30.333 46.407 C 30.333 46.530,30.216 46.676,30.073 46.731 C 29.929 46.786,29.856 46.901,29.909 46.987 C 29.962 47.073,29.855 47.249,29.671 47.379 C 29.486 47.508,29.385 47.663,29.446 47.723 C 29.506 47.784,29.475 47.833,29.378 47.833 C 29.116 47.833,27.906 49.881,27.974 50.208 C 27.988 50.277,27.925 50.333,27.833 50.333 C 27.742 50.333,27.667 50.429,27.667 50.546 C 27.667 50.663,27.513 50.890,27.326 51.051 C 27.139 51.211,27.031 51.415,27.086 51.504 C 27.141 51.594,27.125 51.667,27.051 51.667 C 26.905 51.667,26.629 52.228,26.315 53.167 C 26.207 53.487,26.015 53.871,25.888 54.019 C 25.761 54.166,25.640 54.522,25.620 54.810 C 25.600 55.097,25.527 55.333,25.458 55.333 C 25.390 55.333,25.333 55.468,25.333 55.633 C 25.333 55.798,25.270 56.005,25.193 56.092 C 25.054 56.248,24.582 57.692,24.405 58.500 C 24.303 58.964,24.299 58.981,24.034 59.917 C 23.857 60.539,23.764 61.056,23.567 62.500 C 23.523 62.821,23.458 63.252,23.421 63.458 C 23.384 63.672,23.440 63.834,23.553 63.836 C 23.702 63.838,23.701 63.870,23.549 63.966 C 23.223 64.174,23.334 71.627,23.667 71.837 C 23.804 71.924,23.840 71.996,23.746 71.997 C 23.552 72.000,23.628 73.320,23.836 73.583 C 23.909 73.675,24.020 74.156,24.082 74.653 C 24.145 75.150,24.276 75.750,24.374 75.986 C 24.472 76.223,24.583 76.604,24.620 76.833 C 24.658 77.063,24.826 77.561,24.994 77.941 C 25.162 78.321,25.353 78.883,25.419 79.191 C 25.485 79.498,25.622 79.900,25.722 80.083 C 25.823 80.267,25.911 80.454,25.918 80.500 C 25.925 80.546,26.056 80.818,26.209 81.104 C 26.362 81.390,26.440 81.671,26.382 81.729 C 26.325 81.786,26.364 81.833,26.469 81.833 C 26.684 81.833,27.333 83.017,27.333 83.410 C 27.333 83.551,27.408 83.667,27.500 83.667 C 27.592 83.667,27.667 83.817,27.667 84.000 C 27.667 84.183,27.740 84.333,27.830 84.333 C 27.920 84.333,28.041 84.521,28.098 84.750 C 28.156 84.979,28.274 85.167,28.361 85.167 C 28.448 85.167,28.473 85.242,28.417 85.333 C 28.360 85.425,28.393 85.500,28.490 85.500 C 28.587 85.500,28.667 85.612,28.667 85.750 C 28.667 85.888,28.742 86.000,28.833 86.000 C 28.925 86.000,29.000 86.104,29.000 86.231 C 29.000 86.358,29.187 86.584,29.416 86.734 C 29.644 86.884,29.817 87.061,29.799 87.128 C 29.744 87.335,30.439 88.339,30.556 88.222 C 30.617 88.161,30.667 88.226,30.667 88.366 C 30.667 88.505,30.854 88.761,31.083 88.933 C 31.313 89.105,31.500 89.306,31.500 89.380 C 31.500 89.613,32.222 90.500,32.412 90.500 C 32.513 90.500,32.731 90.731,32.898 91.013 C 33.064 91.295,33.407 91.651,33.659 91.804 C 33.911 91.958,34.134 92.158,34.154 92.250 C 34.216 92.533,34.706 93.000,34.942 93.000 C 35.066 93.000,35.167 93.075,35.167 93.167 C 35.167 93.258,35.266 93.333,35.388 93.333 C 35.509 93.333,35.828 93.601,36.096 93.929 C 36.364 94.257,36.921 94.711,37.333 94.939 C 38.034 95.325,39.327 96.180,40.076 96.752 C 40.255 96.888,40.573 97.000,40.784 97.000 C 40.994 97.000,41.167 97.062,41.167 97.139 C 41.167 97.307,43.120 98.333,43.440 98.333 C 43.565 98.333,43.667 98.400,43.667 98.481 C 43.667 98.624,44.290 98.888,44.542 98.851 C 44.610 98.841,44.667 98.900,44.667 98.981 C 44.667 99.062,44.817 99.167,45.000 99.215 C 45.195 99.266,45.292 99.234,45.233 99.139 C 45.177 99.049,45.421 99.118,45.774 99.291 C 46.128 99.465,46.754 99.704,47.167 99.822 C 47.579 99.941,48.067 100.098,48.250 100.172 C 49.598 100.714,54.790 101.560,55.125 101.292 C 55.268 101.178,55.333 101.187,55.333 101.322 C 55.333 101.453,55.621 101.501,56.208 101.467 L 57.083 101.417 57.120 100.583 C 57.140 100.125,57.178 99.356,57.204 98.875 C 57.231 98.377,57.179 97.994,57.084 97.985 C 56.992 97.977,56.467 97.944,55.917 97.913 C 54.436 97.828,53.181 97.678,52.307 97.482 C 51.880 97.386,51.392 97.326,51.223 97.349 C 51.055 97.372,50.579 97.288,50.167 97.163 C 49.754 97.037,49.287 96.922,49.128 96.907 C 48.969 96.892,48.742 96.798,48.623 96.699 C 48.504 96.601,48.219 96.486,47.990 96.444 C 47.762 96.403,47.276 96.237,46.912 96.075 C 46.548 95.914,46.186 95.796,46.107 95.813 C 46.029 95.831,45.858 95.757,45.728 95.649 C 45.598 95.541,45.444 95.500,45.386 95.558 C 45.328 95.616,45.174 95.575,45.044 95.467 C 44.914 95.359,44.178 94.958,43.409 94.575 C 42.640 94.192,42.054 93.835,42.108 93.781 C 42.162 93.727,42.010 93.634,41.770 93.573 C 41.530 93.513,41.333 93.397,41.333 93.315 C 41.333 93.234,41.209 93.167,41.057 93.167 C 40.804 93.167,39.897 92.567,39.362 92.046 C 39.240 91.927,39.071 91.873,38.987 91.925 C 38.902 91.977,38.833 91.911,38.833 91.779 C 38.833 91.647,38.629 91.404,38.379 91.241 C 37.632 90.751,37.534 90.662,35.478 88.598 C 34.390 87.506,33.499 86.531,33.499 86.431 C 33.498 86.332,33.087 85.800,32.586 85.250 C 32.085 84.700,31.673 84.156,31.671 84.042 C 31.668 83.927,31.588 83.833,31.493 83.833 C 31.397 83.833,31.331 83.740,31.346 83.625 C 31.397 83.231,31.333 82.980,31.202 83.061 C 31.130 83.106,30.966 82.904,30.837 82.613 C 30.709 82.322,30.505 81.984,30.384 81.862 C 30.263 81.740,30.206 81.571,30.258 81.487 C 30.310 81.402,30.278 81.333,30.187 81.333 C 30.096 81.333,29.927 81.071,29.811 80.750 C 29.695 80.429,29.540 80.167,29.467 80.167 C 29.393 80.167,29.333 79.981,29.333 79.755 C 29.333 79.529,29.196 79.097,29.028 78.797 C 28.604 78.038,27.299 74.164,27.388 73.930 C 27.516 73.597,27.187 71.949,26.964 71.807 C 26.791 71.698,26.792 71.671,26.968 71.669 C 27.088 71.668,27.146 71.602,27.098 71.523 C 26.842 71.110,26.652 66.662,26.821 65.042 C 26.891 64.365,26.868 63.999,26.756 63.997 C 26.649 63.996,26.655 63.948,26.771 63.872 C 26.874 63.805,27.001 63.393,27.054 62.956 C 27.106 62.520,27.195 62.089,27.251 61.998 C 27.307 61.907,27.255 61.832,27.135 61.831 C 26.962 61.829,26.964 61.798,27.144 61.684 C 27.270 61.605,27.435 61.062,27.512 60.478 C 27.708 58.993,27.853 58.333,27.983 58.333 C 28.045 58.333,28.107 58.178,28.122 57.989 C 28.136 57.800,28.302 57.326,28.490 56.936 C 28.679 56.547,28.833 56.173,28.833 56.105 C 28.833 56.037,28.998 55.630,29.199 55.199 C 29.401 54.769,29.550 54.358,29.531 54.287 C 29.483 54.107,29.970 53.188,30.441 52.568 C 30.657 52.284,30.833 51.971,30.833 51.873 C 30.833 51.775,30.912 51.668,31.007 51.636 C 31.103 51.605,31.194 51.411,31.210 51.206 C 31.225 51.001,31.295 50.833,31.366 50.833 C 31.437 50.833,31.798 50.353,32.169 49.766 C 32.540 49.179,32.953 48.656,33.088 48.605 C 33.223 48.553,33.333 48.399,33.333 48.264 C 33.333 48.128,33.427 47.957,33.542 47.883 C 33.657 47.810,33.965 47.434,34.227 47.048 C 34.489 46.662,34.789 46.362,34.893 46.381 C 34.998 46.401,35.066 46.327,35.045 46.218 C 35.024 46.109,35.155 45.973,35.337 45.916 C 35.518 45.858,35.667 45.747,35.667 45.669 C 35.667 45.464,36.924 44.147,37.025 44.247 C 37.071 44.293,37.531 43.938,38.046 43.457 C 39.342 42.249,39.450 42.167,39.748 42.167 C 39.892 42.167,40.054 42.054,40.106 41.917 C 40.159 41.779,40.301 41.667,40.421 41.667 C 40.541 41.667,40.664 41.610,40.694 41.542 C 40.779 41.352,41.796 40.667,41.993 40.667 C 42.089 40.667,42.167 40.610,42.168 40.542 C 42.169 40.354,43.149 39.833,43.502 39.833 C 43.671 39.833,43.916 39.726,44.047 39.596 C 44.300 39.343,45.459 38.779,45.769 38.758 C 45.871 38.751,46.059 38.660,46.186 38.556 C 46.467 38.327,48.577 37.740,48.880 37.808 C 48.951 37.823,49.051 37.728,49.102 37.595 C 49.153 37.463,49.298 37.394,49.424 37.443 C 49.551 37.491,50.158 37.404,50.775 37.250 C 52.863 36.726,53.230 36.656,54.583 36.526 C 57.611 36.233,61.377 36.508,64.500 37.251 C 64.729 37.306,65.075 37.384,65.269 37.424 C 65.464 37.465,65.892 37.611,66.222 37.749 C 66.553 37.887,67.000 38.000,67.217 38.000 C 67.434 38.000,67.667 38.056,67.736 38.125 C 67.805 38.194,67.911 38.256,67.972 38.264 C 68.094 38.280,68.519 38.434,69.167 38.696 C 69.396 38.788,69.594 38.838,69.608 38.807 C 69.621 38.776,69.771 38.869,69.941 39.014 C 70.264 39.290,71.238 39.768,71.667 39.862 C 71.804 39.892,71.955 39.967,72.002 40.028 C 72.048 40.090,72.197 40.165,72.333 40.195 C 72.468 40.225,72.944 40.494,73.391 40.792 C 73.838 41.090,74.275 41.333,74.362 41.333 C 74.449 41.333,74.473 41.408,74.417 41.500 C 74.360 41.592,74.441 41.667,74.596 41.667 C 74.751 41.667,75.056 41.858,75.273 42.093 C 75.490 42.327,75.743 42.473,75.834 42.416 C 75.925 42.360,76.000 42.395,76.000 42.495 C 76.000 42.595,76.111 42.720,76.248 42.772 C 76.384 42.824,76.962 43.310,77.532 43.850 C 78.102 44.391,78.647 44.833,78.744 44.833 C 78.841 44.833,79.086 45.040,79.289 45.292 C 79.491 45.544,79.940 46.106,80.287 46.541 C 80.633 46.976,81.015 47.332,81.135 47.333 C 81.255 47.333,81.315 47.394,81.269 47.468 C 81.224 47.543,81.479 47.934,81.838 48.339 C 82.197 48.743,82.576 49.282,82.682 49.537 C 82.787 49.792,82.940 50.000,83.020 50.000 C 83.101 50.000,83.167 50.112,83.167 50.250 C 83.167 50.387,83.242 50.500,83.333 50.500 C 83.425 50.500,83.500 50.615,83.500 50.755 C 83.500 50.896,83.612 51.054,83.750 51.106 C 83.887 51.159,84.000 51.293,84.000 51.403 C 84.000 51.513,84.150 51.765,84.333 51.962 C 84.517 52.158,84.667 52.402,84.667 52.504 C 84.667 52.829,85.369 54.333,85.521 54.333 C 85.601 54.333,85.667 54.430,85.667 54.548 C 85.667 54.666,85.814 55.052,85.995 55.406 C 86.175 55.760,86.275 56.132,86.218 56.233 C 86.160 56.334,86.176 56.360,86.253 56.290 C 86.410 56.148,86.827 57.223,86.831 57.780 C 86.832 57.979,86.946 58.256,87.085 58.394 C 87.223 58.532,87.269 58.687,87.187 58.738 C 87.103 58.789,87.137 59.117,87.263 59.483 C 87.387 59.843,87.527 60.312,87.574 60.527 C 87.621 60.741,87.788 61.442,87.946 62.083 C 88.313 63.580,88.374 70.346,88.034 71.917 C 87.915 72.467,87.737 73.292,87.638 73.750 C 87.540 74.208,87.404 74.733,87.336 74.917 C 86.970 75.908,86.824 76.516,86.916 76.666 C 86.973 76.758,86.940 76.833,86.843 76.833 C 86.746 76.833,86.676 76.890,86.686 76.958 C 86.697 77.027,86.688 77.140,86.666 77.208 C 86.621 77.345,86.621 77.344,86.436 78.125 C 86.365 78.423,86.247 78.667,86.173 78.667 C 86.056 78.667,85.863 79.149,85.862 79.444 C 85.862 79.500,85.775 79.599,85.670 79.665 C 85.564 79.730,85.456 79.888,85.430 80.017 C 85.404 80.145,85.206 80.625,84.990 81.083 C 84.774 81.542,84.594 81.970,84.590 82.035 C 84.583 82.160,84.196 82.748,83.915 83.062 C 83.697 83.305,83.268 84.216,83.301 84.365 C 83.315 84.428,83.177 84.527,82.994 84.585 C 82.811 84.643,82.701 84.754,82.748 84.831 C 82.796 84.907,82.614 85.179,82.344 85.434 C 82.074 85.689,81.883 85.945,81.919 86.004 C 81.956 86.063,81.651 86.439,81.243 86.840 C 80.834 87.241,80.500 87.654,80.500 87.757 C 80.500 87.930,80.252 88.161,78.923 89.230 L 78.429 89.627 78.364 91.793 C 78.292 94.195,78.386 94.440,79.121 93.759 C 79.374 93.525,79.641 93.333,79.716 93.333 C 79.792 93.333,79.807 93.258,79.750 93.167 C 79.693 93.075,79.757 93.000,79.891 93.000 C 80.266 93.000,84.546 88.601,84.355 88.411 C 84.313 88.368,84.365 88.333,84.472 88.333 C 84.579 88.333,84.667 88.218,84.667 88.078 C 84.667 87.938,84.779 87.780,84.917 87.727 C 85.054 87.674,85.167 87.532,85.167 87.412 C 85.167 87.291,85.392 86.967,85.667 86.692 C 85.942 86.417,86.167 86.112,86.167 86.013 C 86.167 85.914,86.234 85.833,86.316 85.833 C 86.397 85.833,86.509 85.717,86.564 85.575 C 86.618 85.432,86.592 85.360,86.505 85.414 C 86.418 85.467,86.640 85.040,86.999 84.464 C 88.175 82.576,88.651 81.703,88.766 81.223 C 88.828 80.963,88.960 80.600,89.059 80.417 C 89.157 80.233,89.247 80.046,89.258 80.000 C 89.270 79.954,89.326 79.804,89.384 79.667 C 90.123 77.911,90.884 75.383,90.742 75.153 C 90.690 75.069,90.710 75.000,90.787 75.000 C 90.923 75.000,91.163 73.565,91.523 70.583 C 91.757 68.645,91.593 63.490,91.244 61.833 C 91.099 61.146,90.980 60.321,90.978 60.000 C 90.976 59.679,90.643 58.442,90.238 57.250 C 89.332 54.584,89.435 54.868,89.108 54.130 C 88.957 53.790,88.833 53.400,88.833 53.264 C 88.833 53.128,88.702 52.943,88.542 52.853 C 88.381 52.764,88.265 52.629,88.284 52.553 C 88.346 52.310,88.134 51.667,87.993 51.667 C 87.918 51.667,87.802 51.498,87.737 51.292 C 87.671 51.085,87.441 50.637,87.226 50.295 C 87.010 49.953,86.833 49.559,86.833 49.420 C 86.833 49.281,86.758 49.167,86.667 49.167 C 86.575 49.167,86.500 49.054,86.500 48.917 C 86.500 48.779,86.441 48.667,86.369 48.667 C 86.297 48.667,86.116 48.459,85.966 48.206 C 85.817 47.952,85.498 47.521,85.259 47.247 C 84.585 46.477,84.514 46.375,84.599 46.290 C 84.642 46.247,84.489 46.033,84.258 45.814 C 84.028 45.596,83.838 45.357,83.836 45.285 C 83.832 45.107,83.167 44.400,83.167 44.574 C 83.167 44.650,82.998 44.497,82.792 44.234 C 82.585 43.971,82.434 43.704,82.454 43.640 C 82.475 43.576,81.922 43.068,81.225 42.512 C 80.527 41.955,80.010 41.500,80.075 41.500 C 80.175 41.500,79.438 40.840,78.917 40.463 C 78.825 40.397,78.535 40.156,78.273 39.927 C 78.011 39.698,77.655 39.466,77.481 39.411 C 77.308 39.356,77.167 39.248,77.167 39.172 C 77.167 39.046,76.165 38.381,75.873 38.313 C 75.805 38.298,75.470 38.108,75.128 37.892 C 74.786 37.677,74.434 37.500,74.345 37.500 C 74.256 37.500,74.123 37.406,74.050 37.292 C 73.884 37.033,71.899 36.000,71.566 36.000 C 71.432 36.000,70.950 35.811,70.496 35.581 C 70.041 35.351,69.631 35.164,69.584 35.166 C 69.537 35.169,69.227 35.057,68.896 34.919 C 68.564 34.780,68.232 34.667,68.157 34.667 C 68.083 34.667,67.811 34.580,67.553 34.474 C 66.882 34.200,66.752 34.168,65.250 33.916 C 64.717 33.827,64.401 33.767,63.083 33.507 C 62.625 33.417,61.913 33.298,61.500 33.244 C 60.603 33.127,55.528 33.032,54.583 33.116 M48.672 49.077 C 48.561 49.211,48.308 49.372,48.111 49.434 C 47.913 49.497,47.509 49.781,47.212 50.066 C 46.449 50.798,46.099 51.090,46.044 51.039 C 45.929 50.932,45.179 51.551,45.261 51.685 C 45.312 51.767,45.272 51.833,45.174 51.833 C 44.953 51.833,43.833 52.967,43.833 53.191 C 43.833 53.280,43.764 53.310,43.680 53.258 C 43.596 53.206,43.372 53.370,43.182 53.623 C 42.992 53.876,42.761 54.174,42.668 54.285 C 42.576 54.395,42.500 54.563,42.500 54.658 C 42.500 54.753,42.289 55.037,42.031 55.290 C 41.773 55.543,41.464 55.994,41.344 56.292 C 41.224 56.590,41.074 56.833,41.011 56.833 C 40.874 56.833,40.325 57.945,40.238 58.399 C 40.204 58.572,39.998 59.060,39.779 59.482 C 39.561 59.905,39.415 60.344,39.455 60.458 C 39.495 60.573,39.447 60.667,39.347 60.667 C 39.248 60.667,39.179 60.723,39.193 60.792 C 39.208 60.860,39.176 61.029,39.124 61.167 C 38.719 62.223,38.297 65.167,38.550 65.167 C 38.637 65.167,38.617 65.276,38.507 65.409 C 38.221 65.752,38.270 69.405,38.583 71.125 C 38.670 71.599,39.167 71.936,39.167 71.520 C 39.167 71.440,39.392 71.281,39.667 71.167 C 39.942 71.053,40.167 70.902,40.167 70.833 C 40.167 70.722,40.535 70.529,42.500 69.611 C 42.729 69.504,43.008 69.304,43.120 69.167 C 43.265 68.987,43.324 68.977,43.328 69.129 C 43.332 69.295,43.415 69.290,43.708 69.108 C 44.516 68.605,47.532 67.635,48.450 67.583 C 48.798 67.563,49.121 67.528,49.167 67.506 C 49.212 67.483,49.466 67.479,49.731 67.497 C 49.995 67.515,50.276 67.429,50.353 67.307 C 50.443 67.165,50.496 67.154,50.497 67.276 C 50.500 67.461,51.595 67.446,52.922 67.243 C 53.376 67.173,54.000 66.675,54.000 66.383 C 54.000 66.321,54.661 65.621,55.470 64.827 L 56.939 63.384 55.240 62.854 C 54.305 62.562,53.329 62.142,53.072 61.921 C 52.815 61.700,52.543 61.557,52.469 61.603 C 52.394 61.649,52.333 61.607,52.333 61.510 C 52.333 61.413,52.256 61.333,52.162 61.333 C 51.903 61.333,50.855 60.330,50.742 59.974 C 50.687 59.802,50.573 59.705,50.488 59.757 C 50.403 59.810,50.333 59.744,50.333 59.611 C 50.333 59.478,50.237 59.332,50.119 59.287 C 50.001 59.241,49.635 58.690,49.305 58.060 C 48.748 56.996,48.605 56.470,48.401 54.750 C 48.357 54.383,48.292 53.996,48.255 53.889 C 48.218 53.782,48.263 53.220,48.355 52.639 C 48.447 52.058,48.547 51.358,48.577 51.083 C 48.608 50.808,48.790 50.221,48.983 49.778 C 49.419 48.776,49.246 48.386,48.672 49.077 M64.332 49.643 C 64.058 49.905,63.833 50.164,63.833 50.219 C 63.833 50.274,63.421 50.741,62.917 51.257 C 62.413 51.774,62.000 52.293,62.000 52.411 C 62.000 52.529,61.886 52.721,61.746 52.837 C 61.606 52.953,61.531 53.086,61.578 53.133 C 61.625 53.181,61.574 53.327,61.465 53.459 C 61.355 53.591,61.242 53.855,61.213 54.045 C 61.184 54.235,61.073 54.496,60.966 54.625 C 60.760 54.873,61.021 55.159,61.458 55.164 C 61.573 55.166,61.667 55.242,61.667 55.333 C 61.667 55.425,61.779 55.500,61.917 55.500 C 62.054 55.500,62.167 55.566,62.167 55.648 C 62.167 55.729,62.410 55.912,62.708 56.055 C 63.432 56.401,64.880 57.784,65.231 58.464 C 65.387 58.765,65.585 58.967,65.672 58.913 C 65.762 58.858,65.782 58.939,65.720 59.102 C 65.639 59.311,65.669 59.351,65.831 59.252 C 65.973 59.163,66.012 59.180,65.939 59.298 C 65.877 59.398,65.977 59.728,66.162 60.032 C 66.347 60.335,66.499 60.706,66.499 60.856 C 66.500 61.263,67.079 61.345,67.313 60.971 C 67.422 60.796,67.471 60.588,67.421 60.507 C 67.372 60.427,67.388 60.337,67.457 60.306 C 67.527 60.275,67.725 59.875,67.897 59.417 C 68.715 57.248,68.724 54.732,67.921 52.917 C 67.654 52.313,67.549 51.983,67.513 51.626 C 67.489 51.399,65.240 49.167,65.034 49.167 C 64.922 49.167,64.606 49.381,64.332 49.643 M109.968 54.088 C 109.925 54.130,109.521 54.199,109.070 54.240 C 108.192 54.319,106.926 54.678,106.301 55.025 C 106.089 55.142,105.860 55.222,105.792 55.202 C 105.723 55.183,105.667 55.245,105.667 55.341 C 105.667 55.436,105.573 55.496,105.458 55.472 C 105.191 55.418,104.545 55.775,104.005 56.275 C 102.451 57.714,102.001 58.174,101.961 58.366 C 101.937 58.485,101.748 58.822,101.542 59.114 C 101.335 59.406,101.167 59.716,101.167 59.804 C 101.167 59.892,101.049 60.009,100.906 60.064 C 100.763 60.119,100.683 60.225,100.729 60.300 C 100.775 60.375,100.638 60.744,100.424 61.121 C 99.795 62.228,99.498 63.762,99.251 67.167 C 99.235 67.396,99.291 68.408,99.376 69.417 C 99.461 70.425,99.550 71.475,99.573 71.750 C 99.660 72.776,100.688 75.585,101.082 75.872 C 101.174 75.940,101.197 75.996,101.133 75.997 C 101.069 75.999,101.198 76.197,101.422 76.438 C 101.645 76.678,101.788 76.938,101.741 77.015 C 101.693 77.092,101.801 77.301,101.980 77.480 C 102.159 77.659,102.269 77.842,102.224 77.888 C 102.178 77.933,102.290 78.017,102.472 78.074 C 102.654 78.132,103.126 78.533,103.522 78.965 C 103.917 79.397,104.393 79.794,104.579 79.848 C 104.765 79.902,104.897 80.037,104.872 80.148 C 104.848 80.258,104.923 80.328,105.039 80.302 C 105.312 80.241,106.333 80.666,106.333 80.841 C 106.333 80.958,107.172 81.300,107.718 81.404 C 107.827 81.424,108.366 81.539,108.915 81.657 C 111.242 82.161,115.118 81.701,117.138 80.681 C 117.704 80.396,118.167 80.207,118.167 80.262 C 118.167 80.519,120.126 78.827,120.205 78.501 C 120.230 78.398,120.494 78.049,120.793 77.727 C 121.092 77.404,121.294 77.071,121.242 76.987 C 121.190 76.902,121.231 76.833,121.333 76.833 C 121.436 76.833,121.477 76.764,121.425 76.680 C 121.373 76.596,121.449 76.408,121.594 76.263 C 121.739 76.119,121.805 76.000,121.741 76.000 C 121.678 76.000,121.706 75.903,121.804 75.785 C 122.164 75.351,122.857 72.285,122.628 72.139 C 122.501 72.058,122.489 72.004,122.600 72.003 C 122.722 72.001,122.792 71.232,122.810 69.667 L 122.837 67.333 117.668 67.333 L 112.500 67.333 112.500 68.325 C 112.500 69.096,112.565 69.353,112.792 69.480 C 112.952 69.570,113.065 69.686,113.042 69.738 C 112.676 70.573,113.942 71.124,116.303 71.156 C 117.368 71.171,118.270 71.215,118.309 71.253 C 118.577 71.521,117.545 74.619,117.125 74.806 C 117.056 74.836,117.000 74.970,117.000 75.102 C 117.000 75.235,116.888 75.387,116.750 75.440 C 116.612 75.492,116.500 75.639,116.500 75.765 C 116.500 75.891,116.312 76.041,116.081 76.099 C 115.851 76.157,115.607 76.289,115.540 76.394 C 115.197 76.923,113.258 77.561,112.083 77.531 C 111.163 77.508,109.000 77.125,109.000 76.986 C 109.000 76.892,108.599 76.732,108.243 76.685 C 107.483 76.583,104.756 72.934,104.960 72.292 C 104.982 72.223,104.917 72.167,104.816 72.167 C 104.714 72.167,104.671 72.061,104.721 71.933 C 104.770 71.804,104.763 71.652,104.706 71.595 C 104.648 71.537,104.583 71.399,104.560 71.287 C 104.538 71.175,104.470 70.896,104.410 70.667 C 103.960 68.962,104.134 64.225,104.671 63.579 C 104.759 63.473,104.777 63.333,104.712 63.267 C 104.646 63.202,104.679 63.096,104.783 63.031 C 104.979 62.910,105.725 61.167,105.581 61.167 C 105.536 61.167,105.950 60.717,106.500 60.167 C 107.050 59.617,107.614 59.167,107.752 59.167 C 107.891 59.167,108.135 59.097,108.294 59.012 C 110.482 57.844,114.542 58.348,115.959 59.965 C 116.893 61.029,116.964 61.125,117.073 61.467 C 117.428 62.585,118.390 63.005,120.700 63.049 L 122.507 63.083 122.417 62.417 C 122.251 61.184,121.908 59.981,121.760 60.116 C 121.678 60.191,121.659 60.124,121.716 59.963 C 121.773 59.805,121.722 59.579,121.603 59.460 C 121.315 59.172,120.920 58.449,120.965 58.292 C 120.984 58.223,120.925 58.167,120.833 58.167 C 120.742 58.167,120.667 58.076,120.667 57.966 C 120.667 57.702,119.044 56.229,118.458 55.961 C 118.206 55.846,118.000 55.705,118.000 55.649 C 118.000 55.592,117.644 55.416,117.208 55.259 C 116.773 55.101,116.304 54.929,116.167 54.875 C 116.029 54.822,115.860 54.763,115.792 54.744 C 115.723 54.724,115.648 54.693,115.625 54.675 C 115.570 54.631,115.230 54.562,114.439 54.433 C 114.084 54.376,113.733 54.291,113.658 54.245 C 113.478 54.133,110.067 53.988,109.968 54.088 M278.413 54.207 C 277.201 54.359,276.389 54.615,275.792 55.034 C 275.540 55.211,275.333 55.300,275.333 55.231 C 275.333 55.163,275.111 55.356,274.838 55.661 C 274.566 55.966,274.380 56.273,274.423 56.344 C 274.467 56.415,274.387 56.590,274.244 56.732 C 274.015 56.961,273.842 57.586,273.801 58.333 C 273.794 58.471,273.798 63.740,273.810 70.042 L 273.833 81.500 276.167 81.500 L 278.500 81.500 278.500 73.321 L 278.500 65.141 279.130 65.187 C 279.476 65.212,279.868 65.165,280.002 65.082 C 280.135 65.000,280.376 64.923,280.536 64.911 C 280.920 64.883,281.471 64.376,281.499 64.026 C 281.511 63.874,281.535 63.300,281.552 62.750 L 281.583 61.750 279.952 61.750 L 278.320 61.750 278.345 60.917 C 278.381 59.758,278.633 58.833,278.915 58.833 C 279.044 58.833,279.216 58.716,279.296 58.573 C 279.447 58.304,279.544 58.273,280.875 58.075 L 281.667 57.957 281.667 56.148 C 281.667 54.407,281.653 54.337,281.292 54.260 C 280.571 54.106,279.385 54.084,278.413 54.207 M228.500 54.518 C 228.271 54.611,227.903 54.851,227.682 55.052 C 227.460 55.252,227.341 55.311,227.416 55.183 C 227.507 55.025,227.489 54.987,227.359 55.067 C 227.253 55.133,227.167 55.327,227.167 55.500 C 227.167 55.673,227.085 55.864,226.984 55.926 C 226.884 55.988,226.836 56.218,226.878 56.436 C 226.920 56.655,226.889 56.833,226.810 56.833 C 226.731 56.833,226.667 62.379,226.667 69.167 L 226.667 81.500 229.167 81.500 L 231.667 81.500 231.667 76.069 L 231.667 70.637 235.042 70.714 C 238.766 70.799,238.748 70.796,239.431 71.244 C 240.266 71.791,240.674 72.254,240.765 72.756 C 240.814 73.024,240.924 73.287,241.011 73.340 C 241.097 73.394,241.167 73.620,241.165 73.844 C 241.163 74.067,241.195 74.737,241.236 75.333 C 241.277 75.929,241.320 77.204,241.332 78.167 C 241.369 81.335,241.504 81.487,244.272 81.495 C 246.574 81.501,246.477 81.568,246.402 80.000 C 246.378 79.496,246.314 77.893,246.260 76.439 C 246.206 74.984,246.133 73.747,246.097 73.689 C 246.061 73.630,246.011 73.245,245.986 72.833 C 245.962 72.421,245.884 72.006,245.815 71.913 C 245.745 71.819,245.652 71.519,245.608 71.246 C 245.564 70.973,245.512 70.731,245.493 70.708 C 245.474 70.685,245.449 70.579,245.438 70.472 C 245.413 70.246,244.107 69.248,243.500 68.992 C 242.364 68.514,242.197 68.419,242.272 68.298 C 242.316 68.226,242.517 68.166,242.718 68.166 C 242.919 68.165,243.308 68.046,243.583 67.901 C 243.858 67.756,244.225 67.608,244.398 67.574 C 244.570 67.539,244.720 67.489,244.731 67.464 C 244.882 67.094,245.174 66.759,245.318 66.792 C 245.418 66.815,245.500 66.726,245.500 66.595 C 245.500 66.464,245.594 66.258,245.709 66.137 C 245.954 65.878,246.389 64.970,246.627 64.222 C 246.806 63.656,246.811 59.970,246.633 59.417 C 246.257 58.250,245.974 57.625,245.675 57.303 C 245.487 57.102,245.333 56.833,245.333 56.707 C 245.333 56.336,243.997 55.265,243.500 55.236 C 243.362 55.228,243.025 55.129,242.750 55.016 C 241.356 54.441,240.327 54.358,234.614 54.353 C 231.136 54.350,228.754 54.414,228.500 54.518 M355.000 67.917 L 355.000 81.500 357.335 81.500 L 359.671 81.500 359.665 68.917 C 359.661 61.648,359.593 56.163,359.505 55.929 C 359.053 54.740,358.268 54.333,356.425 54.333 L 355.000 54.333 355.000 67.917 M169.417 56.272 L 169.417 58.083 171.708 58.083 L 174.000 58.083 173.999 57.250 C 173.997 55.071,173.542 54.643,171.112 54.535 L 169.417 54.460 169.417 56.272 M60.206 56.595 C 60.265 56.653,60.237 56.898,60.145 57.140 C 59.928 57.711,59.833 60.475,60.015 60.957 C 60.149 61.316,61.000 61.465,61.000 61.130 C 61.000 61.059,61.056 61.009,61.125 61.020 C 61.685 61.108,62.122 60.843,63.288 59.708 L 64.016 58.999 63.567 58.583 C 63.320 58.354,63.172 58.167,63.238 58.167 C 63.425 58.167,62.895 57.684,62.649 57.631 C 62.426 57.583,62.173 57.416,61.756 57.042 C 61.628 56.927,61.402 56.833,61.252 56.833 C 61.103 56.833,61.017 56.774,61.062 56.701 C 61.107 56.629,60.909 56.551,60.622 56.529 C 60.335 56.508,60.148 56.537,60.206 56.595 M239.439 58.706 C 239.635 58.762,239.935 58.882,240.106 58.975 C 240.277 59.067,240.546 59.182,240.703 59.231 C 240.981 59.316,241.488 60.242,241.627 60.917 C 241.790 61.710,241.796 63.761,241.636 63.954 C 241.541 64.068,241.504 64.270,241.554 64.401 C 241.604 64.532,241.537 64.681,241.405 64.732 C 241.272 64.782,241.183 64.911,241.207 65.018 C 241.245 65.190,239.646 66.133,238.997 66.322 C 238.861 66.361,237.156 66.425,235.208 66.463 L 231.667 66.533 231.667 62.506 L 231.667 58.480 235.375 58.543 C 237.415 58.577,239.244 58.651,239.439 58.706 M258.268 60.288 C 258.207 60.349,257.953 60.418,257.704 60.441 C 257.102 60.499,255.640 61.030,255.363 61.292 C 255.242 61.406,255.002 61.500,254.830 61.500 C 254.657 61.500,254.457 61.596,254.383 61.714 C 254.310 61.832,254.040 62.090,253.783 62.287 C 253.526 62.484,253.324 62.692,253.333 62.750 C 253.343 62.808,253.159 63.006,252.925 63.190 C 252.691 63.374,252.500 63.660,252.500 63.825 C 252.500 63.990,252.387 64.220,252.248 64.335 C 252.109 64.450,252.009 64.628,252.025 64.731 C 252.041 64.833,251.887 65.291,251.682 65.749 C 251.477 66.207,251.282 66.845,251.248 67.166 C 251.214 67.487,251.173 67.750,251.158 67.750 C 250.570 67.750,251.009 74.627,251.695 76.167 C 251.879 76.579,252.051 77.094,252.077 77.311 C 252.103 77.527,252.192 77.752,252.274 77.811 C 252.356 77.869,252.514 78.123,252.625 78.375 C 252.736 78.627,252.903 78.833,252.996 78.833 C 253.090 78.833,253.167 78.933,253.167 79.056 C 253.167 79.378,254.144 80.200,254.365 80.064 C 254.478 79.994,254.505 80.024,254.434 80.139 C 254.360 80.258,254.568 80.430,254.991 80.599 C 255.363 80.748,255.667 80.941,255.667 81.028 C 255.667 81.115,255.736 81.143,255.822 81.090 C 255.907 81.038,256.019 81.062,256.069 81.144 C 256.884 82.462,262.740 82.247,265.109 80.811 C 265.673 80.470,266.179 80.235,266.234 80.289 C 266.289 80.344,266.333 80.259,266.333 80.101 C 266.333 79.926,266.409 79.860,266.526 79.933 C 266.638 80.002,266.673 79.979,266.610 79.877 C 266.551 79.781,266.726 79.526,267.000 79.309 C 267.273 79.093,267.498 78.849,267.498 78.766 C 267.499 78.683,267.670 78.383,267.878 78.099 C 268.436 77.338,268.720 76.721,268.600 76.527 C 268.542 76.433,268.571 76.309,268.664 76.252 C 268.757 76.194,268.833 76.001,268.833 75.823 C 268.833 75.122,264.374 75.504,263.962 76.241 C 263.882 76.383,263.709 76.500,263.576 76.500 C 263.444 76.500,263.242 76.650,263.128 76.833 C 263.013 77.017,262.825 77.167,262.710 77.167 C 262.594 77.167,262.500 77.234,262.500 77.317 C 262.500 77.953,259.069 78.042,258.184 77.429 C 257.844 77.193,257.476 77.000,257.366 77.000 C 257.256 77.000,257.167 76.937,257.167 76.859 C 257.167 76.782,256.979 76.501,256.750 76.234 C 256.521 75.968,256.328 75.712,256.321 75.667 C 256.258 75.264,256.174 74.930,256.076 74.695 C 256.011 74.542,255.928 74.079,255.890 73.667 C 255.852 73.254,255.805 72.767,255.786 72.583 C 255.751 72.256,255.862 72.249,262.542 72.206 L 269.333 72.163 269.333 70.808 C 269.333 68.310,268.460 64.304,267.831 63.915 C 267.738 63.858,267.704 63.740,267.757 63.655 C 267.810 63.570,267.778 63.500,267.686 63.500 C 267.595 63.500,267.173 63.050,266.750 62.500 C 266.191 61.773,265.872 61.500,265.583 61.500 C 265.365 61.500,265.137 61.420,265.077 61.323 C 264.952 61.121,264.155 60.763,263.941 60.812 C 263.862 60.830,263.701 60.765,263.583 60.666 C 263.157 60.313,258.569 59.986,258.268 60.288 M290.055 60.645 C 289.306 60.886,288.638 61.140,288.569 61.208 C 288.501 61.277,288.340 61.333,288.213 61.333 C 287.897 61.333,286.833 62.201,286.833 62.458 C 286.833 62.573,286.752 62.667,286.652 62.667 C 286.401 62.667,285.854 63.322,285.642 63.875 C 285.546 64.127,285.400 64.333,285.317 64.333 C 285.234 64.333,285.167 64.483,285.167 64.667 C 285.167 64.850,285.079 65.000,284.972 65.000 C 284.865 65.000,284.825 65.047,284.882 65.105 C 284.940 65.162,284.871 65.481,284.729 65.813 C 284.588 66.145,284.440 66.604,284.401 66.833 C 284.362 67.063,284.294 67.408,284.251 67.600 C 283.824 69.506,283.825 72.655,284.254 74.583 C 284.315 74.858,284.381 75.158,284.400 75.250 C 284.497 75.715,284.911 76.791,285.109 77.097 C 285.233 77.287,285.286 77.492,285.227 77.551 C 285.167 77.610,285.242 77.706,285.393 77.764 C 285.543 77.822,285.667 77.973,285.667 78.101 C 285.667 78.229,285.746 78.333,285.843 78.333 C 285.940 78.333,285.979 78.399,285.929 78.479 C 285.799 78.690,287.373 80.333,287.704 80.333 C 287.858 80.333,288.043 80.427,288.117 80.542 C 288.750 81.532,292.443 82.271,295.000 81.919 C 296.636 81.694,297.265 81.480,298.254 80.813 C 298.645 80.549,299.035 80.333,299.120 80.333 C 299.337 80.333,300.000 79.603,300.000 79.364 C 300.000 79.256,300.056 79.166,300.125 79.165 C 300.194 79.164,300.509 78.714,300.825 78.165 C 301.141 77.616,301.454 77.167,301.520 77.167 C 301.586 77.167,301.689 76.923,301.749 76.625 C 301.809 76.327,301.895 75.952,301.940 75.792 C 302.171 74.974,297.385 75.580,296.638 76.463 C 295.795 77.459,293.766 78.199,292.648 77.918 C 292.418 77.860,292.116 77.796,291.977 77.776 C 290.664 77.583,289.100 75.329,288.896 73.333 C 288.853 72.921,288.787 72.490,288.748 72.375 C 288.692 72.211,290.133 72.167,295.589 72.167 L 302.500 72.167 302.500 70.583 C 302.500 69.429,302.444 68.999,302.292 68.997 C 302.142 68.996,302.137 68.960,302.272 68.872 C 302.406 68.786,302.417 68.504,302.312 67.917 C 302.229 67.458,302.135 66.933,302.102 66.750 C 302.069 66.567,302.024 66.398,302.000 66.375 C 301.977 66.352,301.940 66.258,301.917 66.167 C 301.894 66.075,301.860 65.981,301.842 65.958 C 301.824 65.935,301.774 65.729,301.733 65.500 C 301.691 65.271,301.584 65.058,301.494 65.027 C 301.405 64.997,301.374 64.903,301.425 64.819 C 301.477 64.735,301.438 64.667,301.339 64.667 C 301.240 64.667,301.084 64.498,300.994 64.292 C 300.549 63.276,299.533 61.960,299.304 62.102 C 299.228 62.148,299.167 62.067,299.167 61.921 C 299.167 61.775,299.035 61.612,298.875 61.557 C 298.715 61.502,298.182 61.274,297.692 61.049 C 297.201 60.825,296.676 60.612,296.525 60.575 C 296.374 60.539,295.950 60.433,295.583 60.340 C 294.288 60.012,291.555 60.162,290.055 60.645 M338.845 60.424 C 338.439 60.548,338.051 60.615,337.983 60.573 C 337.916 60.531,337.742 60.615,337.598 60.759 C 337.454 60.903,337.260 60.975,337.168 60.917 C 337.076 60.860,337.000 60.898,337.000 61.000 C 337.000 61.102,336.930 61.143,336.844 61.090 C 336.758 61.036,336.620 61.114,336.537 61.261 C 336.454 61.409,336.318 61.526,336.235 61.522 C 336.028 61.511,335.003 62.220,335.001 62.375 C 335.001 62.444,335.003 62.542,335.007 62.592 C 335.011 62.643,334.843 62.836,334.632 63.022 C 334.422 63.207,334.362 63.301,334.500 63.231 C 334.776 63.089,334.436 63.614,334.083 63.872 C 333.992 63.940,333.976 63.996,334.048 63.997 C 334.120 63.999,334.096 64.155,333.994 64.344 C 333.476 65.312,333.477 65.312,336.081 65.367 C 337.397 65.394,338.443 65.387,338.406 65.350 C 338.369 65.313,338.469 65.176,338.628 65.046 C 338.787 64.915,338.811 64.863,338.683 64.930 C 338.550 64.999,338.491 64.983,338.545 64.895 C 339.335 63.618,345.000 63.723,345.000 65.014 C 345.000 65.098,345.150 65.317,345.333 65.500 C 345.517 65.683,345.594 65.833,345.504 65.833 C 345.399 65.833,345.398 65.983,345.502 66.256 C 345.627 66.583,345.607 66.700,345.415 66.774 C 345.278 66.826,345.167 67.008,345.167 67.179 C 345.167 67.473,344.674 67.858,344.195 67.937 C 344.074 67.958,343.736 68.086,343.445 68.222 C 343.155 68.358,342.317 68.558,341.583 68.667 C 339.662 68.951,337.784 69.361,337.538 69.551 C 337.421 69.641,337.280 69.669,337.224 69.613 C 337.168 69.557,336.974 69.616,336.792 69.743 C 336.610 69.871,336.364 69.937,336.244 69.891 C 336.124 69.845,335.941 69.965,335.838 70.158 C 335.734 70.351,335.583 70.468,335.501 70.418 C 335.203 70.233,333.697 72.039,333.358 72.989 C 333.005 73.976,332.798 75.167,332.979 75.167 C 333.039 75.167,333.096 75.748,333.106 76.458 C 333.130 78.183,333.983 79.875,335.150 80.514 C 335.480 80.695,335.975 80.985,336.250 81.159 C 336.525 81.333,336.952 81.481,337.198 81.488 C 337.445 81.495,337.690 81.570,337.743 81.656 C 337.796 81.742,337.970 81.818,338.128 81.825 C 340.885 81.951,342.743 81.952,343.192 81.830 C 343.499 81.746,344.021 81.644,344.353 81.604 C 345.717 81.438,347.300 80.446,348.598 78.944 C 348.832 78.673,349.404 77.484,349.353 77.375 C 349.342 77.352,349.339 77.315,349.346 77.292 C 349.353 77.269,349.391 77.063,349.431 76.833 C 349.471 76.604,349.551 76.304,349.608 76.167 C 349.808 75.690,349.824 75.225,349.817 70.083 C 349.813 67.242,349.811 64.774,349.813 64.599 C 349.815 64.424,349.626 63.955,349.392 63.557 C 349.159 63.159,349.028 62.833,349.101 62.833 C 349.722 62.833,346.812 60.854,346.003 60.726 C 345.864 60.704,345.225 60.576,344.583 60.442 C 343.106 60.133,339.832 60.123,338.845 60.424 M370.442 60.280 C 370.385 60.337,370.113 60.378,369.839 60.370 C 369.564 60.362,369.296 60.426,369.243 60.511 C 369.190 60.597,368.964 60.667,368.740 60.667 C 368.516 60.667,368.333 60.754,368.333 60.861 C 368.333 60.968,368.286 61.008,368.228 60.950 C 368.170 60.892,367.966 60.955,367.774 61.089 C 367.583 61.223,367.281 61.333,367.105 61.333 C 366.628 61.333,365.078 63.051,364.576 64.136 C 364.079 65.209,363.785 67.667,364.153 67.667 C 364.263 67.667,364.308 67.740,364.252 67.830 C 364.102 68.074,364.590 69.380,365.031 69.914 C 365.584 70.584,366.509 71.426,366.619 71.361 C 366.670 71.330,366.764 71.388,366.827 71.490 C 366.890 71.591,367.090 71.703,367.271 71.738 C 367.453 71.773,367.897 71.932,368.259 72.092 C 368.621 72.251,369.067 72.411,369.250 72.446 C 369.433 72.481,369.883 72.595,370.250 72.698 C 370.617 72.801,371.029 72.901,371.167 72.919 C 371.745 72.998,373.624 73.536,374.127 73.767 C 374.426 73.905,374.745 73.972,374.835 73.916 C 374.926 73.860,375.000 73.888,375.000 73.979 C 375.000 74.070,375.163 74.196,375.363 74.259 C 377.107 74.813,377.077 76.531,375.298 77.935 C 375.170 78.037,374.398 78.135,373.585 78.153 C 372.771 78.170,372.054 78.217,371.991 78.256 C 371.800 78.374,370.135 77.885,370.003 77.672 C 369.935 77.562,369.831 77.478,369.772 77.487 C 369.593 77.512,369.000 77.096,369.000 76.945 C 369.000 76.866,368.850 76.612,368.667 76.379 C 368.483 76.146,368.333 75.778,368.333 75.561 C 368.333 75.167,368.333 75.167,366.180 75.167 C 364.996 75.167,363.898 75.117,363.741 75.057 C 363.436 74.940,363.508 76.527,363.837 77.152 C 364.050 77.558,364.223 78.069,364.193 78.208 C 364.179 78.277,364.239 78.333,364.328 78.333 C 364.417 78.333,364.446 78.446,364.394 78.583 C 364.341 78.721,364.381 78.833,364.482 78.833 C 364.584 78.833,364.667 78.912,364.667 79.008 C 364.667 79.255,365.870 80.330,366.033 80.230 C 366.106 80.184,366.167 80.214,366.167 80.296 C 366.167 80.481,368.141 81.465,368.750 81.584 C 368.842 81.601,368.954 81.633,369.000 81.654 C 369.992 82.109,375.166 81.950,376.421 81.426 C 376.743 81.291,377.043 81.181,377.089 81.180 C 377.186 81.180,378.364 80.610,379.074 80.220 C 379.577 79.944,380.436 79.167,380.238 79.167 C 380.177 79.167,380.317 78.918,380.549 78.614 C 380.781 78.310,381.013 77.841,381.065 77.572 C 381.117 77.303,381.239 76.708,381.337 76.250 C 381.522 75.384,381.461 74.581,381.073 72.792 C 381.018 72.540,380.900 72.333,380.810 72.333 C 380.720 72.333,380.693 72.258,380.750 72.167 C 380.807 72.075,380.786 72.000,380.703 72.000 C 380.621 72.000,380.467 71.811,380.362 71.580 C 380.257 71.349,379.964 71.081,379.710 70.986 C 379.457 70.890,379.094 70.665,378.903 70.486 C 378.568 70.173,377.453 69.792,375.167 69.210 C 374.571 69.058,374.046 68.893,374.000 68.842 C 373.954 68.791,373.729 68.723,373.500 68.689 C 372.987 68.614,372.820 68.576,372.500 68.459 C 372.363 68.409,371.669 68.192,370.959 67.976 C 370.249 67.760,369.668 67.541,369.668 67.488 C 369.667 67.436,369.448 67.148,369.180 66.848 C 368.570 66.165,368.623 65.292,369.309 64.709 C 369.552 64.503,369.675 64.330,369.583 64.324 C 368.797 64.270,370.802 63.818,372.083 63.760 C 373.840 63.681,375.833 64.738,375.833 65.749 C 375.833 66.203,377.074 66.551,378.984 66.631 L 380.884 66.711 380.764 66.147 C 380.699 65.837,380.615 65.368,380.578 65.104 C 380.541 64.840,380.394 64.447,380.253 64.230 C 380.111 64.014,380.015 63.802,380.039 63.759 C 380.063 63.716,379.933 63.571,379.750 63.437 C 379.567 63.303,379.417 63.126,379.417 63.043 C 379.417 62.961,379.292 62.768,379.140 62.616 C 378.988 62.464,378.836 62.259,378.804 62.161 C 378.771 62.062,378.625 61.964,378.480 61.943 C 378.335 61.922,378.037 61.788,377.817 61.645 C 377.312 61.316,376.463 60.925,375.500 60.577 C 374.744 60.303,370.659 60.063,370.442 60.280 M133.417 60.501 C 133.050 60.584,132.563 60.697,132.333 60.753 C 132.104 60.808,131.834 60.870,131.733 60.891 C 131.633 60.912,131.351 61.059,131.108 61.218 C 130.865 61.377,130.667 61.459,130.667 61.400 C 130.667 61.341,130.554 61.386,130.417 61.500 C 130.279 61.614,130.164 61.642,130.162 61.562 C 130.159 61.482,130.079 61.549,129.985 61.712 C 129.890 61.874,129.757 61.972,129.689 61.930 C 129.620 61.888,129.344 62.124,129.074 62.455 C 128.804 62.786,128.415 63.207,128.208 63.391 C 128.002 63.576,127.833 63.876,127.833 64.058 C 127.833 64.240,127.784 64.340,127.725 64.280 C 127.576 64.131,127.188 64.914,127.093 65.556 C 127.050 65.846,126.889 66.496,126.734 67.000 C 126.342 68.282,126.240 72.891,126.577 74.153 C 126.710 74.650,126.783 75.114,126.740 75.183 C 126.697 75.253,126.743 75.361,126.842 75.422 C 126.941 75.483,126.985 75.631,126.940 75.751 C 126.894 75.870,126.903 76.014,126.960 76.071 C 127.017 76.128,127.088 76.333,127.118 76.525 C 127.189 76.995,127.679 78.009,127.994 78.341 C 128.613 78.993,129.333 79.875,129.333 79.981 C 129.333 80.121,132.198 81.491,132.713 81.597 C 133.981 81.857,134.391 81.898,135.667 81.893 C 137.161 81.888,138.001 81.767,138.537 81.480 C 138.716 81.385,138.899 81.344,138.945 81.390 C 138.991 81.435,139.466 81.216,140.001 80.903 C 140.535 80.590,141.052 80.333,141.150 80.333 C 141.247 80.333,141.607 79.958,141.949 79.500 C 142.291 79.042,142.635 78.667,142.712 78.667 C 142.790 78.667,142.813 78.602,142.764 78.522 C 142.715 78.443,142.823 78.244,143.004 78.080 C 143.185 77.916,143.333 77.681,143.333 77.558 C 143.333 77.434,143.399 77.333,143.480 77.333 C 143.665 77.333,143.953 76.183,143.869 75.783 C 143.732 75.133,139.173 75.546,139.168 76.208 C 139.167 76.277,139.085 76.333,138.985 76.333 C 138.885 76.333,138.514 76.581,138.161 76.883 C 136.676 78.154,133.365 78.064,132.615 76.733 C 132.540 76.601,132.409 76.536,132.323 76.590 C 132.237 76.643,132.167 76.581,132.167 76.452 C 132.167 76.323,132.017 76.045,131.833 75.833 C 131.650 75.622,131.491 75.385,131.479 75.308 C 131.449 75.105,131.382 74.847,131.333 74.750 C 131.310 74.704,131.273 74.592,131.250 74.500 C 131.227 74.408,131.192 74.277,131.171 74.208 C 131.151 74.140,131.132 73.840,131.129 73.542 C 131.126 73.244,131.065 73.000,130.994 73.000 C 130.923 73.000,130.951 72.813,131.057 72.585 L 131.250 72.169 137.885 72.168 L 144.519 72.167 144.441 70.375 C 144.365 68.617,144.212 67.208,144.074 66.985 C 144.036 66.923,143.961 66.582,143.907 66.228 C 143.854 65.873,143.699 65.497,143.563 65.392 C 143.423 65.283,143.390 65.175,143.487 65.142 C 143.663 65.082,142.800 63.613,142.326 63.167 C 142.180 63.029,142.012 62.785,141.952 62.625 C 141.892 62.465,141.725 62.333,141.579 62.333 C 141.433 62.333,141.355 62.267,141.405 62.186 C 141.520 61.999,141.157 61.691,140.737 61.618 C 140.561 61.588,139.997 61.368,139.484 61.129 C 138.067 60.469,134.969 60.149,133.417 60.501 M154.167 60.454 C 153.938 60.488,153.637 60.555,153.500 60.602 C 153.362 60.650,153.250 60.672,153.250 60.653 C 153.250 60.633,152.941 60.775,152.562 60.968 C 152.184 61.161,151.828 61.272,151.771 61.215 C 151.713 61.158,151.667 61.211,151.667 61.333 C 151.667 61.456,151.620 61.509,151.562 61.451 C 151.262 61.150,149.850 62.438,149.163 63.639 C 149.023 63.883,148.785 64.271,148.634 64.500 C 148.482 64.729,148.315 65.292,148.262 65.750 C 148.208 66.208,148.097 67.033,148.014 67.583 C 147.931 68.133,147.854 71.471,147.844 75.000 L 147.826 81.417 150.166 81.366 L 152.506 81.316 152.496 74.243 C 152.490 69.806,152.549 67.053,152.654 66.857 C 152.746 66.685,152.774 66.496,152.716 66.439 C 152.658 66.381,152.703 66.333,152.815 66.333 C 152.928 66.333,152.973 66.258,152.917 66.167 C 152.860 66.075,152.898 66.000,153.000 66.000 C 153.102 66.000,153.140 65.925,153.084 65.834 C 153.027 65.743,153.171 65.582,153.402 65.476 C 153.634 65.371,153.791 65.233,153.752 65.170 C 153.514 64.785,157.019 64.195,157.462 64.546 C 157.579 64.638,157.720 64.669,157.775 64.614 C 157.924 64.465,158.763 64.940,159.289 65.472 C 160.278 66.472,160.243 66.210,160.333 73.333 C 160.438 81.572,160.415 81.515,163.529 81.368 L 164.807 81.308 164.862 74.446 C 164.897 70.000,164.858 67.540,164.750 67.461 C 164.647 67.385,164.665 67.337,164.795 67.336 C 164.926 67.334,164.977 67.191,164.927 66.958 C 164.884 66.752,164.809 66.395,164.761 66.164 C 164.544 65.116,164.171 64.138,163.810 63.668 C 162.935 62.529,161.898 61.497,161.583 61.453 C 161.400 61.427,160.912 61.243,160.500 61.044 C 159.316 60.471,156.064 60.168,154.167 60.454 M205.750 60.431 C 204.430 60.747,203.389 61.058,203.235 61.183 C 203.135 61.264,203.003 61.281,202.943 61.221 C 202.883 61.160,202.833 61.203,202.833 61.315 C 202.833 61.428,202.758 61.473,202.667 61.417 C 202.575 61.360,202.500 61.398,202.500 61.500 C 202.500 61.602,202.430 61.643,202.345 61.590 C 202.260 61.538,202.005 61.665,201.779 61.872 C 200.773 62.796,200.571 62.992,200.368 63.238 C 200.250 63.382,200.213 63.502,200.285 63.505 C 200.357 63.508,200.284 63.587,200.121 63.682 C 199.959 63.776,199.870 63.924,199.923 64.010 C 199.976 64.096,199.928 64.167,199.815 64.167 C 199.703 64.167,199.660 64.216,199.721 64.276 C 199.781 64.337,199.737 64.498,199.624 64.635 C 199.058 65.317,199.594 70.104,200.195 69.732 C 200.271 69.685,200.333 69.731,200.333 69.833 C 200.333 70.168,201.816 71.490,202.288 71.576 C 202.541 71.622,202.773 71.736,202.804 71.830 C 202.836 71.923,203.005 72.000,203.181 72.000 C 203.356 72.000,203.500 72.075,203.500 72.167 C 203.500 72.258,203.556 72.324,203.625 72.314 C 203.694 72.303,203.787 72.308,203.833 72.326 C 203.879 72.344,204.031 72.381,204.170 72.409 C 205.030 72.580,207.049 73.070,207.795 73.289 C 208.279 73.432,208.721 73.501,208.779 73.443 C 208.837 73.386,208.982 73.469,209.103 73.628 C 209.273 73.851,209.324 73.862,209.328 73.676 C 209.332 73.499,209.392 73.516,209.558 73.744 C 209.682 73.913,209.869 73.998,209.975 73.932 C 210.080 73.867,210.167 73.898,210.167 74.000 C 210.167 74.102,210.235 74.144,210.320 74.092 C 210.712 73.850,211.711 75.232,211.738 76.053 C 211.820 78.546,205.021 79.213,204.238 76.789 C 204.185 76.627,204.075 76.537,203.993 76.588 C 203.911 76.639,203.798 76.471,203.743 76.215 C 203.472 74.951,203.580 75.000,201.085 75.000 L 198.829 75.000 198.919 75.958 C 198.995 76.759,199.088 77.292,199.247 77.833 C 199.327 78.102,199.937 78.998,200.042 78.999 C 200.110 79.000,200.167 79.080,200.167 79.179 C 200.167 79.425,200.479 79.711,201.167 80.093 C 201.487 80.271,201.787 80.464,201.833 80.522 C 202.021 80.761,203.791 81.525,204.333 81.601 C 204.654 81.647,205.142 81.717,205.417 81.757 C 207.943 82.125,212.943 81.350,213.500 80.505 C 213.546 80.435,213.746 80.327,213.945 80.265 C 214.468 80.102,215.386 79.177,215.697 78.500 C 215.844 78.179,216.067 77.699,216.191 77.433 C 217.012 75.676,216.097 71.576,214.750 70.981 C 214.412 70.832,214.109 70.652,213.308 70.125 C 213.065 69.965,212.713 69.833,212.527 69.833 C 212.341 69.833,211.977 69.753,211.719 69.655 C 211.461 69.557,211.243 69.501,211.234 69.530 C 211.225 69.559,211.094 69.480,210.942 69.355 C 210.791 69.229,210.667 69.168,210.667 69.221 C 210.667 69.273,210.310 69.214,209.875 69.091 C 209.440 68.967,208.783 68.808,208.417 68.738 C 207.577 68.576,207.698 68.614,206.917 68.269 C 206.550 68.107,206.063 67.962,205.835 67.946 C 204.847 67.877,203.789 66.231,204.166 65.349 C 204.974 63.461,209.844 63.369,210.666 65.226 C 211.198 66.427,211.711 66.656,213.882 66.662 L 215.847 66.667 215.807 65.990 C 215.783 65.589,215.662 65.251,215.508 65.161 C 215.354 65.071,215.331 65.008,215.453 65.005 C 215.705 64.999,215.544 64.536,215.139 64.100 C 214.977 63.925,214.885 63.719,214.933 63.640 C 214.981 63.562,214.904 63.453,214.761 63.398 C 214.617 63.343,214.500 63.238,214.500 63.165 C 214.500 62.641,212.840 61.333,212.175 61.333 C 211.987 61.333,211.833 61.266,211.833 61.184 C 211.833 61.003,211.418 60.833,210.750 60.741 C 210.475 60.703,210.063 60.628,209.833 60.576 C 209.257 60.443,206.158 60.333,205.750 60.431 M314.414 60.641 C 314.381 60.674,314.102 60.725,313.794 60.755 C 313.183 60.814,311.967 61.254,311.383 61.627 C 311.182 61.756,310.815 61.883,310.568 61.910 C 310.321 61.937,310.050 62.083,309.966 62.233 C 309.882 62.384,309.751 62.469,309.675 62.422 C 309.600 62.375,309.445 62.449,309.332 62.585 C 309.219 62.722,309.183 62.833,309.253 62.833 C 309.324 62.833,308.995 63.219,308.524 63.690 C 308.052 64.162,307.667 64.649,307.667 64.774 C 307.667 64.898,307.579 65.000,307.472 65.000 C 307.365 65.000,307.326 65.048,307.384 65.107 C 307.443 65.165,307.388 65.409,307.261 65.648 C 306.549 66.994,306.374 68.840,306.348 75.292 L 306.323 81.500 308.661 81.500 L 311.000 81.500 311.027 75.958 C 311.052 70.939,311.094 68.750,311.166 68.750 C 311.180 68.750,311.225 68.563,311.265 68.333 C 311.305 68.104,311.490 67.729,311.675 67.500 C 311.861 67.271,312.056 66.952,312.109 66.792 C 312.162 66.631,312.347 66.500,312.519 66.500 C 312.692 66.500,312.833 66.387,312.833 66.250 C 312.833 66.112,312.908 65.991,313.000 65.979 C 313.310 65.940,313.416 65.905,313.750 65.730 C 314.127 65.533,314.973 65.434,316.375 65.424 L 317.333 65.417 317.333 62.954 L 317.333 60.492 315.903 60.537 C 315.117 60.562,314.447 60.609,314.414 60.641 M328.114 60.608 C 328.097 60.625,327.780 60.684,327.410 60.739 C 326.332 60.899,326.041 60.967,325.719 61.132 C 325.553 61.217,325.182 61.331,324.896 61.385 C 324.007 61.553,322.587 62.630,321.446 64.000 C 321.332 64.137,321.054 64.662,320.829 65.167 C 320.604 65.671,320.352 66.132,320.270 66.191 C 320.187 66.251,320.160 66.457,320.210 66.650 C 320.261 66.842,320.225 67.000,320.132 67.000 C 320.038 67.000,319.999 67.146,320.046 67.325 C 320.093 67.504,320.045 67.679,319.941 67.714 C 319.803 67.760,319.735 69.680,319.696 74.639 L 319.642 81.500 321.898 81.500 L 324.154 81.500 324.212 75.708 C 324.271 69.781,324.351 68.528,324.685 68.322 C 324.790 68.257,324.829 68.128,324.771 68.034 C 324.660 67.854,325.592 66.650,326.213 66.172 C 326.799 65.720,327.646 65.490,329.083 65.391 C 329.817 65.341,330.432 65.286,330.450 65.270 C 330.468 65.253,330.495 64.192,330.509 62.911 L 330.534 60.583 329.339 60.580 C 328.682 60.579,328.131 60.591,328.114 60.608 M169.461 70.982 L 169.505 81.315 171.753 81.366 L 174.001 81.417 174.000 71.880 C 174.000 60.017,174.203 60.753,170.917 60.681 L 169.417 60.648 169.461 70.982 M178.508 67.808 C 178.534 75.995,178.706 77.450,179.792 78.630 C 179.906 78.755,180.000 78.929,180.000 79.018 C 180.000 79.213,180.948 80.158,181.172 80.188 C 181.261 80.199,181.390 80.220,181.458 80.235 C 181.641 80.274,182.403 80.700,182.500 80.817 C 182.637 80.982,183.393 81.336,183.751 81.403 C 183.934 81.437,184.394 81.548,184.773 81.650 C 185.515 81.850,187.770 81.907,188.583 81.747 C 190.424 81.383,192.500 80.607,192.500 80.283 C 192.500 80.208,192.576 80.194,192.668 80.251 C 193.097 80.516,194.667 78.558,194.667 77.758 C 194.667 77.540,194.738 77.336,194.825 77.306 C 194.993 77.246,195.105 76.731,195.326 75.000 C 195.402 74.404,195.475 70.926,195.488 67.271 L 195.511 60.625 193.670 60.700 C 190.746 60.818,190.856 60.485,190.815 69.332 C 190.781 76.739,190.826 76.397,189.750 77.391 C 188.667 78.391,186.641 78.542,184.875 77.752 C 184.485 77.578,184.167 77.333,184.167 77.208 C 184.167 77.078,184.084 77.032,183.974 77.099 C 183.866 77.166,183.827 77.146,183.884 77.053 C 183.940 76.962,183.860 76.707,183.705 76.487 C 183.428 76.090,183.392 75.984,183.258 75.167 C 183.220 74.938,183.184 71.581,183.178 67.708 L 183.167 60.667 180.826 60.667 L 178.486 60.667 178.508 67.808 M59.085 63.669 C 59.181 63.825,59.147 63.862,58.969 63.793 C 58.811 63.732,58.375 64.018,57.790 64.567 C 57.280 65.046,56.600 65.617,56.279 65.837 C 55.350 66.473,55.040 67.279,55.671 67.418 C 55.939 67.476,56.235 67.477,56.329 67.419 C 56.423 67.361,56.500 67.393,56.500 67.490 C 56.500 67.587,56.579 67.667,56.677 67.667 C 56.774 67.667,56.797 67.573,56.728 67.458 C 56.632 67.299,56.660 67.294,56.843 67.436 C 56.975 67.538,57.196 67.621,57.333 67.620 C 57.790 67.617,59.018 67.825,59.197 67.935 C 59.360 68.036,60.056 68.230,60.958 68.425 C 61.409 68.523,61.405 68.039,60.949 67.536 C 60.794 67.364,60.667 67.177,60.667 67.121 C 60.667 67.064,60.407 66.574,60.089 66.032 C 59.771 65.490,59.461 64.735,59.400 64.353 C 59.339 63.971,59.213 63.612,59.119 63.554 C 59.013 63.489,59.000 63.532,59.085 63.669 M261.875 64.272 C 262.219 64.425,262.500 64.605,262.500 64.673 C 262.500 64.740,262.652 64.834,262.838 64.883 C 263.024 64.932,263.157 65.034,263.133 65.111 C 263.109 65.187,263.238 65.421,263.420 65.630 C 263.601 65.840,263.753 66.065,263.756 66.130 C 263.759 66.196,263.850 66.409,263.958 66.603 C 264.066 66.797,264.108 67.004,264.050 67.061 C 263.992 67.119,264.016 67.167,264.103 67.167 C 264.190 67.167,264.274 67.298,264.289 67.458 C 264.304 67.619,264.359 68.031,264.412 68.375 L 264.508 69.000 260.171 69.000 C 257.785 69.000,255.833 68.981,255.833 68.958 C 255.834 68.464,256.397 66.229,256.545 66.135 C 256.658 66.064,256.692 66.004,256.621 66.003 C 256.550 66.001,256.617 65.810,256.769 65.578 C 256.921 65.346,257.081 65.192,257.124 65.235 C 257.167 65.279,257.409 65.088,257.661 64.812 C 257.913 64.537,258.224 64.290,258.351 64.264 C 258.479 64.238,258.696 64.173,258.833 64.118 C 259.588 63.820,261.025 63.893,261.875 64.272 M294.491 64.082 C 294.876 64.147,295.230 64.305,295.279 64.433 C 295.329 64.562,295.471 64.667,295.595 64.667 C 295.720 64.667,295.903 64.819,296.002 65.005 C 296.102 65.191,296.266 65.291,296.367 65.229 C 296.479 65.160,296.504 65.192,296.432 65.309 C 296.365 65.417,296.427 65.546,296.572 65.602 C 296.715 65.657,296.797 65.757,296.755 65.825 C 296.713 65.893,296.836 66.354,297.027 66.849 C 297.219 67.345,297.411 68.031,297.453 68.375 L 297.531 69.000 293.164 69.000 L 288.796 69.000 288.903 68.375 C 288.962 68.031,289.114 67.487,289.241 67.167 C 289.368 66.846,289.515 66.471,289.568 66.333 C 290.276 64.497,292.076 63.674,294.491 64.082 M136.458 64.171 C 136.481 64.191,136.556 64.219,136.625 64.231 C 137.003 64.300,137.819 64.722,137.760 64.818 C 137.722 64.879,137.903 65.073,138.163 65.248 C 138.819 65.688,139.660 67.580,139.665 68.625 L 139.667 69.000 135.372 69.000 L 131.078 69.000 131.104 68.440 C 131.118 68.132,131.216 67.719,131.321 67.523 C 131.426 67.327,131.462 67.167,131.402 67.167 C 131.342 67.167,131.386 67.054,131.500 66.917 C 131.614 66.779,131.657 66.667,131.594 66.667 C 131.532 66.667,131.614 66.442,131.777 66.167 C 131.939 65.892,132.131 65.667,132.203 65.667 C 132.275 65.667,132.333 65.566,132.333 65.443 C 132.333 65.321,132.521 65.135,132.750 65.030 C 132.979 64.926,133.167 64.759,133.167 64.660 C 133.167 64.561,133.242 64.527,133.333 64.583 C 133.425 64.640,133.500 64.619,133.500 64.538 C 133.500 64.244,136.171 63.913,136.458 64.171 M49.917 68.874 C 49.550 68.951,48.987 69.042,48.667 69.076 C 48.346 69.111,48.083 69.155,48.083 69.174 C 48.083 69.193,47.933 69.232,47.750 69.259 C 47.204 69.342,46.779 69.459,46.250 69.672 C 45.975 69.783,45.563 69.895,45.333 69.921 C 45.104 69.946,44.898 69.984,44.875 70.004 C 44.852 70.025,44.777 70.057,44.708 70.076 C 44.640 70.096,44.358 70.204,44.083 70.317 C 43.808 70.431,43.563 70.515,43.538 70.505 C 43.457 70.472,42.431 71.075,42.199 71.292 C 42.077 71.406,41.869 71.500,41.738 71.500 C 41.607 71.500,41.500 71.574,41.500 71.663 C 41.500 71.753,41.295 71.878,41.045 71.941 C 40.795 72.004,40.240 72.307,39.812 72.614 L 39.034 73.174 39.370 73.869 C 39.554 74.252,39.718 74.644,39.733 74.741 C 39.747 74.837,39.818 75.010,39.890 75.125 C 39.961 75.240,39.959 75.334,39.885 75.336 C 39.811 75.337,39.862 75.409,39.999 75.496 C 40.136 75.583,40.264 75.856,40.283 76.104 C 40.302 76.351,40.377 76.598,40.450 76.652 C 40.524 76.706,40.608 76.862,40.637 77.000 C 40.667 77.137,40.837 77.406,41.014 77.596 C 41.191 77.786,41.286 77.992,41.224 78.054 C 41.162 78.116,41.199 78.167,41.306 78.167 C 41.412 78.167,41.500 78.279,41.500 78.417 C 41.500 78.554,41.579 78.667,41.677 78.667 C 41.774 78.667,41.812 78.734,41.761 78.816 C 41.710 78.898,41.781 79.008,41.918 79.061 C 42.055 79.113,42.167 79.275,42.167 79.421 C 42.167 79.567,42.242 79.640,42.333 79.583 C 42.425 79.527,42.500 79.606,42.500 79.759 C 42.500 80.408,46.622 84.667,47.250 84.667 C 47.315 84.667,47.702 84.892,48.109 85.167 C 48.517 85.442,48.926 85.667,49.018 85.667 C 49.111 85.667,49.146 85.731,49.098 85.810 C 48.979 86.002,50.255 86.568,50.486 86.426 C 50.585 86.364,50.667 86.385,50.667 86.472 C 50.667 86.559,50.847 86.676,51.068 86.731 C 51.289 86.787,51.589 86.878,51.735 86.934 C 52.086 87.069,52.086 86.610,51.735 86.259 C 51.589 86.113,51.454 85.901,51.435 85.788 C 51.416 85.676,51.302 85.404,51.182 85.185 C 51.062 84.966,50.930 84.554,50.890 84.269 C 50.849 83.983,50.695 83.375,50.547 82.917 C 50.399 82.458,50.257 81.933,50.230 81.750 C 50.203 81.567,50.129 81.079,50.065 80.667 C 49.795 78.929,49.961 75.175,50.354 74.149 C 50.445 73.911,50.534 73.442,50.552 73.108 C 50.569 72.775,50.644 72.501,50.718 72.501 C 50.792 72.500,50.810 72.430,50.757 72.345 C 50.669 72.202,51.002 71.266,51.354 70.667 C 51.435 70.529,51.576 70.242,51.668 70.029 C 51.760 69.816,51.947 69.529,52.084 69.392 C 52.772 68.705,51.818 68.477,49.917 68.874 M53.864 68.803 C 53.743 68.884,53.627 69.066,53.607 69.208 C 53.586 69.350,53.475 69.579,53.361 69.716 C 53.247 69.854,53.122 70.131,53.083 70.333 C 53.044 70.535,52.935 70.794,52.841 70.907 C 52.747 71.021,52.719 71.163,52.779 71.224 C 52.840 71.284,52.801 71.333,52.694 71.333 C 52.588 71.333,52.512 71.390,52.527 71.458 C 52.542 71.527,52.454 71.808,52.333 72.083 C 52.211 72.358,52.096 72.640,52.076 72.708 C 52.057 72.777,52.023 72.890,52.001 72.958 C 51.979 73.027,51.972 73.148,51.987 73.227 C 52.001 73.307,51.869 73.794,51.692 74.311 C 51.290 75.489,51.123 76.997,51.363 77.285 C 51.490 77.439,51.487 77.500,51.354 77.500 C 51.095 77.500,51.114 78.784,51.375 78.890 C 51.532 78.954,51.535 79.009,51.389 79.114 C 51.278 79.193,51.225 79.502,51.265 79.835 C 51.304 80.155,51.339 80.563,51.343 80.742 C 51.346 80.921,51.423 81.157,51.514 81.266 C 51.604 81.376,51.662 81.529,51.641 81.607 C 51.570 81.879,51.863 83.165,52.017 83.261 C 52.102 83.313,52.129 83.426,52.076 83.512 C 52.023 83.597,52.063 83.667,52.164 83.667 C 52.265 83.667,52.330 83.760,52.307 83.875 C 52.285 83.990,52.429 84.393,52.626 84.771 C 52.824 85.149,52.939 85.506,52.882 85.563 C 52.825 85.620,52.870 85.667,52.982 85.667 C 53.094 85.667,53.138 85.746,53.078 85.842 C 53.018 85.939,53.131 86.158,53.329 86.330 C 53.527 86.501,53.682 86.703,53.674 86.779 C 53.649 87.010,54.224 87.984,54.342 87.911 C 54.403 87.874,54.707 87.917,55.018 88.008 C 55.329 88.099,55.846 88.209,56.167 88.253 C 56.487 88.296,56.938 88.374,57.167 88.425 C 57.396 88.477,58.371 88.520,59.333 88.522 C 60.855 88.524,61.771 88.433,63.885 88.072 C 64.532 87.961,67.373 87.008,67.588 86.830 C 67.685 86.749,68.010 86.640,68.311 86.587 C 68.816 86.498,69.461 86.169,69.947 85.752 C 70.055 85.659,70.610 85.321,71.180 85.000 C 71.750 84.679,72.581 84.074,73.027 83.656 C 73.474 83.237,73.863 82.918,73.891 82.947 C 74.210 83.266,74.336 82.101,74.046 81.515 C 73.863 81.145,73.777 80.882,73.856 80.931 C 74.107 81.086,74.013 80.900,73.594 80.413 C 73.371 80.154,73.022 79.616,72.818 79.220 C 72.614 78.823,72.409 78.535,72.363 78.581 C 72.260 78.684,71.770 78.002,71.724 77.691 C 71.706 77.566,71.535 77.319,71.345 77.142 C 71.155 76.965,71.000 76.744,71.000 76.650 C 71.000 76.557,70.935 76.521,70.855 76.570 C 70.776 76.619,70.532 76.422,70.314 76.132 C 69.779 75.422,68.467 74.144,68.371 74.240 C 68.328 74.283,68.200 74.227,68.086 74.117 C 67.972 74.007,67.558 73.654,67.167 73.333 C 66.775 73.012,66.371 72.670,66.269 72.571 C 66.167 72.473,66.046 72.387,66.000 72.381 C 65.886 72.365,63.324 71.114,62.000 70.428 C 61.029 69.925,60.292 69.674,59.000 69.407 C 58.771 69.359,58.433 69.274,58.250 69.217 C 57.210 68.897,54.156 68.608,53.864 68.803 M345.615 72.338 C 345.443 75.172,344.264 78.056,343.478 77.570 C 343.398 77.521,343.333 77.564,343.333 77.667 C 343.333 77.769,343.258 77.807,343.167 77.750 C 343.075 77.693,343.000 77.720,343.000 77.810 C 343.000 78.272,340.107 78.348,339.087 77.913 C 337.113 77.072,336.536 74.430,338.050 73.167 C 338.214 73.029,338.508 72.785,338.701 72.624 C 339.016 72.363,339.807 72.083,340.749 71.900 C 340.933 71.865,341.604 71.798,342.240 71.751 C 342.877 71.704,343.439 71.610,343.490 71.541 C 343.541 71.473,343.846 71.395,344.167 71.369 C 344.488 71.343,344.775 71.249,344.806 71.161 C 344.836 71.072,344.967 71.000,345.097 71.000 C 345.227 71.000,345.333 70.925,345.333 70.833 C 345.333 70.742,345.420 70.667,345.525 70.667 C 345.664 70.667,345.689 71.130,345.615 72.338 M74.707 83.944 C 74.592 83.990,74.540 84.097,74.592 84.181 C 74.644 84.265,74.608 84.333,74.512 84.333 C 74.416 84.333,74.205 84.442,74.044 84.574 C 72.474 85.862,72.063 86.167,71.896 86.167 C 71.789 86.167,71.659 86.279,71.606 86.417 C 71.554 86.554,71.373 86.667,71.205 86.667 C 71.036 86.667,70.564 86.879,70.156 87.138 C 69.748 87.397,69.056 87.745,68.618 87.912 C 68.180 88.079,67.783 88.280,67.735 88.358 C 67.686 88.436,67.501 88.500,67.323 88.500 C 67.146 88.500,67.000 88.579,67.000 88.677 C 67.000 88.774,66.930 88.810,66.845 88.757 C 66.760 88.704,66.642 88.739,66.583 88.833 C 66.525 88.928,66.424 88.973,66.359 88.933 C 66.294 88.893,65.793 88.969,65.246 89.103 C 64.698 89.236,64.049 89.376,63.802 89.414 C 63.556 89.451,62.881 89.571,62.302 89.680 C 61.724 89.790,60.437 89.883,59.444 89.887 L 57.637 89.895 58.172 90.362 C 58.466 90.618,58.762 90.794,58.830 90.752 C 58.898 90.710,59.224 90.955,59.554 91.296 C 60.603 92.380,61.265 93.000,61.371 93.000 C 61.428 93.000,61.699 93.225,61.974 93.500 C 62.249 93.775,62.437 94.000,62.392 94.000 C 62.286 94.000,62.635 94.335,63.178 94.754 C 63.413 94.935,63.602 95.121,63.598 95.167 C 63.593 95.212,63.813 95.503,64.087 95.812 C 64.360 96.122,64.566 96.436,64.545 96.510 C 64.524 96.585,64.655 96.693,64.837 96.751 C 65.018 96.809,65.167 96.915,65.167 96.988 C 65.167 97.060,65.424 97.445,65.739 97.843 C 66.054 98.241,66.273 98.630,66.225 98.707 C 66.177 98.785,66.351 99.126,66.610 99.466 C 66.870 99.805,67.064 100.140,67.041 100.208 C 67.018 100.277,67.075 100.333,67.167 100.333 C 67.258 100.333,67.333 100.399,67.333 100.479 C 67.333 100.559,67.499 100.990,67.701 101.437 C 67.903 101.884,68.053 102.306,68.034 102.375 C 68.015 102.444,68.079 102.500,68.177 102.500 C 68.274 102.500,68.310 102.569,68.258 102.653 C 68.206 102.738,68.281 102.924,68.425 103.068 C 68.569 103.212,68.698 103.481,68.712 103.665 C 68.726 103.849,68.805 104.000,68.887 104.000 C 68.969 104.000,68.992 104.112,68.940 104.250 C 68.887 104.388,68.929 104.500,69.033 104.500 C 69.137 104.500,69.173 104.549,69.113 104.610 C 69.052 104.670,69.088 104.822,69.191 104.947 C 69.295 105.072,69.411 105.451,69.448 105.790 C 69.485 106.129,69.572 106.447,69.641 106.495 C 69.710 106.544,69.784 106.846,69.805 107.167 C 69.826 107.487,69.909 107.772,69.988 107.800 C 70.067 107.827,70.093 107.996,70.046 108.175 C 69.999 108.354,70.008 108.500,70.065 108.500 C 70.237 108.500,71.691 106.969,71.602 106.880 C 71.514 106.792,71.543 106.749,72.351 105.785 C 72.901 105.128,74.000 103.385,74.000 103.170 C 74.000 103.102,74.288 102.417,74.641 101.648 C 75.465 99.850,76.151 97.864,76.132 97.333 C 76.124 97.104,76.216 96.354,76.337 95.667 C 76.722 93.472,76.475 86.667,76.010 86.667 C 75.959 86.667,75.910 86.498,75.901 86.292 C 75.877 85.688,75.713 85.064,75.411 84.428 C 75.125 83.825,75.080 83.794,74.707 83.944 M58.249 92.501 C 58.192 92.593,58.263 92.714,58.406 92.769 C 58.549 92.824,58.667 92.973,58.667 93.101 C 58.667 93.229,58.754 93.333,58.861 93.333 C 58.968 93.333,59.012 93.377,58.958 93.431 C 58.905 93.484,59.008 93.674,59.187 93.853 C 59.366 94.032,59.467 94.251,59.413 94.339 C 59.358 94.428,59.393 94.500,59.490 94.500 C 59.587 94.500,59.667 94.650,59.667 94.833 C 59.667 95.017,59.730 95.167,59.807 95.167 C 59.884 95.167,60.046 95.468,60.167 95.836 C 60.289 96.204,60.488 96.588,60.611 96.689 C 60.733 96.791,60.833 96.971,60.833 97.090 C 60.833 97.208,60.920 97.334,61.025 97.370 C 61.131 97.405,61.237 97.617,61.262 97.842 C 61.286 98.066,61.321 98.269,61.340 98.292 C 61.359 98.315,61.394 98.408,61.417 98.500 C 61.440 98.592,61.477 98.704,61.500 98.750 C 61.545 98.840,61.546 98.843,61.745 99.583 C 61.819 99.858,61.953 100.177,62.043 100.292 C 62.134 100.406,62.152 100.500,62.083 100.500 C 62.015 100.500,62.053 100.612,62.167 100.750 C 62.281 100.888,62.309 101.001,62.229 101.003 C 62.149 101.004,62.172 101.062,62.281 101.131 C 62.389 101.200,62.504 101.442,62.535 101.670 C 62.566 101.897,62.651 102.177,62.722 102.292 C 62.794 102.406,62.807 102.575,62.750 102.667 C 62.693 102.758,62.730 102.833,62.831 102.833 C 62.932 102.833,62.998 102.927,62.977 103.042 C 62.957 103.156,63.024 103.537,63.127 103.887 C 63.229 104.238,63.272 104.632,63.222 104.762 C 63.172 104.893,63.206 105.000,63.298 105.000 C 63.390 105.000,63.470 105.169,63.477 105.375 C 63.493 105.831,63.632 107.083,63.667 107.083 C 63.681 107.083,63.717 107.796,63.747 108.667 C 63.867 112.123,64.165 113.457,64.648 112.703 C 64.704 112.615,65.153 112.340,65.646 112.092 C 66.139 111.843,66.724 111.458,66.945 111.237 C 67.167 111.015,67.379 110.833,67.416 110.833 C 67.453 110.833,67.685 110.646,67.932 110.417 C 68.180 110.188,68.484 110.000,68.608 110.000 C 68.913 110.000,68.892 109.616,68.504 108.056 C 68.323 107.328,68.147 106.586,68.113 106.408 C 68.079 106.229,67.964 105.872,67.859 105.614 C 67.753 105.356,67.667 105.000,67.667 104.822 C 67.667 104.645,67.587 104.500,67.490 104.500 C 67.393 104.500,67.355 104.434,67.405 104.352 C 67.508 104.186,66.588 102.176,65.833 100.917 C 65.558 100.458,65.218 99.858,65.077 99.583 C 64.517 98.488,64.308 98.167,64.158 98.167 C 64.071 98.167,64.000 98.050,64.000 97.907 C 64.000 97.764,63.925 97.693,63.833 97.750 C 63.742 97.807,63.667 97.736,63.667 97.593 C 63.667 97.450,63.579 97.333,63.472 97.333 C 63.365 97.333,63.324 97.287,63.380 97.231 C 63.436 97.175,63.261 96.894,62.992 96.606 C 62.722 96.319,62.501 96.027,62.501 95.958 C 62.500 95.890,62.387 95.833,62.250 95.833 C 62.112 95.833,62.000 95.747,62.000 95.641 C 62.000 95.535,61.512 94.970,60.917 94.386 C 60.321 93.802,59.833 93.369,59.833 93.424 C 59.833 93.479,59.581 93.256,59.272 92.929 C 58.696 92.318,58.431 92.207,58.249 92.501 M58.980 97.042 C 58.951 97.355,59.004 97.721,59.120 98.000 C 59.177 98.138,59.239 98.400,59.256 98.583 C 59.274 98.767,59.340 99.479,59.403 100.167 C 59.465 100.854,59.561 101.679,59.617 102.000 C 59.802 103.083,59.691 107.774,59.446 109.167 C 59.317 109.900,59.157 111.464,59.160 111.958 C 59.162 112.165,59.108 112.333,59.040 112.334 C 58.972 112.334,58.900 112.572,58.879 112.863 C 58.859 113.153,58.765 113.468,58.671 113.562 C 58.577 113.656,58.500 113.901,58.500 114.107 C 58.500 114.312,58.425 114.527,58.333 114.583 C 57.563 115.059,59.249 115.058,60.170 114.581 C 60.404 114.461,60.874 114.310,61.214 114.246 C 61.555 114.182,61.833 114.070,61.833 113.997 C 61.833 113.924,61.971 113.900,62.139 113.944 C 62.491 114.037,62.479 114.110,62.497 111.667 C 62.513 109.614,62.376 108.067,62.010 106.167 C 61.913 105.662,61.798 105.025,61.753 104.750 C 61.677 104.279,61.234 102.347,61.161 102.167 C 61.142 102.121,61.134 102.032,61.143 101.969 C 61.152 101.906,61.052 101.550,60.920 101.177 C 60.789 100.805,60.724 100.500,60.777 100.500 C 60.829 100.500,60.749 100.313,60.599 100.083 C 60.449 99.854,60.356 99.667,60.393 99.667 C 60.431 99.667,60.173 99.092,59.820 98.391 C 59.468 97.689,59.218 97.051,59.266 96.974 C 59.314 96.897,59.274 96.833,59.177 96.833 C 59.079 96.833,58.991 96.927,58.980 97.042 M57.919 104.656 C 57.860 104.925,57.805 105.375,57.797 105.656 C 57.789 105.937,57.724 106.167,57.652 106.167 C 57.580 106.167,57.526 106.298,57.532 106.458 C 57.538 106.619,57.489 106.975,57.422 107.250 C 57.355 107.525,57.294 107.900,57.285 108.083 C 57.277 108.267,57.214 108.456,57.145 108.504 C 57.077 108.551,56.983 108.796,56.938 109.047 C 56.803 109.787,56.637 110.220,56.395 110.462 C 56.269 110.588,56.167 110.825,56.167 110.989 C 56.167 111.154,56.011 111.486,55.821 111.728 C 55.631 111.969,55.523 112.167,55.581 112.167 C 55.638 112.167,55.569 112.333,55.426 112.537 C 55.283 112.741,55.167 113.015,55.167 113.146 C 55.167 113.278,54.977 113.634,54.745 113.939 C 54.513 114.243,54.344 114.536,54.370 114.591 C 54.396 114.645,54.285 114.764,54.125 114.853 C 53.965 114.943,53.833 115.199,53.833 115.422 C 53.833 115.827,54.458 115.871,56.000 115.574 C 56.137 115.547,56.335 115.520,56.438 115.513 C 56.667 115.497,56.949 114.814,57.096 113.917 C 57.156 113.550,57.345 112.725,57.515 112.083 C 58.075 109.979,58.644 105.069,58.402 104.438 C 58.242 104.022,58.038 104.114,57.919 104.656 M68.000 112.250 C 68.000 112.388,67.894 112.500,67.764 112.500 C 67.457 112.500,66.502 113.043,66.501 113.218 C 66.500 113.292,66.425 113.307,66.333 113.250 C 66.242 113.193,66.167 113.226,66.167 113.323 C 66.167 113.421,66.093 113.500,66.002 113.500 C 65.911 113.500,65.684 113.631,65.497 113.792 C 65.309 113.952,65.102 114.089,65.036 114.097 C 64.659 114.140,64.014 114.383,64.032 114.475 C 64.044 114.535,63.995 114.716,63.924 114.877 C 63.854 115.039,63.835 115.321,63.882 115.502 C 63.930 115.684,63.895 115.833,63.805 115.833 C 63.715 115.833,63.657 116.077,63.677 116.375 C 63.697 116.673,63.658 117.044,63.592 117.200 C 63.525 117.356,63.521 117.566,63.583 117.666 C 63.645 117.766,63.607 117.954,63.500 118.083 C 63.393 118.213,63.346 118.386,63.397 118.468 C 63.448 118.550,63.350 118.999,63.179 119.466 C 63.009 119.932,62.909 120.354,62.958 120.403 C 63.007 120.452,62.970 120.588,62.875 120.704 C 62.780 120.821,62.614 121.348,62.506 121.875 C 62.398 122.402,62.208 122.935,62.084 123.059 C 61.873 123.270,61.557 124.427,61.633 124.708 C 61.651 124.777,61.584 124.833,61.482 124.833 C 61.381 124.833,61.342 124.950,61.397 125.092 C 61.452 125.234,61.429 125.309,61.348 125.259 C 61.266 125.208,61.121 125.392,61.025 125.667 C 60.929 125.942,60.903 126.168,60.967 126.169 C 61.031 126.171,60.985 126.234,60.864 126.311 C 60.743 126.387,60.629 126.558,60.609 126.690 C 60.590 126.822,60.393 127.227,60.172 127.590 C 59.950 127.953,59.764 128.287,59.758 128.333 C 59.719 128.629,59.084 129.738,58.742 130.107 C 58.517 130.350,58.333 130.631,58.333 130.733 C 58.333 130.834,58.108 131.179,57.833 131.500 C 57.275 132.152,57.275 132.152,57.500 132.500 C 57.598 132.651,57.663 132.671,57.664 132.551 C 57.666 132.442,57.888 132.222,58.158 132.062 C 58.428 131.903,58.611 131.711,58.564 131.636 C 58.518 131.561,58.600 131.500,58.745 131.500 C 58.891 131.500,59.053 131.388,59.106 131.251 C 59.159 131.114,59.268 131.043,59.350 131.094 C 59.432 131.144,59.586 130.994,59.693 130.759 C 59.799 130.525,59.973 130.333,60.079 130.333 C 60.185 130.333,60.487 130.108,60.750 129.833 C 61.013 129.558,61.172 129.333,61.103 129.333 C 61.033 129.333,61.107 129.202,61.268 129.042 C 61.428 128.881,61.577 128.787,61.598 128.833 C 61.619 128.879,61.809 128.692,62.021 128.417 C 62.232 128.142,62.501 127.857,62.619 127.783 C 62.737 127.710,62.833 127.552,62.833 127.431 C 62.833 127.311,63.004 127.033,63.212 126.814 C 63.420 126.596,63.695 126.210,63.823 125.958 C 63.951 125.706,64.119 125.500,64.195 125.500 C 64.271 125.500,64.333 125.388,64.333 125.250 C 64.333 125.112,64.403 125.000,64.489 125.000 C 64.574 125.000,64.696 124.837,64.759 124.638 C 64.822 124.439,65.017 124.122,65.191 123.935 C 65.366 123.748,65.470 123.495,65.423 123.372 C 65.370 123.234,65.411 123.195,65.530 123.269 C 65.655 123.346,65.689 123.299,65.627 123.137 C 65.574 122.998,65.708 122.592,65.926 122.234 C 66.662 121.024,67.216 119.714,67.082 119.498 C 67.026 119.408,67.068 119.333,67.175 119.333 C 67.282 119.333,67.326 119.221,67.273 119.083 C 67.220 118.946,67.258 118.833,67.356 118.833 C 67.455 118.833,67.492 118.721,67.440 118.583 C 67.387 118.446,67.416 118.333,67.505 118.333 C 67.594 118.333,67.667 118.165,67.668 117.958 C 67.669 117.752,67.787 117.208,67.930 116.750 C 68.073 116.292,68.222 115.692,68.261 115.417 C 68.300 115.142,68.432 114.298,68.554 113.541 C 68.676 112.784,68.739 112.128,68.694 112.083 C 68.507 111.896,68.000 112.018,68.000 112.250 M61.189 115.819 C 61.177 115.949,61.125 116.014,61.075 115.963 C 61.024 115.913,60.630 115.981,60.200 116.114 C 59.230 116.415,58.719 116.524,58.111 116.562 C 57.586 116.594,57.396 116.840,57.248 117.678 C 57.193 117.989,57.050 118.358,56.929 118.497 C 56.809 118.636,56.748 118.854,56.793 118.982 C 56.844 119.123,56.803 119.168,56.688 119.097 C 56.572 119.025,56.500 119.108,56.500 119.312 C 56.500 119.494,56.387 119.755,56.250 119.893 C 56.112 120.030,56.000 120.247,56.000 120.373 C 56.000 120.500,55.853 120.762,55.673 120.954 C 55.494 121.147,55.299 121.496,55.240 121.729 C 55.182 121.962,55.030 122.240,54.902 122.345 C 54.775 122.451,54.709 122.601,54.757 122.677 C 54.804 122.754,54.691 122.898,54.505 122.998 C 54.319 123.097,54.167 123.265,54.167 123.370 C 54.167 123.476,53.829 123.992,53.417 124.517 C 53.004 125.042,52.667 125.558,52.667 125.662 C 52.667 125.767,52.592 125.807,52.500 125.750 C 52.408 125.693,52.333 125.769,52.333 125.918 C 52.333 126.152,52.400 126.142,52.817 125.845 C 53.084 125.655,53.376 125.500,53.466 125.500 C 53.557 125.500,53.674 125.387,53.727 125.250 C 53.780 125.112,54.085 124.875,54.404 124.722 C 54.724 124.570,54.947 124.382,54.900 124.306 C 54.852 124.229,54.875 124.167,54.950 124.167 C 55.212 124.167,57.333 122.014,57.333 121.749 C 57.333 121.601,57.408 121.527,57.500 121.583 C 57.592 121.640,57.667 121.616,57.667 121.531 C 57.667 121.445,57.996 121.031,58.398 120.612 C 58.801 120.192,59.293 119.512,59.492 119.101 C 59.691 118.690,60.067 118.143,60.329 117.885 C 60.590 117.627,60.829 117.267,60.860 117.083 C 60.891 116.900,61.018 116.671,61.141 116.574 C 61.266 116.476,61.331 116.218,61.289 115.991 C 61.246 115.767,61.202 115.690,61.189 115.819 M52.922 117.133 C 52.342 117.207,51.230 118.037,51.080 118.509 C 51.023 118.690,50.906 118.795,50.821 118.743 C 50.736 118.690,50.667 118.731,50.667 118.833 C 50.667 118.936,50.595 118.976,50.508 118.922 C 50.421 118.868,50.271 118.971,50.175 119.151 C 50.079 119.330,49.849 119.525,49.664 119.584 C 49.480 119.643,49.366 119.752,49.412 119.826 C 49.459 119.901,49.340 120.003,49.148 120.053 C 48.813 120.141,48.844 120.500,49.186 120.500 C 49.278 120.500,49.307 120.426,49.251 120.335 C 49.193 120.241,49.260 120.213,49.408 120.270 C 49.550 120.324,49.667 120.293,49.667 120.200 C 49.667 120.107,49.805 120.068,49.975 120.112 C 50.145 120.156,50.402 120.074,50.547 119.930 C 50.691 119.785,50.854 119.667,50.908 119.667 C 50.962 119.667,51.491 119.372,52.083 119.012 C 52.676 118.652,53.306 118.312,53.483 118.255 C 53.950 118.107,54.667 117.510,54.667 117.269 C 54.667 117.062,53.931 117.005,52.922 117.133 " stroke="none" fill="#04bcc3" fill-rule="evenodd"></path><path id="path1" d="M330.566 63.083 C 330.566 64.367,330.592 64.870,330.624 64.201 C 330.656 63.532,330.655 62.482,330.623 61.868 C 330.591 61.253,330.565 61.800,330.566 63.083 M38.209 67.417 C 38.211 67.783,38.245 67.914,38.285 67.706 C 38.324 67.499,38.323 67.199,38.281 67.040 C 38.239 66.880,38.207 67.050,38.209 67.417 M319.575 75.583 C 319.575 78.792,319.597 80.081,319.625 78.448 C 319.652 76.815,319.652 74.190,319.625 72.614 C 319.597 71.039,319.575 72.375,319.575 75.583 M311.075 75.917 C 311.075 79.033,311.097 80.285,311.125 78.698 C 311.152 77.111,311.152 74.561,311.125 73.031 C 311.097 71.501,311.075 72.800,311.075 75.917 M126.205 71.000 C 126.205 71.321,126.240 71.452,126.282 71.292 C 126.323 71.131,126.323 70.869,126.282 70.708 C 126.240 70.548,126.205 70.679,126.205 71.000 " stroke="none" fill="#6ef3f4" fill-rule="evenodd"></path><path id="path2" d="M354.913 68.000 C 354.913 75.379,354.933 78.398,354.958 74.708 C 354.983 71.019,354.983 64.981,354.958 61.292 C 354.933 57.602,354.913 60.621,354.913 68.000 " stroke="none" fill="#0eeaea" fill-rule="evenodd"></path><path id="path3" d="M273.745 70.417 C 273.745 76.467,273.766 78.917,273.792 75.863 C 273.817 72.808,273.817 67.858,273.792 64.863 C 273.766 61.867,273.745 64.367,273.745 70.417 M349.905 69.667 C 349.905 71.821,349.929 72.702,349.958 71.625 C 349.987 70.548,349.987 68.785,349.958 67.708 C 349.929 66.631,349.905 67.512,349.905 69.667 M91.705 67.167 C 91.705 67.487,91.740 67.619,91.782 67.458 C 91.823 67.298,91.823 67.035,91.782 66.875 C 91.740 66.715,91.705 66.846,91.705 67.167 M213.464 66.790 C 213.948 66.824,214.698 66.823,215.131 66.789 C 215.563 66.755,215.167 66.727,214.250 66.728 C 213.333 66.728,212.980 66.756,213.464 66.790 M149.215 81.457 C 149.838 81.489,150.813 81.489,151.382 81.457 C 151.951 81.424,151.442 81.398,150.250 81.398 C 149.058 81.398,148.593 81.425,149.215 81.457 M162.955 81.454 C 163.250 81.490,163.775 81.491,164.121 81.455 C 164.467 81.419,164.225 81.389,163.583 81.388 C 162.942 81.387,162.659 81.417,162.955 81.454 M170.549 81.457 C 171.171 81.489,172.146 81.489,172.715 81.457 C 173.284 81.424,172.775 81.398,171.583 81.398 C 170.392 81.398,169.926 81.425,170.549 81.457 M62.539 113.167 C 62.539 113.487,62.573 113.619,62.615 113.458 C 62.657 113.298,62.657 113.035,62.615 112.875 C 62.573 112.715,62.539 112.846,62.539 113.167 " stroke="none" fill="#04e5d4" fill-rule="evenodd"></path><path id="path4" d="M281.458 54.277 C 281.607 54.337,281.667 54.879,281.667 56.170 L 281.667 57.979 281.125 58.046 C 280.592 58.112,280.593 58.114,281.208 58.140 L 281.833 58.167 281.833 56.167 C 281.833 54.368,281.804 54.168,281.542 54.180 C 281.367 54.188,281.334 54.227,281.458 54.277 M169.393 56.333 C 169.393 57.204,169.422 57.560,169.456 57.125 C 169.490 56.690,169.490 55.977,169.456 55.542 C 169.422 55.106,169.393 55.462,169.393 56.333 M68.539 56.000 C 68.539 56.321,68.573 56.452,68.615 56.292 C 68.657 56.131,68.657 55.869,68.615 55.708 C 68.573 55.548,68.539 55.679,68.539 56.000 M170.542 58.124 C 171.160 58.156,172.173 58.156,172.792 58.124 C 173.410 58.092,172.904 58.065,171.667 58.065 C 170.429 58.065,169.923 58.092,170.542 58.124 M169.412 71.083 C 169.412 76.767,169.433 79.116,169.458 76.304 C 169.484 73.492,169.484 68.842,169.458 65.970 C 169.433 63.099,169.412 65.400,169.412 71.083 M311.125 61.527 C 310.873 61.619,310.667 61.765,310.667 61.852 C 310.667 61.938,310.892 61.892,311.167 61.750 C 311.553 61.550,311.874 61.268,311.625 61.346 C 311.602 61.354,311.377 61.435,311.125 61.527 M281.709 62.417 C 281.711 62.783,281.745 62.914,281.785 62.706 C 281.824 62.499,281.823 62.199,281.781 62.040 C 281.739 61.880,281.707 62.050,281.709 62.417 M119.875 63.123 C 120.310 63.157,121.023 63.157,121.458 63.123 C 121.894 63.088,121.537 63.060,120.667 63.060 C 119.796 63.060,119.440 63.088,119.875 63.123 M278.794 65.285 C 279.001 65.324,279.301 65.323,279.460 65.281 C 279.620 65.239,279.450 65.207,279.083 65.209 C 278.717 65.211,278.586 65.245,278.794 65.285 M336.083 65.333 L 333.750 65.431 336.032 65.466 C 337.412 65.486,338.354 65.434,338.417 65.333 C 338.473 65.242,338.496 65.182,338.468 65.201 C 338.440 65.220,337.367 65.280,336.083 65.333 M315.875 65.453 C 316.127 65.491,316.540 65.491,316.792 65.453 C 317.044 65.415,316.837 65.383,316.333 65.383 C 315.829 65.383,315.623 65.415,315.875 65.453 M329.208 65.453 C 329.460 65.491,329.873 65.491,330.125 65.453 C 330.377 65.415,330.171 65.383,329.667 65.383 C 329.162 65.383,328.956 65.415,329.208 65.453 M26.709 67.083 C 26.711 67.450,26.745 67.580,26.785 67.373 C 26.824 67.166,26.823 66.866,26.781 66.706 C 26.739 66.547,26.707 66.717,26.709 67.083 M104.042 67.750 C 104.044 68.117,104.078 68.247,104.118 68.040 C 104.158 67.832,104.156 67.532,104.115 67.373 C 104.073 67.214,104.040 67.383,104.042 67.750 M115.219 67.291 C 116.668 67.319,118.993 67.319,120.385 67.291 C 121.778 67.263,120.592 67.241,117.750 67.241 C 114.908 67.241,113.769 67.264,115.219 67.291 M99.205 68.500 C 99.205 68.821,99.240 68.952,99.282 68.792 C 99.323 68.631,99.323 68.369,99.282 68.208 C 99.240 68.048,99.205 68.179,99.205 68.500 M164.796 75.167 C 164.771 78.650,164.806 81.500,164.875 81.500 C 164.944 81.500,165.000 78.650,165.000 75.167 C 165.000 71.683,164.964 68.833,164.921 68.833 C 164.877 68.833,164.821 71.683,164.796 75.167 M324.242 75.833 C 324.242 78.996,324.264 80.290,324.291 78.708 C 324.319 77.127,324.319 74.540,324.291 72.958 C 324.264 71.377,324.242 72.671,324.242 75.833 M345.465 71.542 C 345.545 73.009,345.620 73.147,345.644 71.875 C 345.656 71.210,345.610 70.667,345.542 70.667 C 345.473 70.667,345.438 71.060,345.465 71.542 M364.868 75.123 C 365.482 75.155,366.532 75.156,367.201 75.124 C 367.870 75.092,367.367 75.066,366.083 75.066 C 364.800 75.065,364.253 75.091,364.868 75.123 M332.938 75.688 C 332.799 76.382,332.933 76.517,333.083 75.833 C 333.147 75.545,333.164 75.275,333.121 75.232 C 333.079 75.190,332.996 75.395,332.938 75.688 M292.875 77.948 C 293.035 77.990,293.298 77.990,293.458 77.948 C 293.619 77.906,293.487 77.872,293.167 77.872 C 292.846 77.872,292.715 77.906,292.875 77.948 M103.000 78.552 C 103.000 78.581,103.244 78.825,103.542 79.094 L 104.083 79.583 103.594 79.042 C 103.138 78.537,103.000 78.423,103.000 78.552 M87.250 84.000 C 87.108 84.275,87.029 84.500,87.075 84.500 C 87.121 84.500,87.274 84.275,87.417 84.000 C 87.559 83.725,87.638 83.500,87.592 83.500 C 87.546 83.500,87.392 83.725,87.250 84.000 M72.417 85.765 L 71.917 86.194 72.458 85.836 C 72.756 85.639,73.000 85.445,73.000 85.405 C 73.000 85.281,72.929 85.324,72.417 85.765 M65.676 97.917 C 65.678 98.137,66.143 98.746,66.237 98.652 C 66.277 98.611,66.167 98.392,65.992 98.164 C 65.817 97.936,65.675 97.825,65.676 97.917 M58.000 103.658 C 58.000 103.859,58.112 104.136,58.249 104.273 C 58.470 104.494,58.494 104.472,58.462 104.084 C 58.415 103.513,58.000 103.131,58.000 103.658 M59.714 104.917 C 59.716 105.375,59.748 105.543,59.786 105.289 C 59.825 105.036,59.824 104.661,59.784 104.456 C 59.744 104.251,59.713 104.458,59.714 104.917 M63.833 112.212 C 63.833 112.543,63.913 112.863,64.011 112.923 C 64.131 112.998,64.151 112.828,64.072 112.391 C 63.918 111.540,63.833 111.477,63.833 112.212 M65.917 122.167 C 65.774 122.442,65.696 122.667,65.741 122.667 C 65.787 122.667,65.941 122.442,66.083 122.167 C 66.226 121.892,66.304 121.667,66.259 121.667 C 66.213 121.667,66.059 121.892,65.917 122.167 M62.200 122.450 C 61.953 123.254,62.073 123.373,62.333 122.583 C 62.443 122.250,62.501 121.945,62.461 121.906 C 62.422 121.866,62.304 122.111,62.200 122.450 " stroke="none" fill="#04d7c9" fill-rule="evenodd"></path></g></svg> 