<?xml version="1.0" encoding="UTF-8"?> <svg xmlns="http://www.w3.org/2000/svg" width="234" height="26" viewBox="0 0 234 26" fill="none"> <path fill-rule="evenodd" clip-rule="evenodd" d="M114.089 16.7052C115.644 16.0601 116.88 15.1266 117.799 13.9048C118.717 12.683 119.176 11.139 119.176 9.27274V9.20343C119.176 6.8299 118.446 4.95112 116.986 3.56859C116.162 2.73907 115.09 2.09389 113.771 1.63304C112.453 1.1722 110.839 0.941406 108.931 0.941406H100.409V0.942881H99.2638C98.1387 0.942881 97.6542 1.27838 97.2383 2.00098V25.1398H104.092V17.8113H107.024H107.094L112.075 25.1398H119.989L114.089 16.7052ZM112.288 9.68787C112.288 10.5638 111.97 11.2606 111.334 11.7797C110.698 12.2981 109.791 12.5576 108.613 12.5576H104.092V6.75026H108.578C109.732 6.75026 110.639 6.98621 111.298 7.45886C111.958 7.9315 112.288 8.65115 112.288 9.6193V9.68787Z" fill="#232323"></path> <path d="M57.6368 25.0648L47.7656 0.922393H55.7718L60.9575 15.1562L65.7726 1.93846L65.8178 1.94731C65.9971 1.66269 66.2081 1.42379 66.4876 1.25051C66.826 1.03963 67.2419 0.939352 67.7664 0.92313H67.7717H70.3472V0.917969H95.7477V7.07854H71.4963L64.1419 25.0648H57.6368Z" fill="#232323"></path> <path d="M74.6973 25.0877V19.3378V19.0524H95.4576V25.0884H74.6973V25.0877ZM74.7809 16.4422V10.6916V10.4062H89.3714V16.4422H74.7809Z" fill="#232323"></path> <path d="M226.747 25.1305V12.2659L221.04 20.8141H220.578L214.905 12.3316V25.1305H207.756V1.2278V0.933594H215.29L220.878 9.80762L226.466 0.933594H234V25.1305H226.747Z" fill="#232323"></path> <path d="M145.969 25.2104V18.5314V18.2461H153.188V25.2104H145.969Z" fill="#232323"></path> <path d="M20.157 15.1755V0.972656H14.0241H14.0165C13.5079 0.99109 13.1266 1.10096 12.8169 1.31258C12.5487 1.49618 12.346 1.72918 12.1109 2.00864L12.1048 2.0079L0.357422 15.6592L1.45757 20.5324H13.0249L13.1108 25.1718H20.1577V20.6164H23.2103V15.1755H20.157ZM13.11 15.2087H8.31764L13.11 9.57607V15.2087Z" fill="#232323"></path> <path d="M167.599 25.0619V25.3472C168.915 25.3472 170.106 25.2138 171.174 24.9447C172.234 24.677 173.196 24.3076 174.058 23.8357C174.917 23.3645 175.687 22.8026 176.365 22.1501C177.036 21.5056 177.654 20.8052 178.222 20.0501L178.397 19.8164L173.041 16.0832L172.869 16.2904C172.193 17.1014 171.466 17.7525 170.69 18.248C169.944 18.7244 168.989 18.9721 167.8 18.9721C167.012 18.9721 166.304 18.8217 165.664 18.5245C165.017 18.2237 164.465 17.8167 163.999 17.2991C163.534 16.7814 163.167 16.1643 162.899 15.4395C162.632 14.7176 162.497 13.9493 162.497 13.1271V13.0615C162.497 12.2622 162.631 11.5101 162.898 10.7993C163.166 10.0855 163.533 9.47354 163.999 8.95518C164.465 8.43756 165.017 8.03054 165.664 7.7297C166.304 7.43255 167.012 7.28213 167.8 7.28213C168.898 7.28287 169.812 7.51292 170.564 7.96123C171.334 8.42208 172.046 9.05325 172.698 9.86139L172.878 10.0833L178.219 6.03748L178.058 5.81406C177.006 4.35853 175.652 3.17582 174.009 2.27109C172.346 1.35603 170.295 0.90625 167.868 0.90625C166.069 0.90625 164.388 1.21889 162.832 1.84564C161.28 2.47091 159.938 3.34025 158.815 4.44996C157.695 5.55746 156.813 6.85225 156.174 8.32622C155.532 9.80609 155.213 11.4091 155.213 13.1264V13.192C155.213 14.9314 155.538 16.5514 156.192 18.0423C156.842 19.5266 157.723 20.8155 158.834 21.9023C159.944 22.9899 161.258 23.8372 162.766 24.4403C164.276 25.0449 165.891 25.3472 167.602 25.3465V25.0619" fill="#232323"></path> <path d="M138.674 15.107V0.921875H132.549H132.541C132.034 0.940309 131.653 1.05017 131.343 1.26106C131.075 1.44392 130.872 1.67692 130.638 1.95638L130.632 1.95564L118.9 15.59L119.999 20.4573H131.552L131.637 25.0908H138.675V20.5406H141.725V15.1063H138.674V15.107ZM131.636 15.1402H126.849L131.636 9.51423V15.1402Z" fill="#232323"></path> <path d="M192.792 0.867188C185.556 0.867188 179.707 6.40839 179.707 13.1316C179.707 19.8547 185.554 25.3856 192.79 25.3856C200.027 25.3856 205.726 19.854 205.726 13.1308C205.726 6.40765 200.029 0.867188 192.792 0.867188ZM192.749 18.9404C189.616 18.9404 187.084 16.3177 187.084 13.1293C187.084 9.94104 189.617 7.31312 192.75 7.31312C195.883 7.31312 198.35 9.9403 198.35 13.1293C198.35 16.3169 195.882 18.9404 192.749 18.9404Z" fill="#232323"></path> <path d="M38.1208 0.570312C30.8848 0.570312 25.0352 6.11151 25.0352 12.8347C25.0352 19.5579 30.8825 25.0887 38.1193 25.0887C45.3561 25.0887 51.055 19.5571 51.055 12.8339C51.055 6.11077 45.3577 0.570312 38.1208 0.570312ZM38.0779 18.6435C34.9447 18.6435 32.4129 16.0208 32.4129 12.8325C32.4129 9.64416 34.9455 7.01624 38.0786 7.01624C41.2118 7.01624 43.6788 9.64342 43.6788 12.8325C43.6788 16.0208 41.211 18.6435 38.0779 18.6435Z" fill="#232323"></path> </svg> 