<?xml version="1.0" encoding="UTF-8"?> <svg xmlns="http://www.w3.org/2000/svg" id="Layer_1" data-name="Layer 1" viewBox="0 0 95.83 95.83"> <defs> <style>.cls-1{fill:#1f5875;stroke:#fff;stroke-miterlimit:10;stroke-width:4px;}.cls-2{fill:#fff;}</style> </defs> <title>DIAG COLOR</title> <circle class="cls-1" cx="47.92" cy="47.92" r="45.92"></circle> <path class="cls-2" d="M39.85,37.09c2.8,1.06,4.7-.45,6.81-2.18a38.4,38.4,0,0,1,20.39-8.5c.54-.06,1.09,0,1.62-.09,1.35-.11,1.88.49,1.82,1.83a34.81,34.81,0,0,1-7.88,21,12.1,12.1,0,0,0-3.15,9c.32,6.3-3.38,10.55-8.3,13.88-.94.64-1.6.3-2-1-1-3.19-1.88-6.41-2.92-9.58A6.74,6.74,0,0,0,44.78,59c-2.06-2.19-4.28-4.22-6.33-6.41a8.09,8.09,0,0,0-4-2.35c-2.89-.78-5.75-1.68-8.61-2.56-1.67-.51-1.87-1.14-.84-2.54,2.56-3.47,5.44-6.53,9.9-7.43C36.52,37.4,38.15,37.3,39.85,37.09ZM60,30.39a6.86,6.86,0,0,0-1.16.38,108,108,0,0,0-10,5.47,26.05,26.05,0,0,0-9.6,12.23,1.61,1.61,0,0,0,.43,2.05c2,1.94,4.07,3.87,5.93,5.95a2.67,2.67,0,0,0,3.75.72c7.75-3.76,12.64-10,16.19-17.63a5.06,5.06,0,0,0-1.24-6.44,22.57,22.57,0,0,0-3.32-2.39A3.91,3.91,0,0,0,60,30.39Zm-2.9,25.1L48.4,60.43,51,69C56,65.73,57.73,61.13,57.08,55.49ZM41.2,39.78a12.74,12.74,0,0,0-13.38,6l8.55,2.55Zm26.37-7,.46-4-3.91.57Z"></path> <path class="cls-2" d="M34.28,66.14c-1.35.66-2.55,1.33-3.83,1.83a1.69,1.69,0,0,1-1.52-.19,1.69,1.69,0,0,1,0-1.55c.68-1.23,1.52-2.38,2.3-3.57-1.86-1-1.94-1.43-.6-3,1-1.12,1.9-2.26,2.93-3.3a5.3,5.3,0,1,1,7,7.92c-1.19.94-2.43,1.83-3.66,2.73C35.48,68,35,67.87,34.28,66.14Zm-.83-2.33C34.83,63.33,36,62,37,64c.87-.66,1.65-1.18,2.35-1.79a2.93,2.93,0,1,0-3.94-4.33c-.78.74-1.44,1.6-2.16,2.41C34.76,61.39,34.77,61.45,33.45,63.81Z"></path> <path class="cls-2" d="M51.59,39.78a5.31,5.31,0,1,1,5.12,5.43A5.36,5.36,0,0,1,51.59,39.78Zm8.26.14A2.95,2.95,0,1,0,57,42.85,3,3,0,0,0,59.85,39.92Z"></path> </svg> 