<?xml version="1.0" encoding="UTF-8"?> <svg xmlns="http://www.w3.org/2000/svg" id="Capa_1" data-name="Capa 1" viewBox="0 0 45.05 45.05"> <defs> <style>.cls-1{fill:#13456a;}.cls-2{fill:#fff;stroke:#13456a;stroke-miterlimit:10;stroke-width:0.25px;}</style> </defs> <title>Sin_titulo-3-01</title> <circle class="cls-1" cx="22.52" cy="22.52" r="22.52"></circle> <path class="cls-2" d="M14.66,22.53a7.82,7.82,0,1,1,7.84,7.79A7.81,7.81,0,0,1,14.66,22.53Zm5.65,3.75c.48.21,1,.22,1.43.46l.09.55a.65.65,0,0,0,.64.55h0a.64.64,0,0,0,.64-.59l.06-.65.62-.26a2.24,2.24,0,0,0,1.42-1.88,2.21,2.21,0,0,0-1.1-2.23c-.33-.21-.72-.33-1.07-.51a5.93,5.93,0,0,1-1.1-.63A.64.64,0,0,1,22.12,20a2.16,2.16,0,0,1,1-.1,3.89,3.89,0,0,1,.74.15.73.73,0,0,0,.89-.51h0a.72.72,0,0,0-.48-.88l-1-.33-.09-.49a.64.64,0,0,0-.64-.53h0a.64.64,0,0,0-.63.56l-.08.55-.74.35a2.16,2.16,0,0,0-.16,3.78c.42.23.87.41,1.3.62a7,7,0,0,1,.77.4.78.78,0,0,1,.39.82.76.76,0,0,1-.64.64,5.54,5.54,0,0,1-1.41,0,2.7,2.7,0,0,1-.47-.12.75.75,0,0,0-1,.51h0A.74.74,0,0,0,20.31,26.28Z"></path> <path class="cls-2" d="M36.05,21.74l.48-.44a.73.73,0,0,1,1,0h0a.74.74,0,0,1,0,1l-2,2a.77.77,0,0,1-1.08,0l-.89-.88-.81-.8a1,1,0,0,1,0-1.42h0a.73.73,0,0,1,1,0l.53.47a11.82,11.82,0,0,0-4.05-8.15,11.57,11.57,0,0,0-7.76-2.92.81.81,0,0,1-.81-.81v0a.8.8,0,0,1,.75-.8C27.67,8.7,35.3,12.9,36.05,21.74Z"></path> <path class="cls-2" d="M9,23.3l-.49.45a.71.71,0,0,1-1,0h0a.7.7,0,0,1,0-1l1.87-1.87a.75.75,0,0,1,1.08,0l1.82,1.82a.78.78,0,0,1,0,1.12h0a.79.79,0,0,1-1.07,0l-.36-.34c-.37,2.08,1.57,6,3.89,8a11.76,11.76,0,0,0,7.77,2.92.81.81,0,0,1,.81.81v0a.81.81,0,0,1-.78.81A13.58,13.58,0,0,1,9,23.3Z"></path> </svg> 