<?xml version="1.0" encoding="UTF-8"?> <!-- Generator: Adobe Illustrator 24.0.2, SVG Export Plug-In . SVG Version: 6.00 Build 0) --> <svg xmlns="http://www.w3.org/2000/svg" xmlns:xlink="http://www.w3.org/1999/xlink" id="Capa_1" x="0px" y="0px" viewBox="0 0 176 142" style="enable-background:new 0 0 176 142;" xml:space="preserve"> <style type="text/css"> .st0{fill:#00BFBF;} .st1{fill:#25858C;stroke:#25858C;stroke-width:2;stroke-miterlimit:10;} .st2{fill:#25858C;} .st3{fill:#2E5D87;} .st4{fill:#FFFFFF;} .st5{fill:none;stroke:#2E5D87;stroke-width:4.5;stroke-miterlimit:10;} .st6{fill:#2E5D87;stroke:#2E5D87;stroke-width:0.25;stroke-miterlimit:10;} .st7{fill:none;stroke:#25858C;stroke-width:4;stroke-linecap:round;stroke-miterlimit:10;} </style> <g> <path class="st1" d="M137,101.54c0,2.51-1.14,4.94-3.2,6.36c-0.02,0.01-0.03,0.02-0.05,0.03c-2.23,1.51-4.93,1.33-6.32-0.67 c-2.55-3.66-6.4-4.42-10.09-5.72c-9.21-3.24-18.43-6.47-27.92-9.81c-0.66,1.59-1.17,2.96-1.78,4.28 c-2.15,4.65-6.03,6.47-11.01,5.09c-2.23-0.62-4.42-1.41-6.61-2.18c-6.57-2.3-8.58-6.09-6.72-12.65c0.26-0.93,0.55-1.85,0.97-3.25 c-5.13-1.82-10.08-3.58-14.88-5.28c-7.02,4.13-7.82,4.06-12.42-0.81c0.02-6.04,0.03-9.95,0.04-15.99c4.6-4.9,6.04-4.99,12.06-0.53 c8.79-2.64,17.85-5.36,26.92-8.07c14.98-4.48,29.97-8.94,44.94-13.46c1.56-0.47,3.3-0.96,4.47-1.99c4-3.53,5.74-4.59,8.13-3.1 c2.23,1.39,3.48,3.93,3.48,6.56V101.54z M49.07,73.73c25.2,8.83,50.33,17.64,75.83,26.57c0-19.9,0-39,0-58.77 C99.3,49.21,74.11,56.77,49.07,64.28C49.07,67.76,49.07,70.56,49.07,73.73z M133.13,70.94c0-9.33,0-18.65,0-27.98 c0-1.17,0.22-2.41-0.12-3.47c-0.08-0.25-0.2-0.48-0.36-0.7c-0.76-1.1-2.43-1.18-3.26-0.13c-0.16,0.2-0.29,0.41-0.37,0.64 c-0.38,1.04-0.41,62.04-0.05,62.88c0.09,0.22,0.21,0.43,0.35,0.63c0.94,1.39,3.16,1.2,3.68-0.39c0-0.01,0.01-0.02,0.01-0.03 c0.33-1.07,0.12-2.31,0.12-3.47C133.13,89.59,133.13,80.27,133.13,70.94z M68.4,84.41c-3.53,7.11-2.72,9.28,3.67,11.47 c1.25,0.43,2.51,0.82,3.77,1.21c6.19,1.94,8.79-0.02,8.88-6.94C79.41,88.29,74.02,86.39,68.4,84.41z M40.99,68.81 c-0.02,0-0.03,0-0.05,0c0,1.99-0.22,4.02,0.1,5.95c0.13,0.81,1.41,1.43,2.17,2.14c0.61-0.68,1.72-1.34,1.75-2.05 c0.16-3.97,0.16-7.96-0.03-11.93c-0.03-0.65-1.23-1.72-1.9-1.74c-0.67-0.01-1.85,1-1.95,1.68C40.82,64.81,40.99,66.82,40.99,68.81z "></path> </g> </svg> 