<?xml version="1.0" encoding="UTF-8"?> <svg xmlns="http://www.w3.org/2000/svg" xmlns:xlink="http://www.w3.org/1999/xlink" viewBox="0 0 147.24 147.24"> <defs> <style>.cls-1{fill:none;}.cls-2{isolation:isolate;}.cls-3{opacity:0.22;}.cls-4{clip-path:url(#clip-path);}.cls-5{mix-blend-mode:multiply;}.cls-6{fill:#2fb5b8;}.cls-7{fill:#fff;stroke:#2fb5b8;stroke-miterlimit:10;}</style> <clipPath id="clip-path"> <rect class="cls-1" x="-207.25" y="187.27" width="1680" height="900"></rect> </clipPath> </defs> <title>grafica help center</title> <g class="cls-2"> <g id="Capa_1" data-name="Capa 1"> <circle class="cls-6" cx="73.62" cy="73.62" r="73.62"></circle> <path class="cls-7" d="M68.69,101.6c1.12,4.44,0,8.07-3.78,10.54a8.36,8.36,0,0,1-9.79-.09c-3.67-2.48-4.74-6.06-3.6-10.54H47.79a8.72,8.72,0,0,1-7.81-5,8.92,8.92,0,0,1,3.88-12A1.23,1.23,0,0,0,44.6,83q-1.8-14.14-3.55-28.28c-.56-4.41-1.11-8.81-1.69-13.4H36.43c-2.08,0-3.47-1.26-3.45-3.08s1.4-3,3.41-3h5.32A3.07,3.07,0,0,1,45.07,38c0,.07,0,.13,0,.2.35,2.62.7,5.23.94,7.86.1,1,.46,1.28,1.46,1.27h60c3,0,4.1,1.36,3.62,4.28l-5.76,34.69c-.38,2.35-1.35,3.17-3.73,3.17H49.08a8.23,8.23,0,0,0-1.57.1,2.88,2.88,0,0,0-2.41,3.09,2.92,2.92,0,0,0,2.63,2.79,10.29,10.29,0,0,0,1.36,0h58.63c2,0,3.24.89,3.51,2.49a3,3,0,0,1-2.45,3.47,3.88,3.88,0,0,1-.48,0h-3.51c1,3.7.34,6.91-2.36,9.55a8.74,8.74,0,0,1-6.59,2.5c-4.57-.12-10.1-4.41-8.28-12ZM47.06,53.48a2.67,2.67,0,0,0,0,.4c.68,5.46,1.38,10.92,2,16.39.11,1,.52,1.18,1.43,1.18h29a10.29,10.29,0,0,1,1.36,0,2.83,2.83,0,0,1,2.39,1.87,3,3,0,0,1-1.63,3.91,3.07,3.07,0,0,1-1.37.22H50c.2,1.63.49,3.12.54,4.61,0,1.21.53,1.45,1.64,1.44H97.56a12,12,0,0,0,1.47,0c.24,0,.63-.24.66-.41.35-1.83.65-3.67,1-5.61H95.08a2.94,2.94,0,0,1-2.8-1.93A3,3,0,0,1,94,71.67a3,3,0,0,1,1.14-.2h6.56c1-6.07,2-12,3-18Zm49.09,54.06a3,3,0,1,0-3-3A3.09,3.09,0,0,0,96.15,107.54Zm-33.09-3a3,3,0,1,0-3,3,3,3,0,0,0,3-3v0Z"></path> </g> </g> </svg> 