<?xml version="1.0" encoding="UTF-8"?> <svg xmlns="http://www.w3.org/2000/svg" id="Capa_1" data-name="Capa 1" viewBox="0 0 45.05 45.05"> <defs> <style>.cls-1{fill:#13456a;}.cls-2{fill:none;stroke:#fff;stroke-miterlimit:10;}</style> </defs> <title>Sin tiÌtulo-3</title> <circle class="cls-1" cx="22.52" cy="22.52" r="22.52"></circle> <g id="wwDuh4.tif"> <path class="cls-2" d="M22.55,34.88c-1.89,0-3.78.11-5.66,0-2.23-.16-3.18-1.17-3-3.4a16.63,16.63,0,0,1,1-4.85A2.72,2.72,0,0,1,19,25.16a6.67,6.67,0,0,0,7.21,0,2.7,2.7,0,0,1,4,1.06,6.63,6.63,0,0,1,.89,2c1.17,5.67.27,6.74-5.51,6.75h-3Z"></path> <path class="cls-2" d="M22.73,23.82a4.57,4.57,0,0,1-4.79-4.57,4.5,4.5,0,0,1,4.64-4.68A4.32,4.32,0,0,1,27.21,19,4.42,4.42,0,0,1,22.73,23.82Z"></path> <path class="cls-2" d="M15.36,18.88l1,3.66A29.21,29.21,0,0,1,11,23.7c-1.54.06-2.09-1.65-1.53-3.86.36-1.42.87-2.35,2.66-1.52A12.15,12.15,0,0,0,15.36,18.88Z"></path> <path class="cls-2" d="M29.08,22.23a16.4,16.4,0,0,1,.44-2.52c.13-.39.76-1,.94-.95,1.7.64,3.69-2,4.92.1a4.82,4.82,0,0,1-.21,4.28c-.89,1.3-2.72,1-4.17.12C30.39,22.88,29.73,22.58,29.08,22.23Z"></path> <path class="cls-2" d="M34.08,13.77a3,3,0,1,1-3-3.11A3.07,3.07,0,0,1,34.08,13.77Z"></path> <path class="cls-2" d="M11.21,13.7a3.06,3.06,0,0,1,3.06-3,3.22,3.22,0,0,1,2.92,3.06,3.12,3.12,0,0,1-3.05,3.12A2.92,2.92,0,0,1,11.21,13.7Z"></path> </g> </svg> 