<?xml version="1.0" encoding="UTF-8"?> <svg xmlns="http://www.w3.org/2000/svg" id="Layer_1" data-name="Layer 1" viewBox="0 0 95.83 95.83"> <defs> <style>.cls-1{fill:#25858c;stroke:#fff;stroke-miterlimit:10;stroke-width:4px;}.cls-2{fill:#fff;}</style> </defs> <title>DIAG COLOR</title> <circle class="cls-1" cx="47.92" cy="47.92" r="45.92"></circle> <path class="cls-2" d="M71.06,43.33v0a1.16,1.16,0,0,1-1.15,1.17c-3.21,0-6.43.07-9.64,0a4.85,4.85,0,0,0-3.67,1.54c-1.66,1.79-3.45,3.46-5.42,5.4L38.63,38.92a44.92,44.92,0,0,0-3.47,3.37,5.58,5.58,0,0,1-5.5,2.26,4.38,4.38,0,0,0-1,.07c-.09,6.26,5.09,12.41,11.5,13.89a15.35,15.35,0,0,0,12.09-2.07,15.71,15.71,0,0,0,6.7-9.07A1.13,1.13,0,0,1,60,46.54h.15a1.12,1.12,0,0,1,1.12,1.31c-.49,2.63-2.06,4.75-3.42,7.19l12,12.06a2.25,2.25,0,0,1,0,3.14h0a2.26,2.26,0,0,1-3.24.06L54.28,58.18a18.33,18.33,0,0,1-13.87,2.94,17.67,17.67,0,0,1-9.93-5.56,18.1,18.1,0,0,1,17-29.94c5.79,1.12,12.23,6.05,13.68,13.23a1.15,1.15,0,0,1-1.05,1.37h0a1.15,1.15,0,0,1-1.14-.8c-1.45-4.42-4-8-8.27-10a15.68,15.68,0,0,0-10.49-1.22A15.2,15.2,0,0,0,28.55,42c2,.68,3.49,0,4.86-1.54,1.56-1.75,3.32-3.32,5.17-5.15L51.16,47.78a19.51,19.51,0,0,0,2.38-2.29c2.08-2.82,4.77-3.69,8.22-3.39a73.3,73.3,0,0,0,8.12.07A1.17,1.17,0,0,1,71.06,43.33Z"></path> </svg> 