<?xml version="1.0" encoding="UTF-8"?> <!-- Generator: Adobe Illustrator 24.0.2, SVG Export Plug-In . SVG Version: 6.00 Build 0) --> <svg xmlns="http://www.w3.org/2000/svg" xmlns:xlink="http://www.w3.org/1999/xlink" id="Capa_1" x="0px" y="0px" viewBox="0 0 45 45" style="enable-background:new 0 0 45 45;" xml:space="preserve"> <style type="text/css"> .st0{fill:#13456A;} .st1{fill:none;stroke:#FFFFFF;stroke-miterlimit:10;} .st2{fill:#FFFFFF;stroke:#FFFFFF;stroke-linecap:round;stroke-linejoin:round;stroke-miterlimit:10;} .st3{fill:none;stroke:#FFFFFF;stroke-linecap:round;stroke-linejoin:round;stroke-miterlimit:10;} </style> <title>Sin tiÌtulo-3</title> <circle class="st0" cx="22.5" cy="22.5" r="22.5"></circle> <g> <g id="wwDuh4.tif"> <path class="st1" d="M22,30.7c-2,0-4,0.1-5.9,0c-2.3-0.2-3.3-1.2-3.1-3.6c0.1-1.7,0.4-3.5,1-5.1c0.5-1.5,2.1-2.4,3.6-1.9 c0.3,0.1,0.5,0.2,0.7,0.4c2.3,1.5,5.3,1.5,7.6,0c1.3-0.9,3-0.6,3.9,0.7c0.1,0.1,0.2,0.3,0.2,0.4c0.4,0.6,0.7,1.4,0.9,2.1 c1.2,5.9,0.3,7.1-5.8,7.1L22,30.7L22,30.7z"></path> <path class="st1" d="M22.2,19.1c-2.6,0.1-4.9-1.9-5-4.6c0-0.1,0-0.2,0-0.2c-0.1-2.6,1.9-4.8,4.5-4.9c0.1,0,0.2,0,0.3,0 c2.5-0.2,4.7,1.7,4.8,4.2c0,0.2,0,0.3,0,0.5c0.2,2.5-1.6,4.8-4.2,5C22.6,19.1,22.4,19.1,22.2,19.1z"></path> </g> <circle class="st0" cx="29.8" cy="31.1" r="7.8"></circle> <g> <line class="st2" x1="26.9" y1="31.1" x2="32.6" y2="31.1"></line> <line class="st2" x1="29.8" y1="34" x2="29.8" y2="28.3"></line> <circle class="st3" cx="29.8" cy="31.1" r="5.2"></circle> </g> </g> </svg> 