<?xml version="1.0" encoding="UTF-8"?> <svg xmlns="http://www.w3.org/2000/svg" id="Layer_1" data-name="Layer 1" viewBox="0 0 95.83 95.83"> <defs> <style>.cls-1{fill:#00bfbf;stroke:#fff;stroke-miterlimit:10;stroke-width:4px;}.cls-2{fill:#fff;}</style> </defs> <title>DIAG COLOR</title> <circle class="cls-1" cx="47.92" cy="47.92" r="45.92"></circle> <path class="cls-2" d="M60.91,49.35c.12-1.62,1-3.17-1.25-4.05-.58.53-1.31,1.13-2,1.79Q47.48,57.28,37.27,67.49c-.43.44-.85.9-1.32,1.3a3.46,3.46,0,0,1-4.79,0A41.25,41.25,0,0,1,27.43,65c-1.45-1.65-1.4-3,0-4.73.51-.61,1.11-1.15,1.67-1.71Q39,48.67,49,38.75c2.37-2.38,2.44-3.1.42-5.89a30.91,30.91,0,0,0-9.08-8c-.79-.48-1.5-1.08-2.16-1.56.24-1.36.86-1.8,1.9-1.75A71.89,71.89,0,0,1,52.63,23a12.11,12.11,0,0,1,5.94,3.28l6.18,6.18c1.55,1.54,2.94,3.13,2,5.29a2.77,2.77,0,0,0,2.79,1.63c2.28.06,6.06,3.14,6.63,5.32a3.16,3.16,0,0,1-.69,3.22c-1.93,1.94-3.81,3.93-5.83,5.78-1.7,1.55-2.92,1.47-4.61-.13C63.62,52.13,62.23,50.67,60.91,49.35Zm12.64-3.83c-1.92-2.82-2.5-3.26-4.46-3.43-3.7-.3-5.41-2.48-4.8-6.46-2.38-2.34-4.94-4.77-7.41-7.29-3.19-3.25-7.36-3.12-11.44-3.53a8.26,8.26,0,0,0,1.82,1.9,22.3,22.3,0,0,1,5.59,6.64,4.92,4.92,0,0,1-.12,5.28c-.28.44-.52.89-.82,1.4.61.66,1.13,1.25,1.68,1.81.86.87,1.74,1.72,2.65,2.62l3-2.46c3.85,1.3,5,3.38,4.63,6.94L67,51.81ZM33.37,66.81,54.06,46.12,49.86,42c-3.2,2.47-19.65,19.16-20.58,20.81Z"></path> </svg> 