<?xml version="1.0" encoding="UTF-8"?> <!-- Generator: Adobe Illustrator 18.1.1, SVG Export Plug-In . SVG Version: 6.00 Build 0) --> <svg xmlns="http://www.w3.org/2000/svg" xmlns:xlink="http://www.w3.org/1999/xlink" id="Layer_1" x="0px" y="0px" width="399.6px" height="88.8px" viewBox="0 0 399.6 88.8" xml:space="preserve"> <g> <path fill="#414042" d="M66.7,87.7H49.8l-32.9-54v54H0v-82h16.9l33,54.1V5.7h16.8V87.7z"></path> <g> <path fill="#414042" d="M111.8,34l15.4-28.3h19.4l-23.9,40.7l24.5,41.3h-19.7L111.8,59L96,87.7H76.3l24.5-41.3L77,5.7h19.4 L111.8,34z"></path> <path fill="#414042" d="M217.4,19.4h-25.1v68.3h-16.9V19.4h-24.8V5.7h66.8V19.4z"></path> </g> <g opacity="0.69"> <path fill="#39B54A" d="M255.4,71.5c0-2.8-1.1-5-3.2-6.6c-2.1-1.6-5.8-2.9-11.1-4s-9.5-2.5-12.6-4.1s-5.4-3.5-6.9-5.6 c-1.5-2.2-2.2-4.8-2.2-7.8c0-5,2.1-9.2,6.3-12.7c4.2-3.5,9.6-5.2,16.2-5.2c6.9,0,12.5,1.8,16.8,5.4c4.3,3.6,6.5,8.1,6.5,13.7 h-10.5c0-2.9-1.2-5.3-3.6-7.4c-2.4-2.1-5.5-3.1-9.2-3.1c-3.8,0-6.8,0.8-8.9,2.5c-2.1,1.7-3.2,3.8-3.2,6.5c0,2.5,1,4.4,3,5.7 c2,1.3,5.6,2.5,10.8,3.7c5.2,1.2,9.4,2.6,12.6,4.2c3.2,1.6,5.6,3.6,7.2,5.8c1.6,2.3,2.3,5,2.3,8.3c0,5.4-2.2,9.8-6.5,13.1 c-4.4,3.3-10,4.9-17,4.9c-4.9,0-9.2-0.9-13-2.6s-6.7-4.1-8.8-7.2c-2.1-3.1-3.2-6.5-3.2-10.1h10.4c0.2,3.5,1.6,6.3,4.2,8.3 c2.6,2,6.1,3.1,10.3,3.1c3.9,0,7.1-0.8,9.5-2.4C254.2,76.3,255.4,74.2,255.4,71.5z"></path> <path fill="#39B54A" d="M270.9,56.7c0-6,1.2-11.3,3.5-16.1c2.3-4.8,5.6-8.4,9.8-11c4.2-2.6,9-3.9,14.3-3.9c8.3,0,15,2.9,20.1,8.6 s7.7,13.4,7.7,22.9v0.7c0,5.9-1.1,11.3-3.4,16c-2.3,4.7-5.5,8.4-9.7,11c-4.2,2.6-9.1,3.9-14.6,3.9c-8.3,0-15-2.9-20.1-8.6 c-5.1-5.7-7.7-13.4-7.7-22.8V56.7z M281.4,57.9c0,6.8,1.6,12.2,4.7,16.3c3.1,4.1,7.3,6.1,12.6,6.1c5.3,0,9.5-2.1,12.6-6.2 c3.1-4.1,4.7-10,4.7-17.4c0-6.7-1.6-12.1-4.8-16.3c-3.2-4.1-7.4-6.2-12.6-6.2c-5.1,0-9.3,2-12.4,6.1 C283,44.4,281.4,50.3,281.4,57.9z"></path> <path fill="#39B54A" d="M338.8,87.7V34.8h-9.6v-8.1h9.6v-6.3c0-6.5,1.7-11.6,5.2-15.2c3.5-3.6,8.4-5.4,14.8-5.4 c2.4,0,4.8,0.3,7.2,1l-0.6,8.4c-1.8-0.3-3.6-0.5-5.6-0.5c-3.4,0-6,1-7.8,3c-1.8,2-2.8,4.8-2.8,8.5v6.4h13v8.1h-13v52.9H338.8z"></path> <path fill="#39B54A" d="M387.9,12v14.8h11.4v8.1h-11.4v37.8c0,2.4,0.5,4.3,1.5,5.5c1,1.2,2.7,1.8,5.2,1.8c1.2,0,2.9-0.2,5-0.7v8.4 c-2.7,0.7-5.4,1.1-8,1.1c-4.7,0-8.2-1.4-10.5-4.2s-3.5-6.8-3.5-12V34.8h-11.1v-8.1h11.1V12H387.9z"></path> </g> <polygon opacity="0.69" fill="#39B54A" points="66.7,5.8 77,5.8 100.8,46.4 76.3,87.8 66.7,87.8 "></polygon> <rect x="16.9" y="33.8" opacity="0.69" fill="#39B54A" width="49.8" height="26"></rect> <polygon fill="#414042" points="33.3,32.7 50.9,61.4 34.6,62.8 16.2,32.7 "></polygon> </g> </svg> 