<?xml version="1.0" encoding="UTF-8"?> <svg xmlns="http://www.w3.org/2000/svg" id="Capa_1" data-name="Capa 1" viewBox="0 0 140 140"> <defs> <style>.cls-1{fill:#25858c;}.cls-2{fill:none;stroke:#25858c;stroke-linecap:round;stroke-miterlimit:10;stroke-width:4px;}</style> </defs> <title>icons</title> <path class="cls-1" d="M68.23,63.49a14.68,14.68,0,0,1-4.76,10.42c-2.43,2.15-1.59,2.8.67,4.15,6.21,3.72,9.75,9.39,10.91,16.5.19,1.13,1.4,3-1.18,3.32-1.77.2-3,.16-3.39-2.37-1.71-10-9.16-16.43-18.57-16.49C42.3,79,34.74,85.36,33,95.58c-.46,2.68-1.89,2.61-3.43,2.18-.64-.19-1.32-2-1.18-2.88C29.46,87.76,32.9,82,39.09,78.24c2.57-1.56,3.08-2.25.64-4.66a15.86,15.86,0,0,1-1.86-19.94,16.45,16.45,0,0,1,18.55-6.89C63.46,48.84,68.31,55.35,68.23,63.49ZM51.71,50.67A11.84,11.84,0,1,0,63.6,62.27,11.9,11.9,0,0,0,51.71,50.67Z"></path> <path class="cls-1" d="M110.55,84.88a22.6,22.6,0,0,0-10.91-16.5c-2.26-1.35-3.1-2-.67-4.14a14.66,14.66,0,0,0,4.76-10.43c.08-8.13-4.77-14.65-11.81-16.74A16.45,16.45,0,0,0,73.37,44,15.86,15.86,0,0,0,75.24,63.9c2.43,2.41,1.92,3.1-.65,4.66A21.93,21.93,0,0,0,64.53,82.17a19.49,19.49,0,0,1,3.81,4.47,6,6,0,0,0,.18-.73c1.73-10.23,9.28-16.63,18.89-16.57,9.41.06,16.86,6.47,18.57,16.49.44,2.54,1.62,2.57,3.4,2.38C112,87.93,110.74,86,110.55,84.88ZM87.29,64.67A11.84,11.84,0,1,1,99.1,52.59,11.89,11.89,0,0,1,87.29,64.67Z"></path> <path class="cls-2" d="M54,101l1.24,1A31,31,0,0,0,94,101h0"></path> <path class="cls-2" d="M90,98h5.64a1.14,1.14,0,0,1,1.12,1.34L96,105"></path> <path class="cls-2" d="M52,105l-1.17-5.62A1.14,1.14,0,0,1,52,97.86L58,98"></path> </svg> 