<?xml version="1.0" encoding="UTF-8"?> <svg xmlns="http://www.w3.org/2000/svg" id="Capa_1" data-name="Capa 1" viewBox="0 0 56.84 56.84"> <defs> <style>.cls-1{fill:#00bfbf;}.cls-2{fill:none;stroke:#fff;stroke-miterlimit:10;}.cls-3{fill:#fff;}</style> </defs> <title>free t</title> <circle class="cls-1" cx="28.42" cy="28.42" r="28.42"></circle> <path class="cls-2" d="M28.42,28.7,20,32.38a.33.33,0,0,1-.24,0L11.35,28.7a.3.3,0,0,1,0-.55l8.42-3.68a.33.33,0,0,1,.24,0l8.41,3.68A.3.3,0,0,1,28.42,28.7Z"></path> <path class="cls-2" d="M28.77,38.35l-8.88,3.89L11,38.35v-9a.48.48,0,0,1,.68-.44l8.2,3.58L28.08,29a.49.49,0,0,1,.69.44Z"></path> <polygon class="cls-2" points="11.01 28.42 20.01 24.47 28.42 28.15 28.42 38.35 19.89 42.24 11.01 38.35 11.01 28.42"></polygon> <polygon class="cls-3" points="19.89 32.53 19.89 42.24 11.01 38.35 11.35 28.7 19.89 32.53"></polygon> <path class="cls-2" d="M46.19,28.7l-8.42,3.68a.33.33,0,0,1-.24,0L29.12,28.7a.3.3,0,0,1,0-.55l8.41-3.68a.33.33,0,0,1,.24,0l8.42,3.68A.3.3,0,0,1,46.19,28.7Z"></path> <path class="cls-2" d="M46.53,38.35l-8.88,3.89-8.88-3.89v-9a.49.49,0,0,1,.69-.44l8.19,3.58L45.85,29a.48.48,0,0,1,.68.44Z"></path> <polygon class="cls-2" points="28.77 28.42 37.77 24.47 46.19 28.15 46.19 38.35 37.65 42.24 28.77 38.35 28.77 28.42"></polygon> <polygon class="cls-3" points="37.65 32.53 37.65 42.24 28.77 38.35 29.12 28.7 37.65 32.53"></polygon> <path class="cls-2" d="M37.47,14.88l-8.41,3.68a.25.25,0,0,1-.24,0L20.4,14.88a.3.3,0,0,1,0-.55l8.42-3.67a.25.25,0,0,1,.24,0l8.41,3.67A.3.3,0,0,1,37.47,14.88Z"></path> <path class="cls-2" d="M37.82,24.54l-8.88,3.88-8.88-3.88v-9a.49.49,0,0,1,.68-.45l8.2,3.59,8.19-3.59a.49.49,0,0,1,.69.45Z"></path> <polygon class="cls-2" points="20.05 14.61 29.06 10.65 37.47 14.33 37.47 24.54 28.94 28.42 20.05 24.54 20.05 14.61"></polygon> <polygon class="cls-3" points="28.94 18.71 28.94 28.42 20.05 24.54 20.4 14.88 28.94 18.71"></polygon> </svg> 