<?xml version="1.0" encoding="UTF-8"?> <!-- Generator: Adobe Illustrator 24.0.2, SVG Export Plug-In . SVG Version: 6.00 Build 0) --> <svg xmlns="http://www.w3.org/2000/svg" xmlns:xlink="http://www.w3.org/1999/xlink" x="0px" y="0px" viewBox="0 0 792 612" style="enable-background:new 0 0 792 612;" xml:space="preserve"> <style type="text/css"> .st0{display:none;} .st1{display:inline;fill:#E6E6F4;} .st2{display:inline;} .st3{opacity:0.5;fill:url(#SVGID_5_);} .st4{opacity:0.73;fill:#FFFFFF;} .st5{opacity:0.2;fill:url(#SVGID_6_);} .st6{opacity:0.4;fill:url(#SVGID_7_);} .st7{opacity:0.4;fill:url(#SVGID_8_);} .st8{fill:#1F5875;} .st9{fill:#1AE8DD;} .st10{fill:#134A60;} .st11{fill:#1AC1B5;} .st12{fill:#114260;} .st13{fill:#00BFBF;} .st14{fill:#0A3449;} .st15{fill:#049B97;} .st16{fill:#D7E4F6;} .st17{opacity:0.4;fill:url(#SVGID_9_);} .st18{opacity:0.5;fill:url(#SVGID_10_);} .st19{opacity:0.4;fill:url(#SVGID_11_);} .st20{opacity:0.4;fill:url(#SVGID_12_);} .st21{opacity:0.4;fill:url(#SVGID_13_);} .st22{fill:#F1B2B7;} .st23{fill:#F36980;} .st24{opacity:0.8;fill:#114260;} .st25{fill:#FFFFFF;} .st26{fill:#97BDE4;} .st27{fill:#BAD8F0;} .st28{fill:#E1656F;} .st29{fill:#FCB952;} .st30{opacity:0.58;} .st31{opacity:0.7;} .st32{fill:#FFFFFF;stroke:#00BFBF;stroke-width:1.5;stroke-miterlimit:10;} .st33{fill:#8DE2DE;stroke:#FFFFFF;stroke-width:2;stroke-miterlimit:10;} .st34{fill:#F25664;} .st35{fill:#29367C;} .st36{fill:#F05769;} .st37{fill:#FBB782;} .st38{fill:#F99C60;} .st39{fill:#02253A;} .st40{fill:#F69331;} .st41{fill:#4F5BA6;} .st42{fill:#F26A7F;} .st43{fill:url(#SVGID_14_);} .st44{fill:#F9AB46;} .st45{fill:#FEFDFE;} .st46{fill:url(#SVGID_15_);} .st47{fill:url(#SVGID_16_);} .st48{fill:url(#SVGID_17_);} .st49{opacity:0.38;fill:url(#SVGID_18_);} .st50{fill:#FFFFFF;stroke:#1F5875;stroke-miterlimit:10;} .st51{fill:none;stroke:#1F5875;stroke-width:2;stroke-linecap:round;stroke-miterlimit:10;} .st52{opacity:0.26;fill:url(#SVGID_19_);} .st53{fill:#FFFFFF;stroke:#114260;stroke-miterlimit:10;} .st54{fill:none;stroke:#114260;stroke-linecap:round;stroke-miterlimit:10;} .st55{opacity:0.38;fill:url(#SVGID_20_);} .st56{fill:#FFFFFF;stroke:#114260;stroke-linecap:round;stroke-miterlimit:10;} .st57{opacity:0.38;fill:url(#SVGID_21_);} .st58{opacity:0.82;fill:#25AFAB;} .st59{fill:#B5EAE6;stroke:#1F5875;stroke-miterlimit:10;} .st60{opacity:0.38;fill:#02253A;} .st61{opacity:0.42;fill:#DF6671;} .st62{fill:#F3994B;} .st63{opacity:0.57;fill:#EA751F;} .st64{opacity:0.58;fill:#E1656F;} .st65{fill:#C6C6C6;} .st66{fill:#D34654;} .st67{fill:url(#SVGID_22_);} .st68{opacity:0.38;fill:url(#SVGID_23_);} .st69{fill:none;stroke:#114260;stroke-miterlimit:10;} .st70{opacity:0.4;fill:url(#SVGID_24_);} .st71{fill:#FFCFCF;} .st72{fill:#FAB782;} .st73{fill:#F79A5D;} .st74{fill:#F15763;} .st75{fill:#F69431;} .st76{fill:#F16A7F;} .st77{fill:#F1576F;} .st78{fill:url(#SVGID_25_);} .st79{fill:#E59E91;} .st80{fill:#FCAF9B;} .st81{fill:none;stroke:#FCAF9B;stroke-linecap:round;stroke-miterlimit:10;} .st82{fill:none;stroke:#E59989;stroke-linecap:round;stroke-miterlimit:10;} .st83{opacity:0.5;fill:url(#SVGID_26_);} .st84{fill:#A7B2B7;} .st85{opacity:0.43;fill:#E59E91;} .st86{fill:#EF435B;} .st87{fill:#F78C47;} .st88{fill:url(#SVGID_27_);} .st89{fill:#F58B45;} .st90{fill:#F99B5D;} .st91{opacity:0.67;fill:url(#SVGID_28_);} .st92{opacity:0.67;fill:url(#SVGID_29_);} .st93{fill:#FFC257;} .st94{fill:#FFB433;} .st95{fill:#F0B1B7;} .st96{fill:none;stroke:#114260;stroke-width:2;stroke-linecap:round;stroke-miterlimit:10;} .st97{opacity:0.76;fill:#1F5875;} .st98{fill:none;stroke:#D7434E;stroke-width:3;stroke-linecap:round;stroke-miterlimit:10;} .st99{fill:#EEE8F6;} .st100{fill:#D7434E;} .st101{fill:none;stroke:#F3994B;stroke-width:2;stroke-miterlimit:10;} .st102{fill:none;stroke:#F3994B;stroke-miterlimit:10;} .st103{fill:#227799;} .st104{fill:#D83D49;} .st105{fill:#F2C7CC;} .st106{fill:#DA3D49;} .st107{fill:#34398B;} .st108{fill:#20419A;} .st109{fill:#E2646F;} .st110{fill:none;stroke:#1F5875;stroke-linecap:round;stroke-miterlimit:10;} .st111{fill:#D93D4A;} .st112{fill:none;stroke:#D66471;stroke-miterlimit:10;} .st113{fill:#083A59;} .st114{fill:#F2F2F2;} .st115{opacity:0.5;fill:#1F5875;} .st116{fill:#A1DCE2;} .st117{fill:#001C30;} .st118{fill:#F57C2C;} .st119{fill:#FAAE4C;} .st120{opacity:0.4;fill:url(#SVGID_30_);} .st121{opacity:0.4;fill:url(#SVGID_31_);} .st122{opacity:0.4;fill:url(#SVGID_32_);} .st123{opacity:0.4;fill:url(#SVGID_33_);} .st124{opacity:0.61;fill:#1F5875;} .st125{opacity:0.29;fill:none;stroke:#114260;stroke-width:3;stroke-linecap:round;stroke-miterlimit:10;} .st126{opacity:0.09;} .st127{opacity:0.11;} .st128{opacity:0.2;} .st129{opacity:0.4;fill:url(#SVGID_34_);} .st130{opacity:0.5;fill:url(#SVGID_35_);} .st131{fill:#B03377;} .st132{opacity:0.15;fill:#00BFBF;} .st133{opacity:0.5;fill:url(#SVGID_36_);} .st134{fill:#FFACAB;} .st135{fill:#FFCE6E;} .st136{fill:#0B4860;} .st137{opacity:0.52;fill:#0B4156;} .st138{fill:#FFAFAE;} .st139{fill:#FFE6E4;} .st140{fill:#FEAEAD;} .st141{fill:#EEE7F5;} .st142{fill:#FBCECD;} .st143{fill:#0B2E4E;} .st144{fill:#FFCFCE;} .st145{fill:#0C3647;} .st146{fill:#0C3A60;} .st147{fill:#F3CFD1;} .st148{fill:#FFBA1D;} .st149{fill:#FFD06C;} .st150{opacity:0.45;fill:#FFFFFF;} .st151{opacity:0.32;fill:#FFFFFF;} .st152{fill:#0B2E4D;} .st153{fill:#FECFCE;} .st154{fill:#041D38;} .st155{fill:#FECED0;} .st156{fill:#FFB4B1;} .st157{fill:#0C2F4F;} .st158{fill:#FFCECF;} .st159{fill:#FCD0D0;} .st160{fill:none;stroke:#FEAEAD;stroke-miterlimit:10;} .st161{fill:#FEAEAE;} .st162{fill:#F4BDBD;} .st163{fill:#FFCED1;} .st164{fill:#0E3B62;} .st165{fill:#FFD1D1;} .st166{fill:#FFBA20;} .st167{fill:none;stroke:#FED77F;stroke-miterlimit:10;} .st168{fill:#FFD06D;} .st169{fill:#FFC749;} .st170{fill:none;stroke:#FED77F;stroke-width:3;stroke-miterlimit:10;} .st171{opacity:0.25;fill:#FFFFFF;} .st172{fill:#0B2B3F;} .st173{fill:#9DEAE6;} .st174{fill:#74D1CA;} .st175{fill:#FDD2D1;} .st176{fill:none;stroke:#805EF1;stroke-miterlimit:10;} .st177{fill:#805EF1;stroke:#FEAFB0;stroke-width:0.75;stroke-miterlimit:10;} .st178{fill:#805EF1;} .st179{fill:#082139;} .st180{fill:#FECDCE;} .st181{fill:#0B2E4F;} .st182{fill:#67DBD5;} .st183{fill:#103E5B;} .st184{opacity:0.21;fill:#C7EFEA;} .st185{fill:#07334F;stroke:#FFFFFF;stroke-width:3;stroke-miterlimit:10;} .st186{opacity:0.38;fill:#00BFBF;} .st187{opacity:0.58;fill:#00BFBF;} .st188{opacity:0.84;fill:#00BFBF;} .st189{opacity:0.61;fill:#D6D6D6;} .st190{fill:#D6D6D6;} .st191{fill:#2079B5;} .st192{opacity:0.49;} .st193{fill:#FFFFFF;stroke:#54E5E2;stroke-miterlimit:10;} .st194{fill:none;stroke:#54E5E2;stroke-miterlimit:10;} .st195{fill:#FFFFFF;stroke:#00BFBF;stroke-miterlimit:10;} .st196{fill:none;stroke:#00BFBF;stroke-miterlimit:10;} .st197{fill:#8DE2DE;} .st198{fill:#59D1CE;} .st199{fill:#FCCF47;} .st200{fill:#F9981F;} .st201{opacity:0.51;fill:#FFFFFF;} .st202{fill:#C9F7F6;} .st203{fill:#8CE0DA;} .st204{fill:#02507E;} .st205{fill:#2486C7;} .st206{opacity:0.59;fill:#114260;} .st207{fill:none;stroke:#114260;stroke-width:2;stroke-miterlimit:10;} .st208{fill:#E33D85;} .st209{fill:#E33E86;} .st210{fill:#FDFDFD;} .st211{fill:#E43D85;} .st212{fill:none;stroke:#001C30;stroke-miterlimit:10;} .st213{fill:none;stroke:#1882C6;stroke-miterlimit:10;} .st214{fill:#F89635;} .st215{fill:#1E203F;} .st216{fill:#F5B3B0;} .st217{fill:#DCF7F4;} .st218{fill:#ACEFE8;} .st219{fill:#F6BDBC;} .st220{fill:#1D3D6C;} .st221{fill:#055C90;} .st222{fill:#77B9E4;} .st223{fill:#A4D2F1;} .st224{fill:#FBC6C8;} .st225{fill:#2768AE;} .st226{fill:#FBC6C8;stroke:#FFFFFF;stroke-width:0.75;stroke-miterlimit:10;} .st227{fill:#F17C24;} .st228{opacity:0.4;fill:url(#SVGID_37_);} .st229{fill:#1C77B2;} .st230{fill:#F5BCBD;} .st231{fill:#F9AD9D;} .st232{fill:#E33D83;} .st233{fill:#FCFBF9;} .st234{fill:#144C68;stroke:#114260;stroke-miterlimit:10;} .st235{fill:#1F5875;stroke:#114260;stroke-miterlimit:10;} .st236{fill:#1D3D70;} .st237{fill:#F9C4C8;} .st238{fill:#F79823;} .st239{fill:#F07D24;} .st240{fill:#E89CA7;} .st241{fill:#FEE7A1;} .st242{fill:#FFE078;} .st243{fill:#FDE3A9;} .st244{fill:#FFD269;} .st245{fill:#FFD284;} .st246{fill:#FFBF53;} .st247{fill:#FC9852;} .st248{fill:#FEB22E;} .st249{fill:#FFEA9F;} .st250{fill:#FEE791;} .st251{fill:#FFBA1E;} .st252{fill:#FDD06E;} .st253{fill:#FFD070;} .st254{opacity:0.56;fill:#FFFFFF;} .st255{fill:#CECECE;} .st256{fill:#FFC158;} .st257{fill:#FFD591;} .st258{fill:#FFDF78;} .st259{fill:#FFE585;} .st260{fill:#FFE8A2;} .st261{fill:#FEC96D;} .st262{fill:#FEC155;} .st263{fill:#FFE790;} .st264{fill:#FED266;} .st265{fill:#FFE6AE;} </style> <g id="Layer_8" class="st0"> </g> <g id="Layer_1"> </g> <g id="Layer_3"> </g> <g id="Layer_4"> </g> <g id="Layer_5"> <g id="Layer_6"> </g> </g> <g id="Layer_2"> </g> <g id="Layer_7"> <g id="Layer_10"> </g> </g> <g id="Layer_9"> <linearGradient id="SVGID_2_" gradientUnits="userSpaceOnUse" x1="195.6158" y1="251.8434" x2="195.6158" y2="107.0948" gradientTransform="matrix(-1 0 0 1 494.3674 0)"> <stop offset="0" style="stop-color:#FFFFFF"></stop> <stop offset="1" style="stop-color:#00BFBF"></stop> </linearGradient> <path style="opacity:0.4;fill:url(#SVGID_2_);" d="M477.6,224.44c15.64,4.31,12.32,27.47-3.9,27.4 c-88.22-0.37-280.38-1.16-333.04-1.16c-40.6,0-41.85-61.38,0.14-61.38c0,0,17.1-81.76,85.06-82.2c0,0,54-1.75,58.96,69.52 c0,0,23.4-24.48,45.45-12.24c0,0,20.7,11.37,23.85,38.47c0,0,11.7-23.61,49.05-19.24c0,0,33.75,9.18,22.5,35.41 C425.67,219.02,452.14,217.43,477.6,224.44z"></path> <linearGradient id="SVGID_4_" gradientUnits="userSpaceOnUse" x1="749.9222" y1="177.284" x2="749.9222" y2="100.8952" gradientTransform="matrix(1 0 0 1 -251.4254 0)"> <stop offset="0" style="stop-color:#FFFFFF"></stop> <stop offset="1" style="stop-color:#00BFBF"></stop> </linearGradient> <path style="opacity:0.4;fill:url(#SVGID_4_);" d="M370.05,177.28l255.62-2c0,0,7.83-16.32-15.44-14.02c0,0-7.6-36.18-30.65-30.42 c0,0-11.75,1.84-16.13,13.36c0,0-8.76-43.09-43.55-43.32c0,0-27.65-0.92-30.19,36.64c0,0-11.98-12.9-23.27-6.45 c0,0-10.6,5.99-12.21,20.28c0,0-5.99-12.44-25.12-10.14c0,0-17.28,4.84-11.52,18.66C417.6,159.89,380.58,157.58,370.05,177.28z"></path> <linearGradient id="SVGID_5_" gradientUnits="userSpaceOnUse" x1="547.7693" y1="153.9167" x2="547.7693" y2="97.8285" gradientTransform="matrix(-1 0 0 1 881.5739 0)"> <stop offset="0" style="stop-color:#FFFFFF"></stop> <stop offset="1" style="stop-color:#00BFBF"></stop> </linearGradient> <path style="opacity:0.4;fill:url(#SVGID_5_);" d="M430.32,153.92l-192.08-1.47c0,0-5.89-11.98,11.6-10.29 c0,0,5.71-26.56,23.03-22.33c0,0,8.83,1.35,12.12,9.81c0,0,6.58-31.64,32.73-31.81c0,0,20.78-0.68,22.68,26.9 c0,0,9-9.47,17.49-4.74c0,0,7.96,4.4,9.18,14.89c0,0,4.5-9.14,18.87-7.44c0,0,12.99,3.55,8.66,13.7 C394.59,141.14,422.41,139.45,430.32,153.92z"></path> <linearGradient id="SVGID_6_" gradientUnits="userSpaceOnUse" x1="437.5016" y1="318.5414" x2="437.5016" y2="178.7071"> <stop offset="0" style="stop-color:#FFFFFF"></stop> <stop offset="1" style="stop-color:#00BFBF"></stop> </linearGradient> <path style="opacity:0.4;fill:url(#SVGID_6_);" d="M195.48,318.54l481.65-3.66c0,0,14.76-29.88-29.09-25.66 c0,0-14.33-66.22-57.75-55.68c0,0-22.14,3.37-30.39,24.46c0,0-16.5-78.88-82.06-79.3c0,0-52.1-1.69-56.88,67.07 c0,0-22.58-23.62-43.85-11.81c0,0-19.97,10.97-23.01,37.12c0,0-11.29-22.78-47.33-18.56c0,0-32.56,8.86-21.71,34.17 C285.07,286.69,215.31,282.48,195.48,318.54z"></path> <g> <path class="st124" d="M395.21,409.14c0,0,17.58-56.41,11.16-66.81l-3.06-1.07c0,0-18.89,8.53-42.39,44.47l3.43,24.62 C364.35,410.35,379.77,407.92,395.21,409.14z"></path> <line class="st125" x1="403.62" y1="343.55" x2="369.68" y2="411.12"></line> <polyline class="st125" points="386.88,361.52 390.61,369.68 403.62,367.1 "></polyline> <polyline class="st125" points="368,378.48 376.35,398.33 398.45,394.15 "></polyline> </g> <g> <path class="st124" d="M335.51,235.63c0,0,21.67-55.57,34.04-53.28c0,0,9.69,3,8.16,55.39s-9.23,107.19-9.23,107.19l-16.65-10.84 l-12.79-83.86L335.51,235.63z"></path> <line class="st125" x1="349.69" y1="269.41" x2="347.02" y2="284.27"></line> <line class="st125" x1="364.85" y1="308.13" x2="349.69" y2="318.1"></line> <line class="st125" x1="368.48" y1="184.19" x2="355.24" y2="245.59"></line> <polyline class="st125" points="347.05,212.39 358.66,229.71 377.71,218.82 "></polyline> <line class="st125" x1="355.94" y1="274.4" x2="348.55" y2="279.6"></line> </g> <g> <path class="st124" d="M178.06,380.38c0,0-39.66-64.57-27.51-73.06c0,0,8.25-9.63,84.38,52.05l-6.04,21l-27.42,6.28L178.06,380.38 z"></path> <line class="st125" x1="152.56" y1="309.81" x2="211.21" y2="380.38"></line> <polyline class="st125" points="185.99,324.6 184.04,347.07 160.41,345.09 "></polyline> </g> <g> <path class="st124" d="M321.07,231.81c0,0-9.17-64.05-21.02-65.89h-2.98c0,0-13.45,7.17-17.27,51.81l7.64,12.85l36.08,4.74 L321.07,231.81z"></path> <line class="st125" x1="298.75" y1="166.69" x2="298.75" y2="225.54"></line> <line class="st125" x1="309.91" y1="229.71" x2="319.45" y2="221.74"></line> <polyline class="st125" points="284.84,190.99 298.75,202.46 312.86,190.99 "></polyline> </g> <g> <path class="st124" d="M197.1,189.31c0,0,8.25-9.25,38.52,55.18l1.83,60.92l-4.55,30.42l-21.7,3.13l-19.63-62.12l1.69-23.83 c0,0-8.03-60.22,2.72-63.56C196.34,189.35,196.71,189.3,197.1,189.31z"></path> <line class="st125" x1="217.58" y1="260.52" x2="196.64" y2="190.23"></line> <line class="st125" x1="194.5" y1="263.91" x2="220.21" y2="277.97"></line> <line class="st125" x1="201.22" y1="301.82" x2="225.07" y2="315.43"></line> <polyline class="st125" points="193.86,225.37 209.22,232.48 219.19,216.09 "></polyline> </g> <linearGradient id="SVGID_7_" gradientUnits="userSpaceOnUse" x1="59.9745" y1="476.7723" x2="765.7579" y2="476.7723"> <stop offset="0" style="stop-color:#1F5875;stop-opacity:0.5"></stop> <stop offset="0.9995" style="stop-color:#094A6B;stop-opacity:0.8"></stop> </linearGradient> <ellipse style="opacity:0.5;fill:url(#SVGID_7_);" cx="412.87" cy="476.77" rx="352.89" ry="15.21"></ellipse> <path class="st134" d="M602.53,394.12c0,0,1.05,6.53,0.88,8.25l8.89,16.22c0,0,1.78,3.21,1.55,4.82c-0.23,1.61-2.12-0.69-2.12-0.69 s-0.71-2.69-1.59-4.01l-0.76,0.17c0,0,0,1.83-0.23,2.09s-1.35,0.29-1.55-1.12c-0.2-1.4,0.23-3.12,0.23-3.12l-5.37-7.84l-1.91-5.37 L602.53,394.12z"></path> <path class="st29" d="M610.14,447.66c0,0-1.83-25.99-4.51-30.27c-2.68-4.28-2.96-7.91-2.96-7.91l-2.12-5.96l1.91-8.89 c0,0,1.41-7.17-4.72-9.57h-1.19l-0.02,1.61c0,0-3.03,1.53-4.62-0.84l0.02-1.68c0,0-4.59,2.81-5.03,4.48c0,0-0.42,0.81-0.44,1.61 c-0.02,0.8-0.03,2.8,0.36,3.95c0.39,1.15,0.92,4.1,2.89,7.21l0.1,4.38c0,0-2.42,3.71-3.35,8.52s1.06,33.82,1.06,33.82 s13.22,5.35,22.62,0"></path> <path class="st135" d="M691.58,461.95c1.44,10.88,15.77,16.08,27.51,16.08c17.09,0,30.94-13.85,30.94-30.94 c0-17.09-13.85-30.94-30.94-30.94c-16.58,0-30.12,13.05-30.9,29.44C688.2,445.6,689.7,447.65,691.58,461.95z"></path> <polygon class="st136" points="734.57,62.43 669.45,141.31 601.58,80.32 616.25,62.43 "></polygon> <polygon class="st137" points="653.56,127.03 669.45,141.31 734.57,62.43 707.62,62.43 "></polygon> <path class="st138" d="M615.5,109.91l30.03,26.97l-4.36,5.27c0,0-6.8,14.98-7.95,17.81c-1.15,2.83-9.17,18.57-19.8,29.58 c0,0,8.79-20.48,15.36-28.36c0,0,2.98-5.5,3.36-8.1c0.38-2.6,0.15-9.48-0.54-10.85c-0.69-1.38-15.13-23.62-15.52-25.61 C615.72,114.64,615.5,109.91,615.5,109.91z"></path> <path class="st139" d="M582.71,260.53c0.15-0.65,1.53-13.68,1.53-13.68h-4.99l-1.06,15.78c0,0,2.68,0.48,4.28,0.06L582.71,260.53z"></path> <path class="st139" d="M512.98,259.23c0.54-0.54,0.92-2.52,0.92-2.52l-1.53-10.85l-4.38,0.57c0,0,1.02,8.48,1.78,10.1 c0,0,0.35,1.56,1.17,2.86c0,0,0.22,0.36,0.5,0.38c0.28,0.02,1.07,0.04,1.07,0.04L512.98,259.23z"></path> <path class="st140" d="M542.95,184.63c-2.11,1.83-13.21,18.29-13.21,18.29l-1.38,3.97c0.55,7.51,0.25,13.59,0.25,13.59 c13.88,7.85,23.27,5.96,25.22,4.36c1.95-1.61,2.81-4.13,2.41-5.9c-0.4-1.78-5.48-5.69-5.48-5.69l0.19-1.68 c11.81-0.46,16.78-7.91,16.78-7.91s0.65-2.71-0.34-3.75s-3.52-2.1-3.52-2.1s1.64-0.46,2.1-2.6c0.46-2.14-3.97-3.67-3.97-3.67 l-18.65-6.73L542.95,184.63z"></path> <path class="st140" d="M518.92,150.21c0,0-5.62,15.18-6.31,15.86c-0.69,0.69-12.38,22.93-13.3,26.48 c-0.92,3.55-0.92,11.69-0.69,12.04s3.67,3.32,5.68,4.13l0.66-0.34L518.92,150.21z"></path> <polygon class="st141" points="657.41,130.54 649.5,140.17 611.12,88.89 "></polygon> <path class="st142" d="M679.43,375.2c0.11-0.17,1.72,0,1.72,0s0.57-2.46,1.61-2.24c1.03,0.23,2.12,0.86,1.89,1.49 c-0.23,0.63-1.49,1.89-1.49,1.89l-0.17,7.91l-0.06,2.29c0,0-3.27,2.52-6.71,0v-3.67l-2.87-0.11c0,0-1.09-1.24-1.66-2.46 c-0.57-1.21,0-8.95,0-8.95l1.43-0.97h0.92l0.11,0.8l5.27,0.06V375.2z"></path> <path class="st143" d="M674.42,364.61l9.9,4.09v4.98c0,0-0.68-0.63-1.75-0.73c0,0-0.89-0.02-1.42,2.25c0,0-1.49-0.16-1.72,0v-3.96 l-5.27-0.06l-0.11-0.8h-1.16c0,0-1-0.47-0.95-1.45l0-2.04C671.93,366.9,671.78,364.52,674.42,364.61z"></path> <path class="st28" d="M664.92,422.32h1.26c0,0,1.83,2.69,7.51,1.78c0,0,7.68-2.58,10.03-3.96c2.35-1.38,4.7-1.26,4.7-1.26V399.1 l6.71-5.68c0,0-1.09-5.68-4.87-7.39c0,0-3.43-1.57-7.27-2.03l-0.06,2.53c0,0-4.13,1.94-6.71,0.02v-2.98c0,0-9.71,4.17-12.08,9.13 c0,0,0.15,2.94,3.29,5.01L664.92,422.32z"></path> <path class="st144" d="M713.21,419.61l-1.72-1.76c0,0,1.57-2.25,5.73-1.26c0,0,0.76-2.41-7.03-1.61l-12.59-12.96l-3.4-7.81 l-5.16,4.37c0,0,4.31,6.6,4.49,6.94c0.17,0.34,13.93,12.15,13.93,12.15s3.47,1.86,4.96,2.18 C713.91,420.17,713.21,419.61,713.21,419.61z"></path> <path class="st145" d="M688.62,470.57c0,0,3.44,1.32,6.82-0.57c0,0-0.4-17.54-3.41-25.11c-3.01-7.57-5.52-25.95-5.52-25.95 l-1.43,0.41c0,0-7.44,3.64-11.43,4.61s-6.91-0.77-7.51-1.78c-0.6-1,4.8,48.27,4.8,48.27s3.97,1.38,6.73-0.23 c0,0,0.99-34.62-0.31-37.61h1.45c0,0,4.28,15.82,6.11,19.49S688.62,470.57,688.62,470.57z"></path> <path class="st146" d="M677.08,472.88l0.23,4.18c0,0-1.26,1.2-2.46,1.32s-11.18,0-11.18,0v-1.49c0,0,6.42-3.38,7.91-3.67 C673.06,472.94,677.08,472.88,677.08,472.88z"></path> <polygon class="st146" points="690.83,473.17 689.86,474.66 689.34,475.66 689.34,477.64 696.8,478.04 696.8,475.23 695.02,473.17 "></polygon> <path class="st147" d="M672.5,470.83v2.27c0,0,2.26-0.15,2.57-0.16v-1.92C675.07,471.01,672.97,470.92,672.5,470.83z"></path> <path class="st147" d="M691.47,471.01v2.15h2.49v-2.67C693.96,470.5,693.1,470.98,691.47,471.01z"></path> <path class="st147" d="M664.34,393.69c0,0-4.55,7.04-4.9,7.38c-0.34,0.34-7.61,3.75-9.78,3.78h-0.92l-0.8-2.56 c0,0-0.92-0.19-1.11-0.04c-0.19,0.15,0,3.44,0,3.44l-5.69,0.57c0,0-2.75,4.07,1.61,4.3c4.36,0.23,20.06-4.59,20.06-4.59l4.57-7.72 l0.06-0.55C667.43,397.71,664.64,395.61,664.34,393.69z"></path> <path class="st148" d="M695.17,460.42c1.25,9.46,13.71,13.99,23.93,13.99c14.86,0,26.9-12.05,26.9-26.9 c0-14.86-12.05-26.9-26.9-26.9c-14.42,0-26.19,11.35-26.87,25.6C692.22,446.2,693.53,447.98,695.17,460.42z"></path> <path class="st149" d="M722.08,430.69l2.56,5.2c0,0,0.61,1.99,3.21,2.37c2.6,0.38,6.8,0.84,6.8,0.84s1.68,0.54,1.99,1.3 c0.31,0.76,0,2.56,0,2.56l-5.73,5.9c0,0-1.09,1.2-0.92,2.06c0.17,0.86,1.03,8.94,1.03,8.94s-0.8,2.75-3.78,2.12l-6.25-3.61 c0,0-2.35-0.86-4.24,0.17c-1.89,1.03-5.22,3.1-5.22,3.1s-4.01,1.32-4.3-1.78l0.86-7.17c0,0,1.61-3.04-0.86-4.47l-4.87-4.64 c0,0-2.55-2.92,0.79-4.53l7.53-0.4c0,0,2.29-0.4,3.9-4.13c1.61-3.73,3.1-5.5,3.1-5.5s1.95-1.43,3.44,0L722.08,430.69z"></path> <path class="st150" d="M705.91,475.32l41.14-41.39c0,0,0-1.22-2.06-3.36l-43.03,42.57C701.95,473.15,703.41,474.45,705.91,475.32z"></path> <path class="st150" d="M695.15,464.05l42.22-41.91c3.7,2.74,5.42,5.07,5.42,5.07l-44.13,45.21c-0.91-0.52-2.73-2.19-3.22-2.7 L695.15,464.05z"></path> <g> <circle class="st135" cx="530.12" cy="342.16" r="35.64"></circle> <circle class="st148" cx="530.29" cy="342.16" r="30.72"></circle> <path class="st149" d="M533.67,322.59l2.93,5.94c0,0,0.7,2.27,3.67,2.71s7.77,0.96,7.77,0.96s1.92,0.61,2.27,1.48 c0.35,0.87,0,2.93,0,2.93l-6.55,6.75c0,0-1.24,1.38-1.05,2.36c0.2,0.98,1.18,10.22,1.18,10.22s-0.92,3.14-4.32,2.42l-7.14-4.13 c0,0-2.69-0.98-4.85,0.2s-5.96,3.54-5.96,3.54s-4.58,1.51-4.91-2.03l0.98-8.19c0,0,1.83-3.47-0.98-5.11l-5.57-5.3 c0,0-2.92-3.34,0.9-5.17l8.6-0.46c0,0,2.62-0.46,4.45-4.72s3.54-6.29,3.54-6.29s2.23-1.64,3.93,0L533.67,322.59z"></path> <path class="st150" d="M514.71,374.3l47.39-47.89c0,0-0.61-1.47-2.26-3.95l-49.7,49.21C510.14,371.67,511.89,372.96,514.71,374.3z "></path> <path class="st150" d="M507.49,369.69l49.61-50.82c0,0-2.05-2.58-6.27-5.72l-49.89,49.46C500.93,362.61,503.98,367,507.49,369.69z "></path> </g> <circle class="st135" cx="152.56" cy="447.28" r="33.1"></circle> <circle class="st148" cx="152.71" cy="447.28" r="28.53"></circle> <path class="st149" d="M155.86,429.1l2.72,5.51c0,0,0.65,2.11,3.41,2.51c2.76,0.41,7.22,0.89,7.22,0.89s1.78,0.57,2.11,1.38 c0.32,0.81,0,2.72,0,2.72l-6.08,6.27c0,0-1.16,1.28-0.97,2.19s1.09,9.49,1.09,9.49s-0.85,2.92-4.01,2.25l-6.63-3.83 c0,0-2.49-0.91-4.5,0.18c-2.01,1.09-5.54,3.28-5.54,3.28s-4.26,1.4-4.56-1.89l0.91-7.6c0,0,1.7-3.22-0.91-4.74l-5.17-4.93 c0,0-2.71-3.1,0.83-4.81l7.98-0.43c0,0,2.43-0.43,4.14-4.38s3.28-5.84,3.28-5.84s2.07-1.52,3.65,0L155.86,429.1z"></path> <path class="st150" d="M138.25,477.13l44.01-44.48c0,0-0.57-1.37-2.09-3.66L134,474.69C134,474.69,135.63,475.88,138.25,477.13z"></path> <path class="st150" d="M131.54,472.84l46.07-47.2c0,0-1.9-2.4-5.82-5.31l-46.34,45.93C125.45,466.27,128.29,470.35,131.54,472.84z"></path> <path class="st71" d="M596.76,383.11c0,0,2.75,0.86,4.93-1.43v-9.23c-2.24,2.46-8.37,1.49-8.37,1.49s-1.53-1.34-2.68-0.04 c-1.15,1.3,0.61,2.9,1.38,3.1l-0.11,8.83c0,0,1.53,2.48,4.62,0.84l0.04-3.65L596.76,383.11z"></path> <path class="st152" d="M589.71,401.39c0,0-8.51,0.11-11.18-5.96c0,0,4.64-3.32,7.39-13.3s0.94-11.56,6.97-14.77 c0,0,7.22-0.76,9.55,2.83v5.41l-0.76,0.09v-3.24c0,0-2.61,2.44-8.37,1.49c0,0-1.15-1.2-2.39-0.3c0,0-2.08,1.54,1.09,3.36 l-0.09,7.15c0,0-4.68,2.64-5.34,5.27C585.93,392.05,587.59,398.76,589.71,401.39z"></path> <path class="st153" d="M597.68,408.62l22.47,2.52c0,0,3.55-2.16,0.46-3.73l-3.75-0.46l0.71-2.2c0,0-0.48-0.51-0.98-0.32l-1.38,2.64 l-15.1-2.33l-7.61-16.01c0,0-3.29-2.87-5.35,0.76c0,0-0.04,1.53,0.23,2.6S597.68,408.62,597.68,408.62z"></path> <path class="st134" d="M588.23,448.38v1.74l-10.21,21.04c0,0,3.73,3.32,5.45,3.96l-0.34-2.98l12.61-21.95 C595.74,450.18,591.48,449.69,588.23,448.38z"></path> <path class="st154" d="M588.65,479.59c0,0-9.34-1.52-12.87-5.19c0,0-0.09-3.21,2.24-3.24c0,0,3.55,2.98,5.3,3.96 s4.41,1.58,5.53,2.55C589.97,478.64,588.65,479.59,588.65,479.59z"></path> <path class="st155" d="M608.87,448.76c0,0-0.12,10.93-0.52,11.85c-0.4,0.92-1.15,13.64-1.15,13.64l2.94,1.95h-3.86 c0,0-4.7-2.18-4.64-2.58c0.06-0.4-0.52-22.27,0-23.18C601.64,450.45,607.04,450.04,608.87,448.76z"></path> <path class="st154" d="M601.42,478.15c0.16,0.25,1.19,0.76,1.99,1.07s10.47,0.36,10.47,0.36s2.03-1.24,0.73-2.62 c0,0-2.71-0.76-4.47-0.76h-3.86c0,0-4.2-1.95-4.64-2.58h-0.55C601.08,473.62,600.49,476.74,601.42,478.15z"></path> <path class="st28" d="M550.83,372.29h4.43l0.46,16.28l-16.51,8.18l-0.76,11.69c0,0,2.6,10.93,3.13,15.21v0.65h-20.87 c0,0-0.31-4.85,0.99-7.68l2.98-7.87l-0.38-11.92l-13.68-4.36v-16.51l3.97,0.08l0.31,13.07l13.3,2.52l5.66,0.15l17.12-6.27 L550.83,372.29z"></path> <path class="st156" d="M504.96,368.78l0.92-0.46c0,0,4.99,4.41,8.83,5.99l-0.11,1.74l-3.19-0.06l0.03-2.1 C511.44,373.88,508.05,373.19,504.96,368.78z"></path> <path class="st156" d="M559.87,364.1l-1.08-0.77c0,0-3.7,5.53-7.54,7.11l0.11,1.74l3.19-0.06l-0.03-2.1 C554.53,370.02,557.32,368.78,559.87,364.1z"></path> <path class="st157" d="M526.09,377.1c0,0-1.67,2.82-1.39,5.43s1.95-2.58,1.95-2.58s1.15,1.26,1.78,1.66 c0.63,0.4,5.56,0.29,5.56,0.29l1.09,0.02l0.46,1.07l-0.8,0.92l-1.2,0.29l0.32,7.59l4.62,16.13c0,0,4.23-1.25,6.86-4.4 c0,0-5.39-6.76-5.5-14.85c0,0,1.04-4.56-0.46-8.14c-1.5-3.58-2.23-3.42-2.23-3.42s-2.68,1.29-11.06,0.47"></path> <path class="st158" d="M529.26,391.66c0,0,3.65,0.32,4.59,0l-0.32-7.46l1.2-0.29l0.8-0.92l-0.46-1.07l-5.28-0.07 c0,0-1.05,0.01-1.37-0.23c-0.33-0.24-1.78-1.66-1.78-1.66s-0.69,2.09-1.11,2.75v4.51c0,0,0.17,0.69,1.15,0.97 c0.97,0.29,2.54,0.19,2.54,0.19L529.26,391.66z"></path> <path class="st157" d="M527.58,391.51l0.51,0.1l1.17,0.05l-0.03-3.28c0,0-2.41,0.18-3.13-0.47c0,0,0.51,3.05,0.89,3.48 L527.58,391.51z"></path> <path class="st145" d="M536.23,471.58h5.35l2.37-24.92c0,0,0.15-5.12-0.76-8.1c-0.92-2.98-2.75-14.25-2.75-14.25H521.4l-2.75,19.61 v1.61l2.6,26.06h4.74l0.23-27.75l4.2-15.13l2.06,0.08l4.43,14.9L536.23,471.58z"></path> <path class="st157" d="M536.54,478l11.01,0.31l1.07-0.96l-0.38-1.11l-7.07,0.15c0,0-1.64-0.88-1.87-1.18 c-0.23-0.31-1.15-1.18-1.38-1.3s-1.38-0.15-1.38-0.15s-0.5,0.46-0.54,1.03c-0.04,0.57-0.5,1.03-0.27,1.64 C535.96,477.04,536.54,478,536.54,478z"></path> <path class="st159" d="M536.66,471.58h4.01l0.17,2.18c0,0,5.1,2.21,5.39,2.53l-5.07,0.11c0,0-1.71-1-1.87-1.18 c-0.16-0.19-1.46-1.33-1.46-1.33l-1.29-0.13v-2.18H536.66z"></path> <path class="st157" d="M525.68,478l-11.01,0.31l-1.07-0.96l0.38-1.11l7.07,0.15c0,0,1.64-0.88,1.87-1.18 c0.23-0.31,1.15-1.18,1.38-1.3s1.38-0.15,1.38-0.15s0.5,0.46,0.54,1.03c0.04,0.57,0.5,1.03,0.27,1.64 C526.25,477.04,525.68,478,525.68,478z"></path> <path class="st159" d="M525.56,471.58h-4.01l-0.17,2.18c0,0-5.1,2.21-5.39,2.53l5.07,0.11c0,0,1.71-1,1.87-1.18 c0.16-0.19,1.46-1.33,1.46-1.33l1.29-0.13v-2.18H525.56z"></path> <path class="st71" d="M183.75,295.44l-0.76-3.71c0,0-7.53-12.15-8.37-16.13c-0.84-3.97-4.89-16.89-4.89-16.89s-0.73-3.4,2.87-2.29 l-0.88-3.13c0,0,0.04-2.14,1.38-2.56c1.34-0.42,2.6,0.5,2.6,0.5s-0.96-2.1,0.38-2.98c1.34-0.88,2.83,0.42,3.32,1.26l0.57,1.26 c0,0-0.61-2.65,0.92-2.82c1.53-0.17,2.29,0.71,2.68,1.48c0.38,0.76,6.73,17.12,6.73,17.12h0.27v-10.13c0,0,1.03-3.44,2.71-3.4 c1.68,0.04,2.52,1.26,2.52,1.26l0.84,9.78c0,0,2.52,5.54,2.98,6.57c0.46,1.03,0.57,6.76,0,8.08c-0.57,1.32-2.06,5.45-2.06,6.13 s-0.4,2.41,0.29,3.96c0.69,1.55,0.97,2.92,0.97,2.92L183.75,295.44z"></path> <line class="st160" x1="172.85" y1="257.45" x2="176.69" y2="269.83"></line> <line class="st160" x1="176.11" y1="252.64" x2="180.59" y2="268.4"></line> <line class="st160" x1="179.96" y1="251.49" x2="184.84" y2="266.8"></line> <path class="st160" d="M178.35,274.02c0,0,3.38-5.04,8.31-3.67"></path> <path class="st160" d="M189.7,268.4c-3.44,2.41-1.32,10.09-1.32,10.09l0.34,1.26h-3.26"></path> <path class="st157" d="M462.51,370.84l-5.92,0.15c0,0-2.33-1.8-1.61-4.36c0.73-2.56,3.52-2.64,3.52-2.64s2.6,2.14,5.27,2.48 c2.68,0.34,3.63,1.61,3.63,1.61l0.27,3.86c0,0-2.25-0.04-2.33,0.69c-0.08,0.73-0.65,2.79-1.38,2.71c-0.73-0.08-1.37-2.36-1.37-2.76 S462.51,370.84,462.51,370.84z"></path> <path class="st29" d="M461.65,386.32c0,0,2.24,0.23,2.73,0c0.5-0.23,1.95-1.95,1.91-3.06s6.31,1.85,6.92,3.16 c0.61,1.31,0.38,8.92-0.46,11.17c-0.84,2.25-0.5,15.63-0.42,17.46l-0.04,1.03c0,0-19.8,1.34-20.29,0s-0.76-23.5-0.76-23.5 s-2.22-0.8-2.52-1.61s5.96-7.3,6.73-7.41c0.76-0.11,2.48-0.08,2.48-0.08l0.31,2.48L461.65,386.32z"></path> <path class="st161" d="M449.7,391.87l-3.89,6.6c0,0-0.61,1.87,0,3.21c0.61,1.34,2.39,1.72,2.89,1.68 c0.51-0.04,10.64-3.51,10.64-3.51l-0.42-5.12l-7.8,1.45l0.11-3.59L449.7,391.87z"></path> <path class="st162" d="M464.34,392.74l4.59,5.54l-5.35,5.81c0,0-3.1,0.73-3.9-1.3c-0.8-2.03-1.64-9.55-1.64-9.55 s-0.46-9.53-0.46-9.75c0-0.22-2.41-6.07-2.41-6.07s0-1.22,0-1.34c0-0.11,0.65-0.34,0.65-0.34h0.42h0.42l2.37,5.27 c0,0,1.68-2.14,1.68-2.25s0.39-0.65,0.54-0.65s0.8,0.15,0.8,0.15s0.23,0.23,0.27,0.42c0.04,0.19,0.73,14.56,0.73,14.56 L464.34,392.74z"></path> <path class="st144" d="M464.72,374.67c-0.47,0.69-0.76,0.68-0.76,0.68c-0.81-0.62-1.28-2.29-1.28-2.29l-0.17-2.22l-5.92,0.15 l-0.46-0.43l-0.04,5.17h0.5l2.45,5.27l2.44-3.08l0.84,0.75l0.4,7.72c0.6,0.04,1.87-0.22,1.87-0.22l1.39-1.58v-9.25 c0,0,0.72-0.15,0.92-0.15c0.2,0,0.32-0.23,0.32-0.23s0.52-0.97,0.46-1.43c-0.06-0.46-0.46-1.58-0.46-1.58s-1.16-0.06-1.44,0.25 c0,0-0.39,0.16-0.42,0.37C465.32,372.79,465.04,374.19,464.72,374.67z"></path> <path class="st12" d="M454.22,467.07h5.66l1.76-43.87l1.53-0.61l6.11,44.48c0,0,5.73-0.23,6.04-0.31 c0.31-0.08-3.02-50.68-3.02-50.68s-13.34,1.4-19.91,0.24L454.22,467.07z"></path> <path class="st164" d="M459.47,469.27c0,0,0.92,3.1,0.63,3.78c-0.29,0.69-3.04,1.95-3.04,1.95l-10.2-0.29c0,0-0.69-0.86,0-1.32 c0.69-0.46,7.11-2.75,7.62-3.32S459.47,469.27,459.47,469.27z"></path> <path class="st164" d="M468.93,475h7.8v-2.69c0,0-0.46-0.34-0.92-0.86c-0.46-0.52-1.09-1.66-1.09-1.66s-2.81,0.34-3.78,0 l-1.32,2.01l-0.69,2.12V475z"></path> <polygon class="st165" points="458.92,469.27 458.92,467.07 454.71,467.07 454.48,470.07 455.32,469.67 "></polygon> <path class="st165" d="M470.79,469.78l-0.22-2.77l3.71-0.17v2.94c0,0-1.4,0.34-3.35,0"></path> <path class="st166" d="M174.17,474.71c0,0,34.55,16.51,62.98-3.36l-0.96-29.54l-1.61-1.61l-0.23-3.67l1.26-0.8l-0.46-3.9l0.8-1.15 l0.34-8.14l-1.72-2.75l-0.23-2.75l2.79-5.92l-3.13-16.78l-12.68-15.17c0,0-28.82-6.84-48.77,3.59c0,0-3.9,1.72-4.7,6.99v13.34 l1.41,1.07l-0.15,13.91c0,0,7.87,3.13,13.87,15.36c6,12.23,1.11,29.81-6.99,38.37l-3.44,2.56L174.17,474.71z"></path> <path class="st168" d="M190.9,389.73l-4.99-2.93c-0.23-0.14-0.39-0.36-0.45-0.62l0.01-0.66l0.32-0.17l9.29-0.4 c0,0,4.47-4.41,4.64-4.47c0.17-0.06,4.24-0.17,4.24,0s2.52,3.97,2.52,3.97l10.2-0.11c0,0,3.21,1.3,2.12,2.5 c-1.09,1.2-6.94,3.38-6.94,3.38l1.2,4.24c0,0,0.57,1.61-4.87,1.43l-4.87-2.06c0,0-2.92-0.57-3.73-0.06 c-0.8,0.52-5.56,2.13-5.56,2.13s-4.11,0.77-3.78-0.93c0.34-1.78,0.92-5.25,0.92-5.25"></path> <polygon class="st169" points="200.23,401.27 204.74,401.27 189.74,479.59 184.53,478.35 "></polygon> <path class="st169" d="M219.97,402.52l-15.38,78.63c0,0-7.98-0.14-12.93-1.18l15.3-78.69l13.76-1.6L219.97,402.52z"></path> <path class="st167" d="M170.57,411.96c0,0,10.47,8.1,28.36,8.06c7.86-0.02,13.06-0.62,16.42-0.86c3.81-0.28,7.56-1.13,11.1-2.58 c3.06-1.25,6.59-2.92,8.48-4.62"></path> <path class="st167" d="M170.57,405.18c0,0,10.47,8.1,28.36,8.06c7.86-0.02,13.06-0.62,16.42-0.86c3.81-0.28,7.56-1.13,11.1-2.58 c3.06-1.25,6.59-2.92,8.48-4.62"></path> <path class="st167" d="M170.04,398.87c0,0,11.01,7.32,28.89,7.29c7.86-0.02,13.06-0.62,16.42-0.86c3.81-0.28,7.56-1.13,11.1-2.58 c2.03-0.83,4.27-1.84,6.1-2.93"></path> <path class="st167" d="M184.04,465.24c4.12,1.14,9.12,1.97,14.89,1.96c7.86-0.02,13.06-0.62,16.42-0.86 c3.81-0.28,7.56-1.13,11.1-2.58c3.06-1.25,6.59-2.92,8.48-4.62"></path> <path class="st167" d="M179.78,470.82c4.12,1.14,13.38,3.39,19.15,3.38c7.86-0.02,13.06-0.62,16.42-0.86 c3.81-0.28,7.56-1.13,11.1-2.58c3.06-1.25,6.59-2.92,8.48-4.62"></path> <path class="st167" d="M176.78,422.46c0,0,4.84,3.75,22.15,4.57c7.85,0.37,13.06-0.62,16.42-0.86c3.81-0.28,7.56-1.13,11.1-2.58 c3.06-1.25,6.59-2.92,8.48-4.62"></path> <path class="st167" d="M182.16,430.31c4.57,1.53,10.5,2.8,17.59,2.78c7.86-0.02,13.06-0.62,16.42-0.86 c3.81-0.28,7.56-1.13,11.1-2.58c3.06-1.25,6.59-2.92,8.48-4.62"></path> <path class="st167" d="M185.99,438.13c4.57,1.53,6.68,1.68,13.77,1.66c7.86-0.02,13.06-0.62,16.42-0.86 c3.81-0.28,7.56-1.13,11.1-2.58c3.06-1.25,6.59-2.92,8.48-4.62"></path> <path class="st167" d="M186.66,445.48c5.27,1.2,6,0.69,13.1,0.68c7.86-0.02,13.06-0.62,16.42-0.86c3.81-0.28,7.56-1.13,11.1-2.58 c3.06-1.25,6.59-2.92,8.48-4.62"></path> <path class="st167" d="M186.66,452.76c5.27,1.2,6,0.69,13.1,0.68c7.86-0.02,13.06-0.62,16.42-0.86c3.81-0.28,7.56-1.13,11.1-2.58 c3.06-1.25,6.59-2.92,8.48-4.62"></path> <path class="st167" d="M186.66,459.5c5.27,1.2,6,0.69,13.1,0.68c7.86-0.02,13.06-0.62,16.42-0.86c3.81-0.28,7.56-1.13,11.1-2.58 c3.06-1.25,6.59-2.92,8.48-4.62"></path> <path class="st170" d="M232.91,395.41c-5.77,3.5-16.71,5.87-29.26,5.87c-18.56,0-33.6-5.17-33.6-11.55s15.05-11.55,33.6-11.55 c6.81,0,13.14,0.7,18.44,1.89"></path> <path class="st171" d="M172.87,396.08l48.27-17.63l1.64,0.19l1.38,2.9l-47.58,16.62C176.57,398.16,174.2,397.38,172.87,396.08z"></path> <path class="st12" d="M334.12,246.37l29.96,215.31l-103.03,13.99c0,0-17.27-0.61-18.34-16.05L215.5,263.95c0,0,0-15.75,12.84-18.5 l90-11.92C318.34,233.53,329.61,231.46,334.12,246.37z"></path> <path class="st8" d="M341.4,245.41l28.78,206.83c0.65,4.68-2.62,9-7.31,9.64l-94.54,12.83c0,0-17.27-0.61-18.34-16.05 l-27.21-195.67c0,0,0-15.75,12.84-18.5l90-11.92C325.62,232.57,336.89,230.51,341.4,245.41z"></path> <polygon class="st25" points="228.89,262.99 335.94,248.51 362.42,443.3 256.03,457.29 "></polygon> <path class="st172" d="M318.62,262.84c0,0,0.23-30.04-10.09-37.15c-10.32-7.11-18.34-2.41-18.34-2.41s-6.88-8.14-19.61-4.7 c-12.73,3.44-26.41,21.78-27.78,32.64c-1.38,10.85-4.13,22.47-3.82,39.44c0.31,16.97-30.51,72.55-18.26,92.23 c14.75,23.71,55.05,36.58,69.34,24.96c19.52-15.87-14.47-100.53-12.94-101.29c1.53-0.76-4.01-27.32-4.59-36.61l-4.24-0.34 c0,0-4.39-2.48-4.39-4.32c0-1.83,0-4.66,0-4.66s1.91-4.13,4.28-4.13s13.15,0.08,13.15,0.08s11.27-2.33,17.01-5.54 s12.27-10.89,12.38-11.69c0.11-0.8,6.42,22.47,6.76,23.27C317.82,263.41,318.62,262.84,318.62,262.84z"></path> <path class="st143" d="M302.88,307.25c0.25,1.04,8.1,2.83,8.1,2.83l4.59-23.08c0,0-1.76,1.99-7.64,4.51l-7.87-0.23l0.54,14.14 C300.59,305.41,302.5,305.64,302.88,307.25z"></path> <path class="st71" d="M268.18,256.5c22.3,0.7,32.62-5.03,38.09-10.9c2.11-2.26,5.86-1.39,6.72,1.57l4.49,15.44 c0,0,2.87,10.55,2.18,15.02c-0.69,4.47-1.25,8.39-9.51,12.85c0,0-0.92,0.91-5.99,0.93c-2.24,0.01-4.03,1.87-3.95,4.11l0.32,8.33 c0.04,1.11-0.37,2.18-1.16,2.96c-1.07,1.05-2.86,2.44-5.4,3.26c-3.86,1.26-9.18,0.57-10.55,0.36c-0.22-0.03-0.44-0.08-0.65-0.16 c-1.22-0.4-5.51-1.95-5.64-3.72c-0.12-1.68-3.08-24.82-4.18-33.42c-0.24-1.86-1.74-3.3-3.61-3.45l0,0 c-0.71-0.06-1.39-0.3-1.97-0.71c-1.18-0.83-3.11-2.3-3.38-3.23c-0.28-0.95-0.21-3.09-0.15-4.28c0.03-0.59,0.19-1.16,0.47-1.67 C264.99,258.57,266.41,256.44,268.18,256.5z"></path> <path class="st28" d="M365.71,303.66l17.73-2.14l5.96,52.59c0,0,1.38,8.56-9.32,10.85l-50.45-15.75c0,0,0,11.16-4.13,20.33 c-4.13,9.17,0,24.46,3.06,30.57c3.06,6.11,7.03,11.01,7.03,11.01s-17.2,6.73-35.54,6.96c0,0-21.55-0.92-24.31-5.96 c0,0,2.98-5.43,0.84-18.88c0,0-5.96-15.29-8.87-19.11c0,0-8.71-20.18-9.02-26.9l-48.54,13.99c0,0-7.11,0.8-10.32-1.95 s-4.7-10.89-4.7-10.89l-12.15-52.74l15.82-3.9l15.82,43.45l61.03-25.41c0,0,6.59,3.97,10.56,4.32s9.58-0.8,9.58-0.8 s4.14-1.96,7.57-5.57c0,0,43.67,16.21,61.79,26.37L365.71,303.66z"></path> <path class="st25" d="M278.79,308.5c0,0,3.79,2.59,8.53,2.31c4.75-0.28,6.88-0.74,6.88-0.74s4.85-2.5,6.38-4.66c0,0,2.06,0,2.8,2.3 c0,0-4.13,3.91-7.57,5.57c-3.44,1.66-11.03,0.55-11.03,0.55s-6.49-1.97-9.11-4.07c0,0-0.21-2.43,1.45-3.21L278.79,308.5z"></path> <path class="st12" d="M264.2,457.29l91.11-12.23c0,0-4.13-21.86-19.72-33.94c0,0-6.72,5.19-40.04,6.64c0,0-15.45-0.76-19.8-5.65 C275.75,412.11,262.98,436.76,264.2,457.29z"></path> <path class="st173" d="M401.63,210.71l7.99,18.83l14.33,33.76c0,0-16.97-1.91-19.87-1.68c-2.9,0.23-8.41,0.92-11.39,2.29 l-14.22,5.5l-11.08-27.13l14.6-6.42c0,0,7.41-5.73,10.7-10.55S401.63,210.71,401.63,210.71z"></path> <path class="st174" d="M417.87,229.77c-1.83-0.81-4.54-1.32-8.47-0.75l6.28,14.8c0,0,4.16-2.22,5.46-6.69 C422,234.16,420.68,231.02,417.87,229.77z"></path> <path class="st12" d="M352.03,248.51c-4.28,2.56-2.37,6.61-2.37,6.61s0.32,0.8,0.84,2.08c1.68,4.13,5.42,13.21,6.88,16.19 c1.91,3.9,6.71,2.22,6.71,2.22l14.39-6.19l-11.08-27.13L352.03,248.51z"></path> <path class="st8" d="M355.36,271.71c-0.09,0-0.17-0.01-0.25-0.04c-0.88-0.25-6.06-1.83-7.48-4.76c-1.55-3.21,0.25-8.63,2.59-10.39 l6.37,15.19H355.36z"></path> <path class="st175" d="M361.27,285.62c-0.61,1.91,1.15,3.07,1.15,3.07c-3.96,1.72-0.52,4.01-0.52,4.01l2.18-0.29 c-2.64,2.18,0.4,3.44,0.4,3.44l2.9-0.34c-0.36,0.92,0.82,1.83,0.82,1.83s14.62-1.43,16.45-2.52c1.83-1.09,0-3.1,0-3.1 c1.53-3.75-1.91-5.04-1.91-5.04c2.06-2.75-1.76-4.43-1.76-4.43c2.37-3.67-2.52-3.97-2.52-3.97l-15.13,5.81l-1.76,1.14 C361.44,285.32,361.32,285.46,361.27,285.62z"></path> <line class="st177" x1="363.85" y1="288.35" x2="377.71" y2="283.25"></line> <line class="st177" x1="364.85" y1="291.76" x2="379.08" y2="287.82"></line> <line class="st177" x1="367.77" y1="295.36" x2="382" y2="291.42"></line> <path class="st8" d="M378.47,269.89v8.39l-15.42,5.99l-4.57-9.42c0,0,1.7,1.47,3.65,1.11c1.95-0.36,3.22-0.91,3.22-0.91l13.12-5.64 V269.89z"></path> <path class="st178" d="M369.54,297.21c0,0,1.83,2.57,3.85,3.08c2.14,0.54,4.01-0.42,4.01-0.42s2.78-1.76,3.45-4.11L369.54,297.21z"></path> <path class="st140" d="M367.39,295.52c-0.21,1.4,0.96,1.83,0.96,1.83l12.5-1.59c0,0,0.65,5.6,0.62,5.99s-15.27,1.84-15.27,1.84 v-7.94L367.39,295.52z"></path> <path class="st145" d="M127.52,429.87l16.17,18.92l-1.61,25.11c0,0-4.59,1.26-6.48,0v-22.47c0,0-14.31-9.52-14.46-10.24 C120.95,440.23,126.42,431.86,127.52,429.87z"></path> <path class="st12" d="M91.87,453.26h13.18c0,0,5.27-21.1,6.76-24.65c0,0,8.51,2.72,15.71,1.26c0,0-14.9,26.94-17.83,29.81H91.52 C91.52,459.68,89.92,457.16,91.87,453.26z"></path> <path class="st179" d="M135.32,479.69c0,0,0.75,1.83,3.78,2.01c3.04,0.17,8.6,0,8.6,0l0.75-0.96l-0.57-1.04l-1.49-0.86l-5.45-0.4 c0,0-1.95,1.26-4.59-0.92C136.35,477.51,135.2,478.14,135.32,479.69z"></path> <path class="st180" d="M140.82,478.14l0.31-4.02c0,0-1.42,0.16-5.11,0v3.39c0,0,2.1,1.95,4.91,0.92"></path> <path class="st179" d="M83.92,453.99h3.21c0,0-0.01,0.04-0.03,0.11c-0.14,0.52-0.74,2.87-1.04,5.36c-0.34,2.83-0.54,5.2-0.54,5.2 s-0.8,1.87-2.22,2.41c-1.41,0.54-1.03-2.64-1.03-2.64l0.8-10.01C83.08,454.41,83.73,453.99,83.92,453.99z"></path> <path class="st180" d="M91.49,454.04c0,0-1.07,2.29-0.29,4.93l-4.12,0l-1.21,1.96c0,0,0.81-6.57,1.18-6.79 C87.43,453.92,91.49,454.04,91.49,454.04z"></path> <path class="st180" d="M122.71,403.35l-9.78-7.72l-1.3-16.36c0,0,2.06-2.14,2.06-2.41s-0.57-0.61-0.57-0.61l-2.56,1.18l-0.38-0.42 c0,0,1.68-4.2,1.76-4.66c0.08-0.46-1.03-0.8-1.03-0.8l-2.29,4.89v21.21l9.9,10.05C118.5,407.71,123.55,408.89,122.71,403.35z"></path> <path class="st180" d="M129.82,403.5c0,0,10.32-1.38,11.39-1.15l12.92-15.99l1.55-1.2h1.03c0,0-0.06,0.75,0,0.92 s-0.52,0.63-0.75,0.69c-0.23,0.06-2.64,2.41-2.64,2.41l-0.29,1.09c0,0,0.97,0.11,1.15,0.11c0.17,0,1.83,0.11,1.83,0.11 s0.06,0.4-0.17,0.63c-0.23,0.23-1.32,0.63-1.32,0.63l-0.92,0.29l-0.86,0.29l-9,13.99l-11.75,2.29 C131.99,408.61,130.22,406.89,129.82,403.5z"></path> <path class="st180" d="M123.4,401.96c0,0-0.4,0.57,0,0.8c0.4,0.23,1.38,1.03,1.38,1.03s0.86,0.75,1.43,0.8 c0.57,0.06,1.32-0.57,1.32-0.57l0.52-0.4l0.75-2.58c0,0,1.09,0.57,1.26,0.63c0.17,0.06,1.15-0.06,1.61-0.11 c0.46-0.06,0.92-0.23,1.26-0.52c0.34-0.29,1.26-1.61,1.26-1.78c0-0.17,0.34-7.62,0.34-7.62l-0.63-1.15c0,0-1.43,2.35-3.67,2.64 c-2.24,0.29-4.99-0.46-4.99-0.46l-1.09-0.4l-0.92-0.06l-0.42,0.57v0.52l0.36,0.92l0.46,0.29l0.69,0.11c0,0,0.23,0.8,0.23,0.97 c0,0.17,0,1.29,0,1.29s-0.06,0.77-0.06,1c0,0.23-0.29,0.69-0.34,1.03c-0.06,0.34-0.06,0.29-0.29,0.75 c-0.23,0.46-0.52,0.92-0.52,0.92l-0.54,0.92L123.4,401.96z"></path> <path class="st181" d="M115.7,397.82l2.99-4.3l1.83-2.18c0,0,1.55-2.12,1.89-2.41s1.49-1.72,1.89-1.89s2.81-1.55,2.81-1.55 s1.18-0.34,1.54-0.34c0.35,0,2.48,0.52,2.48,0.52l2.06,1.55l1.32,0.69c0,0,0.86,0.92,1.03,1.2c0.17,0.29,0.34,0.8,0.4,1.09 c0.06,0.29,0.17,0.23,0.23,1.29s0.23,2.5,0,2.72c-0.23,0.23-0.29,1.03-0.46,1.61c-0.17,0.57-1.47,1.72-1.47,1.72l0.27-5.91 l-0.63-1.15c0,0-0.81,2.08-4.64,2.7c0,0-2.86,0.17-5.1-0.92l-0.92-0.06l-0.31,0.43l-0.1,0.4v0.43l0.23,0.41l0.13,0.33l0.46,0.29 l0.69,0.11c0,0,0.63,2.06,0.13,3.46s-1.64,3.41-1.64,3.41l-1.93,0.41L115.7,397.82"></path> <path class="st181" d="M112.79,401.9l5.37,5.46c0,0,0.33,8.53,0,8.87c-0.33,0.34-1.7,2.29-1.7,2.29s-5.85-1.43-8.14-3.96 c-2.29-2.52-2.64-6.75-2.64-6.75S110.13,406.19,112.79,401.9z"></path> <polygon class="st181" points="128.12,403.35 129.82,403.5 131.19,403.35 131.19,401.61 130.16,401.68 128.78,401.04 "></polygon> <path class="st29" d="M128.12,429.87l-0.59-10.72c0,0-0.29-1.72,0-2.01s1.15-1.55,1.38-1.78c0.23-0.23,2.29-1.83,2.29-1.83 l0.92-1.61l-0.11-3.32c0,0-2.35-2.64-2.18-5.1l-1.7-0.15c0,0-0.51,0.79-1.45,1.25c0,0-0.83,0.28-1.89-0.81c0,0-1.15-0.95-1.55-1.29 l0.17-0.54l-0.59-0.46l-1.93,0.41l1.83,1.45c0,0,0.78,2.13-0.9,3.76c0,0-1.54,0.98-3.3,0.59l-0.33-0.13c0,0,0.26,6.75,0.12,7.43 l-0.07,1.05l-1.76,2.46c0,0-4.57,7.68-4.64,10.09c0,0,4.55,1.45,8.98,1.62C125.23,430.41,128.12,429.87,128.12,429.87z"></path> <path class="st71" d="M603.18,98.89l41.5,37.15l0.84,0.84l-5.04,5.81c0,0-7.83,20.98-14.94,31.07s-13.41,17.24-13.41,17.24 s-14.06,21.71-16.82,25.68c-2.75,3.97-6.73,6.88-10.09,21.4l-2.75,24.61c0,0-13.3,1.83-16.82-10.09c-3.52-11.92-2.75-26.14,0-33.63 s5.66-21.71,4.28-29.81c-1.38-8.1-5.5-15.29-11.77-19.26h-3.36c0,0-17.27,20.48-25.07,33.02l-1.38,3.97c0,0,1.99,34.85-4.89,47.08 c0,0-3.06,3.82-5.04,5.96l-6.88-0.15c0,0-1.99,0.15-3.52-13.15c0,0-3.36-24-3.06-38.52c0,0-1.49-8.79-0.02-13.45 c1.47-4.66,8.01-21.59,9.5-26.52c1.49-4.93,2.29-13.87,8.48-29.12c0,0,4.13-6.88,6.19-8.14c2.06-1.26,40.2-8.06,40.2-8.06 s8.1-1.68,11.31-4.74C583.85,115.02,603.18,98.89,603.18,98.89z"></path> <g> <g> <path class="st166" d="M349.33,472.37l0.23-3.67l-1.26-0.8l0.46-3.9l-0.8-1.15l-0.34-8.14l1.72-2.75l0.23-2.75l-2.79-5.92 l3.13-16.78l12.68-15.17c0,0,28.82-6.84,48.77,3.59c0,0,3.9,1.72,4.7,6.99v13.34l-1.41,1.07l2.43,33.93c0,0-1.01,1.65-3.03,5.41 C414.04,475.67,381.29,488.6,349.33,472.37z"></path> <path class="st168" d="M393.01,421.89l4.99-2.93c0.23-0.14,0.39-0.36,0.45-0.62l-0.01-0.66l-0.32-0.17l-9.29-0.4 c0,0-4.47-4.41-4.64-4.47c-0.17-0.06-4.24-0.17-4.24,0c0,0.17-2.52,3.97-2.52,3.97l-10.2-0.11c0,0-3.21,1.3-2.12,2.5 c1.09,1.2,6.94,3.38,6.94,3.38l-1.2,4.24c0,0-0.57,1.61,4.87,1.43l4.87-2.06c0,0,2.92-0.57,3.73-0.06s5.56,2.13,5.56,2.13 s4.11,0.77,3.78-0.93c-0.34-1.78-0.92-5.25-0.92-5.25"></path> <path class="st167" d="M413.34,444.13c0,0-10.47,8.1-28.36,8.06c-7.86-0.02-13.06-0.62-16.42-0.86 c-3.81-0.28-7.56-1.13-11.1-2.58c-3.06-1.25-6.59-2.92-8.48-4.62"></path> <path class="st167" d="M413.34,437.34c0,0-10.47,8.1-28.36,8.06c-7.86-0.02-13.06-0.62-16.42-0.86 c-3.81-0.28-7.56-1.13-11.1-2.58c-3.06-1.25-6.59-2.92-8.48-4.62"></path> <path class="st167" d="M413.88,431.04c0,0-11.01,7.32-28.89,7.29c-7.86-0.02-13.06-0.62-16.42-0.86 c-3.81-0.28-7.56-1.13-11.1-2.58c-2.03-0.83-4.27-1.84-6.1-2.93"></path> <path class="st167" d="M413.88,452.19c0,0-11.58,6.19-28.89,7.01c-7.85,0.37-13.06-0.62-16.42-0.86 c-3.81-0.28-7.56-1.13-11.1-2.58c-3.06-1.25-6.59-2.92-8.48-4.62"></path> <path class="st167" d="M413.88,459.28c-6.21,3.35-22.62,5.99-29.72,5.98c-7.86-0.02-13.06-0.62-16.42-0.86 c-3.81-0.28-7.56-1.13-11.1-2.58c-3.06-1.25-6.59-2.92-8.48-4.62"></path> <path class="st167" d="M414.78,466.61c-4.51,2.14-23.53,5.37-30.62,5.35c-7.86-0.02-13.06-0.62-16.42-0.86 c-3.81-0.28-7.56-1.13-11.1-2.58c-3.06-1.25-6.59-2.92-8.48-4.62"></path> <path class="st170" d="M351.01,427.57c5.77,3.5,16.71,5.87,29.26,5.87c18.56,0,33.6-5.17,33.6-11.55s-15.05-11.55-33.6-11.55 c-6.81,0-13.14,0.7-18.44,1.89"></path> <path class="st171" d="M411.05,428.24l-48.27-17.63l-1.64,0.19l-1.38,2.9l47.58,16.62C407.34,430.33,409.71,429.55,411.05,428.24 z"></path> </g> <g> <path class="st251" d="M349.57,415.81v8.56c0,0,6.34,9.78,32.75,9.67c0,0,25.26-0.76,31.11-10.36v-8.45l-34.74,10.43 L349.57,415.81z"></path> <ellipse class="st252" cx="381.9" cy="415.81" rx="32.33" ry="11.69"></ellipse> <ellipse class="st251" cx="381.67" cy="415.24" rx="29.35" ry="9.52"></ellipse> <path class="st253" d="M370.74,421.69l0.69-4.43l-5.43-2.9v-1.38l0.76-0.84l1.53-0.46h8.41l3.67-4.28c0,0,0.31-0.38,0.54-0.38 c0.23,0,1.45,0,1.45,0l1.99,0.38l3.06,3.82l9.02,0.31c0,0,0.84,0,1.15,0.23c0.31,0.23,1.07,1.15,1.07,1.15s0,1.53,0,1.76 c0,0.23-6.65,2.22-6.65,2.22l0.99,4.82l-0.38,1.07l-1.38,0.46c0,0,0.15,0.23-1.68,0c-1.83-0.23-6.88-2.75-6.88-2.75l-8.18,2.85 l-1.72,0.36h-1.11l-0.61-0.76L370.74,421.69z"></path> <path class="st254" d="M360.11,425.44l46.43-17.2c0,0-3.47-1.35-5.36-1.82l-45.77,16.49 C355.41,422.92,357.71,424.87,360.11,425.44z"></path> <path class="st254" d="M368.03,427.5l42.99-16.28c0,0-2.51-2.07-2.98-2.29c-0.47-0.23-45.63,17.31-45.63,17.31 S365.85,427.27,368.03,427.5z"></path> </g> <polygon class="st169" points="383.68,427.47 379.18,427.47 388.18,480.45 393.2,480.08 "></polygon> <path class="st169" d="M363.95,428.87l8.81,50.71c0,0,7.32,1.74,13.43,0.95l-9.23-53.06l-13.76-1.8L363.95,428.87z"></path> </g> <g> <polygon class="st199" points="718.2,371.82 723.53,362.51 728.51,371.82 739.18,374 732.87,381.68 733.22,392.23 723.7,388.1 714.41,392.92 714.41,381.8 708.11,373.88 "></polygon> <path class="st200" d="M723.53,362.51c0.11,0,2.49,0,2.49,0l5.16,8.91l9.72,1.89v1.26l-6.48,7.51l0.75,10.83l-1.95-0.69 l-0.34-10.55l6.31-7.68l-10.66-2.18L723.53,362.51z"></path> <polygon class="st201" points="714.41,382.77 725.72,366.6 726.93,368.86 714.41,387.07 "></polygon> <polygon class="st201" points="714.37,391.48 728.51,371.82 733.42,372.82 723.7,388.1 714.41,392.92 "></polygon> <polygon class="st200" points="714.41,392.92 716.1,393.09 724.91,388.63 723.7,388.1 "></polygon> </g> <g> <polygon class="st199" points="129.99,354.98 135.32,345.67 140.31,354.98 150.97,357.16 144.66,364.84 145.01,375.39 135.49,371.26 126.21,376.08 126.21,364.96 119.9,357.05 "></polygon> <path class="st200" d="M135.32,345.67c0.11,0,2.49,0,2.49,0l5.16,8.91l9.72,1.89v1.26l-6.48,7.51l0.75,10.83l-1.95-0.69 l-0.34-10.55l6.31-7.68l-10.66-2.18L135.32,345.67z"></path> <polygon class="st201" points="126.21,365.93 137.51,349.76 138.72,352.02 126.21,370.23 "></polygon> <polygon class="st201" points="126.16,374.65 140.31,354.98 145.21,355.98 135.49,371.26 126.21,376.08 "></polygon> <polygon class="st200" points="126.21,376.08 127.9,376.25 136.7,371.79 135.49,371.26 "></polygon> </g> </g> </svg> 