<?xml version="1.0" encoding="UTF-8"?> <svg xmlns="http://www.w3.org/2000/svg" id="Capa_1" data-name="Capa 1" viewBox="0 0 78.18 56.75"> <defs> <style>.cls-1{fill:#00bfbf;}</style> </defs> <title>1-1</title> <path class="cls-1" d="M.36,29.52a24.46,24.46,0,0,1,1.78-6.68A60.5,60.5,0,0,1,5.26,16.6,38.43,38.43,0,0,1,14.61,5.68a31.47,31.47,0,0,1,3.57-2.33L22,1.23A14.71,14.71,0,0,1,26.42,0C27.61-.07,28.79.78,30,2.57A3.44,3.44,0,0,1,30.32,6a11.9,11.9,0,0,1-3.9,3.9Q25.09,11,22.3,13.71a15,15,0,0,0-3.68,4.9,3.32,3.32,0,0,0,.56,3.78,9.63,9.63,0,0,0,3.9,2.45,17,17,0,0,1,5.35,3.57,15.42,15.42,0,0,1,5.34,11.14,14.35,14.35,0,0,1-4.23,11.8A15.57,15.57,0,0,1,18.18,56.7,14.64,14.64,0,0,1,7.49,53.36,18.35,18.35,0,0,1,.8,43.11,41.78,41.78,0,0,1,.36,29.52Zm44.33,0a24.46,24.46,0,0,1,1.78-6.68,60.5,60.5,0,0,1,3.12-6.24A38.31,38.31,0,0,1,59,5.68a30.51,30.51,0,0,1,3.56-2.33L66.3,1.23A14.71,14.71,0,0,1,70.75,0c1.19-.07,2.38.78,3.57,2.57A3.44,3.44,0,0,1,74.65,6a11.9,11.9,0,0,1-3.9,3.9Q69.41,11,66.63,13.71A14.77,14.77,0,0,0,63,18.61a3.3,3.3,0,0,0,.55,3.78,9.7,9.7,0,0,0,3.9,2.45,17,17,0,0,1,5.35,3.57A15.42,15.42,0,0,1,78.1,39.55a14.31,14.31,0,0,1-4.23,11.8A15.55,15.55,0,0,1,62.51,56.7a14.64,14.64,0,0,1-10.69-3.34,18.35,18.35,0,0,1-6.69-10.25A41.78,41.78,0,0,1,44.69,29.52Z"></path> </svg> 