<?xml version="1.0" encoding="UTF-8"?> <svg xmlns="http://www.w3.org/2000/svg" xmlns:xlink="http://www.w3.org/1999/xlink" viewBox="0 0 147.24 147.24"> <defs> <style>.cls-1{fill:none;}.cls-2{isolation:isolate;}.cls-3{opacity:0.22;}.cls-4{clip-path:url(#clip-path);}.cls-5,.cls-7{mix-blend-mode:multiply;}.cls-6{clip-path:url(#clip-path-2);}.cls-7{opacity:0.42;}.cls-8{fill:#2fb5b8;}.cls-9{fill:#fff;stroke:#fff;stroke-miterlimit:10;stroke-width:0.25px;}</style> <clipPath id="clip-path"> <rect class="cls-1" x="-2.35" y="185.56" width="1680" height="900"></rect> </clipPath> <clipPath id="clip-path-2"> <rect class="cls-1" x="-1875.35" y="185.56" width="1680" height="900"></rect> </clipPath> </defs> <title>grafica help center</title> <g class="cls-2"> <g id="Capa_1" data-name="Capa 1"> <circle class="cls-8" cx="73.62" cy="73.62" r="73.62"></circle> <path class="cls-9" d="M59.42,111.81H55.27a9.35,9.35,0,0,1-9.35-9.34V88.91a4.76,4.76,0,0,0-4.75-4.76,9.37,9.37,0,0,1-9.36-9.34V60.42a9.37,9.37,0,0,1,9.36-9.35H59.41a9.37,9.37,0,0,1,9.36,9.35v42.05A9.37,9.37,0,0,1,59.42,111.81ZM41.18,55.67a4.77,4.77,0,0,0-4.81,4.72V74.81a4.76,4.76,0,0,0,4.77,4.75,9.35,9.35,0,0,1,9.34,9.35v13.56a4.76,4.76,0,0,0,4.76,4.75h4.15a4.75,4.75,0,0,0,4.75-4.75h0v-42a4.75,4.75,0,0,0-4.75-4.75H41.18Z"></path> <path class="cls-9" d="M57.2,65.87h-13a2.31,2.31,0,0,1,0-4.6h13a2.31,2.31,0,0,1,0,4.6Z"></path> <path class="cls-9" d="M57.2,74.54h-13a2.31,2.31,0,0,1,0-4.6h13a2.31,2.31,0,0,1,0,4.6Z"></path> <path class="cls-9" d="M99.39,82a2.3,2.3,0,0,1-2.3-2.3V54.24a2.3,2.3,0,0,1,4.59,0V79.7A2.3,2.3,0,0,1,99.39,82Z"></path> <path class="cls-9" d="M109,99.65a6.56,6.56,0,0,1-2.79-.65L74.9,84a2.3,2.3,0,0,1,2-4.14h0l31.33,15a1.81,1.81,0,0,0,2.6-1.63V40.48A1.82,1.82,0,0,0,109,38.66a1.77,1.77,0,0,0-.84.21L77,55.4a2.3,2.3,0,0,1-2.14-4.07L106,34.81a6.45,6.45,0,0,1,9.42,5.67V93.23A6.44,6.44,0,0,1,109,99.67Z"></path> </g> </g> </svg> 