<?xml version="1.0" encoding="UTF-8"?> <svg xmlns="http://www.w3.org/2000/svg" id="Layer_1" data-name="Layer 1" viewBox="0 0 95.83 95.83"> <defs> <style>.cls-1{fill:#00bfbf;stroke:#fff;stroke-miterlimit:10;stroke-width:4px;}.cls-2{fill:#fff;}</style> </defs> <title>DIAG COLOR</title> <circle class="cls-1" cx="47.92" cy="47.92" r="45.92"></circle> <path class="cls-2" d="M26,33.73l8.84-8.9L49.27,39.26c.67-.63,1.22-1.13,1.75-1.66,3.21-3.2,6.4-6.42,9.62-9.6a5.31,5.31,0,0,1,3.7-1.94,4.36,4.36,0,0,1,4.28,2.41,4.22,4.22,0,0,1-.28,4.7,17.07,17.07,0,0,1-1.62,1.88Q51.92,49.89,37.11,64.7a6.5,6.5,0,0,1-3.67,2c-1.18.19-2.31.67-3.49.93-.76.16-1.56.17-2.55.28,0-.85-.11-1.42-.09-2,0-.29.2-.57.24-.86a15,15,0,0,1,5.61-9.7c2.51-2.16,4.77-4.6,7.36-7.13ZM62.33,30.3,31.58,61l2.82,2.69L65.06,33.07Zm-33,2.91L42.18,46.05l4.15-3.82-.65-1.31.62-1.27-.87-.77-2.09,1.74-1.57-1.21,1.87-2.47-.8-.69-1.46.61-1.26-1.07.74-1.64-.9-.69-2.09,1.71-1.37-1.5,1.79-2.2-.64-.76-1.74.71-1.14-1.23.64-1.55-.56-.36Z"></path> <path class="cls-2" d="M47.92,54.91a2.45,2.45,0,0,1,.35-.49c.21-.2.47-.35.93-.69L61.78,66.27,66,61.58l-1.28-1.53.65-1.24-.69-.92-2.27,1.73L61,58.18l1.67-2L62,55.27l-1.73.7-1.09-1.22.68-1.46-.76-.83L57,54.15,55.5,52.82l1.69-2.11-.64-.9L55,50.48,53.65,49l2.52-2.33c1.39.73,12.14,11.25,14.12,13.83C69.46,62,63.82,67.75,62.07,69Z"></path> </svg> 