<?xml version="1.0" encoding="UTF-8"?> <svg xmlns="http://www.w3.org/2000/svg" id="Capa_1" data-name="Capa 1" viewBox="0 0 33.06 30.48"> <defs> <style>.cls-1{fill:#174669;}</style> </defs> <title>1851324</title> <path class="cls-1" d="M32.94,9a20.91,20.91,0,0,0,.12-3.07c0-.38,0-.75,0-1.13a1.33,1.33,0,0,0-.3-1,1.38,1.38,0,0,0-1-.32H28.3V2.69c0-.46,0-.9,0-1.33a1.42,1.42,0,0,0-.75-1.49h-22a1.41,1.41,0,0,0-.75,1.49c0,.45,0,.91,0,1.35v.73H1.22A1.08,1.08,0,0,0,0,4.64C0,5.91,0,7.05,0,8.21a4.52,4.52,0,0,0,3.73,4.4,10.06,10.06,0,0,0,2.51.1,3.71,3.71,0,0,1,3.11,1.12,11.19,11.19,0,0,1,3.18,4.45A14.47,14.47,0,0,1,13,20.22c.06.31.12.63.19,1l0,.15h-6c-.75,0-1.23.41-1.24,1.05a1,1,0,0,0,.27.72,1.35,1.35,0,0,0,1,.36c.21,0,.42,0,.64,0h.43v5H7.77a7.2,7.2,0,0,0-.81,0A1.06,1.06,0,0,0,7,30.6H25.84a1.39,1.39,0,0,0,1-.36,1,1,0,0,0,.27-.72c0-.66-.49-1.05-1.29-1.06h-1v-5h.42c.2,0,.4,0,.59,0a1.49,1.49,0,0,0,1.06-.36,1,1,0,0,0,.26-.72c0-.65-.51-1.05-1.3-1.05H20v-.13a9.2,9.2,0,0,1,1.33-4.59,13.44,13.44,0,0,1,3-3.27l.53-.45a1.06,1.06,0,0,1,.63-.15h1.29c.59,0,1.21,0,1.8,0A4.51,4.51,0,0,0,32.94,9ZM6,10.57H5a5.74,5.74,0,0,1-.71,0A2.45,2.45,0,0,1,2.14,8.13c0-.54,0-1.08,0-1.64V5.61H4.62l0,.09L6.2,10.57ZM22.58,23.5v4.94H10.51V23.5ZM22.6,12a12.31,12.31,0,0,0-4.44,6.7c-.13.54-.2,1.09-.28,1.67,0,.26-.07.53-.11.8l0,.11H15.29v-.11c0-.2,0-.39-.07-.59,0-.42-.09-.85-.17-1.26A11.37,11.37,0,0,0,10.9,12.4a10,10,0,0,1-4-8.65c0-.35,0-.69,0-1,0-.17,0-.35,0-.53V2H26.1v.12C26.54,6.56,25.43,9.69,22.6,12Zm8.27-3.48a2.41,2.41,0,0,1-2.4,2.06H26.86l1.59-5h2.44v.12c0,.29,0,.57,0,.86A12.47,12.47,0,0,1,30.87,8.53Z"></path> </svg> 