<?xml version="1.0" encoding="UTF-8"?> <svg xmlns="http://www.w3.org/2000/svg" id="Capa_1" data-name="Capa 1" viewBox="0 0 45.05 45.05"> <defs> <style>.cls-1{fill:#13456a;}.cls-2{fill:#fff;}</style> </defs> <title>Sin título-3</title> <circle class="cls-1" cx="22.52" cy="22.52" r="22.52"></circle> <g id="mlK1rq.tif"> <path class="cls-2" d="M28.48,24.76c.85-.5,1.68-1,2.54-1.47a3.7,3.7,0,0,1,1.22-.46,1.42,1.42,0,0,1,1.61.84,1.52,1.52,0,0,1-.3,1.8,4.6,4.6,0,0,1-.88.64c-2,1.19-4,2.34-6.05,3.54a2.46,2.46,0,0,1-2.39.18c-1.14-.48-2.3-.93-3.45-1.38A6.5,6.5,0,0,0,18,28c-.52,0-.86.16-.81.75s-.29.58-.7.58c-1.76,0-3.52,0-5.27,0-.71,0-.73,0-.74-.75q0-3.16,0-6.31c0-.71,0-.74.75-.74,1.57,0,3.14,0,4.71,0a6.43,6.43,0,0,0,.88,0c1.09-.14,1.24-.34,1.05-1.39A6.68,6.68,0,1,1,29,24l-.34.28-.32.29ZM27,24.29a5.54,5.54,0,0,0,3.3-6,5.7,5.7,0,0,0-4.34-4.79,5.6,5.6,0,0,0-6.05,2.06,5.52,5.52,0,0,0-1.15,4.59c.08.43.23.59.72.57a3.94,3.94,0,0,1,1.48.25c1.54.56,3.06,1.2,4.6,1.77A2,2,0,0,1,27,24.29Zm-9.77.48c0,.55,0,1.09,0,1.63,0,.77,0,.81.81.79a8.82,8.82,0,0,1,3.63.68c.94.4,1.92.72,2.84,1.15a1.83,1.83,0,0,0,1.85-.15c2-1.18,4-2.32,6-3.48a3.94,3.94,0,0,0,.55-.35.76.76,0,0,0-.75-1.32,6.78,6.78,0,0,0-1,.51c-1.71,1-3.41,2-5.1,3a1.37,1.37,0,0,1-1.43.14c-.72-.33-1.49-.58-2.23-.9A1,1,0,0,1,21.76,25a1,1,0,0,1,1.36-.54c.63.19,1.23.45,1.85.67a.75.75,0,0,0,1-.43.71.71,0,0,0-.39-1,6.5,6.5,0,0,0-.61-.25c-1.25-.49-2.55-.9-3.76-1.49A3.64,3.64,0,0,0,18,22c-.53.22-.84.5-.79,1.12S17.18,24.23,17.18,24.77Zm-1,3.75V26c0-1,0-1.95,0-2.92,0-.49-.15-.74-.69-.73-1.17,0-2.34,0-3.5,0-.43,0-.72.11-.71.6v5c0,.39.17.61.58.61Zm10.35-2.84a2.6,2.6,0,0,1-2.63-.08,6.2,6.2,0,0,0-.91-.33c-.15,0-.32.07-.49.12a10.15,10.15,0,0,0,1.47.83A1.82,1.82,0,0,0,26.55,25.68Z"></path> <path class="cls-2" d="M24.69,21.71s-.15.09-.23,0c-.15-.82-.63-.61-1.15-.65s-.55-.61-.09-.58a4.18,4.18,0,0,0,.57.08,2.76,2.76,0,0,0,1.06.07,1.42,1.42,0,0,0,.76-.67.8.8,0,0,0-.36-1c-.35-.24-.75-.43-1.13-.64A1.42,1.42,0,0,1,24,15.6c.44-.27.53-.27.58-.88.26-.45.35.07.4.62.26.2,1,.16,1.19.46a.2.2,0,0,1-.05.22c-.14.12-.36.05-.55.05a4.89,4.89,0,0,0-1.08,0,.77.77,0,0,0-.37,1.39,6.25,6.25,0,0,0,.94.55,4.31,4.31,0,0,1,.91.59,1.43,1.43,0,0,1-.36,2.3C25,21.33,25,21,24.69,21.71Z"></path> <path class="cls-2" d="M15.4,24.13c-.16.14-.38.45-.66.53s-.67-.16-.75-.56a.66.66,0,0,1,.54-.79A.82.82,0,0,1,15.4,24.13Z"></path> </g> </svg> 