<?xml version="1.0" encoding="UTF-8"?> <svg xmlns="http://www.w3.org/2000/svg" id="Capa_1" data-name="Capa 1" viewBox="0 0 31.14 35.66"> <defs> <style>.cls-1{fill:#053857;}</style> </defs> <title>111</title> <path class="cls-1" d="M19.34,33.27H18.1l-.49-.11L16.66,33l-.88-.17-.91-.17-1.32-.25-.91-.17-.89-.16-1.29-.25-1.29-.24-1.38-.26-.85-.16L5.63,30.9l-.89-.17-1-.19-.86-.16-1.31-.25v-.36s0-.07,0-.11c.1-.72.19-1.45.29-2.17s.15-1.28.23-1.92l.09-.64c0-.44.11-.88.17-1.32s.11-.89.17-1.34.12-1,.19-1.47.1-.83.16-1.24l.18-1.43c.06-.43.11-.85.16-1.28s.13-.93.19-1.39.1-.86.16-1.28l.18-1.37c.07-.48.14-1,.2-1.44a.69.69,0,0,1,.54-.6l.93-.3,1.28-.4.92-.29a.18.18,0,0,0,.1-.11c.07-.24.13-.49.2-.73.19-.56.37-1.13.59-1.69A11.48,11.48,0,0,1,9.63,5.13a6.86,6.86,0,0,1,2.52-2.47,1.62,1.62,0,0,1,.77-.27H15a.41.41,0,0,1,.24.08,6.41,6.41,0,0,1,.55.49.25.25,0,0,0,.21.1A2.76,2.76,0,0,1,18,3.84,5.45,5.45,0,0,1,19.25,6c.05.13.08.15.21.11l.75-.23c.15,0,.18,0,.18.14,0,.6-.05,1.19-.07,1.79l-.15,3.73c0,1.18-.09,2.36-.13,3.54-.06,1.51-.11,3-.17,4.54l-.18,4.59c-.06,1.31-.1,2.63-.15,3.94-.05,1.15-.09,2.3-.14,3.44ZM6.6,24.19c0,.07-.06.13-.08.19-.11.35-.21.69-.31,1l-.39,1.26a.29.29,0,0,0,.09.31,5.71,5.71,0,0,0,1.36,1,6.16,6.16,0,0,0,2.65.74A4.77,4.77,0,0,0,12,28.45a4.08,4.08,0,0,0,1.79-1.33,4.5,4.5,0,0,0,.82-1.74c.07-.31.11-.62.15-.92a4.35,4.35,0,0,0-1.32-3.8,18.51,18.51,0,0,0-1.53-1.25,8.13,8.13,0,0,1-1-.81,1.22,1.22,0,0,1-.1-1.62,1.63,1.63,0,0,1,1.24-.63,4.19,4.19,0,0,1,1.65.12c.32.09.64.2.95.32.16.06.19.06.24-.11l.25-.76c.16-.46.31-.91.46-1.37l.3-.91c.12-.35.14-.29-.19-.42a5.57,5.57,0,0,0-1.39-.3,7.78,7.78,0,0,0-3.11.32,5.56,5.56,0,0,0-1.71.88,5.47,5.47,0,0,0-2,3.1,5.63,5.63,0,0,0-.14,1.83,3.63,3.63,0,0,0,.45,1.5,5.64,5.64,0,0,0,1.34,1.5c.36.3.71.59,1,.91a1.77,1.77,0,0,1,.57,1.58,1.21,1.21,0,0,1-.83.94,2.14,2.14,0,0,1-1.3-.11,5.93,5.93,0,0,1-1.47-.78ZM9,9.34l.23-.06,1-.31,1.1-.35a.24.24,0,0,0,.1-.12c0-.13.05-.27.09-.4A10.63,10.63,0,0,1,12.26,6a5.55,5.55,0,0,1,2.27-2.52s.05,0,.05-.06a.07.07,0,0,0-.06-.06,1.56,1.56,0,0,0-.41-.08,3.16,3.16,0,0,0-2,.69,6.58,6.58,0,0,0-1.87,2.29,16.44,16.44,0,0,0-.72,1.53c-.19.47-.35,1-.52,1.46A1,1,0,0,0,9,9.34ZM12.69,8.2l.23-.07,1.45-.44,1.26-.4a.13.13,0,0,0,.12-.15,8.19,8.19,0,0,0-.33-2.56c-.06-.18-.09-.19-.25-.11A4.5,4.5,0,0,0,13.4,6.34a8.36,8.36,0,0,0-.6,1.45C12.76,7.92,12.73,8,12.69,8.2Zm4.14-1.93v.44c0,.18,0,.2.2.15.33-.11.65-.23,1-.31s.27-.13.18-.37a4.79,4.79,0,0,0-.71-1.34,1.6,1.6,0,0,0-.87-.62q-.14,0-.09.09c0,.09,0,.17.07.26A8.09,8.09,0,0,1,16.83,6.27Z"></path> <path class="cls-1" d="M21.37,30.8c.06-1.81.13-3.63.2-5.44s.15-3.86.22-5.79c0-.35,0-.71.05-1.06,0-1.14.08-2.28.13-3.42.06-1.66.13-3.32.2-5,0-1,.07-2.07.1-3.1,0-.08,0-.16.06-.25l.2.15.78.78a.41.41,0,0,0,.21.1c.65.06,1.31.1,2,.15l.4,0a.3.3,0,0,1,.3.26c0,.28.08.56.13.85l.18,1.19c0,.19.05.38.08.57l.27,1.84c.06.4.11.79.17,1.19s.15,1,.23,1.56l.18,1.24.18,1.17c0,.38.11.75.16,1.12s.13.85.19,1.27.11.76.16,1.14l.18,1.2c.06.4.12.79.17,1.18s.13.8.18,1.2.11.76.17,1.14L29,27.33c.05.35.11.71.16,1.07s.13.87.19,1.3.11.79.17,1.18l.06.41c0,.06,0,.09-.08.11l-1.17.26-.79.17-1.48.32-1.13.25-1.13.24-.74.16-.79.18-.82.17c-.14,0-.17,0-.16-.13,0-.74.06-1.48.08-2.22Z"></path> </svg> 