<?xml version="1.0" encoding="UTF-8"?> <svg xmlns="http://www.w3.org/2000/svg" id="Capa_1" data-name="Capa 1" viewBox="0 0 189.63 189.63"> <defs> <style>.cls-1{fill:#fff;}.cls-2,.cls-3{fill:#ffe8ba;}.cls-3{stroke:#d39330;stroke-linecap:round;stroke-linejoin:round;stroke-width:7px;}</style> </defs> <title>emojis</title> <circle class="cls-1" cx="94.81" cy="94.81" r="94.81"></circle> <circle class="cls-2" cx="94.81" cy="94.6" r="78.69"></circle> <path class="cls-3" d="M127.34,88.7a6.84,6.84,0,0,1,0,13.67H120v.33h5a6.83,6.83,0,0,1,6.84,6.83h0a6.84,6.84,0,0,1-6.84,6.84H102.79c0,15.31-.22,23.17-8,27.43-2.85,1.56-6.35,1.58-7.86-1.29a3.71,3.71,0,0,1-.47-1.73V126.6c0-12.79-10.26-17.24-17.33-17.24H58.42a3,3,0,0,1-3-3V73a3,3,0,0,1,3-3h7a30.13,30.13,0,0,0,15.29-4.17h0c4.63-2.73,14.15-5.17,24-5.17h16.24a6.83,6.83,0,0,1,0,13.66h-2.47l0,.33H125a6.84,6.84,0,1,1,0,13.67h-5.43c0,.11,0,.22,0,.33Z"></path> </svg> 