<?xml version="1.0" encoding="UTF-8"?> <svg xmlns="http://www.w3.org/2000/svg" id="Capa_1" data-name="Capa 1" viewBox="0 0 41.9 27.99"> <defs> <style>.cls-1{fill:#053857;}</style> </defs> <title>111</title> <path class="cls-1" d="M36.73,28H5.17A5.18,5.18,0,0,1,0,22.82V20.89a1.26,1.26,0,0,1,1.18-1.25,5.66,5.66,0,0,0,0-11.29A1.26,1.26,0,0,1,0,7.1V5.17A5.18,5.18,0,0,1,5.17,0H36.73A5.18,5.18,0,0,1,41.9,5.17V7.1a1.26,1.26,0,0,1-1.18,1.25,5.66,5.66,0,0,0,0,11.29,1.26,1.26,0,0,1,1.18,1.25v1.93A5.18,5.18,0,0,1,36.73,28ZM1.66,21.26v1.56a3.51,3.51,0,0,0,3.51,3.51H36.73a3.51,3.51,0,0,0,3.51-3.51V21.26a7.31,7.31,0,0,1,0-14.53V5.17a3.51,3.51,0,0,0-3.51-3.51H5.17A3.51,3.51,0,0,0,1.66,5.17V6.73a7.31,7.31,0,0,1,0,14.53Z"></path> <path class="cls-1" d="M15,10.12a2.52,2.52,0,0,1,.79-1.94,2.9,2.9,0,0,1,2.1-.74A3,3,0,0,1,20,8.17a2.65,2.65,0,0,1,.77,2v.64A2.58,2.58,0,0,1,20,12.75a3,3,0,0,1-2.1.73,3,3,0,0,1-2.11-.73,2.56,2.56,0,0,1-.8-2Zm1.94.69a1.07,1.07,0,0,0,.26.75.91.91,0,0,0,.71.28c.62,0,.94-.39.94-1.18v-.54a1.15,1.15,0,0,0-.25-.75.87.87,0,0,0-.71-.3.85.85,0,0,0-.69.29,1.08,1.08,0,0,0-.26.78Zm1.54,8.83-1.4-.7L23.4,8.78l1.4.71Zm2.7-2.21a2.49,2.49,0,0,1,.79-1.94,2.94,2.94,0,0,1,2.1-.74,3,3,0,0,1,2.11.73,2.57,2.57,0,0,1,.79,2v.63a2.52,2.52,0,0,1-.78,1.94,2.94,2.94,0,0,1-2.1.74,3.07,3.07,0,0,1-2.12-.73,2.58,2.58,0,0,1-.79-2Zm1.92.69a1.07,1.07,0,0,0,.29.73.9.9,0,0,0,.7.31.81.81,0,0,0,.93-.81v-.92a1.08,1.08,0,0,0-.26-.76.88.88,0,0,0-.7-.28.9.9,0,0,0-.69.27,1.12,1.12,0,0,0-.28.73Z"></path> </svg> 