<?xml version="1.0" encoding="UTF-8"?> <!-- Generator: Adobe Illustrator 24.0.2, SVG Export Plug-In . SVG Version: 6.00 Build 0) --> <svg xmlns="http://www.w3.org/2000/svg" xmlns:xlink="http://www.w3.org/1999/xlink" id="Capa_1" x="0px" y="0px" viewBox="0 0 154 142" style="enable-background:new 0 0 154 142;" xml:space="preserve"> <style type="text/css"> .st0{fill:#00BFBF;} .st1{fill:#25858C;stroke:#25858C;stroke-width:2;stroke-miterlimit:10;} .st2{fill:#25858C;} .st3{fill:#2E5D87;} .st4{fill:#FFFFFF;} .st5{fill:none;stroke:#2E5D87;stroke-width:4.5;stroke-miterlimit:10;} .st6{fill:#2E5D87;stroke:#2E5D87;stroke-width:0.25;stroke-miterlimit:10;} .st7{fill:none;stroke:#25858C;stroke-width:4;stroke-linecap:round;stroke-miterlimit:10;} </style> <g> <path class="st0" d="M77.06,44.78c19.23,0.91,33.93,10.65,46.65,24.09c0.75,0.79,0.61,3.67-0.22,4.53 c-30.33,31.68-63.09,31.33-93.06-0.07c-0.8-0.84-0.87-3.72-0.1-4.53C43.08,55.38,57.78,45.64,77.06,44.78z M53.22,55.17 c-5.91,4.74-11.87,9.43-17.64,14.33c-0.52,0.44-0.28,2.81,0.39,3.46c27.44,26.42,54.39,26.55,82.01,0.06 c0.69-0.66,1.19-2.79,0.81-3.11c-5.8-4.95-11.75-9.71-17.67-14.51c1.89,13.1-0.9,23.14-11.47,29.95 c-8.3,5.35-17.19,5.32-25.46-0.08C53.48,78.28,50.93,68.06,53.22,55.17z M75.89,49.08c-4.87,1.42-12.22-0.75-16.22,6.21 c-4.46,7.75-3.04,17.54,3.35,23.85c6.39,6.31,16.13,7.56,23.9,3.07c7.82-4.52,11.6-13.58,9.26-22.19 C93.9,51.61,89.5,49.1,75.89,49.08z"></path> <path class="st0" d="M77.22,54.94c5.56,0.12,10.02,4.84,9.83,10.4c-0.19,5.36-4.67,9.7-10.03,9.71 c-5.57,0.01-10.13-4.58-10.07-10.16C67,59.31,71.64,54.82,77.22,54.94z"></path> </g> </svg> 